# Blender 4.4.1
# www.blender.org
mtllib effect.mtl
o Circle.001
v 0.000000 0.000000 1.000000
v 0.195090 0.000000 0.980785
v 0.382683 0.000000 0.923880
v 0.555570 0.000000 0.831470
v 0.707107 0.000000 0.707107
v 0.831470 0.000000 0.555570
v 0.923880 0.000000 0.382683
v 0.980785 0.000000 0.195090
v 1.000000 0.000000 0.000000
v 0.980785 0.000000 -0.195090
v 0.923880 0.000000 -0.382683
v 0.831470 0.000000 -0.555570
v 0.707107 0.000000 -0.707107
v 0.555570 0.000000 -0.831470
v 0.382683 0.000000 -0.923880
v 0.195090 0.000000 -0.980785
v 0.000000 0.000000 -1.000000
v -0.195090 0.000000 -0.980785
v -0.382683 0.000000 -0.923880
v -0.555570 0.000000 -0.831470
v -0.707107 0.000000 -0.707107
v -0.831470 0.000000 -0.555570
v -0.923880 0.000000 -0.382683
v -0.980785 0.000000 -0.195090
v -1.000000 0.000000 0.000000
v -0.980785 0.000000 0.195090
v -0.923880 0.000000 0.382683
v -0.831470 0.000000 0.555570
v -0.707107 0.000000 0.707107
v -0.555570 0.000000 0.831470
v -0.382683 0.000000 0.923880
v -0.195090 0.000000 0.980785
v 0.000616 0.000000 0.003098
v 0.000000 0.000000 0.003159
v 0.001209 0.000000 0.002918
v 0.001755 0.000000 0.002626
v 0.002233 0.000000 0.002233
v 0.002626 0.000000 0.001755
v 0.002918 0.000000 0.001209
v 0.003098 0.000000 0.000616
v 0.003159 0.000000 0.000000
v 0.003098 0.000000 -0.000616
v 0.002918 0.000000 -0.001209
v 0.002626 0.000000 -0.001755
v 0.002233 0.000000 -0.002233
v 0.001755 0.000000 -0.002626
v 0.001209 0.000000 -0.002918
v 0.000616 0.000000 -0.003098
v 0.000000 0.000000 -0.003159
v -0.000616 0.000000 -0.003098
v -0.001209 0.000000 -0.002918
v -0.001755 0.000000 -0.002626
v -0.002233 0.000000 -0.002233
v -0.002626 0.000000 -0.001755
v -0.002918 0.000000 -0.001209
v -0.003098 0.000000 -0.000616
v -0.003159 0.000000 0.000000
v -0.003098 0.000000 0.000616
v -0.002918 0.000000 0.001209
v -0.002626 0.000000 0.001755
v -0.002233 0.000000 0.002233
v -0.001755 0.000000 0.002626
v -0.001209 0.000000 0.002918
v -0.000616 0.000000 0.003098
vn -0.0000 1.0000 -0.0000
vt 0.012036 -0.001134
vt 1.002543 0.983609
vt 1.002054 -0.001164
vt 0.012036 -0.001150
vt 1.002146 0.983629
vt 1.002146 -0.001150
vt 1.002056 -0.001164
vt 0.012534 0.983639
vt 1.002544 0.983609
vt 0.012046 -0.001150
vt 1.002147 0.983629
vt 1.002147 -0.001150
vt 0.012036 -0.001136
vt 1.002146 0.983618
vt 1.002146 -0.001136
vt 0.012056 -0.001164
vt 1.002545 0.983639
vt 1.002057 -0.001164
vt 0.012056 -0.001150
vt 1.002149 0.983629
vt 1.002149 -0.001150
vt 0.012046 -0.001136
vt 1.002147 0.983618
vt 1.002147 -0.001136
vt 0.012056 -0.001136
vt 1.002149 0.983618
vt 1.002149 -0.001136
vt 0.012525 0.983639
vt 0.012046 -0.001134
vt 1.002146 0.983629
vt 0.012046 0.983629
vt 1.002147 0.983629
vt 1.002149 0.983629
vt 0.012048 -0.001164
vt 1.002537 0.983639
vt 1.002048 -0.001164
vt 0.012036 0.983629
vt 0.012048 -0.001120
vt 1.002140 0.983629
vt 1.002140 -0.001150
vt 0.012046 -0.001148
vt 1.002147 0.983620
vt 1.002147 -0.001148
vt 0.012056 -0.001148
vt 1.002149 0.983620
vt 1.002149 -0.001148
vt 0.012048 -0.001106
vt 1.002140 0.983618
vt 1.002140 -0.001136
vt 0.012036 -0.001148
vt 1.002146 0.983620
vt 1.002146 -0.001148
vt 0.012036 0.983618
vt 0.012544 0.983639
vt 0.012056 0.983629
vt 0.012046 0.983618
vt 0.012056 0.983618
vt 0.012036 0.983629
vt 0.012046 0.983629
vt 0.012056 0.983629
vt 0.012537 0.983639
vt 0.012048 0.983659
vt 0.012046 0.983620
vt 0.012056 0.983620
vt 0.012048 0.983648
vt 0.012036 0.983620
s 0
usemtl Material.001
f 34/1/1 2/2/1 33/3/1
f 33/4/1 3/5/1 35/6/1
f 36/7/1 3/8/1 4/9/1
f 36/10/1 5/11/1 37/12/1
f 37/13/1 6/14/1 38/15/1
f 38/16/1 7/17/1 39/18/1
f 39/19/1 8/20/1 40/21/1
f 40/22/1 9/23/1 41/24/1
f 41/25/1 10/26/1 42/27/1
f 42/1/1 11/2/1 43/3/1
f 44/3/1 11/28/1 12/2/1
f 44/29/1 13/9/1 45/7/1
f 45/4/1 14/5/1 46/6/1
f 46/16/1 15/17/1 47/18/1
f 47/13/1 16/14/1 48/15/1
f 48/1/1 17/2/1 49/3/1
f 49/4/1 18/30/1 50/6/1
f 50/29/1 19/9/1 51/7/1
f 52/12/1 19/31/1 20/11/1
f 52/10/1 21/32/1 53/12/1
f 53/19/1 22/33/1 54/21/1
f 54/22/1 23/23/1 55/24/1
f 55/29/1 24/9/1 56/7/1
f 56/4/1 25/30/1 57/6/1
f 57/10/1 26/32/1 58/12/1
f 58/34/1 27/35/1 59/36/1
f 60/6/1 27/37/1 28/5/1
f 60/38/1 29/39/1 61/40/1
f 61/41/1 30/42/1 62/43/1
f 62/44/1 31/45/1 63/46/1
f 63/47/1 32/48/1 64/49/1
f 64/50/1 1/51/1 34/52/1
f 34/1/1 1/28/1 2/2/1
f 33/4/1 2/37/1 3/5/1
f 36/7/1 35/29/1 3/8/1
f 36/10/1 4/31/1 5/11/1
f 37/13/1 5/53/1 6/14/1
f 38/16/1 6/54/1 7/17/1
f 39/19/1 7/55/1 8/20/1
f 40/22/1 8/56/1 9/23/1
f 41/25/1 9/57/1 10/26/1
f 42/1/1 10/28/1 11/2/1
f 44/3/1 43/1/1 11/28/1
f 44/29/1 12/8/1 13/9/1
f 45/4/1 13/37/1 14/5/1
f 46/16/1 14/54/1 15/17/1
f 47/13/1 15/53/1 16/14/1
f 48/1/1 16/28/1 17/2/1
f 49/4/1 17/58/1 18/30/1
f 50/29/1 18/8/1 19/9/1
f 52/12/1 51/10/1 19/31/1
f 52/10/1 20/59/1 21/32/1
f 53/19/1 21/60/1 22/33/1
f 54/22/1 22/56/1 23/23/1
f 55/29/1 23/8/1 24/9/1
f 56/4/1 24/58/1 25/30/1
f 57/10/1 25/59/1 26/32/1
f 58/34/1 26/61/1 27/35/1
f 60/6/1 59/4/1 27/37/1
f 60/38/1 28/62/1 29/39/1
f 61/41/1 29/63/1 30/42/1
f 62/44/1 30/64/1 31/45/1
f 63/47/1 31/65/1 32/48/1
f 64/50/1 32/66/1 1/51/1
