# Blender 4.4.1
# www.blender.org
mtllib effect.mtl
o Circle
v 0.000000 0.000000 1.000000
v 0.707107 0.000000 0.707107
v 1.000000 0.000000 0.000000
v 0.707107 0.000000 -0.707107
v 0.000000 0.000000 -1.000000
v -0.707107 0.000000 -0.707107
v -1.000000 0.000000 0.000000
v -0.707107 0.000000 0.707107
v 0.072949 0.000000 0.072949
v -0.000000 0.000000 0.103165
v 0.103165 0.000000 -0.000000
v 0.072949 0.000000 -0.072949
v -0.000000 0.000000 -0.103165
v -0.072949 0.000000 -0.072949
v -0.103165 0.000000 -0.000000
v -0.072949 0.000000 0.072949
vn -0.0000 1.0000 -0.0000
vt 1.001793 0.004564
vt 0.001398 0.999718
vt 1.001793 0.999718
vt 0.002187 0.999718
vt 0.002187 0.004564
vt 0.000167 0.000096
vt 0.999814 0.999904
vt 0.000096 0.999904
vt 0.624424 0.004564
vt -0.000181 0.999717
vt -0.000181 0.004564
vt 1.000214 0.004564
vt 1.000214 0.999717
vt 0.000608 0.999717
vt 0.000608 0.004564
vt 1.001003 0.004564
vt 1.001003 0.999718
vt 0.001398 0.004564
vt 0.999742 0.000096
vt 0.999424 0.999717
s 0
usemtl Material.001
f 9/1/1 1/2/1 2/3/1
f 9/1/1 3/4/1 11/5/1
f 12/6/1 3/7/1 4/8/1
f 12/9/1 5/10/1 13/11/1
f 14/12/1 5/10/1 6/13/1
f 14/12/1 7/14/1 15/15/1
f 16/16/1 7/14/1 8/17/1
f 16/16/1 1/2/1 10/18/1
f 9/1/1 10/18/1 1/2/1
f 9/1/1 2/3/1 3/4/1
f 12/6/1 11/19/1 3/7/1
f 12/9/1 4/20/1 5/10/1
f 14/12/1 13/11/1 5/10/1
f 14/12/1 6/13/1 7/14/1
f 16/16/1 15/15/1 7/14/1
f 16/16/1 8/17/1 1/2/1
