# Blender 4.4.1
# www.blender.org
mtllib crowbarItem.mtl
o Cylinder
v -0.008125 -0.001475 0.331012
v 0.008125 0.003073 0.331012
v 0.008125 -0.001475 0.331012
v -0.008125 0.003073 0.331012
v -0.014034 -0.007031 0.277161
v -0.014034 0.007031 0.277161
v 0.014034 -0.007031 0.277161
v 0.014034 0.007031 0.277161
v 0.014034 0.007031 -0.408055
v 0.014034 -0.007031 -0.408055
v 0.008125 0.002375 0.408055
v 0.008125 -0.000883 0.408055
v -0.014034 0.007031 -0.408055
v -0.014034 -0.007031 -0.408055
v -0.008125 0.002375 0.408055
v -0.008125 -0.000883 0.408055
v 0.018083 -0.001475 0.349556
v 0.018083 0.003073 0.349556
v 0.018083 0.002375 0.408055
v 0.018083 -0.000883 0.408055
v -0.018083 -0.000883 0.408055
v -0.018083 0.002375 0.408055
v -0.018083 0.003073 0.349556
v -0.018083 -0.001475 0.349556
vn -0.0000 -1.0000 -0.0000
vn -0.0000 1.0000 0.0091
vn -0.0000 -1.0000 0.0077
vn -0.0000 -0.0000 1.0000
vn -0.0000 -0.0000 -1.0000
vn -0.9940 -0.0000 0.1091
vn -1.0000 -0.0000 -0.0000
vn 1.0000 -0.0000 -0.0000
vn -0.0000 1.0000 -0.0000
vn 0.9940 -0.0000 0.1091
vn -0.0000 -0.9947 0.1026
vn -0.0000 0.9973 0.0733
vn 0.8810 -0.0000 -0.4731
vn -0.0169 0.9998 0.0091
vn -0.0143 -0.9999 0.0077
vn 0.0169 0.9998 0.0091
vn -0.8810 -0.0000 -0.4731
vn 0.0143 -0.9999 0.0077
vn -0.0000 0.9999 0.0119
vn -0.0000 -0.9999 0.0101
vt 0.699865 0.933280
vt 0.744115 0.817755
vt 0.744115 0.933280
vt 0.486434 0.954759
vt 0.413540 0.960861
vt 0.413540 0.954759
vt 0.413540 0.932431
vt 0.486434 0.926328
vt 0.486434 0.932431
vt 0.413540 0.904000
vt 0.413540 0.926328
vt 0.744115 0.977530
vt 0.597504 0.782443
vt 0.626559 0.817755
vt 0.597504 0.817755
vt 0.597504 0.933280
vt 0.670809 0.933280
vt 0.699865 0.817755
vt 0.626559 0.933280
vt 0.670809 0.817755
vt 0.699865 0.782443
vt 0.744115 0.782443
vt 0.670809 0.782443
vt 0.380693 0.932431
vt 0.332828 0.926328
vt 0.380693 0.926328
vt 0.380693 0.954759
vt 0.519280 0.960861
vt 0.567145 0.954759
vt 0.567145 0.960861
vt 0.519280 0.904000
vt 0.486434 0.904000
vt 0.519280 0.954759
vt 0.486434 0.960861
vt 0.519280 0.932431
vt 0.699865 0.977530
vt 0.626559 0.782443
vt 0.332828 0.932431
vt 0.380693 0.960861
vt 0.380693 0.904000
vt 0.519280 0.926328
s 0
usemtl Material.003
f 10/1/1 5/2/1 14/3/1
f 4/4/2 11/5/2 2/6/2
f 3/7/3 16/8/3 1/9/3
f 11/10/4 16/8/4 12/11/4
f 13/12/5 10/1/5 14/3/5
f 1/13/6 6/14/6 5/15/6
f 6/14/7 14/16/7 5/15/7
f 9/17/8 7/18/8 10/1/8
f 13/19/9 8/20/9 9/17/9
f 8/20/10 3/21/10 7/18/10
f 7/18/11 1/22/11 5/2/11
f 6/14/12 2/23/12 8/20/12
f 17/24/8 19/25/8 20/26/8
f 18/27/13 3/7/13 2/6/13
f 11/5/14 18/27/14 2/6/14
f 20/26/4 11/10/4 12/11/4
f 17/24/15 12/11/15 3/7/15
f 22/28/7 24/29/7 21/30/7
f 22/31/4 16/8/4 15/32/4
f 23/33/16 15/34/16 4/4/16
f 24/35/17 4/4/17 1/9/17
f 16/8/18 24/35/18 1/9/18
f 10/1/1 7/18/1 5/2/1
f 4/4/2 15/34/2 11/5/2
f 3/7/3 12/11/3 16/8/3
f 11/10/4 15/32/4 16/8/4
f 13/12/5 9/36/5 10/1/5
f 1/13/6 4/37/6 6/14/6
f 6/14/7 13/19/7 14/16/7
f 9/17/8 8/20/8 7/18/8
f 13/19/9 6/14/9 8/20/9
f 8/20/10 2/23/10 3/21/10
f 7/18/11 3/21/11 1/22/11
f 6/14/12 4/37/12 2/23/12
f 17/24/8 18/38/8 19/25/8
f 18/27/13 17/24/13 3/7/13
f 11/5/19 19/39/19 18/27/19
f 20/26/4 19/40/4 11/10/4
f 17/24/20 20/26/20 12/11/20
f 22/28/7 23/33/7 24/29/7
f 22/31/4 21/41/4 16/8/4
f 23/33/19 22/28/19 15/34/19
f 24/35/17 23/33/17 4/4/17
f 16/8/20 21/41/20 24/35/20
