{
	"asset":{
		"generator":"Khronos glTF Blender I/O v4.4.56",
		"version":"2.0"
	},
	"scene":0,
	"scenes":[
		{
			"name":"Scene",
			"nodes":[
				12
			]
		}
	],
	"nodes":[
		{
			"name":"head",
			"rotation":[
				0,
				-8.526512829121202e-14,
				0,
				1
			],
			"scale":[
				1,
				0.9999999403953552,
				1
			],
			"translation":[
				-3.322266374689809e-17,
				0.3220931887626648,
				0
			]
		},
		{
			"children":[
				0
			],
			"name":"spine",
			"rotation":[
				0.7071067690849304,
				8.429375242258175e-08,
				8.429375242258175e-08,
				0.7071067690849304
			],
			"translation":[
				-4.168503905067078e-17,
				-0.0790453553199768,
				-0.08657348155975342
			]
		},
		{
			"name":"lowerLeg_L.001",
			"rotation":[
				0.0027202535420656204,
				-4.5274413423612714e-05,
				0.10172948241233826,
				0.9948083758354187
			],
			"scale":[
				0.9999999403953552,
				1,
				0.9999998807907104
			],
			"translation":[
				-1.6589183360338211e-09,
				0.2947029769420624,
				-6.426944310078397e-09
			]
		},
		{
			"children":[
				2
			],
			"name":"upperLeg_L",
			"rotation":[
				-0.5099597573280334,
				-0.06270451098680496,
				0.019268404692411423,
				0.8576933741569519
			],
			"scale":[
				1,
				1.0000001192092896,
				1.0000001192092896
			],
			"translation":[
				1.4551915228366852e-10,
				0.12669490277767181,
				-6.817060693720123e-09
			]
		},
		{
			"children":[
				3
			],
			"name":"hip.L",
			"rotation":[
				-0.19700032472610474,
				0.16981829702854156,
				-0.7304849624633789,
				0.6314620971679688
			],
			"scale":[
				0.9999998211860657,
				0.9999998211860657,
				0.9999998807907104
			],
			"translation":[
				-4.168503905067078e-17,
				-0.0790453553199768,
				-0.08657348155975342
			]
		},
		{
			"name":"lowerLeg_R.001",
			"rotation":[
				0.0027202535420656204,
				4.5274413423612714e-05,
				-0.10172948241233826,
				0.9948083758354187
			],
			"scale":[
				0.9999999403953552,
				1,
				0.9999998807907104
			],
			"translation":[
				1.6589183360338211e-09,
				0.2947029769420624,
				-6.426944310078397e-09
			]
		},
		{
			"children":[
				5
			],
			"name":"upperLeg_R",
			"rotation":[
				-0.5099597573280334,
				0.06270451098680496,
				-0.019268404692411423,
				0.8576933741569519
			],
			"scale":[
				1,
				1.0000001192092896,
				1.0000001192092896
			],
			"translation":[
				-1.4551915228366852e-10,
				0.12669490277767181,
				-6.817060693720123e-09
			]
		},
		{
			"children":[
				6
			],
			"name":"hip.R",
			"rotation":[
				-0.19700032472610474,
				-0.16981829702854156,
				0.7304849624633789,
				0.6314620971679688
			],
			"scale":[
				0.9999998211860657,
				0.9999998211860657,
				0.9999998807907104
			],
			"translation":[
				2.476028678876417e-17,
				-0.0790453553199768,
				-0.08657348155975342
			]
		},
		{
			"children":[
				1,
				4,
				7
			],
			"name":"root",
			"rotation":[
				-0.7071067690849304,
				0,
				0,
				0.7071067690849304
			],
			"translation":[
				8.462376958133919e-18,
				0.8921360373497009,
				-0.09713428467512131
			]
		},
		{
			"name":"leg_IK_R",
			"rotation":[
				-0.49262967705726624,
				-0.5072633028030396,
				0.5072633624076843,
				0.49262967705726624
			],
			"scale":[
				0.9999999403953552,
				0.9999999403953552,
				0.9999999403953552
			],
			"translation":[
				-0.08469145745038986,
				-0.01425087358802557,
				-0.018089033663272858
			]
		},
		{
			"name":"leg_IK_L",
			"rotation":[
				-0.49262967705726624,
				0.5072633028030396,
				-0.5072633624076843,
				0.49262967705726624
			],
			"scale":[
				0.9999999403953552,
				0.9999999403953552,
				0.9999999403953552
			],
			"translation":[
				0.08469145745038986,
				-0.01425087358802557,
				-0.018089033663272858
			]
		},
		{
			"mesh":0,
			"name":"Sphere",
			"skin":0
		},
		{
			"children":[
				11,
				8,
				9,
				10
			],
			"name":"Armature.003"
		}
	],
	"animations":[
		{
			"channels":[
				{
					"sampler":0,
					"target":{
						"node":8,
						"path":"translation"
					}
				},
				{
					"sampler":1,
					"target":{
						"node":8,
						"path":"rotation"
					}
				},
				{
					"sampler":2,
					"target":{
						"node":8,
						"path":"scale"
					}
				},
				{
					"sampler":3,
					"target":{
						"node":1,
						"path":"translation"
					}
				},
				{
					"sampler":4,
					"target":{
						"node":1,
						"path":"rotation"
					}
				},
				{
					"sampler":5,
					"target":{
						"node":1,
						"path":"scale"
					}
				},
				{
					"sampler":6,
					"target":{
						"node":0,
						"path":"translation"
					}
				},
				{
					"sampler":7,
					"target":{
						"node":0,
						"path":"rotation"
					}
				},
				{
					"sampler":8,
					"target":{
						"node":0,
						"path":"scale"
					}
				},
				{
					"sampler":9,
					"target":{
						"node":4,
						"path":"translation"
					}
				},
				{
					"sampler":10,
					"target":{
						"node":4,
						"path":"rotation"
					}
				},
				{
					"sampler":11,
					"target":{
						"node":4,
						"path":"scale"
					}
				},
				{
					"sampler":12,
					"target":{
						"node":3,
						"path":"translation"
					}
				},
				{
					"sampler":13,
					"target":{
						"node":3,
						"path":"rotation"
					}
				},
				{
					"sampler":14,
					"target":{
						"node":3,
						"path":"scale"
					}
				},
				{
					"sampler":15,
					"target":{
						"node":2,
						"path":"translation"
					}
				},
				{
					"sampler":16,
					"target":{
						"node":2,
						"path":"rotation"
					}
				},
				{
					"sampler":17,
					"target":{
						"node":2,
						"path":"scale"
					}
				},
				{
					"sampler":18,
					"target":{
						"node":7,
						"path":"translation"
					}
				},
				{
					"sampler":19,
					"target":{
						"node":7,
						"path":"rotation"
					}
				},
				{
					"sampler":20,
					"target":{
						"node":7,
						"path":"scale"
					}
				},
				{
					"sampler":21,
					"target":{
						"node":6,
						"path":"translation"
					}
				},
				{
					"sampler":22,
					"target":{
						"node":6,
						"path":"rotation"
					}
				},
				{
					"sampler":23,
					"target":{
						"node":6,
						"path":"scale"
					}
				},
				{
					"sampler":24,
					"target":{
						"node":5,
						"path":"translation"
					}
				},
				{
					"sampler":25,
					"target":{
						"node":5,
						"path":"rotation"
					}
				},
				{
					"sampler":26,
					"target":{
						"node":5,
						"path":"scale"
					}
				},
				{
					"sampler":27,
					"target":{
						"node":9,
						"path":"translation"
					}
				},
				{
					"sampler":28,
					"target":{
						"node":9,
						"path":"rotation"
					}
				},
				{
					"sampler":29,
					"target":{
						"node":9,
						"path":"scale"
					}
				},
				{
					"sampler":30,
					"target":{
						"node":10,
						"path":"translation"
					}
				},
				{
					"sampler":31,
					"target":{
						"node":10,
						"path":"rotation"
					}
				},
				{
					"sampler":32,
					"target":{
						"node":10,
						"path":"scale"
					}
				}
			],
			"name":"Armature.003Action",
			"samplers":[
				{
					"input":13,
					"interpolation":"LINEAR",
					"output":14
				},
				{
					"input":15,
					"interpolation":"STEP",
					"output":16
				},
				{
					"input":15,
					"interpolation":"STEP",
					"output":17
				},
				{
					"input":15,
					"interpolation":"STEP",
					"output":18
				},
				{
					"input":13,
					"interpolation":"LINEAR",
					"output":19
				},
				{
					"input":15,
					"interpolation":"STEP",
					"output":20
				},
				{
					"input":15,
					"interpolation":"STEP",
					"output":21
				},
				{
					"input":13,
					"interpolation":"LINEAR",
					"output":22
				},
				{
					"input":15,
					"interpolation":"STEP",
					"output":23
				},
				{
					"input":15,
					"interpolation":"STEP",
					"output":24
				},
				{
					"input":15,
					"interpolation":"STEP",
					"output":25
				},
				{
					"input":15,
					"interpolation":"STEP",
					"output":26
				},
				{
					"input":15,
					"interpolation":"STEP",
					"output":27
				},
				{
					"input":13,
					"interpolation":"LINEAR",
					"output":28
				},
				{
					"input":15,
					"interpolation":"STEP",
					"output":29
				},
				{
					"input":15,
					"interpolation":"STEP",
					"output":30
				},
				{
					"input":13,
					"interpolation":"LINEAR",
					"output":31
				},
				{
					"input":15,
					"interpolation":"STEP",
					"output":32
				},
				{
					"input":15,
					"interpolation":"STEP",
					"output":33
				},
				{
					"input":15,
					"interpolation":"STEP",
					"output":34
				},
				{
					"input":15,
					"interpolation":"STEP",
					"output":35
				},
				{
					"input":15,
					"interpolation":"STEP",
					"output":36
				},
				{
					"input":13,
					"interpolation":"LINEAR",
					"output":37
				},
				{
					"input":15,
					"interpolation":"STEP",
					"output":38
				},
				{
					"input":15,
					"interpolation":"STEP",
					"output":39
				},
				{
					"input":13,
					"interpolation":"LINEAR",
					"output":40
				},
				{
					"input":15,
					"interpolation":"STEP",
					"output":41
				},
				{
					"input":15,
					"interpolation":"STEP",
					"output":42
				},
				{
					"input":15,
					"interpolation":"STEP",
					"output":43
				},
				{
					"input":15,
					"interpolation":"STEP",
					"output":44
				},
				{
					"input":15,
					"interpolation":"STEP",
					"output":45
				},
				{
					"input":15,
					"interpolation":"STEP",
					"output":46
				},
				{
					"input":15,
					"interpolation":"STEP",
					"output":47
				}
			]
		}
	],
	"materials":[
		{
			"doubleSided":true,
			"name":"Material.002",
			"pbrMetallicRoughness":{
				"baseColorTexture":{
					"index":0
				},
				"metallicFactor":0,
				"roughnessFactor":0.5
			}
		},
		{
			"doubleSided":true,
			"name":"Material.001",
			"pbrMetallicRoughness":{
				"baseColorTexture":{
					"index":1
				},
				"metallicFactor":0,
				"roughnessFactor":0.2991803288459778
			}
		}
	],
	"meshes":[
		{
			"name":"Sphere",
			"primitives":[
				{
					"attributes":{
						"POSITION":0,
						"NORMAL":1,
						"TEXCOORD_0":2,
						"JOINTS_0":3,
						"WEIGHTS_0":4
					},
					"indices":5,
					"material":0
				},
				{
					"attributes":{
						"POSITION":6,
						"NORMAL":7,
						"TEXCOORD_0":8,
						"JOINTS_0":9,
						"WEIGHTS_0":10
					},
					"indices":11,
					"material":1
				}
			]
		}
	],
	"textures":[
		{
			"sampler":0,
			"source":0
		},
		{
			"sampler":0,
			"source":1
		}
	],
	"images":[
		{
			"mimeType":"image/png",
			"name":"tex.002",
			"uri":"tex.002.png"
		},
		{
			"mimeType":"image/png",
			"name":"tex.001",
			"uri":"../building/tex.png"
		}
	],
	"skins":[
		{
			"inverseBindMatrices":12,
			"joints":[
				8,
				1,
				0,
				4,
				3,
				2,
				7,
				6,
				5,
				9,
				10
			],
			"name":"Armature.003"
		}
	],
	"accessors":[
		{
			"bufferView":0,
			"componentType":5126,
			"count":137,
			"max":[
				0.3019103407859802,
				1.515949010848999,
				0.3021158277988434
			],
			"min":[
				-0.3019103407859802,
				0.26925742626190186,
				-0.3021158277988434
			],
			"type":"VEC3"
		},
		{
			"bufferView":1,
			"componentType":5126,
			"count":137,
			"type":"VEC3"
		},
		{
			"bufferView":2,
			"componentType":5126,
			"count":137,
			"type":"VEC2"
		},
		{
			"bufferView":3,
			"componentType":5121,
			"count":137,
			"type":"VEC4"
		},
		{
			"bufferView":4,
			"componentType":5126,
			"count":137,
			"type":"VEC4"
		},
		{
			"bufferView":5,
			"componentType":5123,
			"count":714,
			"type":"SCALAR"
		},
		{
			"bufferView":6,
			"componentType":5126,
			"count":118,
			"max":[
				0.16365700960159302,
				0.727172315120697,
				0.19010579586029053
			],
			"min":[
				-0.16365700960159302,
				0.0019628056325018406,
				-0.12264902144670486
			],
			"type":"VEC3"
		},
		{
			"bufferView":7,
			"componentType":5126,
			"count":118,
			"type":"VEC3"
		},
		{
			"bufferView":8,
			"componentType":5126,
			"count":118,
			"type":"VEC2"
		},
		{
			"bufferView":9,
			"componentType":5121,
			"count":118,
			"type":"VEC4"
		},
		{
			"bufferView":10,
			"componentType":5126,
			"count":118,
			"type":"VEC4"
		},
		{
			"bufferView":11,
			"componentType":5123,
			"count":468,
			"type":"SCALAR"
		},
		{
			"bufferView":12,
			"componentType":5126,
			"count":11,
			"type":"MAT4"
		},
		{
			"bufferView":13,
			"componentType":5126,
			"count":60,
			"max":[
				2.5
			],
			"min":[
				0.041666666666666664
			],
			"type":"SCALAR"
		},
		{
			"bufferView":14,
			"componentType":5126,
			"count":60,
			"type":"VEC3"
		},
		{
			"bufferView":15,
			"componentType":5126,
			"count":2,
			"max":[
				2.5
			],
			"min":[
				0.041666666666666664
			],
			"type":"SCALAR"
		},
		{
			"bufferView":16,
			"componentType":5126,
			"count":2,
			"type":"VEC4"
		},
		{
			"bufferView":17,
			"componentType":5126,
			"count":2,
			"type":"VEC3"
		},
		{
			"bufferView":18,
			"componentType":5126,
			"count":2,
			"type":"VEC3"
		},
		{
			"bufferView":19,
			"componentType":5126,
			"count":60,
			"type":"VEC4"
		},
		{
			"bufferView":20,
			"componentType":5126,
			"count":2,
			"type":"VEC3"
		},
		{
			"bufferView":21,
			"componentType":5126,
			"count":2,
			"type":"VEC3"
		},
		{
			"bufferView":22,
			"componentType":5126,
			"count":60,
			"type":"VEC4"
		},
		{
			"bufferView":23,
			"componentType":5126,
			"count":2,
			"type":"VEC3"
		},
		{
			"bufferView":24,
			"componentType":5126,
			"count":2,
			"type":"VEC3"
		},
		{
			"bufferView":25,
			"componentType":5126,
			"count":2,
			"type":"VEC4"
		},
		{
			"bufferView":26,
			"componentType":5126,
			"count":2,
			"type":"VEC3"
		},
		{
			"bufferView":27,
			"componentType":5126,
			"count":2,
			"type":"VEC3"
		},
		{
			"bufferView":28,
			"componentType":5126,
			"count":60,
			"type":"VEC4"
		},
		{
			"bufferView":29,
			"componentType":5126,
			"count":2,
			"type":"VEC3"
		},
		{
			"bufferView":30,
			"componentType":5126,
			"count":2,
			"type":"VEC3"
		},
		{
			"bufferView":31,
			"componentType":5126,
			"count":60,
			"type":"VEC4"
		},
		{
			"bufferView":32,
			"componentType":5126,
			"count":2,
			"type":"VEC3"
		},
		{
			"bufferView":33,
			"componentType":5126,
			"count":2,
			"type":"VEC3"
		},
		{
			"bufferView":34,
			"componentType":5126,
			"count":2,
			"type":"VEC4"
		},
		{
			"bufferView":35,
			"componentType":5126,
			"count":2,
			"type":"VEC3"
		},
		{
			"bufferView":36,
			"componentType":5126,
			"count":2,
			"type":"VEC3"
		},
		{
			"bufferView":37,
			"componentType":5126,
			"count":60,
			"type":"VEC4"
		},
		{
			"bufferView":38,
			"componentType":5126,
			"count":2,
			"type":"VEC3"
		},
		{
			"bufferView":39,
			"componentType":5126,
			"count":2,
			"type":"VEC3"
		},
		{
			"bufferView":40,
			"componentType":5126,
			"count":60,
			"type":"VEC4"
		},
		{
			"bufferView":41,
			"componentType":5126,
			"count":2,
			"type":"VEC3"
		},
		{
			"bufferView":42,
			"componentType":5126,
			"count":2,
			"type":"VEC3"
		},
		{
			"bufferView":43,
			"componentType":5126,
			"count":2,
			"type":"VEC4"
		},
		{
			"bufferView":44,
			"componentType":5126,
			"count":2,
			"type":"VEC3"
		},
		{
			"bufferView":45,
			"componentType":5126,
			"count":2,
			"type":"VEC3"
		},
		{
			"bufferView":46,
			"componentType":5126,
			"count":2,
			"type":"VEC4"
		},
		{
			"bufferView":47,
			"componentType":5126,
			"count":2,
			"type":"VEC3"
		}
	],
	"bufferViews":[
		{
			"buffer":0,
			"byteLength":1644,
			"byteOffset":0,
			"target":34962
		},
		{
			"buffer":0,
			"byteLength":1644,
			"byteOffset":1644,
			"target":34962
		},
		{
			"buffer":0,
			"byteLength":1096,
			"byteOffset":3288,
			"target":34962
		},
		{
			"buffer":0,
			"byteLength":548,
			"byteOffset":4384,
			"target":34962
		},
		{
			"buffer":0,
			"byteLength":2192,
			"byteOffset":4932,
			"target":34962
		},
		{
			"buffer":0,
			"byteLength":1428,
			"byteOffset":7124,
			"target":34963
		},
		{
			"buffer":0,
			"byteLength":1416,
			"byteOffset":8552,
			"target":34962
		},
		{
			"buffer":0,
			"byteLength":1416,
			"byteOffset":9968,
			"target":34962
		},
		{
			"buffer":0,
			"byteLength":944,
			"byteOffset":11384,
			"target":34962
		},
		{
			"buffer":0,
			"byteLength":472,
			"byteOffset":12328,
			"target":34962
		},
		{
			"buffer":0,
			"byteLength":1888,
			"byteOffset":12800,
			"target":34962
		},
		{
			"buffer":0,
			"byteLength":936,
			"byteOffset":14688,
			"target":34963
		},
		{
			"buffer":0,
			"byteLength":704,
			"byteOffset":15624
		},
		{
			"buffer":0,
			"byteLength":240,
			"byteOffset":16328
		},
		{
			"buffer":0,
			"byteLength":720,
			"byteOffset":16568
		},
		{
			"buffer":0,
			"byteLength":8,
			"byteOffset":17288
		},
		{
			"buffer":0,
			"byteLength":32,
			"byteOffset":17296
		},
		{
			"buffer":0,
			"byteLength":24,
			"byteOffset":17328
		},
		{
			"buffer":0,
			"byteLength":24,
			"byteOffset":17352
		},
		{
			"buffer":0,
			"byteLength":960,
			"byteOffset":17376
		},
		{
			"buffer":0,
			"byteLength":24,
			"byteOffset":18336
		},
		{
			"buffer":0,
			"byteLength":24,
			"byteOffset":18360
		},
		{
			"buffer":0,
			"byteLength":960,
			"byteOffset":18384
		},
		{
			"buffer":0,
			"byteLength":24,
			"byteOffset":19344
		},
		{
			"buffer":0,
			"byteLength":24,
			"byteOffset":19368
		},
		{
			"buffer":0,
			"byteLength":32,
			"byteOffset":19392
		},
		{
			"buffer":0,
			"byteLength":24,
			"byteOffset":19424
		},
		{
			"buffer":0,
			"byteLength":24,
			"byteOffset":19448
		},
		{
			"buffer":0,
			"byteLength":960,
			"byteOffset":19472
		},
		{
			"buffer":0,
			"byteLength":24,
			"byteOffset":20432
		},
		{
			"buffer":0,
			"byteLength":24,
			"byteOffset":20456
		},
		{
			"buffer":0,
			"byteLength":960,
			"byteOffset":20480
		},
		{
			"buffer":0,
			"byteLength":24,
			"byteOffset":21440
		},
		{
			"buffer":0,
			"byteLength":24,
			"byteOffset":21464
		},
		{
			"buffer":0,
			"byteLength":32,
			"byteOffset":21488
		},
		{
			"buffer":0,
			"byteLength":24,
			"byteOffset":21520
		},
		{
			"buffer":0,
			"byteLength":24,
			"byteOffset":21544
		},
		{
			"buffer":0,
			"byteLength":960,
			"byteOffset":21568
		},
		{
			"buffer":0,
			"byteLength":24,
			"byteOffset":22528
		},
		{
			"buffer":0,
			"byteLength":24,
			"byteOffset":22552
		},
		{
			"buffer":0,
			"byteLength":960,
			"byteOffset":22576
		},
		{
			"buffer":0,
			"byteLength":24,
			"byteOffset":23536
		},
		{
			"buffer":0,
			"byteLength":24,
			"byteOffset":23560
		},
		{
			"buffer":0,
			"byteLength":32,
			"byteOffset":23584
		},
		{
			"buffer":0,
			"byteLength":24,
			"byteOffset":23616
		},
		{
			"buffer":0,
			"byteLength":24,
			"byteOffset":23640
		},
		{
			"buffer":0,
			"byteLength":32,
			"byteOffset":23664
		},
		{
			"buffer":0,
			"byteLength":24,
			"byteOffset":23696
		}
	],
	"samplers":[
		{
			"magFilter":9729,
			"minFilter":9987
		}
	],
	"buffers":[
		{
			"byteLength":23720,
			"uri":"locker.bin"
		}
	]
}
