# Blender 4.4.1
# www.blender.org
mtllib box.mtl
o Cylinder.002
v -99.919792 -36.550678 100.080093
v -99.919792 45.688343 100.080093
v -100.080124 -36.550678 -99.919777
v -100.080124 45.688343 -99.919777
v 100.080154 -36.550678 99.919785
v 100.080154 45.688343 99.919785
v 99.919777 -36.550678 -100.080162
v 99.919777 45.688343 -100.080162
v 0.000015 -36.550678 0.000003
vn -1.0000 -0.0000 0.0008
vn 1.0000 -0.0000 -0.0008
vn -0.0000 -1.0000 -0.0000
vn -0.0008 -0.0000 -1.0000
vn -0.0000 1.0000 -0.0000
vt 0.251050 0.001560
vt 0.251050 0.501460
vt 0.001100 0.251510
vt 0.750950 0.501460
vt 0.750950 1.001360
vt 0.501000 0.751410
vt 0.251050 1.001360
vt 0.001100 0.751410
vt 0.251050 0.751410
vt 0.501000 0.251510
vt 1.000900 0.251510
vt 1.000900 0.751410
vt 0.750950 0.001560
s 0
usemtl Material.002
f 2/1/1 3/2/1 1/3/1
f 8/4/2 5/5/2 7/6/2
f 5/7/3 1/8/3 9/9/3
f 4/10/4 7/6/4 3/2/4
f 3/2/3 7/6/3 9/9/3
f 7/6/3 5/7/3 9/9/3
f 1/8/3 3/2/3 9/9/3
f 4/10/5 6/11/5 8/4/5
f 2/1/1 4/10/1 3/2/1
f 8/4/2 6/12/2 5/5/2
f 4/10/4 8/4/4 7/6/4
f 4/10/5 2/13/5 6/11/5
