# Blender 4.4.1
# www.blender.org
mtllib ExplosionFloor.mtl
o Cube
v 0.500000 0.050000 -0.500000
v 0.500000 -0.050000 -0.500000
v 0.500000 0.050000 0.500000
v 0.500000 -0.050000 0.500000
v -0.500000 0.050000 -0.500000
v -0.500000 -0.050000 -0.500000
v -0.500000 0.050000 0.500000
v -0.500000 -0.050000 0.500000
vn -0.0000 1.0000 -0.0000
vn -0.0000 -0.0000 1.0000
vn -1.0000 -0.0000 -0.0000
vn -0.0000 -1.0000 -0.0000
vn 1.0000 -0.0000 -0.0000
vn -0.0000 -0.0000 -1.0000
vt 0.500125 0.500125
vt 0.045397 0.954353
vt 0.045647 0.499875
vt 0.499850 1.000051
vt 0.045372 0.999801
vt 0.499875 0.954603
vt 0.545573 0.500150
vt 0.545323 0.954628
vt 0.045384 0.976887
vt 0.499863 0.977138
vt -0.000051 0.954328
vt 0.000199 0.499850
vt 0.045672 0.454427
vt 0.500150 0.454677
s 0
usemtl Material
f 5/1/1 3/2/1 1/3/1
f 3/2/2 8/4/2 4/5/2
f 7/6/3 6/7/3 8/8/3
f 2/9/4 8/4/4 6/10/4
f 1/3/5 4/11/5 2/12/5
f 5/1/6 2/13/6 6/14/6
f 5/1/1 7/6/1 3/2/1
f 3/2/2 7/6/2 8/4/2
f 7/6/3 5/1/3 6/7/3
f 2/9/4 4/5/4 8/4/4
f 1/3/5 3/2/5 4/11/5
f 5/1/6 1/3/6 2/13/6
