# Blender 4.4.1
# www.blender.org
mtllib Floor.mtl
o Cube
v 0.377838 0.116565 -0.377838
v 0.500000 -0.050000 -0.500000
v 0.377838 0.116565 0.377838
v 0.500000 -0.050000 0.500000
v -0.377838 0.116565 -0.377838
v -0.500000 -0.050000 -0.500000
v -0.377838 0.116565 0.377838
v -0.500000 -0.050000 0.500000
v 0.500000 0.050000 0.500000
v -0.500000 0.050000 0.500000
v 0.500000 0.050000 -0.500000
v -0.500000 0.050000 -0.500000
vn -0.0000 1.0000 -0.0000
vn -0.0000 -0.0000 1.0000
vn -1.0000 -0.0000 -0.0000
vn -0.0000 -1.0000 -0.0000
vn 1.0000 -0.0000 -0.0000
vn -0.0000 -0.0000 -1.0000
vn -0.0000 0.8781 0.4785
vn 0.4785 0.8781 -0.0000
vn -0.4785 0.8781 -0.0000
vn -0.0000 0.8781 -0.4785
vt 0.719422 0.530535
vt 0.530535 0.719422
vt 0.530535 0.530535
vt 0.500000 0.749957
vt 0.250043 0.999913
vt 0.250043 0.749957
vt 0.500000 0.000087
vt 0.250043 0.250043
vt 0.250043 0.000087
vt 0.250043 0.500000
vt 0.000087 0.749957
vt 0.000087 0.500000
vt 0.500000 0.500000
vt 0.500000 0.250043
vt 0.719422 0.719422
vt 0.749957 0.749957
vt 0.749957 0.500000
vt 0.500000 0.999913
s 0
usemtl Material
f 5/1/1 3/2/1 1/3/1
f 9/4/2 8/5/2 4/6/2
f 10/7/3 6/8/3 8/9/3
f 2/10/4 8/11/4 6/12/4
f 11/13/5 4/6/5 2/10/5
f 12/14/6 2/10/6 6/8/6
f 7/15/7 9/4/7 3/2/7
f 3/2/8 11/13/8 1/3/8
f 5/1/9 10/16/9 7/15/9
f 1/3/10 12/17/10 5/1/10
f 5/1/1 7/15/1 3/2/1
f 9/4/2 10/18/2 8/5/2
f 10/7/3 12/14/3 6/8/3
f 2/10/4 4/6/4 8/11/4
f 11/13/5 9/4/5 4/6/5
f 12/14/6 11/13/6 2/10/6
f 7/15/7 10/16/7 9/4/7
f 3/2/8 9/4/8 11/13/8
f 5/1/9 12/17/9 10/16/9
f 1/3/10 11/13/10 12/17/10
