# Blender 4.4.1
# www.blender.org
mtllib HardFloor.mtl
o Cube
v 0.500000 0.050000 -0.500000
v 0.500000 -0.050000 -0.500000
v 0.500000 0.050000 0.500000
v 0.500000 -0.050000 0.500000
v -0.500000 0.050000 -0.500000
v -0.500000 -0.050000 -0.500000
v -0.500000 0.050000 0.500000
v -0.500000 -0.050000 0.500000
vn -0.0000 1.0000 -0.0000
vn -0.0000 -0.0000 1.0000
vn -1.0000 -0.0000 -0.0000
vn -0.0000 -1.0000 -0.0000
vn 1.0000 -0.0000 -0.0000
vn -0.0000 -0.0000 -1.0000
vt 0.045522 0.954478
vt 0.500000 0.500000
vt 0.500000 0.954478
vt 0.045522 0.454552
vt 0.500000 0.454552
vt 0.045522 0.500000
vt 0.000074 0.954478
vt 0.000074 0.500000
vt 0.500000 0.000074
vt 0.045522 0.000074
vt 0.545448 0.500000
vt 0.545448 0.954478
vt 0.500000 0.999926
vt 0.045522 0.999926
s 0
usemtl Material
f 5/1/1 3/2/1 1/3/1
f 3/2/2 8/4/2 4/5/2
f 7/6/3 6/7/3 8/8/3
f 2/9/4 8/4/4 6/10/4
f 1/3/5 4/11/5 2/12/5
f 5/1/6 2/13/6 6/14/6
f 5/1/1 7/6/1 3/2/1
f 3/2/2 7/6/2 8/4/2
f 7/6/3 5/1/3 6/7/3
f 2/9/4 4/5/4 8/4/4
f 1/3/5 3/2/5 4/11/5
f 5/1/6 1/3/6 2/13/6
