# Blender 4.4.1
# www.blender.org
mtllib mummyRoom.mtl
o Plane.001
v 11.999995 -0.041092 11.982493
v 11.999997 -0.041093 -12.000834
v 11.999996 2.833907 -12.000834
v 11.999995 2.833907 11.982493
v 11.999994 5.708907 11.982493
v -11.999985 2.833907 -12.000825
v -11.999986 2.833907 11.982502
v -11.999997 -0.041093 11.982502
v -11.999985 -0.041093 -12.000825
v 11.999990 5.708851 -11.984170
v -12.000005 5.708852 11.999166
v -12.000004 11.458852 -11.984162
v 11.999989 11.458851 -11.984168
v 11.999989 8.583852 -11.984168
v 11.999988 8.583852 11.999159
v 11.999988 11.458851 11.999159
v -12.000000 11.458851 11.999166
v -12.000002 5.708851 -11.984162
v -11.999991 8.583852 -11.984160
v -11.999992 8.583852 11.999166
v -12.000004 16.655651 -11.984162
v 11.999989 16.655651 -11.984168
v 11.999988 16.655651 11.999159
v -12.000000 16.655651 11.999166
vn -1.0000 -0.0000 -0.0000
vn -0.0000 -0.0058 1.0000
vn -0.0000 -0.0000 -1.0000
vn 1.0000 -0.0000 -0.0000
vn -0.0000 -0.0000 1.0000
vn -0.0000 0.0058 -1.0000
vn -0.0007 0.0058 -1.0000
vn -0.0007 -0.0000 -1.0000
vt 1.000000 0.274214
vt 0.003032 0.391099
vt 0.000000 0.274214
vt 0.000000 0.864742
vt 1.000000 0.971613
vt 0.000000 0.971613
vt 1.000000 0.750820
vt 0.000000 0.868380
vt 0.000000 0.750820
vt 1.000000 0.633042
vt 0.000000 0.751986
vt 0.000000 0.633042
vt 0.000000 0.505519
vt 1.000000 0.624506
vt 0.000000 0.624506
vt 1.000000 0.391436
vt 0.000000 0.506732
vt 0.000000 0.391436
vt 0.000000 0.150864
vt 1.000000 0.272289
vt 0.000000 0.272289
vt 1.000000 0.022275
vt 0.000000 0.151826
vt 0.000000 0.022275
vt 1.000000 0.505519
vt 1.000000 0.151826
vt 1.000000 0.979531
vt 0.000000 0.979531
vt 1.000000 0.986772
vt 0.000000 0.986772
vt 1.000000 0.971601
vt 0.000000 0.971601
vt 1.000000 0.993194
vt 0.000000 0.993194
vt 1.003032 0.391099
vt 1.000000 0.864742
vt 1.000000 0.868380
vt 1.000000 0.751986
vt 1.000000 0.506732
vt 1.000000 0.150864
s 0
usemtl Material
f 1/1/1 3/2/1 2/3/1
f 6/4/2 10/5/2 18/6/2
f 4/7/1 10/8/1 3/9/1
f 7/10/3 5/11/3 4/12/3
f 7/13/4 18/14/4 11/15/4
f 2/16/5 6/17/5 9/18/5
f 1/19/3 7/20/3 4/21/3
f 9/22/4 7/23/4 8/24/4
f 5/1/1 14/2/1 10/3/1
f 19/4/5 13/5/5 12/6/5
f 15/7/1 13/8/1 14/9/1
f 20/10/3 16/11/3 15/12/3
f 19/25/4 17/15/4 20/13/4
f 10/16/5 19/17/5 18/18/5
f 5/19/6 20/20/6 15/21/6
f 11/24/4 19/26/4 20/23/4
f 17/27/3 23/28/3 16/28/3
f 16/29/1 22/30/1 13/30/1
f 12/31/4 24/32/4 17/32/4
f 13/33/5 21/34/5 12/34/5
f 1/1/1 4/35/1 3/2/1
f 6/4/2 3/36/2 10/5/2
f 4/7/1 5/37/1 10/8/1
f 7/10/7 11/38/7 5/11/7
f 7/13/4 6/25/4 18/14/4
f 2/16/5 3/39/5 6/17/5
f 1/19/3 8/40/3 7/20/3
f 9/22/4 6/26/4 7/23/4
f 5/1/1 15/35/1 14/2/1
f 19/4/5 14/36/5 13/5/5
f 15/7/1 16/37/1 13/8/1
f 20/10/3 17/38/3 16/11/3
f 19/25/4 12/14/4 17/15/4
f 10/16/5 14/39/5 19/17/5
f 5/19/8 11/40/8 20/20/8
f 11/24/4 18/22/4 19/26/4
f 17/27/3 24/27/3 23/28/3
f 16/29/1 23/29/1 22/30/1
f 12/31/4 21/31/4 24/32/4
f 13/33/5 22/33/5 21/34/5
