# Blender 4.4.1
# www.blender.org
mtllib particle.mtl
o Circle
v -0.951057 0.309017 0.220787
v -0.250052 0.344167 0.220787
v -0.587785 -0.809017 0.220787
v -0.404593 -0.131460 0.220787
v 0.587785 -0.809017 0.220787
v 0.000000 -0.425414 0.220787
v 0.951057 0.309017 0.220787
v 0.404593 -0.131460 0.220787
v 0.000000 1.000000 0.220787
v 0.250052 0.344167 0.220787
v 0.000000 1.000000 -0.220787
v 0.951057 0.309017 -0.220787
v 0.587785 -0.809017 -0.220787
v -0.587785 -0.809017 -0.220787
v -0.951057 0.309017 -0.220787
v 0.250052 0.344167 -0.220787
v 0.404593 -0.131460 -0.220787
v 0.000000 -0.425414 -0.220787
v -0.404593 -0.131460 -0.220787
v -0.250052 0.344167 -0.220787
vn -0.0000 -0.0000 1.0000
vn -0.9344 0.3563 -0.0000
vn -0.5465 -0.8374 -0.0000
vn -0.5878 0.8090 -0.0000
vn 0.0501 0.9987 -0.0000
vn -0.9653 0.2610 -0.0000
vn 0.9653 0.2610 -0.0000
vn -0.0000 -0.0000 -1.0000
vn 0.9344 0.3563 -0.0000
vn 0.5465 -0.8374 -0.0000
vn 0.5878 0.8090 -0.0000
vn -0.0501 0.9987 -0.0000
vn 0.6276 -0.7786 -0.0000
vn -0.6276 -0.7786 -0.0000
vt 0.699742 0.819064
vt 0.791163 0.693235
vt 0.910465 0.876038
vt 0.000025 0.400005
vt 0.062934 0.500000
vt 0.000025 0.500000
vt 0.000025 0.899980
vt 0.062935 0.999975
vt 0.000025 0.999975
vt 0.169958 0.575436
vt 0.086114 0.480479
vt 0.169958 0.480478
vt 0.000025 0.599995
vt 0.062935 0.699990
vt 0.000025 0.699990
vt 0.562753 0.397454
vt 0.699742 0.567406
vt 0.551821 0.615468
vt 0.000025 0.100020
vt 0.062934 0.200015
vt 0.000025 0.200015
vt 0.551821 0.771002
vt 0.347855 0.693235
vt 0.910465 0.510432
vt 0.000025 0.799985
vt 0.062935 0.899980
vt 0.535567 0.235074
vt 0.739533 0.312841
vt 0.535567 0.390609
vt 0.062934 0.599995
vt 0.387645 0.438671
vt 0.524635 0.608622
vt 0.176923 0.130039
vt 0.387645 0.187012
vt 0.176923 0.495644
vt 0.296225 0.312841
vt 0.000025 0.000025
vt 0.062934 0.100020
vt 0.169958 0.575760
vt 0.086114 0.670718
vt 0.086114 0.575760
vt 0.000025 0.300010
vt 0.062934 0.400005
vt 0.062935 0.799985
vt 0.062934 0.300010
vt 0.086114 0.575436
vt 0.562753 0.989016
vt 0.524635 0.017060
vt 0.062934 0.000025
vt 0.169958 0.670718
s 0
usemtl Material.001
f 4/1/1 2/2/1 1/3/1
f 20/4/2 9/5/2 11/6/2
f 13/7/3 6/8/3 18/9/3
f 18/10/4 8/11/4 17/12/4
f 16/13/5 7/14/5 12/15/5
f 7/16/1 10/17/1 8/18/1
f 14/19/6 4/20/6 19/21/6
f 4/1/1 6/22/1 5/23/1
f 10/17/1 9/24/1 2/2/1
f 17/25/7 5/26/7 13/7/7
f 19/27/8 15/28/8 20/29/8
f 11/6/9 10/30/9 16/13/9
f 16/31/8 20/29/8 11/32/8
f 13/33/8 18/34/8 19/27/8
f 12/35/8 17/36/8 16/31/8
f 18/37/10 3/38/10 14/19/10
f 18/39/11 4/40/11 6/41/11
f 15/42/12 2/43/12 20/4/12
f 17/25/13 7/14/13 8/44/13
f 19/21/14 1/45/14 15/42/14
f 17/36/8 20/29/8 16/31/8
f 2/2/1 8/18/1 10/17/1
f 20/4/2 2/43/2 9/5/2
f 13/7/3 5/26/3 6/8/3
f 18/10/4 6/46/4 8/11/4
f 16/13/5 10/30/5 7/14/5
f 14/19/6 3/38/6 4/20/6
f 5/23/1 8/18/1 4/1/1
f 4/1/1 3/47/1 6/22/1
f 17/25/7 8/44/7 5/26/7
f 11/6/9 9/5/9 10/30/9
f 19/27/8 17/36/8 13/33/8
f 18/34/8 14/48/8 19/27/8
f 18/37/10 6/49/10 3/38/10
f 18/39/11 19/50/11 4/40/11
f 15/42/12 1/45/12 2/43/12
f 17/25/13 12/15/13 7/14/13
f 19/21/14 4/20/14 1/45/14
f 17/36/8 19/27/8 20/29/8
f 2/2/1 4/1/1 8/18/1
