# Blender 4.4.1
# www.blender.org
mtllib Door.mtl
o ドア
v -1.185942 1.027771 0.166789
v -1.185942 1.027771 -0.166789
v -1.546099 0.875389 0.166789
v -1.546099 0.875389 -0.166789
v -1.820526 0.590869 0.166789
v -1.820526 0.590869 -0.166789
v -1.967446 0.217525 0.166789
v -1.967446 0.217525 -0.166789
v -1.964490 -0.187803 0.166789
v -1.964490 -0.187803 -0.166789
v -1.812108 -0.563409 0.166789
v -1.812108 -0.563409 -0.166789
v -1.533500 -0.852110 0.166789
v -1.533500 -0.852110 -0.166789
v -0.419869 -0.860528 0.166789
v -0.419869 -0.860528 -0.166789
v -0.145441 -0.576008 0.166789
v -0.145441 -0.576008 -0.166789
v 0.001478 -0.202664 0.166789
v 0.001478 -0.202664 -0.166789
v -0.001478 0.202664 0.166789
v -0.001478 0.202664 -0.166789
v -0.153860 0.578270 0.166789
v -0.153860 0.578270 -0.166789
v -0.432468 0.866971 0.166789
v -0.432468 0.866971 -0.166789
v -0.794887 1.024815 0.166789
v -0.794887 1.024815 -0.166789
v 0.000000 0.000000 0.000000
vn -0.3897 0.9210 -0.0000
vn -0.7198 0.6942 -0.0000
vn -0.9305 0.3662 -0.0000
vn -1.0000 -0.0073 -0.0000
vn -0.9266 -0.3759 -0.0000
vn -0.7196 -0.6944 -0.0000
vn 0.7198 -0.6942 -0.0000
vn 0.9305 -0.3662 -0.0000
vn 1.0000 0.0073 -0.0000
vn 0.9266 0.3759 -0.0000
vn 0.7196 0.6944 -0.0000
vn -0.0000 -0.0000 -1.0000
vn 0.3993 0.9168 -0.0000
vn 0.0076 1.0000 -0.0000
vn -0.0000 -0.0000 1.0000
vn -0.0076 -1.0000 -0.0000
vt 0.900992 0.466071
vt 0.857661 0.482978
vt 0.857661 0.466071
vt 0.900992 0.482978
vt 0.857661 0.499884
vt 0.900992 0.516791
vt 0.857661 0.516791
vt 0.900992 0.533698
vt 0.857661 0.533698
vt 0.857661 0.550605
vt 0.900992 0.550605
vt 0.857661 0.567512
vt 0.900992 0.347722
vt 0.857661 0.364629
vt 0.857661 0.347722
vt 0.900992 0.364629
vt 0.857661 0.381536
vt 0.900992 0.381536
vt 0.900992 0.398443
vt 0.879327 0.389990
vt 0.857661 0.415350
vt 0.857661 0.398443
vt 0.900992 0.415350
vt 0.857661 0.432257
vt 0.973049 0.615659
vt 0.912947 0.627614
vt 0.928567 0.549087
vt 0.900992 0.449164
vt 0.857661 0.449164
vt 0.813179 0.549087
vt 0.857661 0.615659
vt 0.797559 0.627614
vt 0.900992 0.567512
vt 0.900992 0.499884
vt 0.900992 0.432257
vt 0.961094 0.555557
vt 0.973049 0.567512
vt 0.979519 0.583132
vt 0.979519 0.600039
vt 0.961094 0.627614
vt 0.945474 0.634084
vt 0.928567 0.634084
vt 0.900992 0.615659
vt 0.912947 0.555557
vt 0.945474 0.549087
vt 0.779134 0.600039
vt 0.779134 0.583132
vt 0.785604 0.567512
vt 0.797559 0.555557
vt 0.830086 0.549087
vt 0.845706 0.555557
vt 0.845706 0.627614
vt 0.830086 0.634084
vt 0.813179 0.634084
vt 0.785604 0.615659
s 0
usemtl マテリアル
f 2/1/1 3/2/1 1/3/1
f 4/4/2 5/5/2 3/2/2
f 5/5/3 8/6/3 7/7/3
f 7/7/4 10/8/4 9/9/4
f 10/8/5 11/10/5 9/9/5
f 12/11/6 13/12/6 11/10/6
f 16/13/7 17/14/7 15/15/7
f 18/16/8 19/17/8 17/14/8
f 20/18/9 22/19/9 29/20/9
f 22/19/10 23/21/10 21/22/10
f 24/23/11 25/24/11 23/21/11
f 26/25/12 18/26/12 10/27/12
f 25/24/13 28/28/13 27/29/13
f 28/28/14 1/3/14 27/29/14
f 7/30/15 15/31/15 23/32/15
f 14/33/16 15/31/16 13/12/16
f 21/22/9 19/17/9 29/20/9
f 22/19/9 21/22/9 29/20/9
f 19/17/9 20/18/9 29/20/9
f 2/1/1 4/4/1 3/2/1
f 4/4/2 6/34/2 5/5/2
f 5/5/3 6/34/3 8/6/3
f 7/7/4 8/6/4 10/8/4
f 10/8/5 12/11/5 11/10/5
f 12/11/6 14/33/6 13/12/6
f 16/13/7 18/16/7 17/14/7
f 18/16/8 20/18/8 19/17/8
f 22/19/10 24/23/10 23/21/10
f 24/23/11 26/35/11 25/24/11
f 6/36/12 4/37/12 2/38/12
f 2/38/12 28/39/12 26/25/12
f 26/25/12 24/40/12 22/41/12
f 22/41/12 20/42/12 18/26/12
f 18/26/12 16/43/12 14/33/12
f 14/33/12 12/44/12 10/27/12
f 10/27/12 8/45/12 6/36/12
f 6/36/12 2/38/12 26/25/12
f 26/25/12 22/41/12 18/26/12
f 18/26/12 14/33/12 10/27/12
f 10/27/12 6/36/12 26/25/12
f 25/24/13 26/35/13 28/28/13
f 28/28/14 2/1/14 1/3/14
f 27/46/15 1/47/15 3/48/15
f 3/48/15 5/49/15 7/30/15
f 7/30/15 9/50/15 11/51/15
f 11/51/15 13/12/15 15/31/15
f 15/31/15 17/52/15 19/53/15
f 19/53/15 21/54/15 23/32/15
f 23/32/15 25/55/15 27/46/15
f 27/46/15 3/48/15 7/30/15
f 7/30/15 11/51/15 15/31/15
f 15/31/15 19/53/15 23/32/15
f 23/32/15 27/46/15 7/30/15
f 14/33/16 16/43/16 15/31/16
o ドアノブ
v -1.550803 -0.091907 -0.432916
v -1.550803 0.106769 -0.432916
v -1.550803 -0.091907 -0.234241
v -1.550803 0.106769 -0.234241
v -1.749478 -0.091907 -0.432916
v -1.749478 0.106769 -0.432916
v -1.749478 -0.091907 -0.234241
v -1.749478 0.106769 -0.234241
v -1.529034 -0.113675 -0.333579
v -1.529034 0.007431 -0.454685
v -1.529034 0.128537 -0.333579
v -1.529034 0.007431 -0.212473
v -1.650140 -0.113675 -0.212473
v -1.650140 0.128537 -0.212473
v -1.771246 0.007431 -0.212473
v -1.771246 -0.113675 -0.333579
v -1.771246 0.128537 -0.333579
v -1.771246 0.007431 -0.454685
v -1.650140 -0.113675 -0.454685
v -1.650140 0.128537 -0.454685
v -1.483351 0.007431 -0.333579
v -1.650140 0.007431 -0.166790
v -1.816929 0.007431 -0.333579
v -1.650140 0.007431 -0.500368
v -1.650140 -0.159358 -0.333579
v -1.650140 0.174220 -0.333579
vn 0.9004 -0.3397 -0.2718
vn 0.9004 0.2717 -0.3397
vn 0.9004 0.2717 0.3397
vn 0.9004 -0.3397 0.2718
vn 0.2717 -0.3397 0.9004
vn 0.3397 0.2717 0.9004
vn -0.3397 0.2717 0.9004
vn -0.2717 -0.3397 0.9004
vn -0.9004 -0.3397 0.2717
vn -0.9004 0.2717 0.3397
vn -0.9004 0.2717 -0.3397
vn -0.9004 -0.3397 -0.2717
vn -0.2717 -0.3397 -0.9004
vn -0.3397 0.2717 -0.9004
vn 0.3397 0.2717 -0.9004
vn 0.2717 -0.3397 -0.9004
vn 0.3397 -0.9004 0.2717
vn -0.2717 -0.9004 0.3397
vn -0.2717 -0.9004 -0.3397
vn 0.3397 -0.9004 -0.2717
vn -0.3397 0.9004 0.2717
vn 0.2717 0.9004 0.3397
vn 0.2717 0.9004 -0.3397
vn -0.3397 0.9004 -0.2717
vn 0.9004 -0.2717 -0.3397
vn 0.9004 0.3397 -0.2718
vn 0.9004 0.3397 0.2718
vn 0.9004 -0.2717 0.3397
vn 0.3397 -0.2717 0.9004
vn 0.2717 0.3397 0.9004
vn -0.2717 0.3397 0.9004
vn -0.3397 -0.2717 0.9004
vn -0.9004 -0.2717 0.3397
vn -0.9004 0.3397 0.2717
vn -0.9004 0.3397 -0.2717
vn -0.9004 -0.2717 -0.3397
vn -0.3397 -0.2717 -0.9004
vn -0.2717 0.3397 -0.9004
vn 0.2717 0.3397 -0.9004
vn 0.3397 -0.2717 -0.9004
vn 0.2717 -0.9004 0.3397
vn -0.3397 -0.9004 0.2717
vn -0.3397 -0.9004 -0.2717
vn 0.2717 -0.9004 -0.3397
vn -0.2717 0.9004 0.3397
vn 0.3397 0.9004 0.2717
vn 0.3397 0.9004 -0.2717
vn -0.2717 0.9004 -0.3397
vt 0.897657 0.790573
vt 0.897413 0.805920
vt 0.888466 0.797000
vt 0.912742 0.806700
vt 0.906640 0.797289
vt 0.898241 0.821246
vt 0.888811 0.815174
vt 0.882068 0.806212
vt 0.882618 0.836781
vt 0.897682 0.836307
vt 0.889875 0.844122
vt 0.888948 0.827524
vt 0.912742 0.835732
vt 0.906473 0.845031
vt 0.897223 0.851371
vt 0.927793 0.851890
vt 0.928069 0.836544
vt 0.936998 0.845482
vt 0.918824 0.845155
vt 0.927273 0.821216
vt 0.936690 0.827308
vt 0.943415 0.836284
vt 0.943415 0.806148
vt 0.928069 0.805888
vt 0.936998 0.796950
vt 0.936690 0.815124
vt 0.918824 0.797277
vt 0.927793 0.790542
vt 0.881874 0.852131
vt 0.873220 0.842902
vt 0.882133 0.867496
vt 0.872933 0.861081
vt 0.866508 0.851888
vt 0.912757 0.821216
vt 0.920140 0.828607
vt 0.905401 0.828579
vt 0.920140 0.813825
vt 0.905358 0.813840
vt 0.891111 0.860775
s 0
usemtl マテリアル
f 30/56/17 50/57/17 38/58/17
f 31/59/18 50/57/18 39/60/18
f 50/57/19 33/61/19 41/62/19
f 50/57/20 32/63/20 38/58/20
f 32/64/21 51/65/21 42/66/21
f 33/61/22 51/65/22 41/67/22
f 51/65/23 37/68/23 44/69/23
f 51/65/24 36/70/24 42/66/24
f 36/71/25 52/72/25 45/73/25
f 37/68/26 52/72/26 44/74/26
f 52/72/27 35/75/27 47/76/27
f 52/72/28 34/77/28 45/73/28
f 34/78/29 53/79/29 48/80/29
f 35/75/30 53/79/30 47/81/30
f 53/79/31 31/59/31 39/82/31
f 53/79/32 30/83/32 48/80/32
f 32/64/33 54/84/33 38/85/33
f 36/70/34 54/84/34 42/66/34
f 54/84/35 34/86/35 48/87/35
f 54/84/36 30/88/36 38/85/36
f 37/68/37 55/89/37 46/90/37
f 33/61/38 55/89/38 43/91/38
f 55/89/39 31/59/39 49/92/39
f 55/89/40 35/75/40 46/90/40
f 30/56/41 39/60/41 50/57/41
f 31/59/42 40/93/42 50/57/42
f 50/57/43 40/93/43 33/61/43
f 50/57/44 41/62/44 32/63/44
f 32/64/45 41/67/45 51/65/45
f 33/61/46 43/91/46 51/65/46
f 51/65/47 43/91/47 37/68/47
f 51/65/48 44/69/48 36/70/48
f 36/71/49 44/74/49 52/72/49
f 37/68/50 46/90/50 52/72/50
f 52/72/51 46/90/51 35/75/51
f 52/72/52 47/76/52 34/77/52
f 34/78/53 47/81/53 53/79/53
f 35/75/54 49/92/54 53/79/54
f 53/79/55 49/92/55 31/59/55
f 53/79/56 39/82/56 30/83/56
f 32/64/57 42/66/57 54/84/57
f 36/70/58 45/94/58 54/84/58
f 54/84/59 45/94/59 34/86/59
f 54/84/60 48/87/60 30/88/60
f 37/68/61 43/91/61 55/89/61
f 33/61/62 40/93/62 55/89/62
f 55/89/63 40/93/63 31/59/63
f 55/89/64 49/92/64 35/75/64
