# Blender 4.4.1
# www.blender.org
mtllib Wall_Back.mtl
o 支柱
v 1.993697 -0.064252 0.333579
v 1.993697 2.604373 0.333579
v 1.866042 -0.064252 0.308186
v 1.866042 2.604373 0.308186
v 1.757822 -0.064252 0.235876
v 1.757822 2.604373 0.235876
v 1.685511 -0.064252 0.127655
v 1.685511 2.604373 0.127655
v 1.660119 -0.064252 0.000000
v 1.660119 2.604373 0.000000
v 1.685511 -0.064252 -0.127655
v 1.685511 2.604373 -0.127655
v 1.757822 -0.064252 -0.235875
v 1.757822 2.604373 -0.235875
v 1.866042 -0.064252 -0.308186
v 1.866042 2.604373 -0.308186
v 1.993697 -0.064252 -0.333578
v 1.993697 2.604373 -0.333578
v 2.121352 -0.064252 -0.308186
v 2.121352 2.604373 -0.308186
v 2.229572 -0.064252 -0.235875
v 2.229572 2.604373 -0.235875
v 2.301883 -0.064252 -0.127655
v 2.301883 2.604373 -0.127655
v 2.327275 -0.064252 0.000000
v 2.327275 2.604373 0.000000
v 2.301883 -0.064252 0.127655
v 2.301883 2.604373 0.127655
v 2.229572 -0.064252 0.235876
v 2.229572 2.604373 0.235876
v 2.121352 -0.064252 0.308186
v 2.121352 2.604373 0.308186
vn -0.1951 -0.0000 0.9808
vn -0.5556 -0.0000 0.8315
vn -0.8315 -0.0000 0.5556
vn -0.9808 -0.0000 0.1951
vn -0.9808 -0.0000 -0.1951
vn -0.8315 -0.0000 -0.5556
vn -0.5556 -0.0000 -0.8315
vn -0.1951 -0.0000 -0.9808
vn 0.1951 -0.0000 -0.9808
vn 0.5556 -0.0000 -0.8315
vn 0.8315 -0.0000 -0.5556
vn 0.9808 -0.0000 -0.1951
vn 0.9808 -0.0000 0.1951
vn 0.8315 -0.0000 0.5556
vn -0.0000 1.0000 -0.0000
vn 0.5556 -0.0000 0.8315
vn 0.1951 -0.0000 0.9808
vn -0.0000 -1.0000 -0.0000
vt 0.606759 0.517022
vt 0.693421 0.500116
vt 0.693421 0.517022
vt 0.606759 0.500116
vt 0.693421 0.483209
vt 0.606759 0.483209
vt 0.693421 0.466302
vt 0.606759 0.466302
vt 0.693421 0.449395
vt 0.606759 0.449395
vt 0.693421 0.432488
vt 0.606759 0.432488
vt 0.693421 0.415581
vt 0.606759 0.415581
vt 0.693421 0.398674
vt 0.606759 0.398674
vt 0.693421 0.381767
vt 0.606759 0.652278
vt 0.693421 0.635371
vt 0.693421 0.652278
vt 0.606759 0.635371
vt 0.693421 0.618464
vt 0.606759 0.618464
vt 0.693421 0.601557
vt 0.606759 0.601557
vt 0.693421 0.584650
vt 0.606759 0.584650
vt 0.693421 0.567743
vt 0.606759 0.567743
vt 0.693421 0.550836
vt 0.588334 0.354192
vt 0.600289 0.414294
vt 0.540187 0.426249
vt 0.606759 0.550836
vt 0.693421 0.533929
vt 0.606759 0.533929
vt 0.727466 0.347722
vt 0.778418 0.381767
vt 0.606759 0.381767
vt 0.528232 0.414294
vt 0.521762 0.398674
vt 0.521762 0.381767
vt 0.528232 0.366147
vt 0.540187 0.354192
vt 0.555807 0.347722
vt 0.572714 0.347722
vt 0.600289 0.366147
vt 0.588334 0.426249
vt 0.572714 0.432719
vt 0.555807 0.432719
vt 0.778418 0.398674
vt 0.771948 0.414294
vt 0.759993 0.426249
vt 0.744373 0.432719
vt 0.727466 0.432719
vt 0.711846 0.426249
vt 0.699891 0.414294
vt 0.699891 0.366147
vt 0.711846 0.354192
vt 0.744373 0.347722
vt 0.759993 0.354192
vt 0.771948 0.366147
s 0
usemtl マテリアル
f 2/1/1 3/2/1 1/3/1
f 4/4/2 5/5/2 3/2/2
f 6/6/3 7/7/3 5/5/3
f 8/8/4 9/9/4 7/7/4
f 10/10/5 11/11/5 9/9/5
f 12/12/6 13/13/6 11/11/6
f 14/14/7 15/15/7 13/13/7
f 16/16/8 17/17/8 15/15/8
f 18/18/9 19/19/9 17/20/9
f 20/21/10 21/22/10 19/19/10
f 22/23/11 23/24/11 21/22/11
f 24/25/12 25/26/12 23/24/12
f 26/27/13 27/28/13 25/26/13
f 28/29/14 29/30/14 27/28/14
f 22/31/15 14/32/15 6/33/15
f 30/34/16 31/35/16 29/30/16
f 32/36/17 1/3/17 31/35/17
f 15/15/18 23/37/18 31/38/18
f 2/1/1 4/4/1 3/2/1
f 4/4/2 6/6/2 5/5/2
f 6/6/3 8/8/3 7/7/3
f 8/8/4 10/10/4 9/9/4
f 10/10/5 12/12/5 11/11/5
f 12/12/6 14/14/6 13/13/6
f 14/14/7 16/16/7 15/15/7
f 16/16/8 18/39/8 17/17/8
f 18/18/9 20/21/9 19/19/9
f 20/21/10 22/23/10 21/22/10
f 22/23/11 24/25/11 23/24/11
f 24/25/12 26/27/12 25/26/12
f 26/27/13 28/29/13 27/28/13
f 28/29/14 30/34/14 29/30/14
f 6/33/15 4/40/15 2/41/15
f 2/41/15 32/42/15 30/43/15
f 30/43/15 28/44/15 26/45/15
f 26/45/15 24/46/15 22/31/15
f 22/31/15 20/47/15 18/39/15
f 18/39/15 16/16/15 14/32/15
f 14/32/15 12/48/15 10/49/15
f 10/49/15 8/50/15 6/33/15
f 6/33/15 2/41/15 30/43/15
f 30/43/15 26/45/15 22/31/15
f 22/31/15 18/39/15 14/32/15
f 14/32/15 10/49/15 6/33/15
f 6/33/15 30/43/15 22/31/15
f 30/34/16 32/36/16 31/35/16
f 32/36/17 2/1/17 1/3/17
f 31/38/18 1/51/18 3/52/18
f 3/52/18 5/53/18 7/54/18
f 7/54/18 9/55/18 11/56/18
f 11/56/18 13/57/18 15/15/18
f 15/15/18 17/17/18 19/58/18
f 19/58/18 21/59/18 23/37/18
f 23/37/18 25/60/18 27/61/18
f 27/61/18 29/62/18 31/38/18
f 31/38/18 3/52/18 7/54/18
f 7/54/18 11/56/18 15/15/18
f 15/15/18 19/58/18 23/37/18
f 23/37/18 27/61/18 31/38/18
f 31/38/18 7/54/18 15/15/18
o 幅木.002
v 1.993697 -0.231041 -0.166789
v 1.660119 -0.064252 -0.083395
v 1.993697 0.102537 -0.166789
v 1.993697 -0.231041 0.166789
v 1.660119 -0.064252 0.083394
v 1.993697 0.102537 0.166789
v -2.009242 -0.231041 -0.166789
v -1.675664 -0.064252 -0.083395
v -2.009242 0.102537 -0.166789
v -2.009242 -0.231041 0.166789
v -1.675664 -0.064252 0.083394
v -2.009242 0.102537 0.166789
v -0.558289 -0.089847 0.166789
v -0.558289 -0.089847 -0.166789
v 0.555342 -0.098265 0.166789
v 0.555342 -0.098265 -0.166789
v 0.749022 0.102537 0.166789
v -0.743947 0.102537 0.166789
v 0.749022 0.102537 -0.166789
v -0.743947 0.102537 -0.166789
v 0.588149 -0.064252 0.083394
v -0.582989 -0.064252 0.083394
v -0.582989 -0.064252 -0.083395
v 0.588149 -0.064252 -0.083395
v 1.660119 0.102537 0.083394
v 1.660119 0.102537 -0.083395
v 0.749022 0.102537 -0.083395
v 0.749022 0.102537 0.083394
v -1.675664 0.102537 -0.083395
v -0.743947 0.102537 -0.083395
v -0.743947 0.102537 0.083394
v -1.675664 0.102537 0.083394
v -0.664566 0.020280 -0.083395
v -0.664566 0.020280 0.083394
v 0.714386 0.066628 -0.083395
v 0.714386 0.066628 0.083394
vn 1.0000 -0.0000 -0.0000
vn -0.0000 -0.0000 1.0000
vn -1.0000 -0.0000 -0.0000
vn -0.0000 -0.0000 -1.0000
vn -0.0000 -1.0000 -0.0000
vn -0.0000 1.0000 -0.0000
vn 0.7196 0.6944 -0.0000
vn -0.7198 0.6942 -0.0000
vn 0.0076 1.0000 -0.0000
vn -0.7196 -0.6944 -0.0000
vn 0.7198 -0.6942 -0.0000
vt 0.779134 0.827691
vt 0.809417 0.804995
vt 0.805624 0.831484
vt 0.832411 0.805222
vt 0.823484 0.798335
vt 0.858971 0.801954
vt 0.835680 0.831782
vt 0.813805 0.851919
vt 0.814326 0.791802
vt 0.817427 0.790542
vt 0.815952 0.791693
vt 0.823801 0.791490
vt 0.826942 0.792311
vt 0.824151 0.791952
vt 0.821891 0.791836
vt 0.824040 0.794729
vt 0.817734 0.791877
vt 0.818123 0.798188
vt 0.817114 0.793368
vt 0.820630 0.791717
vt 0.817130 0.791955
vt 0.817109 0.791221
vt 0.816516 0.792379
vt 0.816668 0.792213
vt 0.824630 0.793162
vt 0.824395 0.792881
vt 0.824851 0.793358
vt 0.823947 0.792726
vt 0.825289 0.792393
vt 0.824512 0.792986
vt 0.817023 0.791953
vt 0.817638 0.791538
vt 0.823891 0.792939
vt 0.823427 0.792659
vt 0.824435 0.792917
vt 0.824293 0.792981
vt 0.816799 0.792129
vt 0.816700 0.792089
vt 0.824334 0.793053
vt 0.824087 0.793246
vt 0.817083 0.792099
vt 0.816758 0.792242
vt 0.782928 0.801201
vt 0.825471 0.793687
vt 0.815908 0.793076
vt 0.862239 0.828513
vt 0.793854 0.878995
vt 0.779134 0.869873
vt 0.865792 0.870730
vt 0.850665 0.881094
vt 0.829536 0.855014
vt 0.816547 0.792589
vt 0.817943 0.790836
vt 0.823754 0.792134
vt 0.823617 0.791772
vt 0.824670 0.793644
vt 0.816709 0.792785
vt 0.816606 0.792195
vt 0.816708 0.792083
vt 0.824456 0.793061
vt 0.824013 0.792764
vt 0.816819 0.792428
s 0
usemtl マテリアル
f 35/63/19 36/64/19 33/65/19
f 42/66/20 36/64/20 45/67/20
f 44/68/21 39/69/21 42/66/21
f 48/70/22 33/65/22 39/69/22
f 42/66/23 33/65/23 36/64/23
f 38/71/24 35/72/24 57/73/24
f 41/74/24 44/75/24 61/76/24
f 45/67/25 46/77/25 66/78/25
f 67/79/26 47/80/26 68/81/26
f 48/82/27 45/67/27 47/80/27
f 34/83/21 57/73/21 58/84/21
f 68/85/22 57/73/22 53/86/22
f 66/87/22 43/88/22 63/89/22
f 40/90/19 64/91/19 43/92/19
f 34/93/20 59/94/20 67/79/20
f 61/76/20 55/95/20 65/96/20
f 55/95/24 43/97/24 54/98/24
f 34/93/24 53/99/24 37/100/24
f 55/95/28 66/101/28 65/102/28
f 56/103/29 68/104/29 53/99/29
f 35/63/19 38/105/19 36/64/19
f 45/67/20 50/106/20 44/75/20
f 36/64/20 38/71/20 49/107/20
f 36/64/20 49/107/20 47/80/20
f 45/67/20 44/75/20 42/66/20
f 36/64/20 47/80/20 45/67/20
f 44/68/21 41/108/21 39/69/21
f 48/70/22 51/109/22 35/110/22
f 39/69/22 41/111/22 52/112/22
f 39/69/22 52/112/22 46/113/22
f 48/70/22 35/110/22 33/65/22
f 39/69/22 46/113/22 48/70/22
f 42/66/23 39/69/23 33/65/23
f 57/73/24 60/114/24 49/107/24
f 35/72/24 51/115/24 59/94/24
f 35/72/24 59/94/24 58/84/24
f 57/73/24 49/107/24 38/71/24
f 35/72/24 58/84/24 57/73/24
f 61/76/24 62/116/24 52/117/24
f 44/75/24 50/106/24 63/89/24
f 44/75/24 63/89/24 64/91/24
f 61/76/24 52/117/24 41/74/24
f 44/75/24 64/91/24 61/76/24
f 66/78/25 63/118/25 50/106/25
f 46/77/25 52/117/25 62/116/25
f 46/77/25 62/116/25 65/96/25
f 66/78/25 50/106/25 45/67/25
f 46/77/25 65/96/25 66/78/25
f 67/79/26 59/94/26 51/115/26
f 51/115/26 48/82/26 47/80/26
f 47/80/26 49/107/26 60/119/26
f 47/80/26 60/119/26 68/81/26
f 67/79/26 51/115/26 47/80/26
f 48/82/27 46/77/27 45/67/27
f 34/83/21 37/120/21 57/73/21
f 68/85/22 60/114/22 57/73/22
f 57/73/22 37/121/22 53/86/22
f 66/87/22 54/122/22 43/88/22
f 43/88/22 64/91/22 63/89/22
f 40/90/19 61/76/19 64/91/19
f 67/79/20 56/103/20 34/93/20
f 34/93/20 58/84/20 59/94/20
f 65/96/20 62/116/20 61/76/20
f 61/76/20 40/123/20 55/95/20
f 55/95/24 40/123/24 43/97/24
f 34/93/24 56/103/24 53/99/24
f 55/95/28 54/98/28 66/101/28
f 56/103/29 67/124/29 68/104/29
o 支柱.001
v -2.009242 -0.064253 0.333579
v -2.009242 2.604373 0.333579
v -2.136897 -0.064253 0.308186
v -2.136897 2.604373 0.308186
v -2.245118 -0.064253 0.235876
v -2.245118 2.604373 0.235876
v -2.317428 -0.064253 0.127655
v -2.317428 2.604373 0.127655
v -2.342820 -0.064253 0.000000
v -2.342820 2.604373 0.000000
v -2.317428 -0.064253 -0.127655
v -2.317428 2.604373 -0.127655
v -2.245118 -0.064253 -0.235875
v -2.245118 2.604373 -0.235875
v -2.136897 -0.064253 -0.308186
v -2.136897 2.604373 -0.308186
v -2.009242 -0.064253 -0.333578
v -2.009242 2.604373 -0.333578
v -1.881587 -0.064253 -0.308186
v -1.881587 2.604373 -0.308186
v -1.773367 -0.064253 -0.235875
v -1.773367 2.604373 -0.235875
v -1.701056 -0.064253 -0.127655
v -1.701056 2.604373 -0.127655
v -1.675664 -0.064253 0.000000
v -1.675664 2.604373 0.000000
v -1.701056 -0.064253 0.127655
v -1.701056 2.604373 0.127655
v -1.773367 -0.064253 0.235876
v -1.773367 2.604373 0.235876
v -1.881587 -0.064253 0.308186
v -1.881587 2.604373 0.308186
vn -0.1951 -0.0000 0.9808
vn -0.5556 -0.0000 0.8315
vn -0.8315 -0.0000 0.5556
vn -0.9808 -0.0000 0.1951
vn -0.9808 -0.0000 -0.1951
vn -0.8315 -0.0000 -0.5556
vn -0.5556 -0.0000 -0.8315
vn -0.1951 -0.0000 -0.9808
vn 0.1951 -0.0000 -0.9808
vn 0.5556 -0.0000 -0.8315
vn 0.8315 -0.0000 -0.5556
vn 0.9808 -0.0000 -0.1951
vn 0.9808 -0.0000 0.1951
vn 0.8315 -0.0000 0.5556
vn -0.0000 1.0000 -0.0000
vn 0.5556 -0.0000 0.8315
vn 0.1951 -0.0000 0.9808
vn -0.0000 -1.0000 -0.0000
vt 0.606759 0.822294
vt 0.693421 0.805387
vt 0.693421 0.822294
vt 0.606759 0.805387
vt 0.693421 0.788480
vt 0.606759 0.788480
vt 0.693421 0.771574
vt 0.606759 0.771574
vt 0.693421 0.754667
vt 0.606759 0.754667
vt 0.693421 0.737760
vt 0.606759 0.737760
vt 0.693421 0.720853
vt 0.606759 0.720853
vt 0.693421 0.703946
vt 0.606759 0.703946
vt 0.693421 0.687039
vt 0.606759 0.957550
vt 0.693421 0.940643
vt 0.693421 0.957550
vt 0.606759 0.940643
vt 0.693421 0.923736
vt 0.606759 0.923736
vt 0.693421 0.906829
vt 0.606759 0.906829
vt 0.693421 0.889922
vt 0.606759 0.889922
vt 0.693421 0.873015
vt 0.606759 0.873015
vt 0.693421 0.856108
vt 0.588334 0.659464
vt 0.600289 0.719566
vt 0.540187 0.731521
vt 0.606759 0.856108
vt 0.693421 0.839201
vt 0.606759 0.839201
vt 0.727466 0.652994
vt 0.778418 0.687039
vt 0.606759 0.687039
vt 0.528232 0.719566
vt 0.521762 0.703946
vt 0.521762 0.687039
vt 0.528232 0.671419
vt 0.540187 0.659464
vt 0.555807 0.652994
vt 0.572714 0.652994
vt 0.600289 0.671419
vt 0.588334 0.731521
vt 0.572714 0.737991
vt 0.555807 0.737991
vt 0.778418 0.703946
vt 0.771948 0.719566
vt 0.759993 0.731521
vt 0.744373 0.737991
vt 0.727466 0.737991
vt 0.711846 0.731521
vt 0.699891 0.719566
vt 0.699891 0.671419
vt 0.711846 0.659464
vt 0.744373 0.652994
vt 0.759993 0.659464
vt 0.771948 0.671419
s 0
usemtl マテリアル
f 70/125/30 71/126/30 69/127/30
f 72/128/31 73/129/31 71/126/31
f 74/130/32 75/131/32 73/129/32
f 76/132/33 77/133/33 75/131/33
f 78/134/34 79/135/34 77/133/34
f 80/136/35 81/137/35 79/135/35
f 82/138/36 83/139/36 81/137/36
f 84/140/37 85/141/37 83/139/37
f 86/142/38 87/143/38 85/144/38
f 88/145/39 89/146/39 87/143/39
f 90/147/40 91/148/40 89/146/40
f 92/149/41 93/150/41 91/148/41
f 94/151/42 95/152/42 93/150/42
f 96/153/43 97/154/43 95/152/43
f 90/155/44 82/156/44 74/157/44
f 98/158/45 99/159/45 97/154/45
f 100/160/46 69/127/46 99/159/46
f 83/139/47 91/161/47 99/162/47
f 70/125/30 72/128/30 71/126/30
f 72/128/31 74/130/31 73/129/31
f 74/130/32 76/132/32 75/131/32
f 76/132/33 78/134/33 77/133/33
f 78/134/34 80/136/34 79/135/34
f 80/136/35 82/138/35 81/137/35
f 82/138/36 84/140/36 83/139/36
f 84/140/37 86/163/37 85/141/37
f 86/142/38 88/145/38 87/143/38
f 88/145/39 90/147/39 89/146/39
f 90/147/40 92/149/40 91/148/40
f 92/149/41 94/151/41 93/150/41
f 94/151/42 96/153/42 95/152/42
f 96/153/43 98/158/43 97/154/43
f 74/157/44 72/164/44 70/165/44
f 70/165/44 100/166/44 98/167/44
f 98/167/44 96/168/44 94/169/44
f 94/169/44 92/170/44 90/155/44
f 90/155/44 88/171/44 86/163/44
f 86/163/44 84/140/44 82/156/44
f 82/156/44 80/172/44 78/173/44
f 78/173/44 76/174/44 74/157/44
f 74/157/44 70/165/44 98/167/44
f 98/167/44 94/169/44 90/155/44
f 90/155/44 86/163/44 82/156/44
f 82/156/44 78/173/44 74/157/44
f 74/157/44 98/167/44 90/155/44
f 98/158/45 100/160/45 99/159/45
f 100/160/46 70/125/46 69/127/46
f 99/162/47 69/175/47 71/176/47
f 71/176/47 73/177/47 75/178/47
f 75/178/47 77/179/47 79/180/47
f 79/180/47 81/181/47 83/139/47
f 83/139/47 85/141/47 87/182/47
f 87/182/47 89/183/47 91/161/47
f 91/161/47 93/184/47 95/185/47
f 95/185/47 97/186/47 99/162/47
f 99/162/47 71/176/47 75/178/47
f 75/178/47 79/180/47 83/139/47
f 83/139/47 87/182/47 91/161/47
f 91/161/47 95/185/47 99/162/47
f 99/162/47 75/178/47 83/139/47
o 壁.002
v 1.660118 -0.064252 -0.083395
v 1.660118 2.604373 -0.083395
v 1.660118 -0.064252 0.083395
v 1.660118 2.604373 0.083395
v -1.675664 -0.064252 -0.083395
v -1.675664 2.604373 -0.083395
v -1.675664 -0.064252 0.083395
v -1.675664 2.604373 0.083395
v 0.976689 0.559598 0.083395
v 0.973733 0.964927 0.083395
v 0.821351 1.340533 0.083395
v 0.542743 1.629234 0.083395
v -0.210731 1.790033 0.083395
v 0.180324 1.787077 0.083395
v 0.829770 0.186255 0.083395
v -0.570888 1.637652 0.083395
v 0.588149 -0.064252 0.083395
v -0.582989 -0.064252 0.083395
v -0.836897 0.198853 0.083395
v -0.992234 0.979788 0.083395
v -0.989278 0.574460 0.083395
v -0.845315 1.353132 0.083395
v 0.180324 1.787077 -0.083395
v -0.210731 1.790033 -0.083395
v -0.845315 1.353132 -0.083395
v -0.992234 0.979788 -0.083395
v -0.989278 0.574460 -0.083395
v -0.570888 1.637652 -0.083395
v 0.976689 0.559598 -0.083395
v 0.973733 0.964927 -0.083395
v 0.829770 0.186255 -0.083395
v 0.821351 1.340533 -0.083395
v 0.542743 1.629234 -0.083395
v -0.836897 0.198853 -0.083395
v -0.582989 -0.064252 -0.083395
v 0.588149 -0.064252 -0.083395
vn 1.0000 -0.0000 -0.0000
vn -0.0000 -0.0000 1.0000
vn -1.0000 -0.0000 -0.0000
vn -0.0000 -0.0000 -1.0000
vn -0.0000 -1.0000 -0.0000
vn -0.0000 1.0000 -0.0000
vn 0.5662 -0.8243 -0.0000
vn 0.1951 -0.9808 -0.0000
vn 0.8413 -0.5406 -0.0000
vn 0.9832 -0.1828 -0.0000
vn 0.9808 0.1951 -0.0000
vn 0.8384 0.5451 -0.0000
vn 0.7196 0.6944 -0.0000
vn -0.8413 0.5406 -0.0000
vn -0.7198 0.6942 -0.0000
vn -0.9832 0.1828 -0.0000
vn -0.9808 -0.1951 -0.0000
vn -0.8384 -0.5451 -0.0000
vn -0.5704 -0.8214 -0.0000
vn -0.2076 -0.9782 -0.0000
vt 0.885930 0.183667
vt 0.897087 0.191543
vt 0.882484 0.191543
vt 0.893395 0.177103
vt 0.897087 0.177103
vt 0.900533 0.177103
vt 0.882566 0.161351
vt 0.897087 0.161351
vt 0.885930 0.177103
vt 0.878792 0.177103
vt 0.878710 0.177103
vt 0.875100 0.156100
vt 0.900697 0.156100
vt 0.878710 0.199419
vt 0.875100 0.202433
vt 0.884760 0.200135
vt 0.875100 0.200135
vt 0.884760 0.205058
vt 0.884760 0.202433
vt 0.875100 0.205058
vt 0.884760 0.209981
vt 0.875100 0.209981
vt 0.884760 0.212606
vt 0.875100 0.214903
vt 0.875100 0.212606
vt 0.884760 0.214903
vt 0.875100 0.216872
vt 0.884760 0.216872
vt 0.877446 0.883309
vt 0.866508 0.885278
vt 0.877446 0.885278
vt 0.877446 0.880683
vt 0.866508 0.883309
vt 0.877446 0.878386
vt 0.866508 0.880683
vt 0.877446 0.875761
vt 0.866508 0.878386
vt 0.877446 0.873464
vt 0.866508 0.875761
vt 0.877446 0.870838
vt 0.866508 0.873464
vt 0.877446 0.868213
vt 0.866508 0.870838
vt 0.900697 0.191543
vt 0.900697 0.199419
vt 0.900697 0.161351
vt 0.900533 0.184979
vt 0.900533 0.169227
vt 0.897087 0.184979
vt 0.897087 0.169227
vt 0.878792 0.191543
vt 0.875100 0.161351
vt 0.878792 0.161351
vt 0.878710 0.184979
vt 0.878710 0.169227
vt 0.878792 0.184979
vt 0.878792 0.169227
vt 0.866508 0.868213
s 1
usemtl マテリアル
f 102/187/48 103/188/48 101/189/48
f 104/190/49 116/191/49 113/192/49
f 108/190/50 105/193/50 107/194/50
f 106/195/51 123/196/51 124/197/51
f 107/194/52 135/198/52 118/199/52
f 103/188/52 136/200/52 101/189/52
f 104/190/53 106/195/53 108/190/53
f 116/201/54 124/202/55 113/203/55
f 116/201/54 125/204/56 128/205/54
f 122/206/56 126/207/57 125/204/56
f 120/208/57 127/209/58 126/207/57
f 119/210/59 127/209/58 121/211/58
f 134/212/59 118/213/60 135/214/60
f 115/215/61 136/216/62 117/217/62
f 109/218/63 131/219/61 115/215/61
f 110/220/64 129/221/63 109/218/63
f 111/222/65 130/223/64 110/220/64
f 112/224/66 132/225/65 111/222/65
f 114/226/67 133/227/66 112/224/66
f 113/228/55 123/229/67 114/226/67
f 102/187/48 104/190/48 103/188/48
f 115/230/49 117/231/49 103/188/49
f 107/194/49 118/199/49 119/232/49
f 107/194/49 119/232/49 121/232/49
f 109/230/49 115/230/49 103/188/49
f 110/233/49 109/230/49 103/188/49
f 108/190/49 107/194/49 121/232/49
f 108/190/49 121/232/49 120/234/49
f 110/233/49 103/188/49 104/190/49
f 111/235/49 110/233/49 104/190/49
f 108/190/49 120/234/49 122/236/49
f 108/190/49 122/236/49 116/191/49
f 112/191/49 111/235/49 104/190/49
f 114/191/49 112/191/49 104/190/49
f 104/190/49 108/190/49 116/191/49
f 113/192/49 114/191/49 104/190/49
f 108/190/50 106/195/50 105/193/50
f 101/189/51 136/200/51 131/237/51
f 101/189/51 131/237/51 129/237/51
f 134/238/51 135/198/51 105/193/51
f 127/239/51 134/238/51 105/193/51
f 102/187/51 101/189/51 129/237/51
f 102/187/51 129/237/51 130/240/51
f 127/239/51 105/193/51 106/195/51
f 126/241/51 127/239/51 106/195/51
f 102/187/51 130/240/51 132/242/51
f 102/187/51 132/242/51 133/242/51
f 125/243/51 126/241/51 106/195/51
f 128/196/51 125/243/51 106/195/51
f 106/195/51 102/187/51 133/242/51
f 106/195/51 133/242/51 123/196/51
f 124/197/51 128/196/51 106/195/51
f 107/194/52 105/193/52 135/198/52
f 103/188/52 117/231/52 136/200/52
f 104/190/53 102/187/53 106/195/53
f 116/201/54 128/205/54 124/202/55
f 116/201/54 122/206/56 125/204/56
f 122/206/56 120/208/57 126/207/57
f 120/208/57 121/211/58 127/209/58
f 119/210/59 134/212/59 127/209/58
f 134/212/59 119/210/59 118/213/60
f 115/215/61 131/219/61 136/216/62
f 109/218/63 129/221/63 131/219/61
f 110/220/64 130/223/64 129/221/63
f 111/222/65 132/225/65 130/223/64
f 112/224/66 133/227/66 132/225/65
f 114/226/67 123/229/67 133/227/66
f 113/228/55 124/244/55 123/229/67
o 棚.002
v -0.841719 2.070648 -0.416973
v -0.841719 2.137364 -0.416973
v -0.841719 2.070648 -0.083395
v -0.841719 2.137364 -0.083395
v -1.508875 2.070648 -0.416973
v -1.508875 2.137364 -0.416973
v -1.508875 2.070648 -0.083395
v -1.508875 2.137364 -0.083395
vn 1.0000 -0.0000 -0.0000
vn -0.0000 -0.0000 1.0000
vn -1.0000 -0.0000 -0.0000
vn -0.0000 -0.0000 -1.0000
vn -0.0000 -1.0000 -0.0000
vn -0.0000 1.0000 -0.0000
vt 0.821221 0.077871
vt 0.782465 0.116627
vt 0.782465 0.077871
vt 0.821221 0.116627
vt 0.859977 0.155384
vt 0.821221 0.155384
vt 0.859977 0.116627
vt 0.898734 0.077871
vt 0.898734 0.116627
vt 0.859977 0.077871
vt 0.821221 0.039115
vt 0.859977 0.039115
vt 0.859977 0.000358
vt 0.821221 0.000358
s 0
usemtl マテリアル
f 138/245/68 139/246/68 137/247/68
f 140/248/69 143/249/69 139/250/69
f 144/251/70 141/252/70 143/253/70
f 142/254/71 137/255/71 141/256/71
f 143/257/72 137/255/72 139/258/72
f 140/248/73 142/254/73 144/251/73
f 138/245/68 140/248/68 139/246/68
f 140/248/69 144/251/69 143/249/69
f 144/251/70 142/254/70 141/252/70
f 142/254/71 138/245/71 137/255/71
f 143/257/72 141/256/72 137/255/72
f 140/248/73 138/245/73 142/254/73
