# Blender 4.4.1
# www.blender.org
mtllib Wall_L.mtl
o 支柱.003
v 0.000000 -0.000000 -1.667891
v 0.000000 2.668626 -1.667891
v -0.127655 -0.000000 -1.693284
v -0.127655 2.668626 -1.693284
v -0.235875 -0.000000 -1.765594
v -0.235875 2.668626 -1.765594
v -0.308186 -0.000000 -1.873815
v -0.308186 2.668626 -1.873815
v -0.333578 -0.000000 -2.001470
v -0.333578 2.668626 -2.001470
v -0.308186 -0.000000 -2.129124
v -0.308186 2.668626 -2.129124
v -0.235875 -0.000000 -2.237345
v -0.235875 2.668626 -2.237345
v -0.127655 -0.000000 -2.309656
v -0.127655 2.668626 -2.309656
v 0.000000 -0.000000 -2.335048
v 0.000000 2.668626 -2.335048
v 0.127655 -0.000000 -2.309656
v 0.127655 2.668626 -2.309656
v 0.235875 -0.000000 -2.237345
v 0.235875 2.668626 -2.237345
v 0.308186 -0.000000 -2.129124
v 0.308186 2.668626 -2.129124
v 0.333578 -0.000000 -2.001470
v 0.333578 2.668626 -2.001470
v 0.308186 -0.000000 -1.873815
v 0.308186 2.668626 -1.873815
v 0.235875 -0.000000 -1.765594
v 0.235875 2.668626 -1.765594
v 0.127655 -0.000000 -1.693284
v 0.127655 2.668626 -1.693284
vn -0.1951 -0.0000 0.9808
vn -0.5556 -0.0000 0.8315
vn -0.8315 -0.0000 0.5556
vn -0.9808 -0.0000 0.1951
vn -0.9808 -0.0000 -0.1951
vn -0.8315 -0.0000 -0.5556
vn -0.5556 -0.0000 -0.8315
vn -0.1951 -0.0000 -0.9808
vn 0.1951 -0.0000 -0.9808
vn 0.5556 -0.0000 -0.8315
vn 0.8315 -0.0000 -0.5556
vn 0.9808 -0.0000 -0.1951
vn 0.9808 -0.0000 0.1951
vn 0.8315 -0.0000 0.5556
vn -0.0000 1.0000 -0.0000
vn 0.5556 -0.0000 0.8315
vn 0.1951 -0.0000 0.9808
vn -0.0000 -1.0000 -0.0000
vt 0.342727 0.864387
vt 0.429389 0.847480
vt 0.429389 0.864387
vt 0.342727 0.847480
vt 0.429389 0.830573
vt 0.342727 0.830573
vt 0.429389 0.813666
vt 0.342727 0.813666
vt 0.429389 0.796759
vt 0.342727 0.796759
vt 0.429389 0.779852
vt 0.342727 0.779852
vt 0.429389 0.762945
vt 0.342727 0.762945
vt 0.429389 0.746038
vt 0.342727 0.746038
vt 0.429389 0.729131
vt 0.342727 0.999642
vt 0.429389 0.982735
vt 0.429389 0.999642
vt 0.342727 0.982735
vt 0.429389 0.965828
vt 0.342727 0.965828
vt 0.429389 0.948921
vt 0.342727 0.948921
vt 0.429389 0.932014
vt 0.342727 0.932014
vt 0.429389 0.915107
vt 0.342727 0.915107
vt 0.429389 0.898200
vt 0.324302 0.701556
vt 0.336257 0.761658
vt 0.276155 0.773613
vt 0.342727 0.898200
vt 0.429389 0.881294
vt 0.342727 0.881294
vt 0.463434 0.695086
vt 0.514385 0.729131
vt 0.342727 0.729131
vt 0.264200 0.761658
vt 0.257730 0.746038
vt 0.257730 0.729131
vt 0.264200 0.713511
vt 0.276155 0.701556
vt 0.291775 0.695086
vt 0.308682 0.695086
vt 0.336257 0.713511
vt 0.324302 0.773613
vt 0.308682 0.780083
vt 0.291775 0.780083
vt 0.514386 0.746038
vt 0.507915 0.761658
vt 0.495961 0.773613
vt 0.480341 0.780083
vt 0.463434 0.780083
vt 0.447814 0.773613
vt 0.435859 0.761658
vt 0.435859 0.713511
vt 0.447814 0.701556
vt 0.480341 0.695086
vt 0.495961 0.701556
vt 0.507915 0.713511
s 0
usemtl マテリアル
f 2/1/1 3/2/1 1/3/1
f 4/4/2 5/5/2 3/2/2
f 6/6/3 7/7/3 5/5/3
f 8/8/4 9/9/4 7/7/4
f 10/10/5 11/11/5 9/9/5
f 12/12/6 13/13/6 11/11/6
f 14/14/7 15/15/7 13/13/7
f 16/16/8 17/17/8 15/15/8
f 18/18/9 19/19/9 17/20/9
f 20/21/10 21/22/10 19/19/10
f 22/23/11 23/24/11 21/22/11
f 24/25/12 25/26/12 23/24/12
f 26/27/13 27/28/13 25/26/13
f 28/29/14 29/30/14 27/28/14
f 22/31/15 14/32/15 6/33/15
f 30/34/16 31/35/16 29/30/16
f 32/36/17 1/3/17 31/35/17
f 15/15/18 23/37/18 31/38/18
f 2/1/1 4/4/1 3/2/1
f 4/4/2 6/6/2 5/5/2
f 6/6/3 8/8/3 7/7/3
f 8/8/4 10/10/4 9/9/4
f 10/10/5 12/12/5 11/11/5
f 12/12/6 14/14/6 13/13/6
f 14/14/7 16/16/7 15/15/7
f 16/16/8 18/39/8 17/17/8
f 18/18/9 20/21/9 19/19/9
f 20/21/10 22/23/10 21/22/10
f 22/23/11 24/25/11 23/24/11
f 24/25/12 26/27/12 25/26/12
f 26/27/13 28/29/13 27/28/13
f 28/29/14 30/34/14 29/30/14
f 6/33/15 4/40/15 2/41/15
f 2/41/15 32/42/15 30/43/15
f 30/43/15 28/44/15 26/45/15
f 26/45/15 24/46/15 22/31/15
f 22/31/15 20/47/15 18/39/15
f 18/39/15 16/16/15 14/32/15
f 14/32/15 12/48/15 10/49/15
f 10/49/15 8/50/15 6/33/15
f 6/33/15 2/41/15 30/43/15
f 30/43/15 26/45/15 22/31/15
f 22/31/15 18/39/15 14/32/15
f 14/32/15 10/49/15 6/33/15
f 6/33/15 30/43/15 22/31/15
f 30/34/16 32/36/16 31/35/16
f 32/36/17 2/1/17 1/3/17
f 31/38/18 1/51/18 3/52/18
f 3/52/18 5/53/18 7/54/18
f 7/54/18 9/55/18 11/56/18
f 11/56/18 13/57/18 15/15/18
f 15/15/18 17/17/18 19/58/18
f 19/58/18 21/59/18 23/37/18
f 23/37/18 25/60/18 27/61/18
f 27/61/18 29/62/18 31/38/18
f 31/38/18 3/52/18 7/54/18
f 7/54/18 11/56/18 15/15/18
f 15/15/18 19/58/18 23/37/18
f 23/37/18 27/61/18 31/38/18
f 31/38/18 7/54/18 15/15/18
o 幅木
v 0.166789 -0.166789 -2.001469
v 0.166789 0.166789 -2.001469
v 0.166789 -0.166789 2.001469
v 0.166789 0.166789 2.001469
v -0.166789 -0.166789 -2.001469
v -0.166789 0.166789 -2.001469
v -0.166789 -0.166789 2.001469
v -0.166789 0.166789 2.001469
vn 1.0000 -0.0000 -0.0000
vn -0.0000 -0.0000 1.0000
vn -1.0000 -0.0000 -0.0000
vn -0.0000 -0.0000 -1.0000
vn -0.0000 -1.0000 -0.0000
vn -0.0000 1.0000 -0.0000
vt 0.817891 0.712313
vt 0.856647 0.751069
vt 0.817891 0.751069
vt 0.856647 0.712313
vt 0.895404 0.673557
vt 0.895404 0.712313
vt 0.856647 0.673557
vt 0.817891 0.634800
vt 0.856647 0.634800
vt 0.817891 0.673557
vt 0.779134 0.712313
vt 0.779134 0.673557
vt 0.856647 0.789826
vt 0.817891 0.789826
s 0
usemtl マテリアル
f 34/63/19 35/64/19 33/65/19
f 36/66/20 39/67/20 35/68/20
f 40/69/21 37/70/21 39/71/21
f 38/72/22 33/73/22 37/74/22
f 39/75/23 33/65/23 35/64/23
f 36/66/24 38/72/24 40/69/24
f 34/63/19 36/66/19 35/64/19
f 36/66/20 40/69/20 39/67/20
f 40/69/21 38/72/21 37/70/21
f 38/72/22 34/63/22 33/73/22
f 39/75/23 37/76/23 33/65/23
f 36/66/24 34/63/24 38/72/24
o 棚
v -0.059812 1.634533 -0.500367
v -0.059812 1.701249 -0.500367
v -0.059812 1.634533 1.501102
v -0.059812 1.701249 1.501102
v -0.393390 1.634533 -0.500367
v -0.393390 1.701249 -0.500367
v -0.393390 1.634533 1.501102
v -0.393390 1.701249 1.501102
vn 1.0000 -0.0000 -0.0000
vn -0.0000 -0.0000 1.0000
vn -1.0000 -0.0000 -0.0000
vn -0.0000 -0.0000 -1.0000
vn -0.0000 -1.0000 -0.0000
vn -0.0000 1.0000 -0.0000
vt 0.087020 0.607708
vt 0.173682 0.694370
vt 0.087020 0.694370
vt 0.173682 0.607708
vt 0.260344 0.521046
vt 0.260344 0.607708
vt 0.173682 0.521046
vt 0.087020 0.434384
vt 0.173682 0.434384
vt 0.087020 0.521046
vt 0.000358 0.607708
vt 0.000358 0.521046
vt 0.087020 0.347722
vt 0.173682 0.347722
s 0
usemtl マテリアル
f 42/77/25 43/78/25 41/79/25
f 44/80/26 47/81/26 43/82/26
f 48/83/27 45/84/27 47/85/27
f 46/86/28 41/87/28 45/88/28
f 47/85/29 41/89/29 43/90/29
f 44/80/30 46/86/30 48/83/30
f 42/77/25 44/80/25 43/78/25
f 44/80/26 48/83/26 47/81/26
f 48/83/27 46/86/27 45/84/27
f 46/86/28 42/77/28 41/87/28
f 47/85/29 45/84/29 41/89/29
f 44/80/30 42/77/30 46/86/30
o 棚.001
v -0.059812 0.800587 -1.501102
v -0.059812 0.867303 -1.501102
v -0.059812 0.800587 0.500367
v -0.059812 0.867303 0.500367
v -0.393390 0.800587 -1.501102
v -0.393390 0.867303 -1.501102
v -0.393390 0.800587 0.500367
v -0.393390 0.867303 0.500367
vn 1.0000 -0.0000 -0.0000
vn -0.0000 -0.0000 1.0000
vn -1.0000 -0.0000 -0.0000
vn -0.0000 -0.0000 -1.0000
vn -0.0000 -1.0000 -0.0000
vn -0.0000 1.0000 -0.0000
vt 0.347722 0.607708
vt 0.434384 0.694370
vt 0.347722 0.694370
vt 0.434384 0.607708
vt 0.521046 0.521046
vt 0.521046 0.607708
vt 0.434384 0.521046
vt 0.347722 0.434384
vt 0.434384 0.434384
vt 0.347722 0.521046
vt 0.261060 0.607708
vt 0.261060 0.521046
vt 0.347722 0.347722
vt 0.434384 0.347722
s 0
usemtl マテリアル
f 50/91/31 51/92/31 49/93/31
f 52/94/32 55/95/32 51/96/32
f 56/97/33 53/98/33 55/99/33
f 54/100/34 49/101/34 53/102/34
f 55/99/35 49/103/35 51/104/35
f 52/94/36 54/100/36 56/97/36
f 50/91/31 52/94/31 51/92/31
f 52/94/32 56/97/32 55/95/32
f 56/97/33 54/100/33 53/98/33
f 54/100/34 50/91/34 49/101/34
f 55/99/35 53/98/35 49/103/35
f 52/94/36 50/91/36 54/100/36
o 壁.003
v -0.083394 -0.000000 -1.667891
v -0.083394 -0.000000 1.667891
v -0.083394 2.668626 -1.667891
v 0.083395 -0.000000 -1.667891
v 0.083395 2.668626 -1.667891
v 0.083395 -0.000000 1.667891
v 0.083395 2.668626 1.667891
v -0.083394 2.668626 1.667891
vn -0.0000 -1.0000 -0.0000
vn -0.0000 -0.0000 -1.0000
vn -0.0000 -0.0000 1.0000
vn -0.0000 1.0000 -0.0000
vn -1.0000 -0.0000 -0.0000
vt 0.979703 0.278664
vt 0.919740 0.273307
vt 0.919740 0.278664
vt 0.987144 0.338627
vt 0.987144 0.278664
vt 0.912299 0.278664
vt 0.919740 0.338627
vt 0.979703 0.343984
vt 0.919740 0.343984
vt 0.979703 0.273307
vt 0.979703 0.338627
vt 0.912299 0.338627
s 0
usemtl マテリアル
f 57/105/37 62/106/37 58/107/37
f 57/105/38 61/108/38 60/109/38
f 62/110/39 64/111/39 58/107/39
f 61/112/40 64/111/40 63/113/40
f 64/111/41 57/105/41 58/107/41
f 57/105/37 60/114/37 62/106/37
f 57/105/38 59/115/38 61/108/38
f 62/110/39 63/116/39 64/111/39
f 61/112/40 59/115/40 64/111/40
f 64/111/41 59/115/41 57/105/41
