# Blender 4.4.1
# www.blender.org
mtllib Wall_Back.mtl
o 支柱
v 1.993697 -0.064252 0.333579
v 1.993697 2.604373 0.333579
v 1.866042 -0.064252 0.308186
v 1.866042 2.604373 0.308186
v 1.757822 -0.064252 0.235876
v 1.757822 2.604373 0.235876
v 1.685511 -0.064252 0.127655
v 1.685511 2.604373 0.127655
v 1.660119 -0.064252 0.000000
v 1.660119 2.604373 0.000000
v 1.685511 -0.064252 -0.127655
v 1.685511 2.604373 -0.127655
v 1.757822 -0.064252 -0.235875
v 1.757822 2.604373 -0.235875
v 1.866042 -0.064252 -0.308186
v 1.866042 2.604373 -0.308186
v 1.993697 -0.064252 -0.333578
v 1.993697 2.604373 -0.333578
v 2.121352 -0.064252 -0.308186
v 2.121352 2.604373 -0.308186
v 2.229572 -0.064252 -0.235875
v 2.229572 2.604373 -0.235875
v 2.301883 -0.064252 -0.127655
v 2.301883 2.604373 -0.127655
v 2.327275 -0.064252 0.000000
v 2.327275 2.604373 0.000000
v 2.301883 -0.064252 0.127655
v 2.301883 2.604373 0.127655
v 2.229572 -0.064252 0.235876
v 2.229572 2.604373 0.235876
v 2.121352 -0.064252 0.308186
v 2.121352 2.604373 0.308186
vn -0.1951 -0.0000 0.9808
vn -0.5556 -0.0000 0.8315
vn -0.8315 -0.0000 0.5556
vn -0.9808 -0.0000 0.1951
vn -0.9808 -0.0000 -0.1951
vn -0.8315 -0.0000 -0.5556
vn -0.5556 -0.0000 -0.8315
vn -0.1951 -0.0000 -0.9808
vn 0.1951 -0.0000 -0.9808
vn 0.5556 -0.0000 -0.8315
vn 0.8315 -0.0000 -0.5556
vn 0.9808 -0.0000 -0.1951
vn 0.9808 -0.0000 0.1951
vn 0.8315 -0.0000 0.5556
vn -0.0000 1.0000 -0.0000
vn 0.5556 -0.0000 0.8315
vn 0.1951 -0.0000 0.9808
vn -0.0000 -1.0000 -0.0000
vt 0.606759 0.517022
vt 0.693421 0.500116
vt 0.693421 0.517022
vt 0.606759 0.500116
vt 0.693421 0.483209
vt 0.606759 0.483209
vt 0.693421 0.466302
vt 0.606759 0.466302
vt 0.693421 0.449395
vt 0.606759 0.449395
vt 0.693421 0.432488
vt 0.606759 0.432488
vt 0.693421 0.415581
vt 0.606759 0.415581
vt 0.693421 0.398674
vt 0.606759 0.398674
vt 0.693421 0.381767
vt 0.606759 0.652278
vt 0.693421 0.635371
vt 0.693421 0.652278
vt 0.606759 0.635371
vt 0.693421 0.618464
vt 0.606759 0.618464
vt 0.693421 0.601557
vt 0.606759 0.601557
vt 0.693421 0.584650
vt 0.606759 0.584650
vt 0.693421 0.567743
vt 0.606759 0.567743
vt 0.693421 0.550836
vt 0.588334 0.354192
vt 0.600289 0.414294
vt 0.540187 0.426249
vt 0.606759 0.550836
vt 0.693421 0.533929
vt 0.606759 0.533929
vt 0.727466 0.347722
vt 0.778418 0.381767
vt 0.606759 0.381767
vt 0.528232 0.414294
vt 0.521762 0.398674
vt 0.521762 0.381767
vt 0.528232 0.366147
vt 0.540187 0.354192
vt 0.555807 0.347722
vt 0.572714 0.347722
vt 0.600289 0.366147
vt 0.588334 0.426249
vt 0.572714 0.432719
vt 0.555807 0.432719
vt 0.778418 0.398674
vt 0.771948 0.414294
vt 0.759993 0.426249
vt 0.744373 0.432719
vt 0.727466 0.432719
vt 0.711846 0.426249
vt 0.699891 0.414294
vt 0.699891 0.366147
vt 0.711846 0.354192
vt 0.744373 0.347722
vt 0.759993 0.354192
vt 0.771948 0.366147
s 0
usemtl マテリアル
f 2/1/1 3/2/1 1/3/1
f 4/4/2 5/5/2 3/2/2
f 6/6/3 7/7/3 5/5/3
f 8/8/4 9/9/4 7/7/4
f 10/10/5 11/11/5 9/9/5
f 12/12/6 13/13/6 11/11/6
f 14/14/7 15/15/7 13/13/7
f 16/16/8 17/17/8 15/15/8
f 18/18/9 19/19/9 17/20/9
f 20/21/10 21/22/10 19/19/10
f 22/23/11 23/24/11 21/22/11
f 24/25/12 25/26/12 23/24/12
f 26/27/13 27/28/13 25/26/13
f 28/29/14 29/30/14 27/28/14
f 22/31/15 14/32/15 6/33/15
f 30/34/16 31/35/16 29/30/16
f 32/36/17 1/3/17 31/35/17
f 15/15/18 23/37/18 31/38/18
f 2/1/1 4/4/1 3/2/1
f 4/4/2 6/6/2 5/5/2
f 6/6/3 8/8/3 7/7/3
f 8/8/4 10/10/4 9/9/4
f 10/10/5 12/12/5 11/11/5
f 12/12/6 14/14/6 13/13/6
f 14/14/7 16/16/7 15/15/7
f 16/16/8 18/39/8 17/17/8
f 18/18/9 20/21/9 19/19/9
f 20/21/10 22/23/10 21/22/10
f 22/23/11 24/25/11 23/24/11
f 24/25/12 26/27/12 25/26/12
f 26/27/13 28/29/13 27/28/13
f 28/29/14 30/34/14 29/30/14
f 6/33/15 4/40/15 2/41/15
f 2/41/15 32/42/15 30/43/15
f 30/43/15 28/44/15 26/45/15
f 26/45/15 24/46/15 22/31/15
f 22/31/15 20/47/15 18/39/15
f 18/39/15 16/16/15 14/32/15
f 14/32/15 12/48/15 10/49/15
f 10/49/15 8/50/15 6/33/15
f 6/33/15 2/41/15 30/43/15
f 30/43/15 26/45/15 22/31/15
f 22/31/15 18/39/15 14/32/15
f 14/32/15 10/49/15 6/33/15
f 6/33/15 30/43/15 22/31/15
f 30/34/16 32/36/16 31/35/16
f 32/36/17 2/1/17 1/3/17
f 31/38/18 1/51/18 3/52/18
f 3/52/18 5/53/18 7/54/18
f 7/54/18 9/55/18 11/56/18
f 11/56/18 13/57/18 15/15/18
f 15/15/18 17/17/18 19/58/18
f 19/58/18 21/59/18 23/37/18
f 23/37/18 25/60/18 27/61/18
f 27/61/18 29/62/18 31/38/18
f 31/38/18 3/52/18 7/54/18
f 7/54/18 11/56/18 15/15/18
f 15/15/18 19/58/18 23/37/18
f 23/37/18 27/61/18 31/38/18
f 31/38/18 7/54/18 15/15/18
o 支柱.001
v -2.009242 -0.064253 0.333579
v -2.009242 2.604373 0.333579
v -2.136897 -0.064253 0.308186
v -2.136897 2.604373 0.308186
v -2.245118 -0.064253 0.235876
v -2.245118 2.604373 0.235876
v -2.317428 -0.064253 0.127655
v -2.317428 2.604373 0.127655
v -2.342820 -0.064253 0.000000
v -2.342820 2.604373 0.000000
v -2.317428 -0.064253 -0.127655
v -2.317428 2.604373 -0.127655
v -2.245118 -0.064253 -0.235875
v -2.245118 2.604373 -0.235875
v -2.136897 -0.064253 -0.308186
v -2.136897 2.604373 -0.308186
v -2.009242 -0.064253 -0.333578
v -2.009242 2.604373 -0.333578
v -1.881587 -0.064253 -0.308186
v -1.881587 2.604373 -0.308186
v -1.773367 -0.064253 -0.235875
v -1.773367 2.604373 -0.235875
v -1.701056 -0.064253 -0.127655
v -1.701056 2.604373 -0.127655
v -1.675664 -0.064253 0.000000
v -1.675664 2.604373 0.000000
v -1.701056 -0.064253 0.127655
v -1.701056 2.604373 0.127655
v -1.773367 -0.064253 0.235876
v -1.773367 2.604373 0.235876
v -1.881587 -0.064253 0.308186
v -1.881587 2.604373 0.308186
vn -0.1951 -0.0000 0.9808
vn -0.5556 -0.0000 0.8315
vn -0.8315 -0.0000 0.5556
vn -0.9808 -0.0000 0.1951
vn -0.9808 -0.0000 -0.1951
vn -0.8315 -0.0000 -0.5556
vn -0.5556 -0.0000 -0.8315
vn -0.1951 -0.0000 -0.9808
vn 0.1951 -0.0000 -0.9808
vn 0.5556 -0.0000 -0.8315
vn 0.8315 -0.0000 -0.5556
vn 0.9808 -0.0000 -0.1951
vn 0.9808 -0.0000 0.1951
vn 0.8315 -0.0000 0.5556
vn -0.0000 1.0000 -0.0000
vn 0.5556 -0.0000 0.8315
vn 0.1951 -0.0000 0.9808
vn -0.0000 -1.0000 -0.0000
vt 0.606759 0.822294
vt 0.693421 0.805387
vt 0.693421 0.822294
vt 0.606759 0.805387
vt 0.693421 0.788480
vt 0.606759 0.788480
vt 0.693421 0.771574
vt 0.606759 0.771574
vt 0.693421 0.754667
vt 0.606759 0.754667
vt 0.693421 0.737760
vt 0.606759 0.737760
vt 0.693421 0.720853
vt 0.606759 0.720853
vt 0.693421 0.703946
vt 0.606759 0.703946
vt 0.693421 0.687039
vt 0.606759 0.957550
vt 0.693421 0.940643
vt 0.693421 0.957550
vt 0.606759 0.940643
vt 0.693421 0.923736
vt 0.606759 0.923736
vt 0.693421 0.906829
vt 0.606759 0.906829
vt 0.693421 0.889922
vt 0.606759 0.889922
vt 0.693421 0.873015
vt 0.606759 0.873015
vt 0.693421 0.856108
vt 0.588334 0.659464
vt 0.600289 0.719566
vt 0.540187 0.731521
vt 0.606759 0.856108
vt 0.693421 0.839201
vt 0.606759 0.839201
vt 0.727466 0.652994
vt 0.778418 0.687039
vt 0.606759 0.687039
vt 0.528232 0.719566
vt 0.521762 0.703946
vt 0.521762 0.687039
vt 0.528232 0.671419
vt 0.540187 0.659464
vt 0.555807 0.652994
vt 0.572714 0.652994
vt 0.600289 0.671419
vt 0.588334 0.731521
vt 0.572714 0.737991
vt 0.555807 0.737991
vt 0.778418 0.703946
vt 0.771948 0.719566
vt 0.759993 0.731521
vt 0.744373 0.737991
vt 0.727466 0.737991
vt 0.711846 0.731521
vt 0.699891 0.719566
vt 0.699891 0.671419
vt 0.711846 0.659464
vt 0.744373 0.652994
vt 0.759993 0.659464
vt 0.771948 0.671419
s 0
usemtl マテリアル
f 34/63/19 35/64/19 33/65/19
f 36/66/20 37/67/20 35/64/20
f 38/68/21 39/69/21 37/67/21
f 40/70/22 41/71/22 39/69/22
f 42/72/23 43/73/23 41/71/23
f 44/74/24 45/75/24 43/73/24
f 46/76/25 47/77/25 45/75/25
f 48/78/26 49/79/26 47/77/26
f 50/80/27 51/81/27 49/82/27
f 52/83/28 53/84/28 51/81/28
f 54/85/29 55/86/29 53/84/29
f 56/87/30 57/88/30 55/86/30
f 58/89/31 59/90/31 57/88/31
f 60/91/32 61/92/32 59/90/32
f 54/93/33 46/94/33 38/95/33
f 62/96/34 63/97/34 61/92/34
f 64/98/35 33/65/35 63/97/35
f 47/77/36 55/99/36 63/100/36
f 34/63/19 36/66/19 35/64/19
f 36/66/20 38/68/20 37/67/20
f 38/68/21 40/70/21 39/69/21
f 40/70/22 42/72/22 41/71/22
f 42/72/23 44/74/23 43/73/23
f 44/74/24 46/76/24 45/75/24
f 46/76/25 48/78/25 47/77/25
f 48/78/26 50/101/26 49/79/26
f 50/80/27 52/83/27 51/81/27
f 52/83/28 54/85/28 53/84/28
f 54/85/29 56/87/29 55/86/29
f 56/87/30 58/89/30 57/88/30
f 58/89/31 60/91/31 59/90/31
f 60/91/32 62/96/32 61/92/32
f 38/95/33 36/102/33 34/103/33
f 34/103/33 64/104/33 62/105/33
f 62/105/33 60/106/33 58/107/33
f 58/107/33 56/108/33 54/93/33
f 54/93/33 52/109/33 50/101/33
f 50/101/33 48/78/33 46/94/33
f 46/94/33 44/110/33 42/111/33
f 42/111/33 40/112/33 38/95/33
f 38/95/33 34/103/33 62/105/33
f 62/105/33 58/107/33 54/93/33
f 54/93/33 50/101/33 46/94/33
f 46/94/33 42/111/33 38/95/33
f 38/95/33 62/105/33 54/93/33
f 62/96/34 64/98/34 63/97/34
f 64/98/35 34/63/35 33/65/35
f 63/100/36 33/113/36 35/114/36
f 35/114/36 37/115/36 39/116/36
f 39/116/36 41/117/36 43/118/36
f 43/118/36 45/119/36 47/77/36
f 47/77/36 49/79/36 51/120/36
f 51/120/36 53/121/36 55/99/36
f 55/99/36 57/122/36 59/123/36
f 59/123/36 61/124/36 63/100/36
f 63/100/36 35/114/36 39/116/36
f 39/116/36 43/118/36 47/77/36
f 47/77/36 51/120/36 55/99/36
f 55/99/36 59/123/36 63/100/36
f 63/100/36 39/116/36 47/77/36
o 壁.002
v 1.660118 -0.064252 -0.083395
v 1.660118 2.604373 -0.083395
v 1.660118 -0.064252 0.083395
v 1.660118 2.604373 0.083395
v -1.675664 -0.064252 -0.083395
v -1.675664 2.604373 -0.083395
v -1.675664 -0.064252 0.083395
v -1.675664 2.604373 0.083395
v 0.976689 0.559598 0.083395
v 0.973733 0.964927 0.083395
v 0.821351 1.340533 0.083395
v 0.542743 1.629234 0.083395
v -0.210731 1.790033 0.083395
v 0.180324 1.787077 0.083395
v 0.829770 0.186255 0.083395
v -0.570888 1.637652 0.083395
v 0.588149 -0.064252 0.083395
v -0.582989 -0.064252 0.083395
v -0.836897 0.198853 0.083395
v -0.992234 0.979788 0.083395
v -0.989278 0.574460 0.083395
v -0.845315 1.353132 0.083395
v 0.180324 1.787077 -0.083395
v -0.210731 1.790033 -0.083395
v -0.845315 1.353132 -0.083395
v -0.992234 0.979788 -0.083395
v -0.989278 0.574460 -0.083395
v -0.570888 1.637652 -0.083395
v 0.976689 0.559598 -0.083395
v 0.973733 0.964927 -0.083395
v 0.829770 0.186255 -0.083395
v 0.821351 1.340533 -0.083395
v 0.542743 1.629234 -0.083395
v -0.836897 0.198853 -0.083395
v -0.582989 -0.064252 -0.083395
v 0.588149 -0.064252 -0.083395
vn 1.0000 -0.0000 -0.0000
vn -0.0000 -0.0000 1.0000
vn -1.0000 -0.0000 -0.0000
vn -0.0000 -0.0000 -1.0000
vn -0.0000 -1.0000 -0.0000
vn -0.0000 1.0000 -0.0000
vn 0.3897 -0.9210 -0.0000
vn 0.7198 -0.6942 -0.0000
vn 0.9305 -0.3662 -0.0000
vn 1.0000 0.0073 -0.0000
vn 0.9266 0.3759 -0.0000
vn 0.7196 0.6944 -0.0000
vn -0.7198 0.6942 -0.0000
vn -0.9305 0.3662 -0.0000
vn -1.0000 -0.0073 -0.0000
vn -0.9266 -0.3759 -0.0000
vn -0.7196 -0.6944 -0.0000
vn -0.3993 -0.9168 -0.0000
vn -0.0076 -1.0000 -0.0000
vt 0.885930 0.183667
vt 0.897087 0.191543
vt 0.882484 0.191543
vt 0.893395 0.177103
vt 0.897087 0.177103
vt 0.900533 0.177103
vt 0.882566 0.161351
vt 0.897087 0.161351
vt 0.885930 0.177103
vt 0.878792 0.177103
vt 0.878710 0.177103
vt 0.875100 0.156100
vt 0.900697 0.156100
vt 0.878710 0.199419
vt 0.875100 0.202433
vt 0.884760 0.200135
vt 0.875100 0.200135
vt 0.884760 0.205058
vt 0.884760 0.202433
vt 0.875100 0.205058
vt 0.884760 0.209981
vt 0.875100 0.209981
vt 0.884760 0.212606
vt 0.875100 0.214903
vt 0.875100 0.212606
vt 0.884760 0.214903
vt 0.875100 0.216872
vt 0.884760 0.216872
vt 0.877446 0.883309
vt 0.866508 0.885278
vt 0.877446 0.885278
vt 0.877446 0.880683
vt 0.866508 0.883309
vt 0.877446 0.878386
vt 0.866508 0.880683
vt 0.877446 0.875761
vt 0.866508 0.878386
vt 0.877446 0.873464
vt 0.866508 0.875761
vt 0.877446 0.870838
vt 0.866508 0.873464
vt 0.877446 0.868213
vt 0.866508 0.870838
vt 0.900697 0.191543
vt 0.900697 0.199419
vt 0.900697 0.161351
vt 0.900533 0.184979
vt 0.900533 0.169227
vt 0.897087 0.184979
vt 0.897087 0.169227
vt 0.878792 0.191543
vt 0.875100 0.161351
vt 0.878792 0.161351
vt 0.878710 0.184979
vt 0.878710 0.169227
vt 0.878792 0.184979
vt 0.878792 0.169227
vt 0.866508 0.868213
s 0
usemtl マテリアル
f 66/125/37 67/126/37 65/127/37
f 68/128/38 80/129/38 77/130/38
f 72/128/39 69/131/39 71/132/39
f 70/133/40 87/134/40 88/135/40
f 71/132/41 99/136/41 82/137/41
f 67/126/41 100/138/41 65/127/41
f 68/128/42 70/133/42 72/128/42
f 80/139/43 88/140/43 77/141/43
f 80/139/44 89/142/44 92/143/44
f 86/144/45 90/145/45 89/142/45
f 84/146/46 91/147/46 90/145/46
f 83/148/47 91/147/47 85/149/47
f 98/150/48 82/151/48 99/152/48
f 79/153/49 100/154/49 81/155/49
f 73/156/50 95/157/50 79/153/50
f 74/158/51 93/159/51 73/156/51
f 75/160/52 94/161/52 74/158/52
f 76/162/53 96/163/53 75/160/53
f 78/164/54 97/165/54 76/162/54
f 77/166/55 87/167/55 78/164/55
f 66/125/37 68/128/37 67/126/37
f 79/168/38 81/169/38 67/126/38
f 71/132/38 82/137/38 83/170/38
f 71/132/38 83/170/38 85/170/38
f 73/168/38 79/168/38 67/126/38
f 74/171/38 73/168/38 67/126/38
f 72/128/38 71/132/38 85/170/38
f 72/128/38 85/170/38 84/172/38
f 74/171/38 67/126/38 68/128/38
f 75/173/38 74/171/38 68/128/38
f 72/128/38 84/172/38 86/174/38
f 72/128/38 86/174/38 80/129/38
f 76/129/38 75/173/38 68/128/38
f 78/129/38 76/129/38 68/128/38
f 68/128/38 72/128/38 80/129/38
f 77/130/38 78/129/38 68/128/38
f 72/128/39 70/133/39 69/131/39
f 65/127/40 100/138/40 95/175/40
f 65/127/40 95/175/40 93/175/40
f 98/176/40 99/136/40 69/131/40
f 91/177/40 98/176/40 69/131/40
f 66/125/40 65/127/40 93/175/40
f 66/125/40 93/175/40 94/178/40
f 91/177/40 69/131/40 70/133/40
f 90/179/40 91/177/40 70/133/40
f 66/125/40 94/178/40 96/180/40
f 66/125/40 96/180/40 97/180/40
f 89/181/40 90/179/40 70/133/40
f 92/134/40 89/181/40 70/133/40
f 70/133/40 66/125/40 97/180/40
f 70/133/40 97/180/40 87/134/40
f 88/135/40 92/134/40 70/133/40
f 71/132/41 69/131/41 99/136/41
f 67/126/41 81/169/41 100/138/41
f 68/128/42 66/125/42 70/133/42
f 80/139/43 92/143/43 88/140/43
f 80/139/44 86/144/44 89/142/44
f 86/144/45 84/146/45 90/145/45
f 84/146/46 85/149/46 91/147/46
f 83/148/47 98/150/47 91/147/47
f 98/150/48 83/148/48 82/151/48
f 79/153/49 95/157/49 100/154/49
f 73/156/50 93/159/50 95/157/50
f 74/158/51 94/161/51 93/159/51
f 75/160/52 96/163/52 94/161/52
f 76/162/53 97/165/53 96/163/53
f 78/164/54 87/167/54 97/165/54
f 77/166/55 88/182/55 87/167/55
o 棚.002
v -0.841719 2.070648 -0.416973
v -0.841719 2.137364 -0.416973
v -0.841719 2.070648 -0.083395
v -0.841719 2.137364 -0.083395
v -1.508875 2.070648 -0.416973
v -1.508875 2.137364 -0.416973
v -1.508875 2.070648 -0.083395
v -1.508875 2.137364 -0.083395
vn 1.0000 -0.0000 -0.0000
vn -0.0000 -0.0000 1.0000
vn -1.0000 -0.0000 -0.0000
vn -0.0000 -0.0000 -1.0000
vn -0.0000 -1.0000 -0.0000
vn -0.0000 1.0000 -0.0000
vt 0.821221 0.077871
vt 0.782465 0.116627
vt 0.782465 0.077871
vt 0.821221 0.116627
vt 0.859977 0.155384
vt 0.821221 0.155384
vt 0.859977 0.116627
vt 0.898734 0.077871
vt 0.898734 0.116627
vt 0.859977 0.077871
vt 0.821221 0.039115
vt 0.859977 0.039115
vt 0.859977 0.000358
vt 0.821221 0.000358
s 0
usemtl マテリアル
f 102/183/56 103/184/56 101/185/56
f 104/186/57 107/187/57 103/188/57
f 108/189/58 105/190/58 107/191/58
f 106/192/59 101/193/59 105/194/59
f 107/195/60 101/193/60 103/196/60
f 104/186/61 106/192/61 108/189/61
f 102/183/56 104/186/56 103/184/56
f 104/186/57 108/189/57 107/187/57
f 108/189/58 106/192/58 105/190/58
f 106/192/59 102/183/59 101/193/59
f 107/195/60 105/194/60 101/193/60
f 104/186/61 102/183/61 106/192/61
