# Blender 4.4.1
# www.blender.org
mtllib HardFloorRE.mtl
o Cube
v -0.500000 0.050000 0.500000
v -0.500000 -0.050000 0.500000
v -0.500000 0.050000 -0.441524
v -0.500000 -0.050000 -0.465945
v 0.500000 0.050000 0.479302
v 0.500000 -0.050000 0.486622
v 0.500000 0.050000 -0.500000
v 0.500000 -0.050000 -0.462441
v -0.388889 -0.050000 0.465647
v -0.277778 -0.050000 0.507582
v -0.166667 -0.050000 0.477665
v -0.055556 -0.050000 0.452971
v 0.055556 -0.050000 0.441759
v 0.166667 -0.050000 0.466988
v 0.277778 -0.050000 0.479295
v 0.388889 -0.050000 0.424227
v -0.388889 0.050000 -0.500000
v -0.277778 0.050000 -0.410268
v -0.166667 0.050000 -0.500000
v -0.055556 0.050000 -0.465409
v 0.055556 0.050000 -0.383435
v 0.166667 0.050000 -0.478631
v 0.277778 0.050000 -0.459912
v 0.388889 0.050000 -0.448775
v 0.388889 -0.050000 -0.447824
v 0.277778 -0.050000 -0.408908
v 0.166667 -0.050000 -0.472526
v 0.055556 -0.050000 -0.468727
v -0.055556 -0.050000 -0.423038
v -0.166667 -0.050000 -0.483210
v -0.277778 -0.050000 -0.411499
v -0.388889 -0.050000 -0.466970
v 0.388889 0.050000 0.489569
v 0.277778 0.050000 0.474002
v 0.166667 0.050000 0.438137
v 0.055556 0.050000 0.493305
v -0.055556 0.050000 0.475798
v -0.166667 0.050000 0.470033
v -0.277778 0.050000 0.500000
v -0.388889 0.050000 0.430093
v -0.500000 0.000000 0.458604
v 0.500000 0.000000 -0.500000
v -0.500000 0.000000 -0.402678
v 0.500000 0.000000 0.429411
v 0.388889 0.000000 0.453693
v 0.277778 0.000000 0.507448
v 0.166667 0.000000 0.460727
v 0.055556 0.000000 0.453888
v -0.055556 0.000000 0.427269
v -0.166667 0.000000 0.502980
v -0.277778 0.000000 0.474777
v -0.388889 0.000000 0.490321
v -0.388889 0.000000 -0.474753
v -0.277778 0.000000 -0.378244
v -0.166667 0.000000 -0.465274
v -0.055556 0.000000 -0.465409
v 0.055556 0.000000 -0.426031
v 0.166667 0.000000 -0.518357
v 0.277778 0.000000 -0.444168
v 0.388889 0.000000 -0.426912
vn -0.0000 1.0000 -0.0000
vn 0.1529 -0.6980 0.6996
vn -0.5162 -0.3431 -0.7847
vn -0.0000 -1.0000 -0.0000
vn 1.0000 -0.0000 -0.0000
vn -1.0000 -0.0000 -0.0000
vn 0.5904 -0.4353 -0.6797
vn -0.5506 -0.4502 -0.7030
vn -0.0012 -0.0000 -1.0000
vn 0.3340 -0.0000 -0.9426
vn -0.5453 0.5214 -0.6563
vn 0.4633 0.5513 -0.6939
vn 0.1409 -0.3966 -0.9071
vn 0.3658 -0.5426 0.7562
vn -0.3299 0.5249 0.7846
vn -0.0560 0.4111 0.9099
vn -0.1694 -0.6864 0.7072
vn 0.4393 -0.6257 0.6446
vn -0.2210 -0.4393 0.8707
vn 0.1239 -0.4469 0.8859
vn -0.4559 -0.5460 -0.7028
vn -0.2147 -0.6228 0.7523
vn 0.2317 0.6204 0.7493
vn -0.0091 -0.1538 -0.9881
vn -0.3009 0.5231 0.7974
vn 0.2196 0.5352 0.8157
vn 0.1945 -0.4431 0.8751
vn 0.0976 -0.2346 0.9672
vn -0.2155 -0.2302 0.9490
vn -0.1092 0.1235 0.9863
vn 0.3927 -0.4669 0.7923
vn -0.2752 -0.5541 -0.7857
vn 0.4238 -0.5220 -0.7402
vn -0.0260 0.6492 -0.7602
vn -0.2985 0.6198 -0.7258
vn 0.3818 -0.5975 -0.7051
vn -0.5192 0.2886 -0.8045
vn 0.4424 -0.1379 -0.8861
vn -0.1205 0.3830 -0.9158
vn -0.3466 0.7063 0.6173
vn 0.0749 -0.5813 0.8102
vn -0.4187 -0.0000 -0.9081
vn 0.5848 -0.3656 -0.7241
vn -0.5528 -0.4754 -0.6845
vn 0.2477 -0.5527 -0.7957
vn 0.4897 0.5654 -0.6637
vn -0.5463 0.5432 -0.6376
vn 0.1587 -0.2965 -0.9417
vn 0.0952 -0.2990 -0.9495
vn -0.1157 0.5523 0.8256
vn -0.2822 0.3950 0.8743
vn 0.3633 -0.5768 0.7317
vn -0.1228 -0.6144 0.7794
vn -0.0433 0.5497 0.8342
vn 0.2197 0.5368 0.8146
vn -0.3729 0.7139 0.5927
vn -0.4252 -0.4080 -0.8079
vn 0.3729 0.7139 0.5927
vn -0.2480 -0.4287 0.8687
vn -0.3732 0.7279 -0.5753
vn 0.1245 -0.4391 0.8898
vn -0.2209 -0.4405 0.8701
vn 0.5183 0.3910 0.7606
vn -0.2084 0.4472 0.8698
vn -0.0610 0.1240 0.9904
vn -0.3440 -0.4607 0.8182
vn 0.3885 -0.4521 0.8029
vn 0.1418 0.3819 -0.9132
vn 0.4416 -0.6062 -0.6614
vn -0.5223 -0.5762 -0.6286
vn 0.2610 -0.6241 -0.7365
vn -0.0011 0.3377 -0.9413
vn -0.5463 0.4639 -0.6974
vn 0.5860 0.4487 -0.6747
vn -0.4655 -0.5316 -0.7076
vn 0.1850 -0.4989 0.8467
vt 0.962332 0.971018
vt 0.515409 0.917936
vt 0.967225 0.917513
vt 0.129895 0.371603
vt 0.154628 0.332224
vt 0.162518 0.390718
vt 0.049692 0.949991
vt 0.024283 0.997783
vt 0.028585 0.945014
vt 0.951604 0.435706
vt 0.503089 0.489627
vt 0.502546 0.436127
vt 0.115376 0.988938
vt 0.139917 0.989699
vt 0.026295 0.025435
vt 0.100615 0.515740
vt 0.071486 0.503713
vt 0.086230 0.572288
vt 0.108467 0.631287
vt 0.087462 0.631802
vt 0.087916 0.687806
vt 0.104203 0.740127
vt 0.083693 0.738513
vt 0.079075 0.796782
vt 0.078574 0.860282
vt 0.057831 0.852414
vt 0.038384 0.897932
vt 0.131989 0.330736
vt 0.144327 0.293208
vt 0.125157 0.293155
vt 0.140798 0.253525
vt 0.121633 0.253547
vt 0.139031 0.211435
vt 0.120207 0.169569
vt 0.142046 0.172925
vt 0.140843 0.130859
vt 0.127768 0.090354
vt 0.147697 0.091166
vt 0.145866 0.052076
vt 0.931309 0.061222
vt 0.504325 0.008122
vt 0.961302 0.007693
vt 0.530202 0.115099
vt 0.511413 0.061616
vt 0.951999 0.168204
vt 0.957875 0.114698
vt 0.939901 0.221715
vt 0.499620 0.168628
vt 0.523549 0.275606
vt 0.501499 0.222126
vt 0.957291 0.328700
vt 0.945350 0.275211
vt 0.529205 0.382602
vt 0.494626 0.329134
vt 0.971746 0.382187
vt 0.938236 0.543037
vt 0.518499 0.489930
vt 0.971846 0.489504
vt 0.533649 0.596916
vt 0.490393 0.543456
vt 0.957568 0.650019
vt 0.971947 0.596505
vt 0.507199 0.703942
vt 0.490493 0.650457
vt 0.960394 0.703517
vt 0.546720 0.757405
vt 0.942360 0.810535
vt 0.968874 0.757010
vt 0.509996 0.864441
vt 0.500933 0.810949
vt 0.959679 0.864019
vt 0.129833 0.000158
vt 0.148982 0.012377
vt 0.165063 0.051745
vt 0.171591 0.011750
vt 0.045934 0.534443
vt 0.063252 0.578267
vt 0.168742 0.093083
vt 0.160062 0.132419
vt 0.160131 0.171922
vt 0.158229 0.211606
vt 0.158372 0.252566
vt 0.162501 0.290365
vt 0.173991 0.330326
vt 0.007561 0.941252
vt 0.012240 0.891908
vt 0.036383 0.843083
vt 0.046375 0.795177
vt 0.055672 0.741965
vt 0.064029 0.688440
vt 0.066283 0.631876
vt 0.000158 0.007425
vt 0.165358 0.972125
vt 0.197039 0.368909
vt 0.000158 0.986701
vt 0.490794 0.971460
vt 0.044655 0.999842
vt 0.968195 0.489191
vt 0.051517 0.000158
vt 0.111896 0.569209
vt 0.115059 0.692264
vt 0.110024 0.802268
vt 0.060700 0.904130
vt 0.115376 0.209434
vt 0.119914 0.130129
vt 0.119744 0.044973
s 0
usemtl Material
f 5/1/1 24/2/1 33/3/1
f 5/4/2 45/5/2 44/6/2
f 24/7/3 42/8/3 60/9/3
f 9/10/4 4/11/4 32/12/4
f 7/13/5 44/6/5 42/14/5
f 41/15/6 3/16/6 43/17/6
f 53/18/7 18/19/7 54/20/7
f 18/19/8 55/21/8 54/20/8
f 55/21/9 20/22/9 56/23/9
f 20/22/10 57/24/10 56/23/10
f 57/24/11 22/25/11 58/26/11
f 22/25/12 59/27/12 58/26/12
f 59/27/13 24/7/13 60/9/13
f 33/28/14 46/29/14 45/5/14
f 34/30/15 47/31/15 46/29/15
f 35/32/16 48/33/16 47/31/16
f 48/33/17 37/34/17 49/35/17
f 37/34/18 50/36/18 49/35/18
f 50/36/19 39/37/19 51/38/19
f 39/37/20 52/39/20 51/38/20
f 3/16/21 53/18/21 43/17/21
f 16/40/4 8/41/4 6/42/4
f 16/40/4 26/43/4 25/44/4
f 14/45/4 26/43/4 15/46/4
f 13/47/4 27/48/4 14/45/4
f 13/47/4 29/49/4 28/50/4
f 11/51/4 29/49/4 12/52/4
f 11/51/4 31/53/4 30/54/4
f 9/10/4 31/53/4 10/55/4
f 40/56/1 3/57/1 1/58/1
f 40/56/1 18/59/1 17/60/1
f 38/61/1 18/59/1 39/62/1
f 38/61/1 20/63/1 19/64/1
f 37/65/1 21/66/1 20/63/1
f 35/67/1 21/66/1 36/68/1
f 35/67/1 23/69/1 22/70/1
f 34/71/1 24/2/1 23/69/1
f 52/39/22 1/72/22 41/73/22
f 9/74/23 41/73/23 2/75/23
f 4/76/24 53/18/24 32/77/24
f 51/38/25 9/74/25 10/78/25
f 11/79/26 51/38/26 10/78/26
f 12/80/27 50/36/27 11/79/27
f 48/33/28 12/80/28 13/81/28
f 14/82/29 48/33/29 13/81/29
f 15/83/30 47/31/30 14/82/30
f 45/5/31 15/83/31 16/84/31
f 59/27/32 25/85/32 26/86/32
f 27/87/33 59/27/33 26/86/33
f 57/24/34 27/87/34 28/88/34
f 29/89/35 57/24/35 28/88/35
f 30/90/36 56/23/36 29/89/36
f 31/91/37 55/21/37 30/90/37
f 53/18/38 31/91/38 32/77/38
f 2/92/6 43/17/6 4/76/6
f 8/93/5 44/6/5 6/94/5
f 60/9/39 8/95/39 25/85/39
f 44/6/40 16/84/40 6/94/40
f 5/1/1 7/96/1 24/2/1
f 5/4/41 33/28/41 45/5/41
f 24/7/42 7/97/42 42/8/42
f 9/10/4 2/98/4 4/11/4
f 7/13/5 5/4/5 44/6/5
f 41/15/6 1/99/6 3/16/6
f 53/18/43 17/100/43 18/19/43
f 18/19/44 19/101/44 55/21/44
f 55/21/45 19/101/45 20/22/45
f 20/22/46 21/102/46 57/24/46
f 57/24/47 21/102/47 22/25/47
f 22/25/48 23/103/48 59/27/48
f 59/27/49 23/103/49 24/7/49
f 33/28/50 34/30/50 46/29/50
f 34/30/51 35/32/51 47/31/51
f 35/32/52 36/104/52 48/33/52
f 48/33/53 36/104/53 37/34/53
f 37/34/54 38/105/54 50/36/54
f 50/36/55 38/105/55 39/37/55
f 39/37/56 40/106/56 52/39/56
f 3/16/57 17/100/57 53/18/57
f 16/40/4 25/44/4 8/41/4
f 16/40/4 15/46/4 26/43/4
f 14/45/4 27/48/4 26/43/4
f 13/47/4 28/50/4 27/48/4
f 13/47/4 12/52/4 29/49/4
f 11/51/4 30/54/4 29/49/4
f 11/51/4 10/55/4 31/53/4
f 9/10/4 32/12/4 31/53/4
f 40/56/1 17/60/1 3/57/1
f 40/56/1 39/62/1 18/59/1
f 38/61/1 19/64/1 18/59/1
f 38/61/1 37/65/1 20/63/1
f 37/65/1 36/68/1 21/66/1
f 35/67/1 22/70/1 21/66/1
f 35/67/1 34/71/1 23/69/1
f 34/71/1 33/3/1 24/2/1
f 52/39/58 40/106/58 1/72/58
f 9/74/59 52/39/59 41/73/59
f 4/76/60 43/17/60 53/18/60
f 51/38/61 52/39/61 9/74/61
f 11/79/62 50/36/62 51/38/62
f 12/80/63 49/35/63 50/36/63
f 48/33/64 49/35/64 12/80/64
f 14/82/65 47/31/65 48/33/65
f 15/83/66 46/29/66 47/31/66
f 45/5/67 46/29/67 15/83/67
f 59/27/68 60/9/68 25/85/68
f 27/87/69 58/26/69 59/27/69
f 57/24/70 58/26/70 27/87/70
f 29/89/71 56/23/71 57/24/71
f 30/90/72 55/21/72 56/23/72
f 31/91/73 54/20/73 55/21/73
f 53/18/74 54/20/74 31/91/74
f 2/92/6 41/15/6 43/17/6
f 8/93/5 42/14/5 44/6/5
f 60/9/75 42/8/75 8/95/75
f 44/6/76 45/5/76 16/84/76
