# Blender 4.4.1
# www.blender.org
mtllib HealItem.mtl
o 立方体
v -0.087639 0.200244 0.345510
v 0.087639 0.200244 0.345510
v 0.087639 0.200244 -0.345510
v -0.087639 0.200244 -0.345510
v 0.345510 0.200244 0.087639
v 0.345510 0.200244 -0.087639
v -0.345510 0.200244 -0.087639
v -0.345510 0.200244 0.087639
v 0.087639 0.200244 0.170231
v 0.087639 0.200244 0.087639
v 0.170231 0.200244 0.087639
v -0.170231 0.200244 0.087639
v -0.087639 0.200244 0.087639
v -0.087639 0.200244 0.170231
v 0.170231 0.200244 -0.087639
v 0.087639 0.200244 -0.087639
v 0.087639 0.200244 -0.170231
v -0.087639 0.200244 -0.170231
v -0.087639 0.200244 -0.087639
v -0.170231 0.200244 -0.087639
v -0.458704 -0.145293 0.458704
v -0.458704 -0.103997 0.500000
v -0.500000 -0.103997 0.458704
v -0.345510 0.145293 0.345510
v -0.428102 0.145293 0.369701
v -0.369701 0.145293 0.428102
v -0.500000 -0.103997 -0.458704
v -0.458704 -0.103997 -0.500000
v -0.458704 -0.145293 -0.458704
v -0.345510 0.145293 -0.345510
v -0.369701 0.145293 -0.428102
v -0.428102 0.145293 -0.369701
v 0.500000 -0.103997 0.458704
v 0.458704 -0.103997 0.500000
v 0.458704 -0.145293 0.458704
v 0.345510 0.145293 0.345510
v 0.369701 0.145293 0.428102
v 0.428102 0.145293 0.369701
v 0.458704 -0.103997 -0.500000
v 0.500000 -0.103997 -0.458704
v 0.458704 -0.145293 -0.458704
v 0.345510 0.145293 -0.345510
v 0.428102 0.145293 -0.369701
v 0.369701 0.145293 -0.428102
v -0.500000 0.103997 0.458704
v -0.458704 0.103997 0.500000
v -0.400303 0.145293 0.458704
v -0.458704 0.145293 0.400303
v -0.458704 0.145293 -0.400303
v -0.400303 0.145293 -0.458704
v -0.458704 0.103997 -0.500000
v -0.500000 0.103997 -0.458704
v 0.400303 0.145293 -0.458704
v 0.458704 0.145293 -0.400303
v 0.500000 0.103997 -0.458704
v 0.458704 0.103997 -0.500000
v 0.458704 0.145293 0.400303
v 0.400303 0.145293 0.458704
v 0.458704 0.103997 0.500000
v 0.500000 0.103997 0.458704
v -0.500000 -0.103997 -0.207963
v -0.458704 -0.145293 -0.207963
v -0.458704 -0.145293 -0.125371
v -0.500000 -0.103997 -0.125371
v -0.500000 -0.103997 0.207963
v -0.500000 -0.103997 0.125371
v -0.458704 -0.145293 0.125371
v -0.458704 -0.145293 0.207963
v -0.500000 0.103997 0.207963
v -0.458704 0.145293 0.196431
v -0.458704 0.145293 0.109372
v -0.500000 0.103997 0.125371
v -0.500000 0.103997 -0.207963
v -0.500000 0.103997 -0.125371
v -0.458704 0.145293 -0.109372
v -0.458704 0.145293 -0.196431
v 0.458704 -0.145293 0.207963
v 0.458704 -0.145293 0.125371
v 0.500000 -0.103997 0.125371
v 0.500000 -0.103997 0.207963
v 0.458704 -0.145293 -0.207963
v 0.500000 -0.103997 -0.207963
v 0.500000 -0.103997 -0.125371
v 0.458704 -0.145293 -0.125371
v 0.500000 0.103997 -0.207963
v 0.458704 0.145293 -0.196431
v 0.458704 0.145293 -0.109372
v 0.500000 0.103997 -0.125371
v 0.500000 0.103997 0.207963
v 0.500000 0.103997 0.125371
v 0.458704 0.145293 0.109372
v 0.458704 0.145293 0.196431
v -0.345510 0.145293 0.170231
v -0.345510 0.145293 0.087639
v -0.428102 0.145293 0.099171
v -0.428102 0.145293 0.186230
v -0.345510 0.145293 -0.170231
v -0.428102 0.145293 -0.186230
v -0.428102 0.145293 -0.099171
v -0.345510 0.145293 -0.087639
v 0.345510 0.145293 -0.170231
v 0.345510 0.145293 -0.087639
v 0.428102 0.145293 -0.099171
v 0.428102 0.145293 -0.186230
v 0.345510 0.145293 0.170231
v 0.428102 0.145293 0.186230
v 0.428102 0.145293 0.099171
v 0.345510 0.145293 0.087639
v 0.207963 -0.103997 -0.500000
v 0.207963 -0.145293 -0.458704
v 0.125371 -0.145293 -0.458704
v 0.125371 -0.103997 -0.500000
v -0.207963 -0.103997 -0.500000
v -0.125371 -0.103997 -0.500000
v -0.125371 -0.145293 -0.458704
v -0.207963 -0.145293 -0.458704
v -0.207963 0.103997 -0.500000
v -0.196431 0.145293 -0.458704
v -0.109372 0.145293 -0.458704
v -0.125371 0.103997 -0.500000
v 0.207963 0.103997 -0.500000
v 0.125371 0.103997 -0.500000
v 0.109372 0.145293 -0.458704
v 0.196431 0.145293 -0.458704
v -0.207963 -0.103997 0.500000
v -0.207963 -0.145293 0.458704
v -0.125371 -0.145293 0.458704
v -0.125371 -0.103997 0.500000
v 0.207963 -0.103997 0.500000
v 0.125371 -0.103997 0.500000
v 0.125371 -0.145293 0.458704
v 0.207963 -0.145293 0.458704
v 0.207963 0.103997 0.500000
v 0.196431 0.145293 0.458704
v 0.109372 0.145293 0.458704
v 0.125371 0.103997 0.500000
v -0.207963 0.103997 0.500000
v -0.125371 0.103997 0.500000
v -0.109372 0.145293 0.458704
v -0.196431 0.145293 0.458704
v -0.186230 0.145293 -0.428102
v -0.170231 0.145293 -0.345510
v -0.087639 0.145293 -0.345510
v -0.099171 0.145293 -0.428102
v 0.186230 0.145293 -0.428102
v 0.099171 0.145293 -0.428102
v 0.087639 0.145293 -0.345510
v 0.170231 0.145293 -0.345510
v 0.170231 0.145293 0.345510
v 0.087639 0.145293 0.345510
v 0.099171 0.145293 0.428102
v 0.186230 0.145293 0.428102
v -0.170231 0.145293 0.345510
v -0.186230 0.145293 0.428102
v -0.099171 0.145293 0.428102
v -0.087639 0.145293 0.345510
v -0.170231 0.145293 -0.170231
v -0.170231 0.145293 -0.087639
v -0.087639 0.145293 -0.087639
v -0.087639 0.145293 -0.170231
v 0.170231 0.145293 -0.170231
v 0.087639 0.145293 -0.170231
v 0.087639 0.145293 -0.087639
v 0.170231 0.145293 -0.087639
v -0.170231 0.145293 0.170231
v -0.087639 0.145293 0.170231
v -0.087639 0.145293 0.087639
v -0.170231 0.145293 0.087639
v 0.170231 0.145293 0.170231
v 0.170231 0.145293 0.087639
v 0.087639 0.145293 0.087639
v 0.087639 0.145293 0.170231
v 0.207963 -0.145293 -0.207963
v 0.207963 -0.145293 -0.125371
v 0.125371 -0.145293 -0.125371
v 0.125371 -0.145293 -0.207963
v -0.207963 -0.145293 -0.207963
v -0.125371 -0.145293 -0.207963
v -0.125371 -0.145293 -0.125371
v -0.207963 -0.145293 -0.125371
v 0.207963 -0.145293 0.207963
v 0.125371 -0.145293 0.207963
v 0.125371 -0.145293 0.125371
v 0.207963 -0.145293 0.125371
v -0.207963 -0.145293 0.207963
v -0.207963 -0.145293 0.125371
v -0.125371 -0.145293 0.125371
v -0.125371 -0.145293 0.207963
vn -0.0000 1.0000 -0.0000
vn 1.0000 -0.0000 -0.0000
vn -0.0000 -0.0000 -1.0000
vn -0.0000 -1.0000 -0.0000
vn -1.0000 -0.0000 -0.0000
vn -0.0000 -0.0000 1.0000
vn -0.5774 -0.5774 0.5773
vn -0.5774 -0.5774 -0.5774
vn 0.5774 -0.5774 0.5774
vn 0.5774 -0.5774 -0.5774
vn -0.3574 0.8629 0.3574
vn -0.3574 0.8629 -0.3574
vn 0.3574 0.8629 -0.3574
vn 0.3574 0.8629 0.3574
vn -0.7071 -0.7071 -0.0000
vn -0.7071 0.7071 -0.0000
vn 0.7071 -0.7071 -0.0000
vn 0.7071 0.7071 -0.0000
vn -0.0000 -0.7071 -0.7071
vn -0.0000 0.7071 -0.7071
vn -0.0000 -0.7071 0.7071
vn -0.0000 0.7071 0.7071
vn -0.7071 -0.0000 0.7071
vn -0.7071 -0.0000 -0.7071
vn 0.7071 -0.0000 -0.7071
vn 0.7071 -0.0000 0.7071
vt 0.836377 0.538622
vt 0.792558 0.582442
vt 0.792558 0.538622
vt 0.707442 0.538622
vt 0.663622 0.582442
vt 0.663622 0.538622
vt 0.707442 0.667558
vt 0.663622 0.711378
vt 0.663622 0.667558
vt 0.842425 0.732026
vt 0.799108 0.739676
vt 0.796558 0.732026
vt 0.589472 0.676991
vt 0.410528 0.739676
vt 0.410528 0.676991
vt 0.589472 0.260324
vt 0.410528 0.323009
vt 0.410528 0.260324
vt 0.842425 0.517974
vt 0.799108 0.510324
vt 0.850076 0.510324
vt 0.642974 0.532575
vt 0.635324 0.575892
vt 0.635324 0.524924
vt 0.657575 0.732026
vt 0.700892 0.739676
vt 0.649924 0.739676
vt 0.857026 0.717425
vt 0.864676 0.674108
vt 0.864676 0.725076
vt 0.198009 0.593657
vt 0.135324 0.656343
vt 0.135324 0.593657
vt 0.836378 0.646910
vt 0.836378 0.603090
vt 0.836377 0.667558
vt 0.792558 0.711378
vt 0.792558 0.667558
vt 0.589472 0.593657
vt 0.410528 0.656343
vt 0.410528 0.593657
vt 0.857025 0.532575
vt 0.864676 0.575892
vt 0.857026 0.578442
vt 0.792558 0.646910
vt 0.589472 0.426991
vt 0.410528 0.489676
vt 0.410528 0.426991
vt 0.642974 0.600207
vt 0.635324 0.652343
vt 0.635324 0.597657
vt 0.364676 0.510324
vt 0.301991 0.573009
vt 0.301991 0.510324
vt 0.364676 0.593657
vt 0.301991 0.656343
vt 0.301991 0.593657
vt 0.589472 0.926991
vt 0.410528 0.989676
vt 0.410528 0.926991
vt 0.857025 0.649793
vt 0.864676 0.597657
vt 0.864676 0.652343
vt 0.589472 0.093657
vt 0.410528 0.156343
vt 0.410528 0.093657
vt 0.792558 0.603090
vt 0.589472 0.176991
vt 0.410528 0.239676
vt 0.410528 0.176991
vt 0.774793 0.517974
vt 0.722657 0.510324
vt 0.777343 0.510324
vt 0.589472 0.343657
vt 0.410528 0.406343
vt 0.410528 0.343657
vt 0.281343 0.593657
vt 0.218657 0.656343
vt 0.218657 0.593657
vt 0.657575 0.517975
vt 0.700892 0.510324
vt 0.703442 0.517974
vt 0.771910 0.603090
vt 0.771910 0.646910
vt 0.589472 0.510324
vt 0.410528 0.573009
vt 0.410528 0.510324
vt 0.707442 0.603090
vt 0.663622 0.603090
vt 0.589472 0.760324
vt 0.410528 0.823009
vt 0.410528 0.760324
vt 0.589472 0.843657
vt 0.410528 0.906343
vt 0.410528 0.843657
vt 0.642975 0.717425
vt 0.635324 0.674108
vt 0.642974 0.671558
vt 0.728090 0.646910
vt 0.728090 0.603090
vt 0.589472 0.010324
vt 0.410528 0.073009
vt 0.410528 0.010324
vt 0.725207 0.732025
vt 0.777343 0.739676
vt 0.722657 0.739676
vt 0.364676 0.676991
vt 0.301991 0.739676
vt 0.301991 0.676991
vt 0.281343 0.676991
vt 0.218657 0.739676
vt 0.218657 0.676991
vt 0.198009 0.510324
vt 0.135324 0.573009
vt 0.135324 0.510324
vt 0.281343 0.510324
vt 0.218657 0.573009
vt 0.218657 0.510324
vt 0.135324 0.739676
vt 0.135324 0.750000
vt 0.125000 0.739676
vt 0.836377 0.711378
vt 0.125000 0.510324
vt 0.135324 0.500000
vt 0.375000 0.739676
vt 0.364676 0.750000
vt 0.364676 0.739676
vt 0.364676 0.500000
vt 0.375000 0.510324
vt 0.589472 0.000000
vt 0.625000 0.024924
vt 0.625000 0.239676
vt 0.589472 0.239676
vt 0.625000 0.225076
vt 0.625000 0.489676
vt 0.589472 0.489676
vt 0.625000 0.475076
vt 0.625000 0.774924
vt 0.589472 0.750000
vt 0.625000 0.760324
vt 0.135324 0.583333
vt 0.125000 0.593657
vt 0.125000 0.583333
vt 0.125000 0.666667
vt 0.135324 0.676991
vt 0.125000 0.676991
vt 0.625000 0.075892
vt 0.589472 0.083333
vt 0.589472 0.073009
vt 0.589472 0.156343
vt 0.625000 0.166667
vt 0.589472 0.166667
vt 0.364676 0.656343
vt 0.364676 0.573009
vt 0.589472 0.573009
vt 0.589472 0.656343
vt 0.857025 0.671558
vt 0.836378 0.582442
vt 0.857025 0.600207
vt 0.642974 0.578442
vt 0.642974 0.649793
vt 0.663622 0.646910
vt 0.291667 0.510324
vt 0.281343 0.500000
vt 0.291667 0.500000
vt 0.208333 0.500000
vt 0.198009 0.500000
vt 0.625000 0.325892
vt 0.589472 0.333333
vt 0.589472 0.323009
vt 0.589472 0.406343
vt 0.625000 0.416667
vt 0.589472 0.416667
vt 0.198009 0.739676
vt 0.208333 0.750000
vt 0.198009 0.750000
vt 0.281343 0.750000
vt 0.291667 0.739676
vt 0.291667 0.750000
vt 0.625000 0.833333
vt 0.589472 0.833333
vt 0.589472 0.916667
vt 0.625000 0.924108
vt 0.796558 0.517974
vt 0.725207 0.517974
vt 0.707442 0.711378
vt 0.703442 0.732026
vt 0.774793 0.732025
vt 0.771910 0.711378
vt 0.771910 0.582442
vt 0.728090 0.582442
vt 0.707442 0.582442
vt 0.771910 0.667558
vt 0.707442 0.646910
vt 0.728090 0.667558
vt 0.281343 0.573009
vt 0.198009 0.573009
vt 0.198009 0.656343
vt 0.198009 0.676991
vt 0.410528 0.000000
vt 0.625000 0.174108
vt 0.625000 0.424108
vt 0.635324 0.725076
vt 0.589472 0.739676
vt 0.301991 0.750000
vt 0.625000 0.975076
vt 0.850076 0.739676
vt 0.625000 0.152343
vt 0.625000 0.097657
vt 0.625000 0.274924
vt 0.625000 0.402343
vt 0.625000 0.347657
vt 0.281343 0.739676
vt 0.218657 0.750000
vt 0.589472 0.823009
vt 0.625000 0.902343
vt 0.625000 0.847657
vt 0.728090 0.538622
vt 0.771910 0.538622
vt 0.728090 0.711378
vt 0.281343 0.656343
vt 0.589472 0.906343
vt 0.864676 0.524924
vt 0.589472 0.989676
vt 0.649924 0.510324
vt 0.625000 0.010324
vt 0.589472 0.250000
vt 0.589472 0.500000
vt 0.135324 0.666667
vt 0.625000 0.083333
vt 0.208333 0.510324
vt 0.625000 0.333333
vt 0.208333 0.739676
vt 0.625000 0.916667
vt 0.125000 0.573009
vt 0.125000 0.656343
vt 0.301991 0.500000
vt 0.218657 0.500000
vt 0.625000 0.825892
s 0
usemtl マテリアル
f 30/1/1 157/2/1 142/3/1
f 148/4/1 101/5/1 42/6/1
f 169/7/1 36/8/1 105/9/1
f 26/10/1 140/11/1 154/12/1
f 89/13/2 33/14/2 80/15/2
f 51/16/3 113/17/3 28/18/3
f 31/19/1 118/20/1 50/21/1
f 43/22/1 86/23/1 54/24/1
f 37/25/1 134/26/1 58/27/1
f 25/28/1 70/29/1 48/30/1
f 180/31/4 67/32/4 63/33/4
f 94/34/5 7/35/5 100/35/5
f 93/36/1 153/37/1 165/38/1
f 88/39/2 79/40/2 83/41/2
f 32/42/1 76/43/1 98/44/1
f 168/45/6 8/34/6 94/34/6
f 121/46/3 39/47/3 109/48/3
f 103/49/1 91/50/1 87/51/1
f 41/52/4 173/53/4 110/54/4
f 84/55/4 184/56/4 174/57/4
f 137/58/6 22/59/6 125/60/6
f 95/61/1 75/62/1 71/63/1
f 72/64/5 64/65/5 66/66/5
f 7/35/1 12/45/1 20/67/1
f 73/68/5 27/69/5 61/70/5
f 144/71/1 123/72/1 119/73/1
f 120/74/3 112/75/3 114/76/3
f 175/77/4 187/78/4 179/79/4
f 44/80/1 124/81/1 145/82/1
f 159/83/2 13/84/2 167/84/2
f 55/85/2 82/86/2 40/87/2
f 164/88/3 6/89/3 102/89/3
f 59/90/6 129/91/6 34/92/6
f 136/93/6 128/94/6 130/95/6
f 38/96/1 92/97/1 106/98/1
f 159/83/1 171/99/1 163/100/1
f 45/101/5 65/102/5 23/103/5
f 151/104/1 139/105/1 135/106/1
f 77/107/4 132/108/4 181/109/4
f 182/110/4 127/111/4 188/112/4
f 116/113/4 62/114/4 29/115/4
f 111/116/4 178/117/4 115/118/4
f 21/119/7 22/120/7 23/121/7
f 24/122/1 25/28/1 26/10/1
f 27/123/8 28/124/8 29/115/8
f 30/1/1 31/19/1 32/42/1
f 33/125/9 34/126/9 35/127/9
f 36/8/1 37/25/1 38/96/1
f 39/128/10 40/129/10 41/52/10
f 42/6/1 43/22/1 44/80/1
f 46/130/11 48/131/11 45/101/11
f 50/132/12 52/133/12 49/134/12
f 54/135/13 56/136/13 53/137/13
f 58/138/14 60/139/14 57/140/14
f 62/141/15 64/142/15 61/143/15
f 66/144/15 68/145/15 65/146/15
f 70/147/16 72/148/16 69/149/16
f 74/150/16 76/151/16 73/152/16
f 78/153/17 80/15/17 77/107/17
f 82/86/17 84/55/17 81/154/17
f 86/23/18 88/39/18 85/155/18
f 90/156/18 92/97/18 89/13/18
f 93/36/1 95/61/1 96/157/1
f 97/158/1 99/159/1 100/35/1
f 101/5/1 103/49/1 104/160/1
f 105/9/1 107/161/1 108/162/1
f 110/163/19 112/164/19 109/165/19
f 114/166/19 116/113/19 113/167/19
f 118/168/20 120/169/20 117/170/20
f 122/171/20 124/172/20 121/173/20
f 126/174/21 128/175/21 125/176/21
f 130/177/21 132/178/21 129/179/21
f 134/180/22 136/93/22 133/181/22
f 138/182/22 140/183/22 137/58/22
f 142/3/1 144/71/1 141/184/1
f 146/185/1 148/4/1 145/82/1
f 149/186/1 151/104/1 152/187/1
f 153/37/1 155/188/1 156/189/1
f 158/67/1 160/190/1 157/2/1
f 162/191/1 164/88/1 161/192/1
f 166/193/1 168/45/1 165/38/1
f 170/194/1 172/195/1 169/7/1
f 174/57/4 176/196/4 173/53/4
f 178/117/4 180/31/4 177/197/4
f 182/110/4 184/56/4 181/109/4
f 186/198/4 188/112/4 185/199/4
f 21/119/15 65/146/15 68/145/15
f 22/200/23 45/101/23 23/103/23
f 49/134/16 73/68/16 76/201/16
f 51/16/24 27/69/24 52/133/24
f 29/115/19 113/167/19 116/113/19
f 53/137/20 121/46/20 124/202/20
f 55/85/25 39/47/25 56/136/25
f 41/52/17 82/86/17 81/154/17
f 57/203/18 89/13/18 92/97/18
f 59/90/26 33/14/26 60/204/26
f 35/127/21 129/205/21 132/108/21
f 47/206/22 137/58/22 140/183/22
f 30/1/1 98/44/1 97/158/1
f 42/6/1 145/82/1 148/4/1
f 36/8/1 106/98/1 105/9/1
f 24/122/1 154/12/1 153/37/1
f 26/10/1 48/30/1 47/207/1
f 50/21/1 32/42/1 31/19/1
f 54/24/1 44/80/1 43/22/1
f 58/27/1 38/96/1 37/25/1
f 62/114/15 27/123/15 29/115/15
f 67/32/15 64/142/15 63/33/15
f 48/131/16 69/149/16 45/101/16
f 75/208/16 72/64/16 71/209/16
f 77/107/17 33/14/17 35/127/17
f 84/55/17 79/40/17 78/153/17
f 54/24/18 85/155/18 55/85/18
f 91/50/18 88/39/18 87/51/18
f 24/122/1 96/157/1 25/28/1
f 100/35/1 95/61/1 94/34/1
f 42/6/1 104/160/1 43/22/1
f 108/162/1 103/49/1 102/89/1
f 87/51/1 104/160/1 103/49/1
f 106/98/1 91/50/1 107/161/1
f 71/63/1 96/157/1 95/61/1
f 98/44/1 75/62/1 99/159/1
f 102/89/1 161/192/1 164/88/1
f 105/9/1 170/194/1 169/7/1
f 63/33/4 177/197/4 180/31/4
f 68/145/4 186/198/4 185/199/4
f 88/39/2 82/86/2 85/155/2
f 89/13/2 79/40/2 90/156/2
f 72/64/5 65/102/5 69/149/5
f 73/68/5 64/65/5 74/150/5
f 110/54/19 39/128/19 41/52/19
f 115/118/19 112/164/19 111/116/19
f 50/210/20 117/170/20 51/16/20
f 123/211/20 120/74/20 119/212/20
f 126/174/21 22/120/21 21/119/21
f 131/213/21 128/214/21 127/111/21
f 58/138/22 133/215/22 59/90/22
f 139/216/22 136/93/22 135/217/22
f 30/1/1 141/184/1 31/19/1
f 147/218/1 144/71/1 143/219/1
f 36/8/1 152/187/1 37/25/1
f 156/189/1 151/104/1 150/220/1
f 158/67/1 97/158/1 100/35/1
f 171/99/2 9/195/2 172/195/2
f 165/38/1 94/34/1 93/36/1
f 163/100/3 15/88/3 164/88/3
f 174/57/4 81/154/4 84/55/4
f 179/79/4 176/196/4 175/77/4
f 181/109/4 78/153/4 77/107/4
f 188/112/4 183/221/4 182/110/4
f 187/78/4 180/31/4 179/79/4
f 184/56/4 175/77/4 174/57/4
f 178/117/4 116/113/4 115/118/4
f 173/53/4 111/116/4 110/54/4
f 170/194/6 10/99/6 171/99/6
f 172/195/2 2/220/2 150/220/2
f 162/191/1 148/4/1 147/218/1
f 157/2/1 143/219/1 142/3/1
f 135/106/1 152/187/1 151/104/1
f 154/12/1 139/105/1 155/188/1
f 119/73/1 141/184/1 144/71/1
f 145/82/1 123/72/1 146/185/1
f 150/220/1 169/7/1 172/195/1
f 153/37/1 166/193/1 165/38/1
f 127/111/4 185/199/4 188/112/4
f 132/108/4 182/110/4 181/109/4
f 136/93/6 129/91/6 133/215/6
f 137/58/6 128/94/6 138/222/6
f 120/74/3 113/17/3 117/170/3
f 121/46/3 112/75/3 122/171/3
f 185/199/4 21/119/4 68/145/4
f 15/88/1 5/162/1 6/89/1
f 14/193/1 2/220/1 9/195/1
f 4/219/1 17/191/1 3/218/1
f 16/100/1 18/190/1 19/83/1
f 9/195/1 13/84/1 14/193/1
f 10/99/1 15/88/1 16/100/1
f 12/45/1 19/83/1 20/67/1
f 150/220/6 1/189/6 156/189/6
f 147/218/2 17/191/2 162/191/2
f 156/189/5 14/193/5 166/193/5
f 158/67/3 19/83/3 159/83/3
f 166/193/5 13/84/5 167/84/5
f 167/84/3 10/99/3 171/99/3
f 159/83/5 18/190/5 160/190/5
f 100/35/3 20/67/3 158/67/3
f 108/162/6 11/194/6 170/194/6
f 167/84/6 12/45/6 168/45/6
f 160/190/5 4/219/5 143/219/5
f 143/219/3 3/218/3 147/218/3
f 171/99/5 16/100/5 163/100/5
f 102/89/2 5/162/2 108/162/2
f 163/100/6 19/83/6 159/83/6
f 162/191/2 16/100/2 163/100/2
f 30/1/1 97/158/1 157/2/1
f 148/4/1 161/192/1 101/5/1
f 169/7/1 149/186/1 36/8/1
f 26/10/1 47/207/1 140/11/1
f 89/13/2 60/204/2 33/14/2
f 51/16/3 117/170/3 113/17/3
f 31/19/1 141/184/1 118/20/1
f 43/22/1 104/160/1 86/23/1
f 37/25/1 152/187/1 134/26/1
f 25/28/1 96/157/1 70/29/1
f 180/31/4 186/198/4 67/32/4
f 94/34/5 8/34/5 7/35/5
f 93/36/1 24/122/1 153/37/1
f 88/39/2 90/156/2 79/40/2
f 32/42/1 49/223/1 76/43/1
f 168/45/6 12/45/6 8/34/6
f 121/46/3 56/136/3 39/47/3
f 103/49/1 107/161/1 91/50/1
f 41/52/4 81/154/4 173/53/4
f 84/55/4 78/153/4 184/56/4
f 137/58/6 46/224/6 22/59/6
f 95/61/1 99/159/1 75/62/1
f 72/64/5 74/150/5 64/65/5
f 7/35/1 8/34/1 12/45/1
f 73/68/5 52/133/5 27/69/5
f 144/71/1 146/185/1 123/72/1
f 120/74/3 122/171/3 112/75/3
f 175/77/4 183/221/4 187/78/4
f 44/80/1 53/225/1 124/81/1
f 159/83/2 19/83/2 13/84/2
f 55/85/2 85/155/2 82/86/2
f 164/88/3 15/88/3 6/89/3
f 59/90/6 133/215/6 129/91/6
f 136/93/6 138/222/6 128/94/6
f 38/96/1 57/203/1 92/97/1
f 159/83/1 167/84/1 171/99/1
f 45/101/5 69/149/5 65/102/5
f 151/104/1 155/188/1 139/105/1
f 77/107/4 35/127/4 132/108/4
f 182/110/4 131/213/4 127/111/4
f 116/113/4 177/197/4 62/114/4
f 111/116/4 176/196/4 178/117/4
f 46/130/11 47/226/11 48/131/11
f 50/132/12 51/227/12 52/133/12
f 54/135/13 55/228/13 56/136/13
f 58/138/14 59/90/14 60/139/14
f 62/141/15 63/33/15 64/142/15
f 66/144/15 67/229/15 68/145/15
f 70/147/16 71/230/16 72/148/16
f 74/150/16 75/208/16 76/151/16
f 78/153/17 79/40/17 80/15/17
f 82/86/17 83/41/17 84/55/17
f 86/23/18 87/51/18 88/39/18
f 90/156/18 91/50/18 92/97/18
f 93/36/1 94/34/1 95/61/1
f 97/158/1 98/44/1 99/159/1
f 101/5/1 102/89/1 103/49/1
f 105/9/1 106/98/1 107/161/1
f 110/163/19 111/116/19 112/164/19
f 114/166/19 115/231/19 116/113/19
f 118/168/20 119/232/20 120/169/20
f 122/171/20 123/211/20 124/172/20
f 126/174/21 127/233/21 128/175/21
f 130/177/21 131/213/21 132/178/21
f 134/180/22 135/217/22 136/93/22
f 138/182/22 139/234/22 140/183/22
f 142/3/1 143/219/1 144/71/1
f 146/185/1 147/218/1 148/4/1
f 149/186/1 150/220/1 151/104/1
f 153/37/1 154/12/1 155/188/1
f 158/67/1 159/83/1 160/190/1
f 162/191/1 163/100/1 164/88/1
f 166/193/1 167/84/1 168/45/1
f 170/194/1 171/99/1 172/195/1
f 174/57/4 175/77/4 176/196/4
f 178/117/4 179/79/4 180/31/4
f 182/110/4 183/221/4 184/56/4
f 186/198/4 187/78/4 188/112/4
f 21/119/15 23/121/15 65/146/15
f 22/200/23 46/130/23 45/101/23
f 49/134/16 52/133/16 73/68/16
f 51/16/24 28/18/24 27/69/24
f 29/115/19 28/124/19 113/167/19
f 53/137/20 56/136/20 121/46/20
f 55/85/25 40/87/25 39/47/25
f 41/52/17 40/87/17 82/86/17
f 57/203/18 60/204/18 89/13/18
f 59/90/26 34/92/26 33/14/26
f 35/127/21 34/126/21 129/205/21
f 47/206/22 46/224/22 137/58/22
f 30/1/1 32/42/1 98/44/1
f 42/6/1 44/80/1 145/82/1
f 36/8/1 38/96/1 106/98/1
f 24/122/1 26/10/1 154/12/1
f 26/10/1 25/28/1 48/30/1
f 50/21/1 49/223/1 32/42/1
f 54/24/1 53/225/1 44/80/1
f 58/27/1 57/203/1 38/96/1
f 62/114/15 61/235/15 27/123/15
f 67/32/15 66/236/15 64/142/15
f 48/131/16 70/147/16 69/149/16
f 75/208/16 74/150/16 72/64/16
f 77/107/17 80/15/17 33/14/17
f 84/55/17 83/41/17 79/40/17
f 54/24/18 86/23/18 85/155/18
f 91/50/18 90/156/18 88/39/18
f 24/122/1 93/36/1 96/157/1
f 100/35/1 99/159/1 95/61/1
f 42/6/1 101/5/1 104/160/1
f 108/162/1 107/161/1 103/49/1
f 87/51/1 86/23/1 104/160/1
f 106/98/1 92/97/1 91/50/1
f 71/63/1 70/29/1 96/157/1
f 98/44/1 76/43/1 75/62/1
f 102/89/1 101/5/1 161/192/1
f 105/9/1 108/162/1 170/194/1
f 63/33/4 62/114/4 177/197/4
f 68/145/4 67/32/4 186/198/4
f 88/39/2 83/41/2 82/86/2
f 89/13/2 80/15/2 79/40/2
f 72/64/5 66/66/5 65/102/5
f 73/68/5 61/70/5 64/65/5
f 110/54/19 109/237/19 39/128/19
f 115/118/19 114/238/19 112/164/19
f 50/210/20 118/168/20 117/170/20
f 123/211/20 122/171/20 120/74/20
f 126/174/21 125/176/21 22/120/21
f 131/213/21 130/177/21 128/214/21
f 58/138/22 134/239/22 133/215/22
f 139/216/22 138/222/22 136/93/22
f 30/1/1 142/3/1 141/184/1
f 147/218/1 146/185/1 144/71/1
f 36/8/1 149/186/1 152/187/1
f 156/189/1 155/188/1 151/104/1
f 158/67/1 157/2/1 97/158/1
f 171/99/2 10/99/2 9/195/2
f 165/38/1 168/45/1 94/34/1
f 163/100/3 16/100/3 15/88/3
f 174/57/4 173/53/4 81/154/4
f 179/79/4 178/117/4 176/196/4
f 181/109/4 184/56/4 78/153/4
f 188/112/4 187/78/4 183/221/4
f 187/78/4 186/198/4 180/31/4
f 184/56/4 183/221/4 175/77/4
f 178/117/4 177/197/4 116/113/4
f 173/53/4 176/196/4 111/116/4
f 170/194/6 11/194/6 10/99/6
f 172/195/2 9/195/2 2/220/2
f 162/191/1 161/192/1 148/4/1
f 157/2/1 160/190/1 143/219/1
f 135/106/1 134/26/1 152/187/1
f 154/12/1 140/11/1 139/105/1
f 119/73/1 118/20/1 141/184/1
f 145/82/1 124/81/1 123/72/1
f 150/220/1 149/186/1 169/7/1
f 153/37/1 156/189/1 166/193/1
f 127/111/4 126/174/4 185/199/4
f 132/108/4 131/213/4 182/110/4
f 136/93/6 130/95/6 129/91/6
f 137/58/6 125/60/6 128/94/6
f 120/74/3 114/76/3 113/17/3
f 121/46/3 109/48/3 112/75/3
f 185/199/4 126/174/4 21/119/4
f 15/88/1 11/194/1 5/162/1
f 14/193/1 1/189/1 2/220/1
f 4/219/1 18/190/1 17/191/1
f 16/100/1 17/191/1 18/190/1
f 9/195/1 10/99/1 13/84/1
f 10/99/1 11/194/1 15/88/1
f 12/45/1 13/84/1 19/83/1
f 150/220/6 2/220/6 1/189/6
f 147/218/2 3/218/2 17/191/2
f 156/189/5 1/189/5 14/193/5
f 158/67/3 20/67/3 19/83/3
f 166/193/5 14/193/5 13/84/5
f 167/84/3 13/84/3 10/99/3
f 159/83/5 19/83/5 18/190/5
f 100/35/3 7/35/3 20/67/3
f 108/162/6 5/162/6 11/194/6
f 167/84/6 13/84/6 12/45/6
f 160/190/5 18/190/5 4/219/5
f 143/219/3 4/219/3 3/218/3
f 171/99/5 10/99/5 16/100/5
f 102/89/2 6/89/2 5/162/2
f 163/100/6 16/100/6 19/83/6
f 162/191/2 17/191/2 16/100/2
