# Blender 4.4.1
# www.blender.org
mtllib locker.mtl
o locker
v -0.429301 1.000000 0.431103
v -0.429301 -1.000000 0.431103
v -0.371034 0.941733 -0.431103
v -0.371034 -0.941733 -0.431103
v 0.429301 1.000000 0.431103
v 0.429301 -1.000000 0.431103
v 0.371034 0.941733 -0.431103
v 0.371034 -0.941733 -0.431103
v 0.429301 -1.000000 -0.431103
v 0.429301 1.000000 -0.431103
v -0.429301 1.000000 -0.431103
v -0.429301 -1.000000 -0.431103
v 0.342345 -0.913044 -0.405802
v 0.342345 0.913044 -0.405802
v -0.342345 0.913044 -0.405802
v -0.342345 -0.913044 -0.405802
v 0.371034 -0.941733 -0.405802
v 0.371034 0.941733 -0.405802
v -0.371034 0.941733 -0.405802
v -0.371034 -0.941733 -0.405802
v 0.277618 -0.128958 -0.435164
v 0.277618 0.128958 -0.435164
v 0.226239 0.128958 -0.435164
v 0.226239 -0.128958 -0.435164
v 0.342345 -0.913044 -0.436960
v 0.342345 0.913044 -0.436960
v -0.342345 0.913044 -0.436960
v -0.342345 -0.913044 -0.436960
v 0.277618 -0.128958 -0.407498
v 0.277618 0.128958 -0.407498
v 0.226239 0.128958 -0.407498
v 0.226239 -0.128958 -0.407498
vn -0.0000 1.0000 -0.0000
vn -0.0000 -1.0000 -0.0000
vn 1.0000 -0.0000 -0.0000
vn -1.0000 -0.0000 -0.0000
vn -0.0000 -0.0000 1.0000
vn -0.0000 -0.0000 -1.0000
vn -0.0277 -0.0000 -0.9996
vn 0.0032 -0.0000 -1.0000
vn -0.0000 -0.0023 -1.0000
vn -0.0000 0.0023 -1.0000
vt 0.434535 0.722660
vt 0.217796 0.940309
vt 0.217796 0.722660
vt 0.668432 0.520630
vt 0.871487 0.518428
vt 0.874895 0.522243
vt 0.652183 0.722660
vt 0.434535 0.217796
vt 0.652183 0.217796
vt 0.217796 0.217796
vt 0.434535 0.000147
vt 0.000147 0.217796
vt 0.652477 0.000147
vt 0.668459 0.016495
vt 0.874922 0.018108
vt 0.890877 0.538591
vt 0.652477 0.536473
vt 0.890877 0.002265
vt 0.679287 0.509557
vt 0.859880 0.506011
vt 0.863851 0.510418
vt 0.671748 0.517164
vt 0.671867 0.020311
vt 0.871606 0.021574
vt 0.679502 0.028320
vt 0.864066 0.029181
vt 0.825611 0.635330
vt 0.842089 0.628624
vt 0.846271 0.632544
vt 0.683158 0.505501
vt 0.683473 0.032728
vt 0.860196 0.033237
vt 0.668820 0.801922
vt 0.652477 0.538886
vt 0.668819 0.736816
vt 0.681789 0.736816
vt 0.825318 0.999853
vt 0.681789 0.801922
vt 0.652477 0.999852
vt 0.825318 0.538885
vt 0.829088 0.544379
vt 0.842089 0.545591
vt 0.825611 0.538885
vt 0.829088 0.629835
vt 0.846271 0.541671
vt 0.434535 0.940309
vt 0.217796 0.000147
vt 0.000147 0.722660
s 0
usemtl Material
f 5/1/1 11/2/1 1/3/1
f 7/4/2 19/5/2 3/6/2
f 10/7/3 6/8/3 9/9/3
f 2/10/2 9/11/2 6/8/2
f 1/3/4 12/12/4 2/10/4
f 5/1/5 2/10/5 6/8/5
f 7/4/6 9/13/6 8/14/6
f 4/15/6 11/16/6 3/6/6
f 3/6/6 10/17/6 7/4/6
f 8/14/6 12/18/6 4/15/6
f 14/19/1 27/20/1 15/21/1
f 8/14/4 18/22/4 7/4/4
f 4/15/1 17/23/1 8/14/1
f 3/6/3 20/24/3 4/15/3
f 14/19/6 17/23/6 13/25/6
f 16/26/6 19/5/6 15/21/6
f 15/21/6 18/22/6 14/19/6
f 13/25/6 20/24/6 16/26/6
f 22/27/2 31/28/2 23/29/2
f 13/25/3 26/30/3 14/19/3
f 16/26/2 25/31/2 13/25/2
f 15/21/4 28/32/4 16/26/4
f 22/33/7 25/34/7 21/35/7
f 24/36/8 27/37/8 23/38/8
f 23/38/9 26/39/9 22/33/9
f 24/36/10 25/34/10 28/40/10
f 31/28/6 29/41/6 32/42/6
f 21/43/4 30/44/4 22/27/4
f 24/45/1 29/41/1 21/43/1
f 23/29/3 32/42/3 24/45/3
f 5/1/1 10/46/1 11/2/1
f 7/4/2 18/22/2 19/5/2
f 10/7/3 5/1/3 6/8/3
f 2/10/2 12/47/2 9/11/2
f 1/3/4 11/48/4 12/12/4
f 5/1/5 1/3/5 2/10/5
f 7/4/6 10/17/6 9/13/6
f 4/15/6 12/18/6 11/16/6
f 3/6/6 11/16/6 10/17/6
f 8/14/6 9/13/6 12/18/6
f 14/19/1 26/30/1 27/20/1
f 8/14/4 17/23/4 18/22/4
f 4/15/1 20/24/1 17/23/1
f 3/6/3 19/5/3 20/24/3
f 14/19/6 18/22/6 17/23/6
f 16/26/6 20/24/6 19/5/6
f 15/21/6 19/5/6 18/22/6
f 13/25/6 17/23/6 20/24/6
f 22/27/2 30/44/2 31/28/2
f 13/25/3 25/31/3 26/30/3
f 16/26/2 28/32/2 25/31/2
f 15/21/4 27/20/4 28/32/4
f 22/33/7 26/39/7 25/34/7
f 24/36/8 28/40/8 27/37/8
f 23/38/9 27/37/9 26/39/9
f 24/36/10 21/35/10 25/34/10
f 31/28/6 30/44/6 29/41/6
f 21/43/4 29/41/4 30/44/4
f 24/45/1 32/42/1 29/41/1
f 23/29/3 31/28/3 32/42/3
