# Blender 4.4.1
# www.blender.org
mtllib key.mtl
o Circle.001
v 0.007384 0.141230 0.004958
v 0.007384 0.000272 0.004958
v 0.010362 0.141230 -0.000266
v 0.010362 0.000272 -0.000266
v 0.007384 0.141230 -0.005489
v 0.007384 0.000272 -0.005489
v -0.006996 0.141230 -0.005489
v -0.006996 0.000272 -0.005489
v -0.009975 0.141230 -0.000266
v -0.009975 0.000272 -0.000266
v -0.006996 0.141230 0.004958
v -0.006996 0.000272 0.004958
v 0.015073 0.055321 -0.000404
v 0.015073 0.045675 -0.000404
v 0.015073 0.026383 -0.000404
v 0.015073 0.036029 -0.000404
v 0.015073 0.045675 -0.005628
v 0.015073 0.055321 -0.005628
v 0.015073 0.026383 -0.005628
v 0.015073 0.036029 -0.005628
v 0.007384 0.055321 0.004958
v 0.007384 0.026383 0.004958
v 0.007384 0.045675 0.004958
v 0.007384 0.036029 0.004958
v 0.010362 0.055321 -0.000266
v 0.010362 0.026383 -0.000266
v 0.010362 0.045675 -0.000266
v 0.010362 0.036029 -0.000266
v 0.007384 0.055321 -0.005489
v 0.007384 0.026383 -0.005489
v 0.007384 0.045675 -0.005489
v 0.007384 0.036029 -0.005489
v -0.006996 0.055321 -0.005489
v -0.006996 0.026383 -0.005489
v -0.006996 0.045675 -0.005489
v -0.006996 0.036029 -0.005489
v -0.009975 0.055321 -0.000266
v -0.009975 0.026383 -0.000266
v -0.009975 0.045675 -0.000266
v -0.009975 0.036029 -0.000266
v -0.006996 0.055321 0.004958
v -0.006996 0.026383 0.004958
v -0.006996 0.045675 0.004958
v -0.006996 0.036029 0.004958
v -0.034092 0.155679 0.007212
v -0.020960 0.142548 0.007212
v -0.023215 0.209361 0.007212
v -0.036779 0.197136 0.007457
v -0.020960 0.142548 -0.008136
v -0.034092 0.155679 -0.008136
v -0.036779 0.197136 -0.007891
v -0.023215 0.209361 -0.008136
v 0.019590 0.142548 0.007212
v 0.032721 0.155679 0.007212
v 0.035409 0.197136 0.007457
v 0.021845 0.209361 0.007212
v 0.032721 0.155679 -0.008136
v 0.019590 0.142548 -0.008136
v 0.021845 0.209361 -0.008136
v 0.035409 0.197136 -0.007891
v -0.039388 0.153485 -0.008136
v -0.023154 0.137251 -0.008136
v -0.023154 0.137251 0.007212
v -0.039388 0.153485 0.007212
v -0.043142 0.197072 0.007457
v -0.025653 0.214657 0.007212
v -0.025653 0.214657 -0.008136
v -0.043142 0.197072 -0.007891
v 0.038018 0.153485 0.007212
v 0.021784 0.137251 0.007212
v 0.021784 0.137251 -0.008136
v 0.038018 0.153485 -0.008136
v 0.041772 0.197072 -0.007891
v 0.024282 0.214657 -0.008136
v 0.024282 0.214657 0.007212
v 0.041772 0.197072 0.007457
v -0.020960 0.142548 0.005378
v -0.034092 0.155679 0.005378
v -0.036779 0.197136 0.005624
v -0.023215 0.209361 0.005378
v 0.032721 0.155679 0.005378
v 0.019590 0.142548 0.005378
v 0.021845 0.209361 0.005378
v 0.035409 0.197136 0.005624
v -0.034092 0.155679 -0.006340
v -0.020960 0.142548 -0.006340
v -0.023215 0.209361 -0.006340
v -0.036779 0.197136 -0.006094
v 0.019590 0.142548 -0.006340
v 0.032721 0.155679 -0.006340
v 0.035409 0.197136 -0.006094
v 0.021845 0.209361 -0.006340
v -0.036850 0.207952 0.007212
v -0.036850 0.207952 -0.008136
v -0.032689 0.204207 0.007212
v -0.032689 0.204207 -0.008136
v -0.032689 0.204207 0.005378
v -0.032689 0.204207 -0.006340
v 0.035480 0.207952 -0.008136
v 0.035480 0.207952 0.007212
v 0.031318 0.204207 -0.008136
v 0.031318 0.204207 0.007212
v 0.031318 0.204207 0.005378
v 0.031318 0.204207 -0.006340
vn 0.8687 -0.0000 -0.4953
vn -0.0000 -0.0000 -1.0000
vn -0.0060 -0.0000 -1.0000
vn -0.8687 -0.0000 -0.4953
vn -0.8687 -0.0000 0.4953
vn -0.0000 -1.0000 -0.0000
vn 1.0000 -0.0000 -0.0000
vn -0.0000 1.0000 -0.0000
vn 0.8687 -0.0000 0.4953
vn -0.0000 -0.0000 1.0000
vn -0.0180 -0.0000 -0.9998
vn 0.0294 -0.0000 0.9996
vn 0.9758 0.2188 -0.0000
vn 0.9963 -0.0858 -0.0000
vn -0.2665 0.9638 -0.0000
vn 0.2665 0.9638 -0.0000
vn -0.9963 -0.0858 -0.0000
vn -0.9758 0.2188 -0.0000
vn -0.7071 0.7071 -0.0000
vn -0.7071 -0.7071 -0.0000
vn -0.7136 0.7006 -0.0000
vn -0.9764 0.2161 -0.0000
vn 0.7071 -0.7071 -0.0000
vn 0.7136 0.7006 -0.0000
vn 0.7113 0.7029 -0.0000
vn -0.0010 0.0027 -1.0000
vn -0.0012 0.0028 -1.0000
vn 0.0010 -0.0027 1.0000
vn 0.0099 0.0110 0.9999
vn 0.0064 0.0118 0.9999
vn -0.0029 -0.0103 -0.9999
vn -0.0064 -0.0118 -0.9999
vn -0.0099 -0.0110 -0.9999
vn -0.0010 -0.0027 1.0000
vn -0.0012 -0.0028 1.0000
vn 0.0010 0.0027 -1.0000
vn 0.0099 -0.0110 -0.9999
vn 0.0064 -0.0118 -0.9999
vn -0.0029 0.0103 0.9999
vn -0.0064 0.0118 0.9999
vn -0.0099 0.0110 0.9999
vn 0.0001 0.0058 1.0000
vn 0.0012 -0.0028 1.0000
vn -0.0001 -0.0058 -1.0000
vn -0.0001 0.0058 1.0000
vn 0.0001 -0.0058 -1.0000
vn 0.0012 0.0028 -1.0000
vn -0.0108 -0.0000 0.9999
vn -0.0013 0.0083 1.0000
vn 0.0003 -0.0028 1.0000
vn -0.2466 -0.9691 -0.0000
vn -0.6958 -0.7182 -0.0000
vn -0.6997 -0.7144 -0.0000
vn -0.9979 0.0647 -0.0000
vn -0.9732 -0.2301 -0.0000
vn 0.7071 0.7071 -0.0000
vn 0.9979 0.0647 -0.0000
vn 0.9732 -0.2301 -0.0000
vn 0.9742 -0.2255 -0.0000
vn 0.2466 -0.9691 -0.0000
vn 0.6997 -0.7144 -0.0000
vn 0.6958 -0.7182 -0.0000
vn -0.0108 -0.0000 -0.9999
vn -0.0013 -0.0083 -1.0000
vn 0.0003 0.0028 -1.0000
vn -0.6997 -0.7145 -0.0000
vn -0.9742 -0.2255 -0.0000
vn 0.0029 0.0103 0.9999
vn 0.0029 -0.0103 -0.9999
vn 0.9764 0.2161 -0.0000
vn -0.7113 0.7029 -0.0000
vn -0.0024 -0.0001 1.0000
vn -0.0631 -0.0018 0.9980
vn -0.0010 0.0204 0.9998
vn -0.0275 0.0506 0.9983
vn -0.0063 -0.0063 1.0000
vn -0.0024 0.0001 -1.0000
vn -0.0631 0.0018 -0.9980
vn -0.0010 -0.0204 -0.9998
vn -0.0275 -0.0506 -0.9983
vn -0.0063 0.0063 -1.0000
vt 0.950018 0.005660
vt 0.924762 0.381946
vt 0.924762 0.000000
vt 0.818054 0.681547
vt 0.748526 0.555297
vt 0.818054 0.555297
vt 0.748526 0.742580
vt 0.723270 0.410570
vt 0.748526 0.419626
vt 0.723270 0.733524
vt 0.698013 0.419626
vt 0.696609 0.583267
vt 0.646097 0.583267
vt 0.671353 0.504264
vt 0.546631 0.802493
vt 0.571888 0.759607
vt 0.571888 0.802493
vt 0.671353 0.410571
vt 0.696609 0.490543
vt 0.646097 0.490543
vt 0.975275 0.381947
vt 0.975275 0.000000
vt 0.723270 0.940469
vt 0.698013 0.851366
vt 0.723270 0.842310
vt 0.748526 0.851366
vt 0.950018 0.516264
vt 0.924762 0.626693
vt 0.924762 0.510604
vt 0.975275 0.626693
vt 0.975275 0.510604
vt 0.855234 0.415378
vt 0.924762 -0.000000
vt 0.924762 0.415378
vt 0.855234 0.508657
vt 0.924762 0.462017
vt 0.924762 0.508657
vt 0.855234 0.462018
vt 0.924762 0.681547
vt 0.855234 0.555297
vt 0.924762 0.555297
vt 0.698013 0.815104
vt 0.723270 0.806048
vt 0.723270 0.769786
vt 0.698013 0.778842
vt 0.748526 0.815104
vt 0.748526 0.778842
vt 0.818054 0.508657
vt 0.748526 0.462017
vt 0.818054 0.462018
vt 0.748526 0.415378
vt 0.818054 0.415378
vt 0.748526 0.000000
vt 0.450304 0.781797
vt 0.475815 0.759607
vt 0.475815 0.795038
vt 0.924762 0.467718
vt 0.950018 0.430492
vt 0.950018 0.473378
vt 0.424793 0.781540
vt 0.399282 0.759607
vt 0.424534 0.760090
vt 0.975275 0.467718
vt 0.975275 0.424832
vt 0.521375 0.802493
vt 0.546631 0.759607
vt 0.546631 0.802493
vt 0.399282 0.781540
vt 0.373771 0.759607
vt 0.399023 0.760090
vt 0.855234 0.555296
vt 0.424793 0.781797
vt 0.450304 0.759607
vt 0.450304 0.795038
vt 0.521375 0.806248
vt 0.498595 0.759607
vt 0.521375 0.759608
vt 0.855234 0.462017
vt 0.498595 0.806248
vt 0.475815 0.759607
vt 0.498595 0.759608
vt 0.684051 0.676587
vt 0.692915 0.863407
vt 0.684051 0.863407
vt 0.823923 0.792965
vt 0.896944 0.979616
vt 0.822735 0.979616
vt 0.999783 0.862410
vt 0.924762 0.632615
vt 0.998970 0.632353
vt 0.000000 0.934884
vt 0.074207 0.760111
vt 0.074207 0.935388
vt 0.983962 0.079765
vt 0.975275 0.000000
vt 0.983962 0.000000
vt 0.571888 0.869998
vt 0.646097 0.759607
vt 0.646097 0.869998
vt 0.925792 0.924098
vt 0.998970 0.968790
vt 0.924762 0.969053
vt 0.748526 0.781928
vt 0.822735 0.681547
vt 0.822735 0.781928
vt 0.896944 0.732639
vt 0.822735 0.732639
vt 0.822735 0.986454
vt 0.748526 0.986454
vt 0.089100 0.043765
vt 0.000000 0.096651
vt 0.078493 0.018157
vt 0.659426 0.043766
vt 0.748526 0.096652
vt 0.722919 0.107259
vt 0.424791 0.050549
vt 0.374263 0.084568
vt 0.406684 0.030428
vt 0.289545 0.030767
vt 0.341842 0.030426
vt 0.323735 0.050547
vt 0.659426 0.366814
vt 0.748526 0.313929
vt 0.670033 0.392421
vt 0.089100 0.366813
vt 0.000000 0.313928
vt 0.025607 0.303321
vt 0.323735 0.360028
vt 0.374263 0.326008
vt 0.341842 0.380149
vt 0.458981 0.379803
vt 0.406684 0.380149
vt 0.424791 0.360029
vt 0.025607 0.107257
vt 0.722919 0.303322
vt 0.459288 0.000000
vt 0.670033 0.018159
vt 0.289238 -0.000000
vt 0.459288 0.410570
vt 0.399870 0.096355
vt 0.374263 0.326008
vt 0.348656 0.314222
vt 0.374263 0.084567
vt 0.289238 0.410571
vt 0.078493 0.392420
vt 0.347969 0.739833
vt 0.382159 0.410571
vt 0.646097 0.487063
vt 0.899320 0.681547
vt 0.908184 0.729730
vt 0.899320 0.729730
vt 0.899320 0.916424
vt 0.906996 0.768749
vt 0.908184 0.916424
vt 0.675001 0.869585
vt 0.665774 0.786286
vt 0.674638 0.786247
vt 0.666137 0.596861
vt 0.675001 0.596822
vt 0.684051 0.596822
vt 0.692915 0.676587
vt 0.655174 0.801939
vt 0.647160 0.596822
vt 0.656024 0.596859
vt 0.654961 0.853469
vt 0.647160 0.883594
vt 0.646097 0.853432
vt 0.298128 0.430351
vt 0.263937 0.759608
vt 0.000000 0.683125
vt 0.657087 0.596822
vt 0.664924 0.801939
vt 0.656237 0.801903
vt 0.664711 0.853468
vt 0.656024 0.853432
vt 0.983962 0.266585
vt 0.975275 0.079765
vt 0.916871 0.768749
vt 0.909373 0.729730
vt 0.918060 0.729730
vt 0.909373 0.916424
vt 0.908184 0.768749
vt 0.675364 0.596860
vt 0.683688 0.786247
vt 0.675001 0.786285
vt 0.684051 0.869585
vt 0.675364 0.869623
vt 0.748526 0.508657
vt 0.657087 0.883594
vt 0.665774 0.883630
vt 0.646310 0.801903
vt 0.348656 0.096354
vt 0.458981 0.030767
vt 0.925575 0.862673
vt 0.909373 0.681547
vt 0.918060 0.681547
vt 0.898132 0.768749
vt 0.399870 0.314222
vt 0.289545 0.379804
vt 0.896944 0.681547
vt 0.822735 0.681547
vt 0.950018 0.387607
vt 0.748526 0.681547
vt 0.698013 0.742580
vt 0.696609 0.517819
vt 0.671353 0.596822
vt 0.646097 0.517819
vt 0.546631 0.759607
vt 0.646097 0.424292
vt 0.696609 0.424292
vt 0.698013 0.949525
vt 0.748526 0.949525
vt 0.950018 0.632353
vt 0.855234 0.000000
vt 0.855234 0.681547
vt 0.818054 0.000000
vt 0.450563 0.760084
vt 0.924762 0.424832
vt 0.399282 0.794609
vt 0.521375 0.759607
vt 0.373771 0.794609
vt 0.855234 0.508656
vt 0.425052 0.760084
vt 0.498595 0.806247
vt 0.855234 0.415377
vt 0.475815 0.806246
vt 0.898132 0.792965
vt 0.000000 0.759608
vt 0.571888 0.759607
vt 1.000000 0.923836
vt 0.748526 0.681547
vt 0.646097 0.683126
vt 0.582604 0.746618
vt 0.382159 0.759607
vt 0.323048 0.694026
vt 0.323048 0.476159
vt 0.347969 0.430353
vt 0.582604 0.423571
vt 0.908184 0.681547
vt 0.666137 0.869623
vt 0.692915 0.596822
vt 0.656024 0.883631
vt -0.000000 0.487062
vt 0.063492 0.423569
vt 0.263937 0.410571
vt 0.323048 0.476158
vt 0.323048 0.694026
vt 0.298128 0.739833
vt 0.063493 0.746617
vt 0.665774 0.596858
vt 0.975275 0.266585
vt 0.918060 0.916424
vt 0.684051 0.596822
s 1
usemtl Material
f 3/1/1 29/2/1 5/3/1
f 6/4/2 34/5/2 30/6/3
f 33/7/4 9/8/4 7/9/4
f 37/10/5 11/11/5 9/8/5
f 12/12/6 8/13/6 4/14/6
f 19/15/7 16/16/7 15/17/7
f 3/18/8 7/19/8 11/20/8
f 21/21/9 3/1/9 1/22/9
f 10/23/5 42/24/5 38/25/5
f 34/26/4 10/23/4 38/25/4
f 26/27/1 6/28/1 30/29/1
f 2/30/9 26/27/9 22/31/9
f 21/32/10 11/33/10 41/34/10
f 24/35/10 43/36/10 44/37/10
f 23/38/10 41/34/10 43/36/10
f 12/39/10 22/40/10 42/41/10
f 38/25/5 44/42/5 40/43/5
f 44/42/5 39/44/5 40/43/5
f 43/45/5 37/10/5 39/44/5
f 38/25/4 36/46/4 34/26/4
f 40/43/4 35/47/4 36/46/4
f 39/44/4 33/7/4 35/47/4
f 32/48/3 35/49/2 31/50/3
f 31/50/3 33/51/2 29/52/3
f 7/53/2 29/52/3 33/51/2
f 25/54/8 18/55/8 29/56/8
f 32/57/1 27/58/1 28/59/1
f 26/60/6 19/61/6 15/62/6
f 26/27/9 24/63/9 22/31/9
f 28/59/9 23/64/9 24/63/9
f 27/58/9 21/21/9 23/64/9
f 17/65/7 13/66/7 14/67/7
f 27/68/6 17/69/6 14/70/6
f 32/48/3 19/71/11 30/6/3
f 28/72/8 20/73/8 32/74/8
f 26/75/12 16/76/12 28/77/12
f 29/52/3 17/78/11 31/50/3
f 27/79/12 13/80/12 25/81/12
f 53/82/8 77/83/8 46/84/8
f 73/85/13 69/86/14 72/87/14
f 67/88/15 75/89/16 74/90/16
f 64/91/17 68/92/18 61/93/17
f 58/94/19 90/95/19 57/96/19
f 63/97/20 61/98/20 62/99/20
f 93/100/21 68/101/18 65/102/22
f 71/103/23 69/104/23 70/105/23
f 100/106/24 73/85/13 99/107/25
f 71/103/6 63/108/6 62/109/6
f 50/110/26 62/111/2 61/112/27
f 45/113/28 63/114/10 46/115/10
f 95/116/29 66/117/10 93/118/30
f 51/119/31 94/120/32 96/121/33
f 54/122/34 70/123/10 69/124/35
f 57/125/36 71/126/2 58/127/2
f 101/128/37 74/129/2 99/130/38
f 55/131/39 100/132/40 102/133/41
f 58/127/2 62/111/2 49/134/2
f 53/135/10 63/114/10 70/123/10
f 45/113/28 65/136/42 64/137/43
f 50/110/26 68/138/44 51/119/31
f 54/122/34 76/139/45 55/131/39
f 47/140/10 75/141/10 66/117/10
f 59/142/2 67/143/2 74/129/2
f 57/125/36 73/144/46 72/145/47
f 103/146/48 79/147/49 77/148/50
f 56/149/51 103/150/52 102/151/53
f 54/152/54 84/153/55 81/154/54
f 46/155/56 78/156/56 45/157/56
f 45/157/57 79/158/58 48/159/59
f 54/160/19 82/161/19 53/82/19
f 47/162/60 83/163/51 56/164/51
f 95/165/61 79/166/58 97/167/62
f 98/168/63 91/169/64 89/170/65
f 59/171/51 87/172/60 52/173/60
f 52/173/60 98/174/61 96/175/62
f 49/176/8 89/177/8 58/94/8
f 60/178/55 104/179/66 101/180/52
f 60/178/55 90/181/54 91/182/67
f 51/183/58 85/184/57 50/185/57
f 50/185/56 86/186/56 49/187/56
f 22/40/10 44/37/10 42/41/10
f 30/6/3 36/188/2 32/48/3
f 51/189/58 98/174/61 88/190/59
f 95/165/61 80/191/60 47/162/60
f 96/121/33 67/143/2 52/192/2
f 48/193/68 93/118/30 65/136/42
f 67/88/15 93/100/21 66/194/15
f 101/180/52 92/195/51 59/196/51
f 102/151/53 84/153/55 55/197/67
f 102/133/41 75/141/10 56/198/10
f 60/199/69 99/130/38 73/144/46
f 75/200/16 99/107/25 74/201/16
f 3/1/1 25/202/1 29/2/1
f 6/4/2 8/203/2 34/5/2
f 33/7/4 37/10/4 9/8/4
f 37/10/5 41/204/5 11/11/5
f 4/14/6 2/205/6 12/12/6
f 12/12/6 10/206/6 8/13/6
f 8/13/6 6/207/6 4/14/6
f 19/15/7 20/208/7 16/16/7
f 11/20/8 1/209/8 3/18/8
f 3/18/8 5/210/8 7/19/8
f 7/19/8 9/14/8 11/20/8
f 21/21/9 25/202/9 3/1/9
f 10/23/5 12/211/5 42/24/5
f 34/26/4 8/212/4 10/23/4
f 26/27/1 4/213/1 6/28/1
f 2/30/9 4/213/9 26/27/9
f 21/32/10 1/214/10 11/33/10
f 24/35/10 23/38/10 43/36/10
f 23/38/10 21/32/10 41/34/10
f 12/39/10 2/215/10 22/40/10
f 38/25/5 42/24/5 44/42/5
f 44/42/5 43/45/5 39/44/5
f 43/45/5 41/204/5 37/10/5
f 38/25/4 40/43/4 36/46/4
f 40/43/4 39/44/4 35/47/4
f 39/44/4 37/10/4 33/7/4
f 32/48/3 36/188/2 35/49/2
f 31/50/3 35/49/2 33/51/2
f 7/53/2 5/216/2 29/52/3
f 25/54/8 13/217/8 18/55/8
f 32/57/1 31/218/1 27/58/1
f 26/60/6 30/219/6 19/61/6
f 26/27/9 28/59/9 24/63/9
f 28/59/9 27/58/9 23/64/9
f 27/58/9 25/202/9 21/21/9
f 17/65/7 18/220/7 13/66/7
f 27/68/6 31/221/6 17/69/6
f 32/48/3 20/222/11 19/71/11
f 28/72/8 16/223/8 20/73/8
f 26/75/12 15/224/12 16/76/12
f 29/52/3 18/225/11 17/78/11
f 27/79/12 14/226/12 13/80/12
f 53/82/8 82/161/8 77/83/8
f 73/85/13 76/227/70 69/86/14
f 67/88/15 66/194/15 75/89/16
f 64/91/17 65/228/22 68/92/18
f 58/94/19 89/177/19 90/95/19
f 63/97/20 64/229/20 61/98/20
f 93/100/21 94/230/71 68/101/18
f 71/103/23 72/231/23 69/104/23
f 100/106/24 76/227/70 73/85/13
f 71/103/6 70/105/6 63/108/6
f 50/110/26 49/134/2 62/111/2
f 45/113/28 64/137/43 63/114/10
f 95/116/29 47/140/10 66/117/10
f 51/119/31 68/138/44 94/120/32
f 54/122/34 53/135/10 70/123/10
f 57/125/36 72/145/47 71/126/2
f 101/128/37 59/142/2 74/129/2
f 55/131/39 76/139/45 100/132/40
f 58/127/2 71/126/2 62/111/2
f 53/135/10 46/115/10 63/114/10
f 45/113/28 48/193/68 65/136/42
f 50/110/26 61/112/27 68/138/44
f 54/122/34 69/124/35 76/139/45
f 47/140/10 56/198/10 75/141/10
f 59/142/2 52/192/2 67/143/2
f 57/125/36 60/199/69 73/144/46
f 77/148/50 82/232/10 81/233/72
f 81/233/72 84/234/73 103/146/48
f 103/146/48 83/235/10 80/236/74
f 80/236/74 97/237/75 79/147/49
f 79/147/49 78/238/76 77/148/50
f 77/148/50 81/233/72 103/146/48
f 103/146/48 80/236/74 79/147/49
f 56/149/51 83/239/51 103/150/52
f 54/152/54 55/197/67 84/153/55
f 46/155/56 77/240/56 78/156/56
f 45/157/57 78/156/57 79/158/58
f 54/160/19 81/241/19 82/161/19
f 47/162/60 80/191/60 83/163/51
f 95/165/61 48/242/59 79/166/58
f 89/170/65 86/243/2 85/244/77
f 85/244/77 88/245/78 98/168/63
f 98/168/63 87/246/2 92/247/79
f 92/247/79 104/248/80 91/169/64
f 91/169/64 90/249/81 89/170/65
f 89/170/65 85/244/77 98/168/63
f 98/168/63 92/247/79 91/169/64
f 59/171/51 92/250/51 87/172/60
f 52/173/60 87/172/60 98/174/61
f 49/176/8 86/251/8 89/177/8
f 60/178/55 91/182/67 104/179/66
f 60/178/55 57/252/54 90/181/54
f 51/183/58 88/253/59 85/184/57
f 50/185/56 85/184/56 86/186/56
f 22/40/10 24/35/10 44/37/10
f 30/6/3 34/5/2 36/188/2
f 51/189/58 96/175/62 98/174/61
f 95/165/61 97/167/62 80/191/60
f 96/121/33 94/120/32 67/143/2
f 48/193/68 95/116/29 93/118/30
f 67/88/15 94/230/71 93/100/21
f 101/180/52 104/179/66 92/195/51
f 102/151/53 103/150/52 84/153/55
f 102/133/41 100/132/40 75/141/10
f 60/199/69 101/128/37 99/130/38
f 75/200/16 100/106/24 99/107/25
