# Blender 4.4.1
# www.blender.org
mtllib Enemy.mtl
o Cube
v 0.297794 0.297794 -0.297794
v 0.297794 -0.297794 -0.297794
v 0.297794 0.297794 0.297794
v 0.297794 -0.297794 0.297794
v -0.297794 0.297794 -0.297794
v -0.297794 -0.297794 -0.297794
v -0.297794 0.297794 0.297794
v -0.297794 -0.297794 0.297794
v -0.341232 -0.341232 -0.176681
v -0.363051 -0.363051 -0.000000
v -0.341232 -0.341232 0.176681
v 0.176681 -0.341232 -0.341232
v 0.000000 -0.363051 -0.363051
v -0.176681 -0.341232 -0.341232
v 0.341232 0.176681 -0.341232
v 0.363051 0.000000 -0.363051
v 0.341232 -0.176681 -0.341232
v -0.341232 -0.176681 0.341232
v -0.363051 -0.000000 0.363051
v -0.341232 0.176681 0.341232
v 0.341232 0.176681 0.341232
v 0.363051 0.000000 0.363051
v 0.341232 -0.176681 0.341232
v -0.341232 0.176681 -0.341232
v -0.363051 -0.000000 -0.363051
v -0.341232 -0.176681 -0.341232
v 0.176681 0.341232 0.341232
v -0.000000 0.363051 0.363051
v -0.176681 0.341232 0.341232
v 0.341232 0.341232 -0.176681
v 0.363051 0.363051 0.000000
v 0.341232 0.341232 0.176681
v -0.176681 -0.341232 0.341232
v -0.000000 -0.363051 0.363051
v 0.176681 -0.341232 0.341232
v -0.341232 0.341232 0.176681
v -0.363051 0.363051 -0.000000
v -0.341232 0.341232 -0.176681
v -0.176681 0.341232 -0.341232
v 0.000000 0.363051 -0.363051
v 0.176681 0.341232 -0.341232
v 0.341232 -0.341232 0.176681
v 0.363051 -0.363051 0.000000
v 0.341232 -0.341232 -0.176681
v 0.188299 0.434178 -0.188299
v 0.000000 0.465648 -0.198415
v -0.188299 0.434178 -0.188299
v 0.198415 0.465648 0.000000
v -0.000000 0.500000 -0.000000
v -0.198415 0.465648 -0.000000
v 0.188299 0.434178 0.188299
v -0.000000 0.465648 0.198415
v -0.188299 0.434178 0.188299
v 0.188299 -0.188299 0.434178
v 0.198415 -0.000000 0.465648
v 0.188299 0.188299 0.434178
v -0.000000 -0.198415 0.465648
v 0.000000 0.000000 0.500000
v 0.000000 0.198415 0.465648
v -0.188299 -0.188299 0.434178
v -0.198415 0.000000 0.465648
v -0.188299 0.188299 0.434178
v -0.434178 -0.188299 0.188299
v -0.465648 -0.000000 0.198415
v -0.434178 0.188299 0.188299
v -0.465648 -0.198415 -0.000000
v -0.500000 0.000000 -0.000000
v -0.465648 0.198415 0.000000
v -0.434178 -0.188299 -0.188299
v -0.465648 0.000000 -0.198415
v -0.434178 0.188299 -0.188299
v -0.188299 -0.434178 -0.188299
v -0.000000 -0.465648 -0.198415
v 0.188299 -0.434178 -0.188299
v -0.198415 -0.465648 0.000000
v 0.000000 -0.500000 0.000000
v 0.198415 -0.465648 -0.000000
v -0.188299 -0.434178 0.188299
v 0.000000 -0.465648 0.198415
v 0.188299 -0.434178 0.188299
v 0.434178 -0.188299 -0.188299
v 0.465648 -0.000000 -0.198415
v 0.434178 0.188299 -0.188299
v 0.465648 -0.198415 0.000000
v 0.500000 0.000000 -0.000000
v 0.465648 0.198415 -0.000000
v 0.434178 -0.188299 0.188299
v 0.465648 0.000000 0.198415
v 0.434178 0.188299 0.188299
v -0.188299 -0.188299 -0.434178
v -0.198415 -0.000000 -0.465648
v -0.188299 0.188299 -0.434178
v 0.000000 -0.198415 -0.465648
v 0.000000 0.000000 -0.500000
v -0.000000 0.198415 -0.465648
v 0.188299 -0.188299 -0.434178
v 0.198415 0.000000 -0.465648
v 0.188299 0.188299 -0.434178
vn 0.5774 0.5774 -0.5774
vn 0.5774 -0.5774 -0.5774
vn 0.5774 0.5774 0.5774
vn 0.5774 -0.5774 0.5774
vn -0.5774 0.5774 -0.5774
vn -0.5774 -0.5774 -0.5774
vn -0.5774 0.5774 0.5774
vn -0.5774 -0.5774 0.5774
vn -0.6737 -0.6737 -0.3038
vn -0.7071 -0.7071 -0.0000
vn -0.6737 -0.6737 0.3038
vn 0.3038 -0.6737 -0.6737
vn -0.0000 -0.7071 -0.7071
vn -0.3038 -0.6737 -0.6737
vn 0.6737 0.3038 -0.6737
vn 0.7071 -0.0000 -0.7071
vn 0.6737 -0.3038 -0.6737
vn -0.6737 -0.3038 0.6737
vn -0.7071 -0.0000 0.7071
vn -0.6737 0.3038 0.6737
vn 0.6737 0.3038 0.6737
vn 0.7071 -0.0000 0.7071
vn 0.6737 -0.3038 0.6737
vn -0.6737 0.3038 -0.6737
vn -0.7071 -0.0000 -0.7071
vn -0.6737 -0.3038 -0.6737
vn 0.3038 0.6737 0.6737
vn -0.0000 0.7071 0.7071
vn -0.3038 0.6737 0.6737
vn 0.6737 0.6737 -0.3038
vn 0.7071 0.7071 -0.0000
vn 0.6737 0.6737 0.3038
vn -0.3038 -0.6737 0.6737
vn -0.0000 -0.7071 0.7071
vn 0.3038 -0.6737 0.6737
vn -0.6737 0.6737 0.3038
vn -0.7071 0.7071 -0.0000
vn -0.6737 0.6737 -0.3038
vn -0.3038 0.6737 -0.6737
vn -0.0000 0.7071 -0.7071
vn 0.3038 0.6737 -0.6737
vn 0.6737 -0.6737 0.3038
vn 0.7071 -0.7071 -0.0000
vn 0.6737 -0.6737 -0.3038
vn 0.3362 0.8797 -0.3362
vn -0.0000 0.9348 -0.3553
vn -0.3362 0.8797 -0.3362
vn 0.3553 0.9348 -0.0000
vn -0.0000 1.0000 -0.0000
vn -0.3553 0.9348 -0.0000
vn 0.3362 0.8797 0.3362
vn -0.0000 0.9348 0.3553
vn -0.3362 0.8797 0.3362
vn 0.3362 -0.3362 0.8797
vn 0.3553 -0.0000 0.9348
vn 0.3362 0.3362 0.8797
vn -0.0000 -0.3553 0.9348
vn -0.0000 -0.0000 1.0000
vn -0.0000 0.3553 0.9348
vn -0.3362 -0.3362 0.8797
vn -0.3553 -0.0000 0.9348
vn -0.3362 0.3362 0.8797
vn -0.8797 -0.3362 0.3362
vn -0.9348 -0.0000 0.3553
vn -0.8797 0.3362 0.3362
vn -0.9348 -0.3553 -0.0000
vn -1.0000 -0.0000 -0.0000
vn -0.9348 0.3553 -0.0000
vn -0.8797 -0.3362 -0.3362
vn -0.9348 -0.0000 -0.3553
vn -0.8797 0.3362 -0.3362
vn -0.3362 -0.8797 -0.3362
vn -0.0000 -0.9348 -0.3553
vn 0.3362 -0.8797 -0.3362
vn -0.3553 -0.9348 -0.0000
vn -0.0000 -1.0000 -0.0000
vn 0.3553 -0.9348 -0.0000
vn -0.3362 -0.8797 0.3362
vn -0.0000 -0.9348 0.3553
vn 0.3362 -0.8797 0.3362
vn 0.8797 -0.3362 -0.3362
vn 0.9348 -0.0000 -0.3553
vn 0.8797 0.3362 -0.3362
vn 0.9348 -0.3553 -0.0000
vn 1.0000 -0.0000 -0.0000
vn 0.9348 0.3553 -0.0000
vn 0.8797 -0.3362 0.3362
vn 0.9348 -0.0000 0.3553
vn 0.8797 0.3362 0.3362
vn -0.3362 -0.3362 -0.8797
vn -0.3553 -0.0000 -0.9348
vn -0.3362 0.3362 -0.8797
vn -0.0000 -0.3553 -0.9348
vn -0.0000 -0.0000 -1.0000
vn -0.0000 0.3553 -0.9348
vn 0.3362 -0.3362 -0.8797
vn 0.3553 -0.0000 -0.9348
vn 0.3362 0.3362 -0.8797
vt 0.279018 0.186768
vt 0.183383 0.183388
vt 0.235568 0.134220
vt 0.186765 0.279023
vt 0.231879 0.231883
vt 0.185270 0.084323
vt 0.084318 0.185276
vt 0.132403 0.132409
vt 0.359724 0.199707
vt 0.336191 0.145321
vt 0.318476 0.235286
vt 0.235283 0.318480
vt 0.276097 0.276101
vt 0.199705 0.359729
vt 0.145319 0.336196
vt 0.134216 0.235574
vt 0.032602 0.236512
vt 0.000184 0.187421
vt 0.030042 0.136730
vt 0.078701 0.078707
vt 0.136723 0.030048
vt 0.187413 0.000189
vt 0.236505 0.032606
vt 0.291755 0.084394
vt 0.926427 0.072458
vt 0.859726 0.140274
vt 0.859149 0.070701
vt 0.927542 0.206976
vt 0.929299 0.139698
vt 0.791910 0.073573
vt 0.793024 0.208090
vt 0.790152 0.140851
vt 0.981285 0.016684
vt 0.928371 0.004766
vt 0.994078 0.069394
vt 0.995233 0.208919
vt 1.000263 0.139110
vt 0.983316 0.261834
vt 0.930606 0.274626
vt 0.860302 0.209848
vt 0.791081 0.275782
vt 0.738166 0.263864
vt 0.725374 0.211155
vt 0.719188 0.141438
vt 0.724218 0.071629
vt 0.736136 0.018715
vt 0.788845 0.005922
vt 0.858562 -0.000263
vt 0.185273 0.635137
vt 0.183385 0.536071
vt 0.235571 0.585238
vt 0.084319 0.534185
vt 0.132405 0.587052
vt 0.279021 0.532689
vt 0.186765 0.440435
vt 0.231880 0.487575
vt 0.187418 0.719272
vt 0.236510 0.686854
vt 0.136726 0.689414
vt 0.030043 0.582732
vt 0.078703 0.640755
vt 0.000184 0.532041
vt 0.032601 0.482948
vt 0.134217 0.483886
vt 0.145318 0.383263
vt 0.235284 0.400978
vt 0.276098 0.443357
vt 0.318478 0.484171
vt 0.359727 0.519749
vt 0.336194 0.574136
vt 0.291759 0.635064
vt 0.440433 0.532688
vt 0.536068 0.536068
vt 0.483883 0.585236
vt 0.532687 0.440433
vt 0.487572 0.487573
vt 0.534182 0.635133
vt 0.635133 0.534181
vt 0.587048 0.587047
vt 0.383261 0.574135
vt 0.400975 0.484170
vt 0.484168 0.400976
vt 0.443354 0.443355
vt 0.519747 0.359727
vt 0.574133 0.383260
vt 0.585235 0.483882
vt 0.686850 0.482944
vt 0.719268 0.532036
vt 0.689409 0.582726
vt 0.640751 0.640749
vt 0.582728 0.689409
vt 0.532038 0.719268
vt 0.482946 0.686851
vt 0.427696 0.635062
vt 0.532686 0.279021
vt 0.536067 0.183385
vt 0.585234 0.235571
vt 0.440431 0.186767
vt 0.487571 0.231881
vt 0.635132 0.185271
vt 0.534179 0.084319
vt 0.587046 0.132405
vt 0.574133 0.336193
vt 0.484168 0.318479
vt 0.400974 0.235286
vt 0.443353 0.276100
vt 0.383257 0.145320
vt 0.483880 0.134218
vt 0.482942 0.032602
vt 0.532034 0.000184
vt 0.582725 0.030043
vt 0.640749 0.078701
vt 0.689408 0.136724
vt 0.719268 0.187415
vt 0.686850 0.236508
vt 0.635061 0.291758
vt 0.359726 0.442174
vt 0.359726 0.359728
vt 0.401814 0.401816
vt 0.277280 0.359729
vt 0.317638 0.401817
vt 0.442172 0.359728
vt 0.359725 0.277282
vt 0.401814 0.317640
vt 0.317637 0.317640
vt 0.084391 0.291761
vt 0.860890 0.280811
vt 0.084391 0.427698
vt 0.635060 0.427695
vt 0.427692 0.084392
s 1
usemtl マテリアル
f 45/1/45 49/2/49 48/3/48
f 47/4/47 49/2/49 46/5/46
f 49/2/49 51/6/51 48/3/48
f 49/2/49 53/7/53 52/8/52
f 1/9/1 45/1/45 30/10/30
f 41/11/41 46/5/46 45/1/45
f 39/12/39 46/5/46 40/13/40
f 5/14/5 47/4/47 39/12/39
f 38/15/38 50/16/50 47/4/47
f 50/16/50 36/17/36 53/7/53
f 53/7/53 7/18/7 29/19/29
f 52/8/52 29/19/29 28/20/28
f 52/8/52 27/21/27 51/6/51
f 51/6/51 3/22/3 32/23/32
f 48/3/48 32/23/32 31/24/31
f 30/10/30 48/3/48 31/24/31
f 54/25/54 58/26/58 57/27/57
f 56/28/56 58/26/58 55/29/55
f 58/26/58 60/30/60 57/27/57
f 58/26/58 62/31/62 61/32/61
f 4/33/4 54/25/54 35/34/35
f 23/35/23 55/29/55 54/25/54
f 21/36/21 55/29/55 22/37/22
f 3/38/3 56/28/56 21/36/21
f 27/39/27 59/40/59 56/28/56
f 59/40/59 29/41/29 62/31/62
f 62/31/62 7/42/7 20/43/20
f 61/32/61 20/43/20 19/44/19
f 61/32/61 18/45/18 60/30/60
f 60/30/60 8/46/8 33/47/33
f 57/27/57 33/47/33 34/48/34
f 35/34/35 57/27/57 34/48/34
f 63/49/63 67/50/67 66/51/66
f 65/52/65 67/50/67 64/53/64
f 67/50/67 69/54/69 66/51/66
f 67/50/67 71/55/71 70/56/70
f 8/57/8 63/49/63 11/58/11
f 18/59/18 64/53/64 63/49/63
f 20/60/20 64/53/64 19/61/19
f 7/62/7 65/52/65 20/60/20
f 36/63/36 68/64/68 65/52/65
f 68/64/68 38/65/38 71/55/71
f 71/55/71 5/14/5 24/66/24
f 70/56/70 24/66/24 25/67/25
f 70/56/70 26/68/26 69/54/69
f 69/54/69 6/69/6 9/70/9
f 66/51/66 9/70/9 10/71/10
f 11/58/11 66/51/66 10/71/10
f 72/72/72 76/73/76 75/74/75
f 74/75/74 76/73/76 73/76/73
f 76/73/76 78/77/78 75/74/75
f 76/73/76 80/78/80 79/79/79
f 6/69/6 72/72/72 9/80/9
f 14/81/14 73/76/73 72/72/72
f 12/82/12 73/76/73 13/83/13
f 2/84/2 74/75/74 12/82/12
f 44/85/44 77/86/77 74/75/74
f 77/86/77 42/87/42 80/78/80
f 80/78/80 4/88/4 35/89/35
f 79/79/79 35/89/35 34/90/34
f 79/79/79 33/91/33 78/77/78
f 78/77/78 8/92/8 11/93/11
f 75/74/75 11/93/11 10/94/10
f 9/80/9 75/74/75 10/94/10
f 81/95/81 85/96/85 84/97/84
f 83/98/83 85/96/85 82/99/82
f 85/96/85 87/100/87 84/97/84
f 85/96/85 89/101/89 88/102/88
f 2/84/2 81/95/81 44/103/44
f 17/104/17 82/99/82 81/95/81
f 15/105/15 82/99/82 16/106/16
f 1/9/1 83/98/83 15/105/15
f 30/107/30 86/108/86 83/98/83
f 86/108/86 32/109/32 89/101/89
f 89/101/89 3/110/3 21/111/21
f 88/102/88 21/111/21 22/112/22
f 88/102/88 23/113/23 87/100/87
f 87/100/87 4/114/4 42/115/42
f 84/97/84 42/115/42 43/116/43
f 44/103/44 84/97/84 43/116/43
f 90/117/90 94/118/94 93/119/93
f 92/120/92 94/118/94 91/121/91
f 94/118/94 96/122/96 93/119/93
f 94/118/94 98/123/98 97/124/97
f 6/69/6 90/117/90 14/81/14
f 26/68/26 91/121/91 90/117/90
f 24/66/24 91/121/91 25/67/25
f 5/14/5 92/120/92 24/66/24
f 39/12/39 95/125/95 92/120/92
f 95/125/95 41/11/41 98/123/98
f 98/123/98 1/9/1 15/105/15
f 97/124/97 15/105/15 16/106/16
f 97/124/97 17/104/17 96/122/96
f 96/122/96 2/84/2 12/82/12
f 93/119/93 12/82/12 13/83/13
f 14/81/14 93/119/93 13/83/13
f 45/1/45 46/5/46 49/2/49
f 47/4/47 50/16/50 49/2/49
f 49/2/49 52/8/52 51/6/51
f 49/2/49 50/16/50 53/7/53
f 1/9/1 41/11/41 45/1/45
f 41/11/41 40/13/40 46/5/46
f 39/12/39 47/4/47 46/5/46
f 5/14/5 38/15/38 47/4/47
f 38/15/38 37/126/37 50/16/50
f 50/16/50 37/126/37 36/17/36
f 53/7/53 36/17/36 7/18/7
f 52/8/52 53/7/53 29/19/29
f 52/8/52 28/20/28 27/21/27
f 51/6/51 27/21/27 3/22/3
f 48/3/48 51/6/51 32/23/32
f 30/10/30 45/1/45 48/3/48
f 54/25/54 55/29/55 58/26/58
f 56/28/56 59/40/59 58/26/58
f 58/26/58 61/32/61 60/30/60
f 58/26/58 59/40/59 62/31/62
f 4/33/4 23/35/23 54/25/54
f 23/35/23 22/37/22 55/29/55
f 21/36/21 56/28/56 55/29/55
f 3/38/3 27/39/27 56/28/56
f 27/39/27 28/127/28 59/40/59
f 59/40/59 28/127/28 29/41/29
f 62/31/62 29/41/29 7/42/7
f 61/32/61 62/31/62 20/43/20
f 61/32/61 19/44/19 18/45/18
f 60/30/60 18/45/18 8/46/8
f 57/27/57 60/30/60 33/47/33
f 35/34/35 54/25/54 57/27/57
f 63/49/63 64/53/64 67/50/67
f 65/52/65 68/64/68 67/50/67
f 67/50/67 70/56/70 69/54/69
f 67/50/67 68/64/68 71/55/71
f 8/57/8 18/59/18 63/49/63
f 18/59/18 19/61/19 64/53/64
f 20/60/20 65/52/65 64/53/64
f 7/62/7 36/63/36 65/52/65
f 36/63/36 37/128/37 68/64/68
f 68/64/68 37/128/37 38/65/38
f 71/55/71 38/65/38 5/14/5
f 70/56/70 71/55/71 24/66/24
f 70/56/70 25/67/25 26/68/26
f 69/54/69 26/68/26 6/69/6
f 66/51/66 69/54/69 9/70/9
f 11/58/11 63/49/63 66/51/66
f 72/72/72 73/76/73 76/73/76
f 74/75/74 77/86/77 76/73/76
f 76/73/76 79/79/79 78/77/78
f 76/73/76 77/86/77 80/78/80
f 6/69/6 14/81/14 72/72/72
f 14/81/14 13/83/13 73/76/73
f 12/82/12 74/75/74 73/76/73
f 2/84/2 44/85/44 74/75/74
f 44/85/44 43/129/43 77/86/77
f 77/86/77 43/129/43 42/87/42
f 80/78/80 42/87/42 4/88/4
f 79/79/79 80/78/80 35/89/35
f 79/79/79 34/90/34 33/91/33
f 78/77/78 33/91/33 8/92/8
f 75/74/75 78/77/78 11/93/11
f 9/80/9 72/72/72 75/74/75
f 81/95/81 82/99/82 85/96/85
f 83/98/83 86/108/86 85/96/85
f 85/96/85 88/102/88 87/100/87
f 85/96/85 86/108/86 89/101/89
f 2/84/2 17/104/17 81/95/81
f 17/104/17 16/106/16 82/99/82
f 15/105/15 83/98/83 82/99/82
f 1/9/1 30/107/30 83/98/83
f 30/107/30 31/130/31 86/108/86
f 86/108/86 31/130/31 32/109/32
f 89/101/89 32/109/32 3/110/3
f 88/102/88 89/101/89 21/111/21
f 88/102/88 22/112/22 23/113/23
f 87/100/87 23/113/23 4/114/4
f 84/97/84 87/100/87 42/115/42
f 44/103/44 81/95/81 84/97/84
f 90/117/90 91/121/91 94/118/94
f 92/120/92 95/125/95 94/118/94
f 94/118/94 97/124/97 96/122/96
f 94/118/94 95/125/95 98/123/98
f 6/69/6 26/68/26 90/117/90
f 26/68/26 25/67/25 91/121/91
f 24/66/24 92/120/92 91/121/91
f 5/14/5 39/12/39 92/120/92
f 39/12/39 40/13/40 95/125/95
f 95/125/95 40/13/40 41/11/41
f 98/123/98 41/11/41 1/9/1
f 97/124/97 98/123/98 15/105/15
f 97/124/97 16/106/16 17/104/17
f 96/122/96 17/104/17 2/84/2
f 93/119/93 96/122/96 12/82/12
f 14/81/14 90/117/90 93/119/93
o 角
v 0.186702 0.385709 -0.120000
v 0.266438 0.356688 -0.084853
v 0.299465 0.344667 0.000000
v 0.266438 0.356688 0.084853
v 0.186702 0.385709 0.120000
v 0.106967 0.414731 0.084853
v 0.073939 0.426752 0.000000
v 0.106967 0.414731 -0.084853
v 0.282468 0.648823 0.000000
v -0.186702 0.385709 -0.120000
v -0.266438 0.356688 -0.084853
v -0.299465 0.344667 0.000000
v -0.266438 0.356688 0.084853
v -0.186702 0.385709 0.120000
v -0.106967 0.414731 0.084853
v -0.073939 0.426752 0.000000
v -0.106967 0.414731 -0.084853
v -0.282468 0.648823 0.000000
vn 0.4603 0.2242 -0.8590
vn 0.9331 0.0521 -0.3558
vn 0.9331 0.0521 0.3558
vn 0.4603 0.2242 0.8590
vn -0.2084 0.4676 0.8590
vn -0.6813 0.6397 0.3558
vn -0.3420 -0.9397 -0.0000
vn -0.6813 0.6397 -0.3558
vn -0.2084 0.4676 -0.8590
vn -0.4603 0.2242 -0.8590
vn -0.9331 0.0521 -0.3558
vn -0.9331 0.0521 0.3558
vn -0.4603 0.2242 0.8590
vn 0.2084 0.4676 0.8590
vn 0.6813 0.6397 0.3558
vn 0.3420 -0.9397 -0.0000
vn 0.6813 0.6397 -0.3558
vn 0.2084 0.4676 -0.8590
vt 0.868085 0.490672
vt 0.824605 0.385702
vt 0.929575 0.429182
vt 0.929575 0.342222
vt 0.868085 0.280732
vt 0.781125 0.280732
vt 0.719635 0.342222
vt 0.719635 0.429182
vt 0.061674 0.719640
vt 0.000184 0.868090
vt 0.148634 0.929579
vt 0.781125 0.490672
vt 0.868085 0.700979
vt 0.929575 0.639489
vt 0.824605 0.596009
vt 0.929575 0.552529
vt 0.868085 0.491040
vt 0.781125 0.491040
vt 0.719635 0.552529
vt 0.719635 0.639489
vt 0.210491 0.868090
vt 0.271981 0.719640
vt 0.420431 0.781130
vt 0.781125 0.700979
vt 0.210123 0.868090
vt 0.210123 0.781130
vt 0.148634 0.719640
vt 0.000184 0.781130
vt 0.061674 0.929579
vt 0.420431 0.868090
vt 0.358941 0.929579
vt 0.271981 0.929579
vt 0.210491 0.781130
vt 0.358941 0.719640
s 1
usemtl マテリアル
f 99/131/99 107/132/99 100/133/99
f 100/133/100 107/132/100 101/134/100
f 101/134/101 107/132/101 102/135/101
f 102/135/102 107/132/102 103/136/102
f 103/136/103 107/132/103 104/137/103
f 104/137/104 107/132/104 105/138/104
f 102/139/105 104/140/105 106/141/105
f 105/138/106 107/132/106 106/142/106
f 106/142/107 107/132/107 99/131/107
f 108/143/108 109/144/108 116/145/108
f 109/144/109 110/146/109 116/145/109
f 110/146/110 111/147/110 116/145/110
f 111/147/111 112/148/111 116/145/111
f 112/148/112 113/149/112 116/145/112
f 113/149/113 114/150/113 116/145/113
f 113/151/114 111/152/114 109/153/114
f 114/150/115 115/154/115 116/145/115
f 115/154/116 108/143/116 116/145/116
f 106/141/105 99/155/105 100/156/105
f 100/156/105 101/157/105 102/139/105
f 102/139/105 103/158/105 104/140/105
f 104/140/105 105/159/105 106/141/105
f 106/141/105 100/156/105 102/139/105
f 109/153/114 108/160/114 115/161/114
f 115/161/114 114/162/114 113/151/114
f 113/151/114 112/163/114 111/152/114
f 111/152/114 110/164/114 109/153/114
f 109/153/114 115/161/114 113/151/114
