# Blender 4.4.1
# www.blender.org
mtllib WingL.mtl
o P_Wing_L
v 0.728324 -0.030549 -0.599744
v 0.382957 0.228125 0.626857
v 0.102683 -0.100885 -0.709873
v -0.353120 0.119283 0.333726
v 0.661270 0.219801 0.056168
v -0.389246 0.060890 -0.288547
v 0.393217 0.004800 -0.699020
v 0.130481 0.200404 -0.139436
v -0.110535 0.260934 0.519697
v 0.837064 -0.192592 -0.646442
v 0.762453 0.089592 0.111476
v 0.440194 0.107023 0.772417
v 0.063415 -0.280951 -0.783261
v -0.486857 -0.102530 -0.295935
v -0.462031 -0.021743 0.436978
v 0.413822 -0.157495 -0.768445
v -0.138372 0.142688 0.646932
v 1.304890 -0.127682 -0.533789
v 1.244158 0.102008 0.083134
v 0.981849 0.116196 0.621121
v 1.216378 0.004216 -0.495777
v 1.161798 0.207994 0.038115
v 0.935260 0.214770 0.502640
v 1.643735 -0.127650 -0.398111
v 1.921818 0.042993 0.042315
v 1.383032 0.069166 0.533930
v 1.572304 -0.021205 -0.367435
v 1.528256 0.143249 0.063429
v 1.345434 0.148717 0.438313
v 2.259300 -0.127387 -0.288995
v 2.554414 -0.021155 -0.021570
v 2.089187 0.001039 0.319180
v 2.212690 -0.057930 -0.268978
v 2.183948 0.049380 0.012169
v 2.064653 0.052948 0.256788
v 2.900382 -0.135900 -0.210523
v 2.887070 -0.085551 -0.075292
v 2.829571 -0.082441 0.042635
v 2.880980 -0.106987 -0.202191
v 2.869016 -0.062319 -0.085161
v 2.819359 -0.060834 0.016664
v 0.176227 -0.061597 0.098521
vn 0.0179 0.9295 0.3685
vn -0.0795 0.9667 -0.2434
vn -0.3058 0.9162 0.2589
vn 0.0795 0.9429 -0.3234
vn 0.0237 0.9862 -0.1641
vn -0.2902 0.6029 -0.7432
vn -0.5635 0.7317 -0.3834
vn -0.6065 0.7935 0.0512
vn 0.0973 -0.9791 0.1787
vn -0.0149 -0.9997 0.0191
vn 0.0402 -0.9850 0.1675
vn 0.2077 0.3970 -0.8940
vn 0.1698 0.7248 -0.6677
vn 0.2704 0.4297 -0.8615
vn -0.5352 0.3672 -0.7607
vn -0.8486 0.5290 -0.0061
vn -0.7207 0.6743 0.1608
vn 0.2456 0.4115 -0.8777
vn 0.0897 0.4076 -0.9087
vn 0.0415 0.7407 -0.6705
vn -0.3401 0.4176 -0.8426
vn -0.3919 0.7298 0.5601
vn 0.0545 0.7780 0.6259
vn -0.0372 -0.9838 0.1755
vn -0.1103 -0.9929 -0.0446
vn 0.1064 0.9814 -0.1599
vn 0.2048 0.9193 0.3361
vn 0.1557 0.9788 -0.1331
vn -0.0317 -0.9377 0.3460
vn 0.1286 0.9426 0.3080
vn -0.0879 -0.9823 0.1652
vn -0.0594 -0.9086 0.4134
vn -0.1235 -0.9834 0.1331
vn 0.2261 0.7419 -0.6312
vn 0.1372 0.9807 -0.1392
vn 0.1048 0.9326 -0.3453
vn 0.1878 0.7901 0.5835
vn 0.2225 0.4049 -0.8869
vn -0.0898 -0.9240 0.3718
vn 0.2705 0.7897 0.5507
vn 0.3951 0.8690 0.2977
vn 0.2186 0.9212 0.3219
vn -0.1946 -0.9760 -0.0978
vn -0.1194 -0.9888 -0.0900
vn 0.2335 0.7907 0.5660
vn 0.1485 0.3646 -0.9193
vn 0.1329 0.3558 -0.9251
vn 0.8046 0.5780 -0.1362
vn 0.7644 0.6378 0.0938
vn 0.8040 0.5788 -0.1364
vn 0.4993 0.8648 -0.0536
vn 0.1185 0.3476 -0.9301
vn 0.1030 0.9328 -0.3455
vn -0.1006 -0.9214 0.3753
vn -0.1548 -0.9673 0.2008
vn 0.1051 -0.9713 0.2134
vn 0.0864 -0.9574 0.2757
vn -0.0525 -0.9804 0.1900
vn 0.1493 -0.9600 0.2370
vn 0.1529 -0.9634 0.2201
vn -0.0750 -0.9369 0.3414
vn 0.4545 0.7644 0.4573
vn 0.0341 -0.9300 0.3660
vt 0.800543 0.672418
vt 0.745136 0.645414
vt 0.792006 0.640278
vt 0.685591 0.679366
vt 0.751797 0.692999
vt 0.700742 0.627005
vt 0.744894 0.593703
vt 0.785089 0.621803
vt 0.901250 0.714325
vt 0.813893 0.729708
vt 0.815788 0.675008
vt 0.665820 0.683439
vt 0.675716 0.731468
vt 0.656444 0.737322
vt 0.744533 0.565500
vt 0.794962 0.615110
vt 0.680874 0.643931
vt 0.695014 0.649176
vt 0.690769 0.618549
vt 0.802244 0.637117
vt 0.874390 0.798670
vt 0.801413 0.782937
vt 0.740604 0.744669
vt 0.786249 0.774593
vt 0.733177 0.789525
vt 0.561589 0.652886
vt 0.561589 0.732085
vt 0.795600 0.724041
vt 0.581734 0.843567
vt 0.654655 0.883266
vt 0.621291 0.953388
vt 0.668980 0.780828
vt 0.707990 0.878399
vt 0.663944 0.876721
vt 0.651278 0.789171
vt 0.756050 0.876612
vt 0.693350 0.953466
vt 0.746507 0.869566
vt 0.725758 0.957947
vt 0.696896 0.955970
vt 0.804580 0.892426
vt 0.667508 0.949055
vt 0.678621 0.967466
vt 0.664571 0.950340
vt 0.679958 0.959860
vt 0.881813 0.595218
vt 0.611111 0.564834
s 1
usemtl Material
f 2/1/1 8/2/2 9/3/3
f 1/4/4 8/2/2 5/5/5
f 8/2/2 3/6/6 6/7/7
f 8/2/2 4/8/8 9/3/3
f 11/9/9 20/10/10 12/11/11
f 10/12/12 21/13/13 18/14/14
f 3/6/6 14/15/15 6/7/7
f 4/8/8 14/15/16 15/16/17
f 1/4/18 16/17/19 7/18/20
f 3/6/6 16/17/19 13/19/21
f 4/8/8 17/20/22 9/3/3
f 2/1/1 17/20/22 12/11/23
f 19/21/24 26/22/25 20/10/10
f 22/23/26 29/24/27 28/25/28
f 1/4/4 22/23/26 21/13/13
f 11/26/9 18/14/29 19/27/24
f 5/5/5 23/28/30 22/23/26
f 12/11/23 23/28/30 2/1/1
f 25/29/31 30/30/32 31/31/33
f 27/32/34 34/33/35 33/34/36
f 20/10/37 29/24/27 23/28/30
f 18/14/14 27/32/34 24/35/38
f 22/23/26 27/32/34 21/13/13
f 19/27/24 24/35/39 25/29/31
f 32/36/40 41/37/41 35/38/42
f 31/39/33 38/40/43 32/36/44
f 28/25/28 35/38/42 34/33/35
f 25/41/31 32/36/44 26/22/25
f 26/22/45 35/38/42 29/24/27
f 24/35/38 33/34/46 30/30/47
f 39/42/48 37/43/49 36/44/50
f 41/37/41 37/43/49 40/45/51
f 30/30/47 39/42/52 36/44/52
f 33/34/36 40/45/51 39/42/53
f 31/31/33 36/44/54 37/43/55
f 34/33/35 41/37/41 40/45/51
f 12/11/11 42/46/56 11/9/9
f 42/46/56 15/16/57 14/15/58
f 16/17/59 11/26/9 42/47/56
f 42/47/56 13/19/60 16/17/59
f 2/1/1 5/5/5 8/2/2
f 1/4/4 7/18/20 8/2/2
f 8/2/2 7/18/20 3/6/6
f 8/2/2 6/7/7 4/8/8
f 11/9/9 19/21/24 20/10/10
f 10/12/12 1/4/18 21/13/13
f 3/6/6 13/19/21 14/15/15
f 4/8/8 6/7/7 14/15/16
f 1/4/18 10/12/12 16/17/19
f 3/6/6 7/18/20 16/17/19
f 4/8/8 15/16/17 17/20/22
f 2/1/1 9/3/3 17/20/22
f 19/21/24 25/41/31 26/22/25
f 22/23/26 23/28/30 29/24/27
f 1/4/4 5/5/5 22/23/26
f 11/26/9 10/12/61 18/14/29
f 5/5/5 2/1/1 23/28/30
f 12/11/23 20/10/37 23/28/30
f 25/29/31 24/35/39 30/30/32
f 27/32/34 28/25/28 34/33/35
f 20/10/37 26/22/45 29/24/27
f 18/14/14 21/13/13 27/32/34
f 22/23/26 28/25/28 27/32/34
f 19/27/24 18/14/29 24/35/39
f 32/36/40 38/40/62 41/37/41
f 31/39/33 37/43/55 38/40/43
f 28/25/28 29/24/27 35/38/42
f 25/41/31 31/39/33 32/36/44
f 26/22/45 32/36/40 35/38/42
f 24/35/38 27/32/34 33/34/46
f 39/42/48 40/45/51 37/43/49
f 41/37/41 38/40/62 37/43/49
f 30/30/47 33/34/46 39/42/52
f 33/34/36 34/33/35 40/45/51
f 31/31/33 30/30/32 36/44/54
f 34/33/35 35/38/42 41/37/41
f 12/11/11 17/20/63 42/46/56
f 42/46/56 17/20/63 15/16/57
f 16/17/59 10/12/61 11/26/9
f 42/47/56 14/15/58 13/19/60
