# Blender 4.4.1
# www.blender.org
mtllib WingR.mtl
o P_Wing_R
v -0.728324 -0.030549 -0.599744
v -0.382957 0.228125 0.626857
v -0.102683 -0.100885 -0.709873
v 0.353120 0.119283 0.333726
v -0.661270 0.219801 0.056168
v 0.389246 0.060890 -0.288547
v -0.393217 0.004800 -0.699020
v -0.130481 0.200404 -0.139436
v 0.110535 0.260934 0.519697
v -0.837064 -0.192592 -0.646442
v -0.762453 0.089592 0.111476
v -0.440194 0.107023 0.772417
v -0.063415 -0.280951 -0.783261
v 0.486857 -0.102530 -0.295935
v 0.462031 -0.021743 0.436978
v -0.413822 -0.157495 -0.768445
v 0.138372 0.142688 0.646932
v -1.304890 -0.127682 -0.533789
v -1.244158 0.102008 0.083134
v -0.981849 0.116196 0.621121
v -1.216378 0.004216 -0.495777
v -1.161798 0.207994 0.038115
v -0.935260 0.214770 0.502640
v -1.643735 -0.127650 -0.398111
v -1.921818 0.042993 0.042315
v -1.383032 0.069166 0.533930
v -1.572304 -0.021205 -0.367435
v -1.528256 0.143249 0.063429
v -1.345434 0.148717 0.438313
v -2.259300 -0.127387 -0.288995
v -2.554414 -0.021155 -0.021570
v -2.089187 0.001039 0.319180
v -2.212690 -0.057930 -0.268978
v -2.183948 0.049380 0.012169
v -2.064653 0.052948 0.256788
v -2.900382 -0.135900 -0.210523
v -2.887070 -0.085551 -0.075292
v -2.829571 -0.082441 0.042635
v -2.880980 -0.106987 -0.202191
v -2.869016 -0.062319 -0.085161
v -2.819359 -0.060834 0.016664
v -0.154871 -0.074408 0.070324
vn -0.0179 0.9295 0.3685
vn 0.0795 0.9667 -0.2434
vn -0.0237 0.9862 -0.1641
vn -0.0795 0.9429 -0.3234
vn 0.2902 0.6029 -0.7432
vn -0.0415 0.7407 -0.6705
vn 0.6065 0.7935 0.0512
vn 0.3058 0.9162 0.2589
vn 0.0149 -0.9997 0.0191
vn -0.0988 -0.9789 0.1787
vn -0.0426 -0.9843 0.1714
vn -0.2077 0.3970 -0.8940
vn -0.1698 0.7248 -0.6677
vn -0.2456 0.4115 -0.8777
vn 0.5352 0.3672 -0.7607
vn 0.5635 0.7317 -0.3834
vn 0.8486 0.5290 -0.0061
vn -0.0897 0.4076 -0.9087
vn 0.3919 0.7298 0.5601
vn 0.1103 -0.9929 -0.0446
vn 0.0372 -0.9838 0.1755
vn -0.1064 0.9814 -0.1599
vn -0.2048 0.9193 0.3361
vn -0.1286 0.9426 0.3080
vn 0.0317 -0.9377 0.3460
vn 0.0750 -0.9369 0.3414
vn -0.0545 0.7780 0.6259
vn 0.0879 -0.9823 0.1652
vn 0.0594 -0.9086 0.4134
vn 0.0898 -0.9240 0.3718
vn -0.2261 0.7419 -0.6312
vn -0.1372 0.9807 -0.1392
vn -0.1557 0.9788 -0.1331
vn -0.1878 0.7901 0.5835
vn -0.2704 0.4297 -0.8615
vn -0.3951 0.8690 0.2977
vn -0.2705 0.7897 0.5507
vn -0.2186 0.9212 0.3219
vn 0.1946 -0.9760 -0.0978
vn 0.1235 -0.9834 0.1331
vn 0.1194 -0.9888 -0.0900
vn -0.2335 0.7907 0.5660
vn -0.2225 0.4049 -0.8869
vn -0.1485 0.3646 -0.9193
vn -0.8046 0.5780 -0.1362
vn -0.7644 0.6378 0.0938
vn -0.4993 0.8648 -0.0536
vn -0.1329 0.3558 -0.9251
vn -0.1185 0.3476 -0.9301
vn -0.1048 0.9326 -0.3453
vn 0.1006 -0.9214 0.3753
vn -0.1021 -0.9717 0.2130
vn -0.0852 -0.9560 0.2807
vn -0.0299 -0.9303 0.3655
vn -0.1537 -0.9640 0.2168
vn 0.0625 -0.9808 0.1848
vn -0.1492 -0.9601 0.2366
vn 0.3401 0.4176 -0.8426
vn 0.7207 0.6743 0.1608
vn -0.4545 0.7644 0.4573
vn 0.1548 -0.9673 0.2008
vn -0.8040 0.5788 -0.1364
vn -0.1030 0.9328 -0.3455
vt 0.321503 0.675908
vt 0.376390 0.648373
vt 0.370209 0.695949
vt 0.436403 0.681751
vt 0.420557 0.629354
vt 0.426659 0.651515
vt 0.336278 0.625440
vt 0.329656 0.643878
vt 0.308588 0.732895
vt 0.221900 0.717623
vt 0.306387 0.678612
vt 0.456280 0.685731
vt 0.446554 0.733949
vt 0.375771 0.568396
vt 0.375874 0.596679
vt 0.440855 0.646032
vt 0.319462 0.640865
vt 0.321169 0.785856
vt 0.248473 0.801601
vt 0.381706 0.747463
vt 0.336267 0.777497
vt 0.326749 0.727178
vt 0.560979 0.654948
vt 0.465887 0.739747
vt 0.540853 0.845979
vt 0.467979 0.885755
vt 0.471190 0.791647
vt 0.453461 0.783340
vt 0.414657 0.880979
vt 0.389289 0.792243
vt 0.560979 0.734385
vt 0.429403 0.955979
vt 0.366636 0.879275
vt 0.376155 0.872220
vt 0.425864 0.958487
vt 0.397023 0.960503
vt 0.318189 0.895135
vt 0.458683 0.879228
vt 0.455225 0.951535
vt 0.444144 0.969950
vt 0.442798 0.962350
vt 0.501424 0.955802
vt 0.458162 0.952815
vt 0.240553 0.594960
vt 0.326375 0.618963
vt 0.504839 0.564834
vt 0.430396 0.620716
s 1
usemtl Material
f 2/1/1 8/2/2 5/3/3
f 8/2/2 1/4/4 5/3/3
f 8/2/2 3/5/5 7/6/6
f 4/7/7 8/2/2 9/8/8
f 20/9/9 11/10/10 12/11/11
f 10/12/12 21/13/13 1/4/14
f 14/14/15 3/5/5 6/15/16
f 4/7/7 14/14/17 6/15/16
f 16/16/18 1/4/14 7/6/6
f 3/5/5 16/16/18 7/6/6
f 17/17/19 4/7/7 9/8/8
f 2/1/1 17/17/19 9/8/8
f 26/18/20 19/19/21 20/9/9
f 22/20/22 29/21/23 23/22/24
f 1/4/4 22/20/22 5/3/3
f 11/23/10 18/24/25 10/12/26
f 5/3/3 23/22/24 2/1/1
f 23/22/24 12/11/27 2/1/1
f 25/25/28 30/26/29 24/27/30
f 27/28/31 34/29/32 28/30/33
f 29/21/23 20/9/34 23/22/24
f 18/24/35 27/28/31 21/13/13
f 27/28/31 22/20/22 21/13/13
f 19/31/21 24/27/30 18/24/25
f 41/32/36 32/33/37 35/34/38
f 38/35/39 31/36/40 32/33/41
f 28/30/33 35/34/38 29/21/23
f 32/33/41 25/37/28 26/18/20
f 35/34/38 26/18/42 29/21/23
f 24/27/43 33/38/44 27/28/31
f 39/39/45 37/40/46 40/41/47
f 37/40/46 41/32/36 40/41/47
f 30/26/48 39/39/49 33/38/44
f 33/38/50 40/41/47 34/29/32
f 31/42/40 36/43/51 30/26/29
f 34/29/32 41/32/36 35/34/38
f 42/44/52 12/11/11 11/10/10
f 42/44/52 15/45/53 17/17/54
f 42/46/52 13/47/55 14/14/56
f 11/23/10 16/16/57 42/46/52
f 2/1/1 9/8/8 8/2/2
f 8/2/2 7/6/6 1/4/4
f 8/2/2 6/15/16 3/5/5
f 4/7/7 6/15/16 8/2/2
f 20/9/9 19/19/21 11/10/10
f 10/12/12 18/24/35 21/13/13
f 14/14/15 13/47/58 3/5/5
f 4/7/7 15/45/59 14/14/17
f 16/16/18 10/12/12 1/4/14
f 3/5/5 13/47/58 16/16/18
f 17/17/19 15/45/59 4/7/7
f 2/1/1 12/11/27 17/17/19
f 26/18/20 25/37/28 19/19/21
f 22/20/22 28/30/33 29/21/23
f 1/4/4 21/13/13 22/20/22
f 11/23/10 19/31/21 18/24/25
f 5/3/3 22/20/22 23/22/24
f 23/22/24 20/9/34 12/11/27
f 25/25/28 31/42/40 30/26/29
f 27/28/31 33/38/50 34/29/32
f 29/21/23 26/18/42 20/9/34
f 18/24/35 24/27/43 27/28/31
f 27/28/31 28/30/33 22/20/22
f 19/31/21 25/25/28 24/27/30
f 41/32/36 38/35/60 32/33/37
f 38/35/39 37/40/61 31/36/40
f 28/30/33 34/29/32 35/34/38
f 32/33/41 31/36/40 25/37/28
f 35/34/38 32/33/37 26/18/42
f 24/27/43 30/26/48 33/38/44
f 39/39/45 36/43/62 37/40/46
f 37/40/46 38/35/60 41/32/36
f 30/26/48 36/43/49 39/39/49
f 33/38/50 39/39/63 40/41/47
f 31/42/40 37/40/61 36/43/51
f 34/29/32 40/41/47 41/32/36
f 42/44/52 17/17/54 12/11/11
f 42/44/52 14/14/56 15/45/53
f 42/46/52 16/16/57 13/47/55
f 11/23/10 10/12/26 16/16/57
