# Blender 4.4.1
# www.blender.org
mtllib Papyrus.mtl
o Cube
v 2.497623 -1.000000 0.062751
v 2.497623 1.000000 0.062751
v -2.497623 -1.000000 0.062751
v -2.497623 1.000000 0.062751
v 2.497623 -1.000000 -0.062751
v 2.497623 1.000000 -0.062751
v -2.497623 -1.000000 -0.062751
v -2.497623 1.000000 -0.062751
vn -0.0000 -0.0000 1.0000
vn -1.0000 -0.0000 -0.0000
vn -0.0000 -0.0000 -1.0000
vn 1.0000 -0.0000 -0.0000
vn -0.0000 -1.0000 -0.0000
vn -0.0000 1.0000 -0.0000
vt 1.000000 1.004614
vt 0.000000 -0.004614
vt 1.000000 -0.004615
vt 1.005461 0.003383
vt 0.994539 0.996617
vt 0.994539 0.003383
vt 1.000000 1.004614
vt 0.000000 -0.004614
vt 1.000000 -0.004614
vt 0.006755 1.000000
vt -0.006755 -0.009228
vt 0.006755 -0.009228
vt 1.000000 -0.016255
vt 0.000000 0.016255
vt 0.000000 -0.016256
vt 1.000000 0.986634
vt 0.000000 1.013366
vt 0.000000 0.986634
vt 0.000000 1.004614
vt 1.005461 0.996617
vt 0.000000 1.004614
vt -0.006755 1.000000
vt 1.000000 0.016255
vt 1.000000 1.013366
s 0
usemtl Material.001
f 2/1/1 3/2/1 1/3/1
f 4/4/2 7/5/2 3/6/2
f 8/7/3 5/8/3 7/9/3
f 6/10/4 1/11/4 5/12/4
f 7/13/5 1/14/5 3/15/5
f 4/16/6 6/17/6 8/18/6
f 2/1/1 4/19/1 3/2/1
f 4/4/2 8/20/2 7/5/2
f 8/7/3 6/21/3 5/8/3
f 6/10/4 2/22/4 1/11/4
f 7/13/5 5/23/5 1/14/5
f 4/16/6 2/24/6 6/17/6
