# Blender 4.4.1
# www.blender.org
mtllib MeltFloor.mtl
o Cube
v 0.500000 0.025000 -0.500000
v 0.500000 -0.025000 -0.500000
v 0.500000 0.025000 0.500000
v 0.500000 -0.025000 0.500000
v -0.500000 0.025000 -0.500000
v -0.500000 -0.025000 -0.500000
v -0.500000 0.025000 0.500000
v -0.500000 -0.025000 0.500000
vn -0.0000 1.0000 -0.0000
vn -0.0000 -0.0000 1.0000
vn -1.0000 -0.0000 -0.0000
vn -0.0000 -1.0000 -0.0000
vn 1.0000 -0.0000 -0.0000
vn -0.0000 -0.0000 -1.0000
vt 0.601988 0.401387
vt 0.401387 0.601988
vt 0.401387 0.401387
vt 0.200786 0.802589
vt 0.200786 0.601988
vt 0.401387 0.000185
vt 0.200786 0.200786
vt 0.200786 0.000185
vt 0.200786 0.401387
vt 0.000185 0.601988
vt 0.000185 0.401387
vt 0.401387 0.200786
vt 0.601988 0.601988
vt 0.401387 0.802589
s 1
usemtl Material
f 5/1/1 3/2/1 1/3/1
f 3/2/2 8/4/2 4/5/2
f 7/6/3 6/7/3 8/8/3
f 2/9/4 8/10/4 6/11/4
f 1/3/5 4/5/5 2/9/5
f 5/12/6 2/9/6 6/7/6
f 5/1/1 7/13/1 3/2/1
f 3/2/2 7/14/2 8/4/2
f 7/6/3 5/12/3 6/7/3
f 2/9/4 4/5/4 8/10/4
f 1/3/5 3/2/5 4/5/5
f 5/12/6 1/3/6 2/9/6
o 球
v 0.160843 0.067388 0.291793
v 0.188245 0.047559 0.264391
v 0.172052 0.067388 0.318853
v 0.210804 0.047559 0.318853
v 0.160843 0.067388 0.345913
v 0.188245 0.047559 0.373315
v 0.133784 0.067388 0.357121
v 0.133784 0.047559 0.395873
v 0.106724 0.067388 0.345913
v 0.079322 0.047559 0.373315
v 0.095515 0.067388 0.318853
v 0.056763 0.047559 0.318853
v 0.106724 0.067388 0.291793
v 0.079322 0.047559 0.264391
v 0.133784 0.075000 0.318853
v 0.133784 0.067388 0.280585
v 0.133784 0.047559 0.241833
v 0.133784 0.025000 0.169095
v 0.239678 0.025000 0.212958
v 0.283541 0.025000 0.318853
v 0.239678 0.025000 0.424748
v 0.133784 0.025000 0.468611
v 0.027889 0.025000 0.424748
v -0.015974 0.025000 0.318853
v 0.027889 0.025000 0.212958
vn -0.0000 0.9336 -0.3584
vn 0.2536 0.9335 -0.2536
vn -0.0000 0.9335 -0.3586
vn -0.0000 0.9551 -0.2962
vn 0.2095 0.9551 -0.2095
vn -0.0000 1.0000 -0.0000
vn 0.2534 0.9336 -0.2534
vn 0.3584 0.9336 -0.0000
vn 0.3586 0.9335 -0.0000
vn 0.2962 0.9551 -0.0000
vn 0.2095 0.9551 0.2095
vn 0.2534 0.9336 0.2534
vn 0.2536 0.9335 0.2536
vn -0.0000 0.9336 0.3584
vn -0.0000 0.9335 0.3586
vn -0.0000 0.9551 0.2962
vn -0.2536 0.9335 0.2536
vn -0.2095 0.9551 0.2095
vn -0.2534 0.9336 0.2534
vn -0.2962 0.9551 -0.0000
vn -0.3584 0.9336 -0.0000
vn -0.3586 0.9335 -0.0000
vn -0.2095 0.9551 -0.2095
vn -0.2534 0.9336 -0.2534
vn -0.2536 0.9335 -0.2536
vn -0.0000 -1.0000 -0.0000
vt 0.949694 0.100428
vt 0.899572 0.150549
vt 0.899572 0.100428
vt 0.867576 0.100428
vt 0.867576 0.150549
vt 0.999815 0.125488
vt 0.949694 0.150549
vt 0.949694 0.200671
vt 0.899572 0.200671
vt 0.867576 0.200671
vt 0.999815 0.175610
vt 0.867576 0.250792
vt 0.999815 0.225731
vt 0.949694 0.250792
vt 0.899572 0.250792
vt 0.999815 0.275853
vt 0.949694 0.300914
vt 0.899572 0.300914
vt 0.867576 0.300914
vt 0.899572 0.351035
vt 0.867576 0.351035
vt 0.999815 0.325974
vt 0.949694 0.351035
vt 0.867576 0.401157
vt 0.999815 0.376096
vt 0.949694 0.401157
vt 0.899572 0.401157
vt 0.899572 0.000185
vt 0.867576 0.050306
vt 0.867576 0.000185
vt 0.949694 0.000185
vt 0.999815 0.025245
vt 0.949694 0.050306
vt 0.899572 0.050306
vt 0.999815 0.075367
vt 0.602358 0.802867
s 1
usemtl Material
f 24/15/7 10/16/8 25/17/9
f 26/18/10 10/16/8 27/19/11
f 24/15/7 23/20/12 9/21/13
f 10/16/8 11/22/14 12/23/15
f 27/19/11 12/23/15 28/24/16
f 9/21/13 23/25/12 11/22/14
f 12/23/15 29/26/17 28/24/16
f 11/22/14 23/27/12 13/28/18
f 11/22/14 14/29/19 12/23/15
f 13/28/18 23/30/12 15/31/20
f 13/28/18 16/32/21 14/29/19
f 14/29/19 30/33/22 29/26/17
f 15/31/20 18/34/23 16/32/21
f 16/32/21 31/35/24 30/33/22
f 15/31/20 23/36/12 17/37/25
f 18/34/23 32/38/26 31/35/24
f 17/37/25 23/39/12 19/40/27
f 17/37/25 20/41/28 18/34/23
f 20/42/28 33/43/29 32/44/26
f 19/45/27 23/46/12 21/47/30
f 19/45/27 22/48/31 20/42/28
f 21/47/30 25/17/9 22/48/31
f 22/48/31 26/18/10 33/43/29
f 21/47/30 23/49/12 24/15/7
f 30/50/32 32/50/32 26/50/32
f 24/15/7 9/21/13 10/16/8
f 26/18/10 25/17/9 10/16/8
f 10/16/8 9/21/13 11/22/14
f 27/19/11 10/16/8 12/23/15
f 12/23/15 14/29/19 29/26/17
f 11/22/14 13/28/18 14/29/19
f 13/28/18 15/31/20 16/32/21
f 14/29/19 16/32/21 30/33/22
f 15/31/20 17/37/25 18/34/23
f 16/32/21 18/34/23 31/35/24
f 18/34/23 20/41/28 32/38/26
f 17/37/25 19/40/27 20/41/28
f 20/42/28 22/48/31 33/43/29
f 19/45/27 21/47/30 22/48/31
f 21/47/30 24/15/7 25/17/9
f 22/48/31 25/17/9 26/18/10
f 26/50/32 27/50/32 28/50/32
f 28/50/32 29/50/32 30/50/32
f 30/50/32 31/50/32 32/50/32
f 32/50/32 33/50/32 26/50/32
f 26/50/32 28/50/32 30/50/32
o 球.001
v -0.154397 0.067388 -0.301061
v -0.119987 0.045711 -0.335471
v -0.137585 0.067388 -0.260471
v -0.088921 0.045711 -0.260471
v -0.154397 0.067388 -0.219881
v -0.119987 0.045711 -0.185471
v -0.194987 0.067388 -0.203068
v -0.194987 0.045711 -0.154405
v -0.235577 0.067388 -0.219881
v -0.269987 0.045711 -0.185471
v -0.252390 0.067388 -0.260471
v -0.301053 0.045711 -0.260471
v -0.235577 0.067388 -0.301061
v -0.269987 0.045711 -0.335471
v -0.194987 0.075000 -0.260471
v -0.194987 0.067388 -0.317873
v -0.194987 0.045711 -0.366537
v -0.194987 0.025000 -0.387295
v -0.105309 0.025000 -0.350149
v -0.068163 0.025000 -0.260471
v -0.105309 0.025000 -0.170793
v -0.194987 0.025000 -0.133647
v -0.284665 0.025000 -0.170793
v -0.321811 0.025000 -0.260471
v -0.284665 0.025000 -0.350149
vn -0.0000 0.9549 -0.2968
vn 0.4098 0.8149 -0.4099
vn -0.0000 0.8149 -0.5796
vn 0.2808 0.6794 -0.6779
vn -0.0000 1.0000 -0.0000
vn 0.2099 0.9549 -0.2099
vn 0.5796 0.8149 -0.0000
vn 0.6779 0.6794 -0.2808
vn 0.2968 0.9549 -0.0000
vn 0.6779 0.6794 0.2808
vn 0.2099 0.9549 0.2099
vn 0.4099 0.8149 0.4098
vn -0.0000 0.9549 0.2968
vn -0.0000 0.8149 0.5796
vn 0.2808 0.6794 0.6779
vn -0.4098 0.8149 0.4098
vn -0.2808 0.6794 0.6779
vn -0.2099 0.9549 0.2099
vn -0.6779 0.6794 0.2808
vn -0.2968 0.9549 -0.0000
vn -0.5796 0.8149 -0.0000
vn -0.6779 0.6794 -0.2808
vn -0.2099 0.9549 -0.2099
vn -0.4099 0.8149 -0.4098
vn -0.2808 0.6794 -0.6779
vn -0.0000 -1.0000 -0.0000
vt 0.684476 0.100428
vt 0.634354 0.150549
vt 0.634354 0.100428
vt 0.602357 0.150549
vt 0.602357 0.100428
vt 0.734597 0.125488
vt 0.684476 0.150549
vt 0.634354 0.200671
vt 0.602357 0.200671
vt 0.734597 0.175610
vt 0.684476 0.200671
vt 0.602357 0.250792
vt 0.734597 0.225731
vt 0.684476 0.250792
vt 0.634354 0.250792
vt 0.734597 0.275853
vt 0.684476 0.300914
vt 0.634354 0.300914
vt 0.602357 0.300914
vt 0.634354 0.351035
vt 0.602357 0.351035
vt 0.734597 0.325974
vt 0.684476 0.351035
vt 0.602357 0.401157
vt 0.734597 0.376096
vt 0.684476 0.401157
vt 0.634354 0.401157
vt 0.634354 0.000185
vt 0.602357 0.050306
vt 0.602357 0.000185
vt 0.684476 0.000185
vt 0.734597 0.025245
vt 0.684476 0.050306
vt 0.634354 0.050306
vt 0.734597 0.075367
vt 0.602727 0.802867
s 1
usemtl Material
f 49/51/33 35/52/34 50/53/35
f 50/53/35 52/54/36 51/55/36
f 49/51/33 48/56/37 34/57/38
f 34/57/38 37/58/39 35/52/34
f 35/52/34 53/59/40 52/54/40
f 34/57/38 48/60/37 36/61/41
f 37/58/39 54/62/42 53/59/42
f 36/61/41 48/63/37 38/64/43
f 36/61/41 39/65/44 37/58/39
f 38/64/43 48/66/37 40/67/45
f 38/64/43 41/68/46 39/65/44
f 39/65/44 55/69/47 54/62/47
f 40/67/45 43/70/48 41/68/46
f 41/68/46 56/71/49 55/69/49
f 40/67/45 48/72/37 42/73/50
f 43/70/48 57/74/51 56/71/51
f 42/73/50 48/75/37 44/76/52
f 43/70/48 44/76/52 45/77/53
f 45/78/53 58/79/54 57/80/54
f 44/81/52 48/82/37 46/83/55
f 44/81/52 47/84/56 45/78/53
f 46/83/55 50/53/35 47/84/56
f 47/84/56 51/55/57 58/79/57
f 46/83/55 48/85/37 49/51/33
f 55/86/58 57/86/58 51/86/58
f 49/51/33 34/57/38 35/52/34
f 50/53/35 35/52/34 52/54/36
f 34/57/38 36/61/41 37/58/39
f 35/52/34 37/58/39 53/59/40
f 37/58/39 39/65/44 54/62/42
f 36/61/41 38/64/43 39/65/44
f 38/64/43 40/67/45 41/68/46
f 39/65/44 41/68/46 55/69/47
f 40/67/45 42/73/50 43/70/48
f 41/68/46 43/70/48 56/71/49
f 43/70/48 45/77/53 57/74/51
f 43/70/48 42/73/50 44/76/52
f 45/78/53 47/84/56 58/79/54
f 44/81/52 46/83/55 47/84/56
f 46/83/55 49/51/33 50/53/35
f 47/84/56 50/53/35 51/55/57
f 51/86/58 52/86/58 53/86/58
f 53/86/58 54/86/58 55/86/58
f 55/86/58 56/86/58 57/86/58
f 57/86/58 58/86/58 51/86/58
f 51/86/58 53/86/58 55/86/58
o 球.002
v 0.323834 0.067388 0.021577
v 0.346775 0.045711 -0.001363
v 0.335043 0.067388 0.048637
v 0.367485 0.045711 0.048637
v 0.323834 0.067388 0.075697
v 0.346775 0.045711 0.098637
v 0.296775 0.067388 0.086906
v 0.296775 0.045711 0.119348
v 0.269715 0.067388 0.075697
v 0.246775 0.045711 0.098637
v 0.258506 0.067388 0.048637
v 0.226064 0.045711 0.048637
v 0.269715 0.067388 0.021577
v 0.246775 0.045711 -0.001363
v 0.296775 0.075000 0.048637
v 0.296775 0.067388 0.010369
v 0.296775 0.045711 -0.022073
v 0.296775 0.025000 -0.035912
v 0.356560 0.025000 -0.011148
v 0.381324 0.025000 0.048637
v 0.356560 0.025000 0.108422
v 0.296775 0.025000 0.133186
v 0.236989 0.025000 0.108422
v 0.212226 0.025000 0.048637
v 0.236989 0.025000 -0.011148
vn -0.0000 0.9063 -0.4226
vn 0.5159 0.6839 -0.5159
vn -0.0000 0.6839 -0.7296
vn 0.3256 0.5253 -0.7862
vn -0.0000 1.0000 -0.0000
vn 0.2988 0.9063 -0.2988
vn 0.7296 0.6839 -0.0000
vn 0.7862 0.5253 -0.3256
vn 0.4226 0.9063 -0.0000
vn 0.7862 0.5253 0.3256
vn 0.5159 0.6839 0.5159
vn 0.2988 0.9063 0.2988
vn -0.0000 0.9063 0.4226
vn -0.0000 0.6839 0.7296
vn 0.3256 0.5253 0.7862
vn -0.5159 0.6839 0.5159
vn -0.3256 0.5253 0.7862
vn -0.2988 0.9063 0.2988
vn -0.7862 0.5253 0.3256
vn -0.4226 0.9063 -0.0000
vn -0.7296 0.6839 -0.0000
vn -0.7862 0.5253 -0.3256
vn -0.5159 0.6839 -0.5159
vn -0.2988 0.9063 -0.2988
vn -0.3256 0.5253 -0.7862
vn -0.0000 -1.0000 -0.0000
vt 0.684476 0.501769
vt 0.634354 0.551891
vt 0.634354 0.501769
vt 0.602358 0.551891
vt 0.602358 0.501769
vt 0.734597 0.526830
vt 0.684476 0.551891
vt 0.634354 0.602012
vt 0.602358 0.602012
vt 0.734597 0.576951
vt 0.684476 0.602012
vt 0.634354 0.652134
vt 0.602358 0.652134
vt 0.734597 0.627073
vt 0.684476 0.652134
vt 0.734597 0.677194
vt 0.684476 0.702255
vt 0.634354 0.702255
vt 0.602358 0.702255
vt 0.634354 0.752377
vt 0.602358 0.752377
vt 0.734597 0.727316
vt 0.684476 0.752377
vt 0.602358 0.802498
vt 0.734597 0.777437
vt 0.684476 0.802498
vt 0.634354 0.802498
vt 0.602358 0.401526
vt 0.634354 0.451648
vt 0.602358 0.451648
vt 0.684476 0.401526
vt 0.734597 0.426587
vt 0.684476 0.451648
vt 0.634354 0.401526
vt 0.734597 0.476708
vt 0.603096 0.802867
s 1
usemtl Material
f 74/87/59 60/88/60 75/89/61
f 75/89/61 77/90/62 76/91/62
f 74/87/59 73/92/63 59/93/64
f 59/93/64 62/94/65 60/88/60
f 60/88/60 78/95/66 77/90/66
f 59/93/64 73/96/63 61/97/67
f 78/95/68 64/98/69 79/99/68
f 61/97/67 73/100/63 63/101/70
f 61/97/67 64/98/69 62/94/65
f 63/101/70 73/102/63 65/103/71
f 64/98/69 65/103/71 66/104/72
f 64/98/69 80/105/73 79/99/73
f 65/103/71 68/106/74 66/104/72
f 80/105/75 68/106/74 81/107/75
f 65/103/71 73/108/63 67/109/76
f 68/106/74 82/110/77 81/107/77
f 67/109/76 73/111/63 69/112/78
f 68/106/74 69/112/78 70/113/79
f 82/114/80 72/115/81 83/116/80
f 69/117/78 73/118/63 71/119/82
f 69/117/78 72/115/81 70/120/79
f 72/115/81 74/87/59 75/89/61
f 72/115/81 76/91/83 83/116/83
f 71/119/82 73/121/63 74/87/59
f 80/122/84 82/122/84 76/122/84
f 74/87/59 59/93/64 60/88/60
f 75/89/61 60/88/60 77/90/62
f 59/93/64 61/97/67 62/94/65
f 60/88/60 62/94/65 78/95/66
f 78/95/68 62/94/65 64/98/69
f 61/97/67 63/101/70 64/98/69
f 64/98/69 63/101/70 65/103/71
f 64/98/69 66/104/72 80/105/73
f 65/103/71 67/109/76 68/106/74
f 80/105/75 66/104/72 68/106/74
f 68/106/74 70/113/79 82/110/77
f 68/106/74 67/109/76 69/112/78
f 82/114/80 70/120/79 72/115/81
f 69/117/78 71/119/82 72/115/81
f 72/115/81 71/119/82 74/87/59
f 72/115/81 75/89/61 76/91/83
f 76/122/84 77/122/84 78/122/84
f 78/122/84 79/122/84 80/122/84
f 80/122/84 81/122/84 82/122/84
f 82/122/84 83/122/84 76/122/84
f 76/122/84 78/122/84 80/122/84
o 球.003
v -0.171262 0.075999 0.120987
v -0.114414 0.050259 0.064139
v -0.144291 0.075999 0.186100
v -0.063896 0.050259 0.186100
v -0.171262 0.075999 0.251214
v -0.114414 0.050259 0.308062
v -0.236376 0.075999 0.278185
v -0.236376 0.050259 0.358580
v -0.301489 0.075999 0.251214
v -0.358338 0.050259 0.308062
v -0.328460 0.075999 0.186100
v -0.408856 0.050259 0.186100
v -0.301489 0.075999 0.120987
v -0.358338 0.050259 0.064139
v -0.236376 0.082275 0.186100
v -0.236376 0.075999 0.094016
v -0.236376 0.050259 0.013620
v -0.236376 0.025000 -0.023098
v -0.088450 0.025000 0.038175
v -0.027177 0.025000 0.186100
v -0.088450 0.025000 0.334026
v -0.236376 0.025000 0.395299
v -0.384302 0.025000 0.334026
v -0.445574 0.025000 0.186100
v -0.384302 0.025000 0.038175
vn -0.0000 0.9782 -0.2076
vn 0.3174 0.8936 -0.3174
vn -0.0000 0.8936 -0.4489
vn 0.2285 0.8021 -0.5518
vn -0.0000 1.0000 -0.0000
vn 0.1468 0.9782 -0.1468
vn 0.4489 0.8936 -0.0000
vn 0.5518 0.8021 -0.2285
vn 0.2076 0.9782 -0.0000
vn 0.5518 0.8021 0.2285
vn 0.1468 0.9782 0.1468
vn 0.3174 0.8936 0.3174
vn -0.0000 0.9782 0.2076
vn -0.0000 0.8936 0.4489
vn 0.2285 0.8021 0.5518
vn -0.3174 0.8936 0.3174
vn -0.2285 0.8021 0.5518
vn -0.1468 0.9782 0.1468
vn -0.5518 0.8021 0.2285
vn -0.2076 0.9782 -0.0000
vn -0.4489 0.8936 -0.0000
vn -0.5518 0.8021 -0.2285
vn -0.1468 0.9782 -0.1468
vn -0.3174 0.8936 -0.3174
vn -0.2285 0.8021 -0.5518
vn -0.0000 -1.0000 -0.0000
vt 0.817085 0.100428
vt 0.766963 0.150549
vt 0.766963 0.100428
vt 0.734967 0.100428
vt 0.734967 0.150549
vt 0.867206 0.125488
vt 0.817085 0.150549
vt 0.766963 0.200671
vt 0.734967 0.200671
vt 0.867206 0.175610
vt 0.817085 0.200671
vt 0.734967 0.250792
vt 0.867206 0.225731
vt 0.817085 0.250792
vt 0.766963 0.250792
vt 0.867206 0.275853
vt 0.817085 0.300914
vt 0.766963 0.300914
vt 0.734967 0.300914
vt 0.766963 0.351035
vt 0.734967 0.351035
vt 0.867206 0.325974
vt 0.817085 0.351035
vt 0.734967 0.401157
vt 0.867206 0.376096
vt 0.817085 0.401157
vt 0.766963 0.401157
vt 0.766963 0.000185
vt 0.734967 0.050306
vt 0.734967 0.000185
vt 0.817085 0.000185
vt 0.867206 0.025245
vt 0.817085 0.050306
vt 0.766963 0.050306
vt 0.867206 0.075367
vt 0.603465 0.802867
s 1
usemtl Material
f 99/123/85 85/124/86 100/125/87
f 101/126/88 85/124/86 102/127/88
f 99/123/85 98/128/89 84/129/90
f 84/129/90 87/130/91 85/124/86
f 102/127/92 87/130/91 103/131/92
f 84/129/90 98/132/89 86/133/93
f 87/130/91 104/134/94 103/131/94
f 86/133/93 98/135/89 88/136/95
f 87/130/91 88/136/95 89/137/96
f 88/136/95 98/138/89 90/139/97
f 89/137/96 90/139/97 91/140/98
f 89/137/96 105/141/99 104/134/99
f 90/139/97 93/142/100 91/140/98
f 91/140/98 106/143/101 105/141/101
f 90/139/97 98/144/89 92/145/102
f 93/142/100 107/146/103 106/143/103
f 92/145/102 98/147/89 94/148/104
f 93/142/100 94/148/104 95/149/105
f 95/150/105 108/151/106 107/152/106
f 94/153/104 98/154/89 96/155/107
f 94/153/104 97/156/108 95/150/105
f 96/155/107 100/125/87 97/156/108
f 97/156/108 101/126/109 108/151/109
f 96/155/107 98/157/89 99/123/85
f 104/158/110 106/158/110 108/158/110
f 99/123/85 84/129/90 85/124/86
f 101/126/88 100/125/87 85/124/86
f 84/129/90 86/133/93 87/130/91
f 102/127/92 85/124/86 87/130/91
f 87/130/91 89/137/96 104/134/94
f 87/130/91 86/133/93 88/136/95
f 89/137/96 88/136/95 90/139/97
f 89/137/96 91/140/98 105/141/99
f 90/139/97 92/145/102 93/142/100
f 91/140/98 93/142/100 106/143/101
f 93/142/100 95/149/105 107/146/103
f 93/142/100 92/145/102 94/148/104
f 95/150/105 97/156/108 108/151/106
f 94/153/104 96/155/107 97/156/108
f 96/155/107 99/123/85 100/125/87
f 97/156/108 100/125/87 101/126/109
f 108/158/110 101/158/110 102/158/110
f 102/158/110 103/158/110 104/158/110
f 104/158/110 105/158/110 106/158/110
f 106/158/110 107/158/110 108/158/110
f 108/158/110 102/158/110 104/158/110
o 球.004
v 0.272378 0.067388 -0.268543
v 0.322354 0.046559 -0.318519
v 0.294795 0.067388 -0.214423
v 0.365472 0.046559 -0.214423
v 0.272378 0.067388 -0.160304
v 0.322354 0.046559 -0.110327
v 0.218258 0.067388 -0.137886
v 0.218258 0.046559 -0.067209
v 0.164139 0.067388 -0.160304
v 0.114162 0.046559 -0.110327
v 0.141721 0.067388 -0.214423
v 0.071044 0.046559 -0.214423
v 0.164139 0.067388 -0.268543
v 0.114162 0.046559 -0.318519
v 0.218258 0.075000 -0.214423
v 0.218258 0.067388 -0.290960
v 0.218258 0.046559 -0.361637
v 0.218258 0.025000 -0.394504
v 0.345595 0.025000 -0.341760
v 0.398339 0.025000 -0.214423
v 0.345595 0.025000 -0.087087
v 0.218258 0.025000 -0.034342
v 0.090922 0.025000 -0.087087
v 0.038177 0.025000 -0.214423
v 0.090922 0.025000 -0.341760
vn -0.0000 0.9781 -0.2082
vn 0.3035 0.9032 -0.3035
vn -0.0000 0.9032 -0.4292
vn 0.2215 0.8154 -0.5349
vn -0.0000 1.0000 -0.0000
vn 0.1472 0.9781 -0.1472
vn 0.4292 0.9032 -0.0000
vn 0.5349 0.8154 -0.2215
vn 0.5348 0.8154 -0.2215
vn 0.2082 0.9781 -0.0000
vn 0.5349 0.8154 0.2215
vn 0.3035 0.9032 0.3035
vn 0.1472 0.9781 0.1472
vn -0.0000 0.9781 0.2082
vn -0.0000 0.9032 0.4292
vn 0.2215 0.8154 0.5349
vn -0.3035 0.9032 0.3035
vn -0.2215 0.8154 0.5349
vn -0.1472 0.9781 0.1472
vn -0.5349 0.8154 0.2215
vn -0.2082 0.9781 -0.0000
vn -0.4292 0.9032 -0.0000
vn -0.5349 0.8154 -0.2215
vn -0.1472 0.9781 -0.1472
vn -0.3035 0.9032 -0.3035
vn -0.2215 0.8154 -0.5349
vn -0.0000 -1.0000 -0.0000
vt 0.817085 0.501769
vt 0.766963 0.551891
vt 0.766963 0.501769
vt 0.734967 0.501769
vt 0.734967 0.551891
vt 0.867206 0.526830
vt 0.817085 0.551891
vt 0.766963 0.602012
vt 0.734967 0.602012
vt 0.867206 0.576951
vt 0.817085 0.602012
vt 0.766963 0.652134
vt 0.734967 0.652134
vt 0.867206 0.627073
vt 0.817085 0.652134
vt 0.867206 0.677194
vt 0.817085 0.702255
vt 0.766963 0.702255
vt 0.734967 0.702255
vt 0.766963 0.752377
vt 0.734967 0.752377
vt 0.867206 0.727316
vt 0.817085 0.752377
vt 0.734967 0.802498
vt 0.867206 0.777437
vt 0.817085 0.802498
vt 0.766963 0.802498
vt 0.766963 0.401526
vt 0.734967 0.451648
vt 0.734967 0.401526
vt 0.817085 0.401526
vt 0.867206 0.426587
vt 0.817085 0.451648
vt 0.766963 0.451648
vt 0.867206 0.476708
vt 0.603834 0.802867
s 1
usemtl Material
f 124/159/111 110/160/112 125/161/113
f 126/162/114 110/160/112 127/163/114
f 124/159/111 123/164/115 109/165/116
f 109/165/116 112/166/117 110/160/112
f 110/160/112 128/167/118 127/163/119
f 109/165/116 123/168/115 111/169/120
f 128/167/121 114/170/122 129/171/121
f 111/169/120 123/172/115 113/173/123
f 111/169/120 114/170/122 112/166/117
f 113/173/123 123/174/115 115/175/124
f 114/170/122 115/175/124 116/176/125
f 114/170/122 130/177/126 129/171/126
f 115/175/124 118/178/127 116/176/125
f 116/176/125 131/179/128 130/177/128
f 115/175/124 123/180/115 117/181/129
f 118/178/127 132/182/130 131/179/130
f 117/181/129 123/183/115 119/184/131
f 118/178/127 119/184/131 120/185/132
f 120/186/132 133/187/133 132/188/133
f 119/189/131 123/190/115 121/191/134
f 119/189/131 122/192/135 120/186/132
f 122/192/135 124/159/111 125/161/113
f 122/192/135 126/162/136 133/187/136
f 121/191/134 123/193/115 124/159/111
f 129/194/137 131/194/137 133/194/137
f 124/159/111 109/165/116 110/160/112
f 126/162/114 125/161/113 110/160/112
f 109/165/116 111/169/120 112/166/117
f 110/160/112 112/166/117 128/167/118
f 128/167/121 112/166/117 114/170/122
f 111/169/120 113/173/123 114/170/122
f 114/170/122 113/173/123 115/175/124
f 114/170/122 116/176/125 130/177/126
f 115/175/124 117/181/129 118/178/127
f 116/176/125 118/178/127 131/179/128
f 118/178/127 120/185/132 132/182/130
f 118/178/127 117/181/129 119/184/131
f 120/186/132 122/192/135 133/187/133
f 119/189/131 121/191/134 122/192/135
f 122/192/135 121/191/134 124/159/111
f 122/192/135 125/161/113 126/162/136
f 133/194/137 126/194/137 127/194/137
f 127/194/137 128/194/137 129/194/137
f 129/194/137 130/194/137 131/194/137
f 131/194/137 132/194/137 133/194/137
f 133/194/137 127/194/137 129/194/137
