{
	"asset":{
		"generator":"Khronos glTF Blender I/O v4.4.56",
		"version":"2.0"
	},
	"scene":0,
	"scenes":[
		{
			"name":"Scene",
			"nodes":[
				6
			]
		}
	],
	"nodes":[
		{
			"name":"Bone.002_end",
			"rotation":[
				-2.3314730103940386e-15,
				1.6297896365813358e-09,
				-5.684341886080802e-14,
				1
			],
			"translation":[
				5.877569264622906e-11,
				0.4808040261268616,
				2.0892336471955986e-10
			]
		},
		{
			"children":[
				0
			],
			"name":"Bone.002",
			"rotation":[
				-0.4999997317790985,
				0.5,
				0.5000003576278687,
				0.5
			],
			"scale":[
				1,
				0.9999999403953552,
				1
			],
			"translation":[
				4.196207319335024e-14,
				0.09999999403953552,
				5.843441641673053e-08
			]
		},
		{
			"name":"Bone.004_end",
			"rotation":[
				-2.3314730103940386e-15,
				1.6298464800001966e-09,
				-5.684341886080802e-14,
				1
			],
			"translation":[
				2.1031952221473027e-12,
				0.46865132451057434,
				2.0892582108800184e-10
			]
		},
		{
			"children":[
				2
			],
			"name":"Bone.004",
			"rotation":[
				-0.4999997317790985,
				0.5,
				0.5000003576278687,
				0.5
			],
			"scale":[
				1,
				0.9999999403953552,
				1
			],
			"translation":[
				1.5785635331441034e-13,
				0.40000003576278687,
				2.2069917804401484e-07
			]
		},
		{
			"children":[
				1,
				3
			],
			"name":"Bone",
			"rotation":[
				-2.3678877880684013e-07,
				-3.5762786865234375e-07,
				8.409940766788276e-14,
				1
			],
			"translation":[
				0,
				0,
				-0.0023898270446807146
			]
		},
		{
			"mesh":0,
			"name":"Cube.001",
			"skin":0
		},
		{
			"children":[
				5,
				4
			],
			"name":"Armature"
		}
	],
	"animations":[
		{
			"channels":[
				{
					"sampler":0,
					"target":{
						"node":4,
						"path":"translation"
					}
				},
				{
					"sampler":1,
					"target":{
						"node":4,
						"path":"rotation"
					}
				},
				{
					"sampler":2,
					"target":{
						"node":4,
						"path":"scale"
					}
				},
				{
					"sampler":3,
					"target":{
						"node":1,
						"path":"translation"
					}
				},
				{
					"sampler":4,
					"target":{
						"node":1,
						"path":"rotation"
					}
				},
				{
					"sampler":5,
					"target":{
						"node":1,
						"path":"scale"
					}
				},
				{
					"sampler":6,
					"target":{
						"node":0,
						"path":"translation"
					}
				},
				{
					"sampler":7,
					"target":{
						"node":0,
						"path":"rotation"
					}
				},
				{
					"sampler":8,
					"target":{
						"node":0,
						"path":"scale"
					}
				},
				{
					"sampler":9,
					"target":{
						"node":3,
						"path":"translation"
					}
				},
				{
					"sampler":10,
					"target":{
						"node":3,
						"path":"rotation"
					}
				},
				{
					"sampler":11,
					"target":{
						"node":3,
						"path":"scale"
					}
				},
				{
					"sampler":12,
					"target":{
						"node":2,
						"path":"translation"
					}
				},
				{
					"sampler":13,
					"target":{
						"node":2,
						"path":"rotation"
					}
				},
				{
					"sampler":14,
					"target":{
						"node":2,
						"path":"scale"
					}
				},
				{
					"sampler":15,
					"target":{
						"node":6,
						"path":"translation"
					}
				},
				{
					"sampler":16,
					"target":{
						"node":6,
						"path":"rotation"
					}
				},
				{
					"sampler":17,
					"target":{
						"node":6,
						"path":"scale"
					}
				}
			],
			"name":"Armature|Armature|ArmatureAction",
			"samplers":[
				{
					"input":7,
					"interpolation":"STEP",
					"output":8
				},
				{
					"input":7,
					"interpolation":"STEP",
					"output":9
				},
				{
					"input":7,
					"interpolation":"STEP",
					"output":10
				},
				{
					"input":7,
					"interpolation":"STEP",
					"output":11
				},
				{
					"input":7,
					"interpolation":"STEP",
					"output":12
				},
				{
					"input":7,
					"interpolation":"STEP",
					"output":13
				},
				{
					"input":7,
					"interpolation":"STEP",
					"output":14
				},
				{
					"input":7,
					"interpolation":"STEP",
					"output":15
				},
				{
					"input":7,
					"interpolation":"STEP",
					"output":16
				},
				{
					"input":17,
					"interpolation":"LINEAR",
					"output":18
				},
				{
					"input":7,
					"interpolation":"STEP",
					"output":19
				},
				{
					"input":7,
					"interpolation":"STEP",
					"output":20
				},
				{
					"input":7,
					"interpolation":"STEP",
					"output":21
				},
				{
					"input":7,
					"interpolation":"STEP",
					"output":22
				},
				{
					"input":7,
					"interpolation":"STEP",
					"output":23
				},
				{
					"input":7,
					"interpolation":"STEP",
					"output":24
				},
				{
					"input":7,
					"interpolation":"STEP",
					"output":25
				},
				{
					"input":7,
					"interpolation":"STEP",
					"output":26
				}
			]
		},
		{
			"channels":[
				{
					"sampler":0,
					"target":{
						"node":4,
						"path":"translation"
					}
				},
				{
					"sampler":1,
					"target":{
						"node":4,
						"path":"rotation"
					}
				},
				{
					"sampler":2,
					"target":{
						"node":4,
						"path":"scale"
					}
				},
				{
					"sampler":3,
					"target":{
						"node":1,
						"path":"translation"
					}
				},
				{
					"sampler":4,
					"target":{
						"node":1,
						"path":"rotation"
					}
				},
				{
					"sampler":5,
					"target":{
						"node":1,
						"path":"scale"
					}
				},
				{
					"sampler":6,
					"target":{
						"node":0,
						"path":"translation"
					}
				},
				{
					"sampler":7,
					"target":{
						"node":0,
						"path":"rotation"
					}
				},
				{
					"sampler":8,
					"target":{
						"node":0,
						"path":"scale"
					}
				},
				{
					"sampler":9,
					"target":{
						"node":3,
						"path":"translation"
					}
				},
				{
					"sampler":10,
					"target":{
						"node":3,
						"path":"rotation"
					}
				},
				{
					"sampler":11,
					"target":{
						"node":3,
						"path":"scale"
					}
				},
				{
					"sampler":12,
					"target":{
						"node":2,
						"path":"translation"
					}
				},
				{
					"sampler":13,
					"target":{
						"node":2,
						"path":"rotation"
					}
				},
				{
					"sampler":14,
					"target":{
						"node":2,
						"path":"scale"
					}
				},
				{
					"sampler":15,
					"target":{
						"node":6,
						"path":"scale"
					}
				},
				{
					"sampler":16,
					"target":{
						"node":6,
						"path":"rotation"
					}
				},
				{
					"sampler":17,
					"target":{
						"node":6,
						"path":"translation"
					}
				}
			],
			"name":"Armature|Armature|CylinderAction",
			"samplers":[
				{
					"input":27,
					"interpolation":"LINEAR",
					"output":28
				},
				{
					"input":27,
					"interpolation":"LINEAR",
					"output":29
				},
				{
					"input":27,
					"interpolation":"LINEAR",
					"output":30
				},
				{
					"input":27,
					"interpolation":"LINEAR",
					"output":31
				},
				{
					"input":27,
					"interpolation":"LINEAR",
					"output":32
				},
				{
					"input":27,
					"interpolation":"LINEAR",
					"output":33
				},
				{
					"input":27,
					"interpolation":"STEP",
					"output":34
				},
				{
					"input":27,
					"interpolation":"STEP",
					"output":35
				},
				{
					"input":27,
					"interpolation":"STEP",
					"output":36
				},
				{
					"input":27,
					"interpolation":"LINEAR",
					"output":37
				},
				{
					"input":27,
					"interpolation":"LINEAR",
					"output":38
				},
				{
					"input":27,
					"interpolation":"LINEAR",
					"output":39
				},
				{
					"input":27,
					"interpolation":"STEP",
					"output":40
				},
				{
					"input":27,
					"interpolation":"STEP",
					"output":41
				},
				{
					"input":27,
					"interpolation":"STEP",
					"output":42
				},
				{
					"input":27,
					"interpolation":"LINEAR",
					"output":43
				},
				{
					"input":27,
					"interpolation":"LINEAR",
					"output":44
				},
				{
					"input":27,
					"interpolation":"LINEAR",
					"output":45
				}
			]
		}
	],
	"materials":[
		{
			"alphaMode":"BLEND",
			"doubleSided":true,
			"name":"Material.004",
			"pbrMetallicRoughness":{
				"baseColorTexture":{
					"index":0
				},
				"metallicFactor":0,
				"roughnessFactor":0.5
			}
		}
	],
	"meshes":[
		{
			"name":"Cube.002",
			"primitives":[
				{
					"attributes":{
						"POSITION":0,
						"NORMAL":1,
						"TEXCOORD_0":2,
						"JOINTS_0":3,
						"WEIGHTS_0":4
					},
					"indices":5,
					"material":0
				}
			]
		}
	],
	"textures":[
		{
			"sampler":0,
			"source":0
		}
	],
	"images":[
		{
			"mimeType":"image/png",
			"name":"tex.002",
			"uri":"tex.001.png"
		}
	],
	"skins":[
		{
			"inverseBindMatrices":6,
			"joints":[
				4,
				1,
				0,
				3,
				2
			],
			"name":"Armature"
		}
	],
	"accessors":[
		{
			"bufferView":0,
			"componentType":5126,
			"count":710,
			"max":[
				0.3379344642162323,
				0.5949138402938843,
				1.1073962450027466
			],
			"min":[
				-0.3379344642162323,
				0.0034133028239011765,
				-1.0589734315872192
			],
			"type":"VEC3"
		},
		{
			"bufferView":1,
			"componentType":5126,
			"count":710,
			"type":"VEC3"
		},
		{
			"bufferView":2,
			"componentType":5126,
			"count":710,
			"type":"VEC2"
		},
		{
			"bufferView":3,
			"componentType":5121,
			"count":710,
			"type":"VEC4"
		},
		{
			"bufferView":4,
			"componentType":5126,
			"count":710,
			"type":"VEC4"
		},
		{
			"bufferView":5,
			"componentType":5123,
			"count":3180,
			"type":"SCALAR"
		},
		{
			"bufferView":6,
			"componentType":5126,
			"count":5,
			"type":"MAT4"
		},
		{
			"bufferView":7,
			"componentType":5126,
			"count":2,
			"max":[
				2.5
			],
			"min":[
				0.041666666666666664
			],
			"type":"SCALAR"
		},
		{
			"bufferView":8,
			"componentType":5126,
			"count":2,
			"type":"VEC3"
		},
		{
			"bufferView":9,
			"componentType":5126,
			"count":2,
			"type":"VEC4"
		},
		{
			"bufferView":10,
			"componentType":5126,
			"count":2,
			"type":"VEC3"
		},
		{
			"bufferView":11,
			"componentType":5126,
			"count":2,
			"type":"VEC3"
		},
		{
			"bufferView":12,
			"componentType":5126,
			"count":2,
			"type":"VEC4"
		},
		{
			"bufferView":13,
			"componentType":5126,
			"count":2,
			"type":"VEC3"
		},
		{
			"bufferView":14,
			"componentType":5126,
			"count":2,
			"type":"VEC3"
		},
		{
			"bufferView":15,
			"componentType":5126,
			"count":2,
			"type":"VEC4"
		},
		{
			"bufferView":16,
			"componentType":5126,
			"count":2,
			"type":"VEC3"
		},
		{
			"bufferView":17,
			"componentType":5126,
			"count":60,
			"max":[
				2.5
			],
			"min":[
				0.041666666666666664
			],
			"type":"SCALAR"
		},
		{
			"bufferView":18,
			"componentType":5126,
			"count":60,
			"type":"VEC3"
		},
		{
			"bufferView":19,
			"componentType":5126,
			"count":2,
			"type":"VEC4"
		},
		{
			"bufferView":20,
			"componentType":5126,
			"count":2,
			"type":"VEC3"
		},
		{
			"bufferView":21,
			"componentType":5126,
			"count":2,
			"type":"VEC3"
		},
		{
			"bufferView":22,
			"componentType":5126,
			"count":2,
			"type":"VEC4"
		},
		{
			"bufferView":23,
			"componentType":5126,
			"count":2,
			"type":"VEC3"
		},
		{
			"bufferView":24,
			"componentType":5126,
			"count":2,
			"type":"VEC3"
		},
		{
			"bufferView":25,
			"componentType":5126,
			"count":2,
			"type":"VEC4"
		},
		{
			"bufferView":26,
			"componentType":5126,
			"count":2,
			"type":"VEC3"
		},
		{
			"bufferView":27,
			"componentType":5126,
			"count":1,
			"max":[
				0.041666666666666664
			],
			"min":[
				0.041666666666666664
			],
			"type":"SCALAR"
		},
		{
			"bufferView":28,
			"componentType":5126,
			"count":1,
			"type":"VEC3"
		},
		{
			"bufferView":29,
			"componentType":5126,
			"count":1,
			"type":"VEC4"
		},
		{
			"bufferView":30,
			"componentType":5126,
			"count":1,
			"type":"VEC3"
		},
		{
			"bufferView":31,
			"componentType":5126,
			"count":1,
			"type":"VEC3"
		},
		{
			"bufferView":32,
			"componentType":5126,
			"count":1,
			"type":"VEC4"
		},
		{
			"bufferView":33,
			"componentType":5126,
			"count":1,
			"type":"VEC3"
		},
		{
			"bufferView":34,
			"componentType":5126,
			"count":1,
			"type":"VEC3"
		},
		{
			"bufferView":35,
			"componentType":5126,
			"count":1,
			"type":"VEC4"
		},
		{
			"bufferView":36,
			"componentType":5126,
			"count":1,
			"type":"VEC3"
		},
		{
			"bufferView":37,
			"componentType":5126,
			"count":1,
			"type":"VEC3"
		},
		{
			"bufferView":38,
			"componentType":5126,
			"count":1,
			"type":"VEC4"
		},
		{
			"bufferView":39,
			"componentType":5126,
			"count":1,
			"type":"VEC3"
		},
		{
			"bufferView":40,
			"componentType":5126,
			"count":1,
			"type":"VEC3"
		},
		{
			"bufferView":41,
			"componentType":5126,
			"count":1,
			"type":"VEC4"
		},
		{
			"bufferView":42,
			"componentType":5126,
			"count":1,
			"type":"VEC3"
		},
		{
			"bufferView":43,
			"componentType":5126,
			"count":1,
			"type":"VEC3"
		},
		{
			"bufferView":44,
			"componentType":5126,
			"count":1,
			"type":"VEC4"
		},
		{
			"bufferView":45,
			"componentType":5126,
			"count":1,
			"type":"VEC3"
		}
	],
	"bufferViews":[
		{
			"buffer":0,
			"byteLength":8520,
			"byteOffset":0,
			"target":34962
		},
		{
			"buffer":0,
			"byteLength":8520,
			"byteOffset":8520,
			"target":34962
		},
		{
			"buffer":0,
			"byteLength":5680,
			"byteOffset":17040,
			"target":34962
		},
		{
			"buffer":0,
			"byteLength":2840,
			"byteOffset":22720,
			"target":34962
		},
		{
			"buffer":0,
			"byteLength":11360,
			"byteOffset":25560,
			"target":34962
		},
		{
			"buffer":0,
			"byteLength":6360,
			"byteOffset":36920,
			"target":34963
		},
		{
			"buffer":0,
			"byteLength":320,
			"byteOffset":43280
		},
		{
			"buffer":0,
			"byteLength":8,
			"byteOffset":43600
		},
		{
			"buffer":0,
			"byteLength":24,
			"byteOffset":43608
		},
		{
			"buffer":0,
			"byteLength":32,
			"byteOffset":43632
		},
		{
			"buffer":0,
			"byteLength":24,
			"byteOffset":43664
		},
		{
			"buffer":0,
			"byteLength":24,
			"byteOffset":43688
		},
		{
			"buffer":0,
			"byteLength":32,
			"byteOffset":43712
		},
		{
			"buffer":0,
			"byteLength":24,
			"byteOffset":43744
		},
		{
			"buffer":0,
			"byteLength":24,
			"byteOffset":43768
		},
		{
			"buffer":0,
			"byteLength":32,
			"byteOffset":43792
		},
		{
			"buffer":0,
			"byteLength":24,
			"byteOffset":43824
		},
		{
			"buffer":0,
			"byteLength":240,
			"byteOffset":43848
		},
		{
			"buffer":0,
			"byteLength":720,
			"byteOffset":44088
		},
		{
			"buffer":0,
			"byteLength":32,
			"byteOffset":44808
		},
		{
			"buffer":0,
			"byteLength":24,
			"byteOffset":44840
		},
		{
			"buffer":0,
			"byteLength":24,
			"byteOffset":44864
		},
		{
			"buffer":0,
			"byteLength":32,
			"byteOffset":44888
		},
		{
			"buffer":0,
			"byteLength":24,
			"byteOffset":44920
		},
		{
			"buffer":0,
			"byteLength":24,
			"byteOffset":44944
		},
		{
			"buffer":0,
			"byteLength":32,
			"byteOffset":44968
		},
		{
			"buffer":0,
			"byteLength":24,
			"byteOffset":45000
		},
		{
			"buffer":0,
			"byteLength":4,
			"byteOffset":45024
		},
		{
			"buffer":0,
			"byteLength":12,
			"byteOffset":45028
		},
		{
			"buffer":0,
			"byteLength":16,
			"byteOffset":45040
		},
		{
			"buffer":0,
			"byteLength":12,
			"byteOffset":45056
		},
		{
			"buffer":0,
			"byteLength":12,
			"byteOffset":45068
		},
		{
			"buffer":0,
			"byteLength":16,
			"byteOffset":45080
		},
		{
			"buffer":0,
			"byteLength":12,
			"byteOffset":45096
		},
		{
			"buffer":0,
			"byteLength":12,
			"byteOffset":45108
		},
		{
			"buffer":0,
			"byteLength":16,
			"byteOffset":45120
		},
		{
			"buffer":0,
			"byteLength":12,
			"byteOffset":45136
		},
		{
			"buffer":0,
			"byteLength":12,
			"byteOffset":45148
		},
		{
			"buffer":0,
			"byteLength":16,
			"byteOffset":45160
		},
		{
			"buffer":0,
			"byteLength":12,
			"byteOffset":45176
		},
		{
			"buffer":0,
			"byteLength":12,
			"byteOffset":45188
		},
		{
			"buffer":0,
			"byteLength":16,
			"byteOffset":45200
		},
		{
			"buffer":0,
			"byteLength":12,
			"byteOffset":45216
		},
		{
			"buffer":0,
			"byteLength":12,
			"byteOffset":45228
		},
		{
			"buffer":0,
			"byteLength":16,
			"byteOffset":45240
		},
		{
			"buffer":0,
			"byteLength":12,
			"byteOffset":45256
		}
	],
	"samplers":[
		{
			"magFilter":9729,
			"minFilter":9987
		}
	],
	"buffers":[
		{
			"byteLength":45268,
			"uri":"coffin.bin"
		}
	]
}
