# Blender 4.4.1
# www.blender.org
mtllib armR.mtl
o armR
v 0.524473 0.098121 -0.039776
v 0.525325 0.091760 0.035880
v 0.526059 0.033757 0.084876
v 0.526244 -0.041904 0.078504
v 0.524920 -0.084527 -0.055146
v 0.524187 -0.026532 -0.104134
v 0.524002 0.049121 -0.097769
v 0.525772 -0.090897 0.020503
v 0.294768 0.033226 0.082106
v 0.293053 0.046693 -0.091804
v 0.293299 -0.025346 -0.097385
v 0.295014 -0.038813 0.076525
v -0.237862 0.037346 -0.085825
v -0.238227 0.037369 0.078262
v -0.237914 -0.036481 -0.085832
v -0.238275 -0.036508 0.078270
v 0.293382 0.093687 -0.036921
v 0.294092 0.088109 0.035115
v 0.293975 -0.080229 -0.050394
v 0.294686 -0.085807 0.021641
v -0.238125 0.076581 -0.046285
v -0.238301 0.076605 0.023360
v -0.238110 -0.075713 -0.046283
v -0.238370 -0.075752 0.023364
v 0.084384 0.042864 0.053756
v 0.085295 0.042695 -0.106658
v 0.085232 -0.040719 -0.106688
v 0.084529 -0.040869 0.053713
v 0.084723 -0.085234 -0.000015
v 0.085097 -0.085075 -0.067078
v 0.084866 0.087150 -0.067144
v 0.084500 0.087296 -0.000007
v -0.282308 -0.036035 -0.086144
v -0.282582 -0.036054 0.079280
v -0.282256 0.036809 -0.086137
v -0.282554 0.036826 0.079275
v -0.282562 0.066353 -0.047529
v -0.282700 0.066368 0.023880
v -0.282750 -0.065602 0.023883
v -0.282525 -0.065575 -0.047526
v -0.415443 -0.040277 0.024330
v -0.415443 0.040947 0.024330
v -0.415443 -0.040277 -0.048107
v -0.415443 0.040947 -0.048107
v -0.415443 -0.022099 0.080537
v -0.415443 0.022769 -0.087318
v -0.415443 0.022769 0.080537
v -0.415443 -0.022099 -0.087318
v -0.268999 0.037699 0.171313
v -0.269276 0.000712 0.171401
v -0.310670 0.001663 0.153645
v -0.310483 0.037034 0.153595
v 0.305231 0.038001 0.098204
v 0.303204 0.074518 -0.113357
v 0.302354 -0.026082 -0.133765
v 0.304362 -0.068072 0.076561
v 0.303332 0.102035 -0.034965
v 0.304381 0.092125 0.037273
v 0.300396 -0.092074 -0.073465
v 0.301300 -0.105563 -0.004514
v 0.523522 0.094340 0.037720
v 0.524372 0.040215 0.098651
v 0.522345 0.076732 -0.112910
v 0.521495 -0.023867 -0.133319
v 0.523503 -0.065858 0.077007
v 0.520441 -0.103349 -0.004067
v 0.522473 0.104249 -0.034519
v 0.519537 -0.089859 -0.073018
v 0.581273 0.025409 0.056506
v 0.577132 0.043376 -0.084914
v 0.576990 -0.015087 -0.095607
v 0.581129 -0.040009 0.047202
v 0.578444 0.068525 -0.033039
v 0.580160 0.060780 0.016693
v 0.578100 -0.055757 -0.059327
v 0.579814 -0.067034 0.003037
v 0.613235 0.005268 -0.011728
vn 0.6196 0.7460 -0.2440
vn 0.6255 0.6961 0.3524
vn 0.6298 0.2390 0.7391
vn 0.6300 -0.3580 0.6892
vn 0.6196 -0.6943 -0.3661
vn 0.6150 -0.2367 -0.7522
vn 0.6152 0.3596 -0.7016
vn 0.6259 -0.7448 0.2315
vn -0.0565 0.3042 0.9509
vn 0.0229 0.4530 -0.8912
vn 0.0240 -0.3090 -0.9508
vn -0.0531 -0.4457 0.8936
vn -0.0536 0.4000 -0.9149
vn 0.2748 0.6842 0.6756
vn -0.0524 -0.4003 -0.9149
vn 0.2116 -0.6576 0.7230
vn 0.0001 0.9552 -0.2959
vn -0.0356 0.8866 0.4613
vn 0.0093 -0.8968 -0.4423
vn -0.0271 -0.9466 0.3213
vn -0.1257 0.9238 -0.3617
vn -0.1050 0.9461 0.3065
vn -0.1231 -0.9241 -0.3618
vn -0.1025 -0.9464 0.3063
vn -0.0385 0.4374 0.8985
vn -0.0086 0.3540 -0.9352
vn 0.0019 -0.3607 -0.9327
vn -0.0263 -0.4438 0.8958
vn -0.0137 -0.9488 0.3155
vn 0.0051 -0.9066 -0.4219
vn -0.0195 0.9051 -0.4247
vn -0.0387 0.9476 0.3171
vn -0.0369 -0.4621 -0.8861
vn -0.2368 -0.7966 0.5562
vn -0.0375 0.4619 -0.8862
vn -0.3089 0.8558 0.4149
vn -0.1690 0.9247 -0.3412
vn -0.1779 0.9484 0.2623
vn -0.1768 -0.9487 0.2622
vn -0.1677 -0.9249 -0.3412
vn -0.7289 -0.6729 0.1262
vn -0.7291 0.6727 0.1261
vn -0.7159 -0.6767 -0.1719
vn -0.7162 0.6765 -0.1718
vn -0.6145 -0.4417 0.6537
vn -0.6209 0.4001 -0.6741
vn -0.6147 0.4415 0.6537
vn -0.6207 -0.4003 -0.6741
vn 0.3368 0.5782 0.7431
vn 0.3259 -0.4396 0.8370
vn -0.8165 -0.4175 0.3987
vn -0.7515 0.5779 0.3182
vn -0.0051 0.3138 0.9495
vn -0.0051 0.6534 -0.7570
vn 0.0047 -0.2741 -0.9617
vn 0.0048 -0.6280 0.7782
vn -0.0098 0.9947 -0.1020
vn -0.0100 0.9091 0.4164
vn 0.0098 -0.8726 -0.4883
vn 0.0098 -0.9934 0.1140
vn 0.2788 0.8719 0.4025
vn 0.2975 0.3045 0.9049
vn 0.2974 0.6344 -0.7135
vn 0.2793 -0.2569 -0.9252
vn 0.2733 -0.5909 0.7590
vn 0.2573 -0.9612 0.0999
vn 0.2748 0.9556 -0.1064
vn 0.2665 -0.8417 -0.4697
vn 0.7486 0.2195 0.6256
vn 0.7446 0.3929 -0.5397
vn 0.7360 -0.1883 -0.6503
vn 0.7346 -0.3710 0.5681
vn 0.7112 0.6902 -0.1335
vn 0.7261 0.6324 0.2697
vn 0.7219 -0.5889 -0.3634
vn 0.7205 -0.6841 0.1137
vn 0.9995 0.0281 0.0112
vt 0.066761 0.793530
vt 0.053358 0.793955
vt 0.036243 0.798601
vt 0.084774 0.796159
vt 0.106793 0.807275
vt 0.013635 0.811506
vt 0.064220 0.864640
vt 0.085240 0.860890
vt 0.028088 0.858061
vt 0.048415 0.863806
vt 0.373593 0.673930
vt 0.355127 0.779935
vt 0.375712 0.781936
vt 0.436235 0.779513
vt 0.404811 0.673959
vt 0.414377 0.782223
vt 0.357405 0.671382
vt 0.333570 0.778347
vt 0.401008 0.810562
vt 0.421499 0.924815
vt 0.422869 0.809912
vt 0.415758 0.658116
vt 0.398286 0.626789
vt 0.402203 0.661392
vt 0.386197 0.941546
vt 0.406098 0.990392
vt 0.402801 0.940448
vt 0.382479 0.811848
vt 0.402163 0.925296
vt 0.360706 0.813844
vt 0.384844 0.926471
vt 0.388380 0.627755
vt 0.374537 0.661929
vt 0.388036 0.662420
vt 0.388241 0.674753
vt 0.393562 0.783302
vt 0.087940 0.784825
vt 0.067884 0.665735
vt 0.067098 0.783388
vt 0.048109 0.665892
vt 0.051998 0.784256
vt 0.026252 0.992963
vt 0.046687 0.875379
vt 0.023796 0.872644
vt 0.047923 0.993233
vt 0.064759 0.876434
vt 0.066323 0.993800
vt 0.087873 0.875804
vt 0.032165 0.787968
vt 0.001386 0.669536
vt 0.005934 0.794365
vt 0.113512 0.789867
vt 0.090613 0.665441
vt 0.025300 0.668275
vt 0.365621 0.928474
vt 0.360171 0.660161
vt 0.352192 0.663392
vt 0.419970 0.671276
vt 0.377599 0.614327
vt 0.378045 0.627024
vt 0.391040 0.615304
vt 0.402481 0.622434
vt 0.367934 0.625174
vt 0.368678 0.943448
vt 0.389456 0.991484
vt 0.420417 0.940051
vt 0.352193 0.655023
vt 0.353122 0.660697
vt 0.346804 0.662731
vt 0.345233 0.671957
vt 0.346690 0.940678
vt 0.349275 0.658731
vt 0.660409 0.585546
vt 0.637738 0.529089
vt 0.638801 0.586096
vt 0.597578 0.530234
vt 0.570475 0.587250
vt 0.598642 0.587241
vt 0.710335 0.583467
vt 0.686035 0.527545
vt 0.687098 0.584552
vt 0.659346 0.528539
vt 0.619840 0.586735
vt 0.618777 0.529728
vt 0.546165 0.529738
vt 0.528947 0.586850
vt 0.547228 0.586745
vt 0.569412 0.530243
vt 0.668542 0.558704
vt 0.657571 0.547180
vt 0.656703 0.562561
vt 0.687733 0.576755
vt 0.672682 0.565263
vt 0.666260 0.576755
vt 0.683208 0.544473
vt 0.700093 0.548505
vt 0.689200 0.533309
vt 0.674503 0.544484
vt 0.668172 0.533740
vt 0.687419 0.560411
vt 0.699174 0.563143
vt 0.688077 0.551089
vt 0.668820 0.551094
vt 0.677616 0.556093
vt 0.682286 0.565894
vt 0.087873 0.994582
vt 0.114520 0.666002
vt 0.364106 0.620261
vt 0.372759 0.993137
vt 0.422869 0.989850
vt 0.352540 0.954796
vt 0.709272 0.526461
vt 0.527884 0.529843
s 1
usemtl Material
f 1/1/1 18/2/18 2/2/2
f 2/2/2 9/3/9 3/3/3
f 7/4/7 17/1/17 1/1/1
f 11/5/11 7/4/7 6/5/6
f 3/3/3 12/6/12 4/6/4
f 19/7/19 6/8/6 5/7/5
f 4/9/4 20/10/20 8/10/8
f 8/10/8 19/7/19 5/7/5
f 22/11/22 25/12/25 32/13/32
f 27/14/27 13/15/13 26/16/26
f 14/17/14 28/18/28 25/12/25
f 30/19/30 15/20/15 27/21/27
f 33/22/33 46/23/46 35/24/35
f 39/25/39 43/26/43 40/27/40
f 29/28/29 23/29/23 30/19/30
f 28/30/28 24/31/24 29/28/29
f 44/32/44 38/33/38 37/34/37
f 21/35/21 32/13/32 31/36/31
f 13/15/13 31/36/31 26/16/26
f 10/37/10 31/38/31 17/39/17
f 17/39/17 32/40/32 18/41/18
f 28/42/28 20/43/20 12/44/12
f 29/45/29 19/46/19 20/43/20
f 30/47/30 11/48/11 19/46/19
f 9/49/9 28/50/28 12/51/12
f 11/52/11 26/53/26 10/37/10
f 18/41/18 25/54/25 9/49/9
f 16/55/16 39/25/39 24/31/24
f 39/25/39 23/29/23 24/31/24
f 13/15/13 37/34/37 21/35/21
f 21/35/21 38/33/38 22/11/22
f 38/33/38 14/17/14 22/11/22
f 36/56/36 49/57/49 14/17/14
f 15/58/15 35/24/35 13/15/13
f 40/27/40 15/20/15 23/29/23
f 44/32/44 41/59/41 42/60/42
f 43/61/43 46/23/46 48/62/48
f 41/59/41 47/63/47 42/60/42
f 42/60/42 36/56/36 38/33/38
f 35/24/35 44/32/44 37/34/37
f 34/64/34 41/65/41 39/25/39
f 43/26/43 33/66/33 40/27/40
f 47/63/47 34/67/34 36/56/36
f 52/68/52 50/69/50 49/57/49
f 14/17/14 50/69/50 16/70/16
f 50/71/50 34/64/34 16/55/16
f 51/72/51 36/56/36 34/67/34
f 63/73/63 57/74/57 67/75/67
f 53/76/53 65/77/65 62/78/62
f 68/79/68 55/80/55 64/81/64
f 64/81/64 54/82/54 63/73/63
f 61/83/61 53/76/53 62/78/62
f 67/75/67 58/84/58 61/83/61
f 60/85/60 68/86/68 66/87/66
f 56/88/56 66/87/66 65/77/65
f 74/89/74 67/90/67 61/91/61
f 65/92/65 69/93/69 62/94/62
f 69/93/69 61/91/61 62/94/62
f 71/95/71 68/96/68 64/97/64
f 67/90/67 70/98/70 63/99/63
f 76/100/76 65/92/65 66/101/66
f 70/98/70 64/97/64 63/99/63
f 75/102/75 66/101/66 68/96/68
f 73/103/73 77/104/77 70/98/70
f 72/105/72 77/104/77 69/93/69
f 69/93/69 77/104/77 74/89/74
f 75/102/75 77/104/77 76/100/76
f 74/89/74 77/104/77 73/103/73
f 76/100/76 77/104/77 72/105/72
f 70/98/70 77/104/77 71/95/71
f 71/95/71 77/104/77 75/102/75
f 7/4/7 2/2/2 4/9/4
f 1/1/1 17/1/17 18/2/18
f 2/2/2 18/2/18 9/3/9
f 7/4/7 10/4/10 17/1/17
f 11/5/11 10/4/10 7/4/7
f 3/3/3 9/3/9 12/6/12
f 19/7/19 11/8/11 6/8/6
f 4/9/4 12/9/12 20/10/20
f 8/10/8 20/10/20 19/7/19
f 22/11/22 14/17/14 25/12/25
f 27/14/27 15/58/15 13/15/13
f 14/17/14 16/70/16 28/18/28
f 30/19/30 23/29/23 15/20/15
f 33/22/33 48/62/48 46/23/46
f 39/25/39 41/65/41 43/26/43
f 29/28/29 24/31/24 23/29/23
f 28/30/28 16/55/16 24/31/24
f 44/32/44 42/60/42 38/33/38
f 21/35/21 22/11/22 32/13/32
f 13/15/13 21/35/21 31/36/31
f 10/37/10 26/53/26 31/38/31
f 17/39/17 31/38/31 32/40/32
f 28/42/28 29/45/29 20/43/20
f 29/45/29 30/47/30 19/46/19
f 30/47/30 27/106/27 11/48/11
f 9/49/9 25/54/25 28/50/28
f 11/52/11 27/107/27 26/53/26
f 18/41/18 32/40/32 25/54/25
f 16/55/16 34/64/34 39/25/39
f 39/25/39 40/27/40 23/29/23
f 13/15/13 35/24/35 37/34/37
f 21/35/21 37/34/37 38/33/38
f 38/33/38 36/56/36 14/17/14
f 36/56/36 52/68/52 49/57/49
f 15/58/15 33/22/33 35/24/35
f 40/27/40 33/66/33 15/20/15
f 44/32/44 43/61/43 41/59/41
f 43/61/43 44/32/44 46/23/46
f 41/59/41 45/108/45 47/63/47
f 42/60/42 47/63/47 36/56/36
f 35/24/35 46/23/46 44/32/44
f 34/64/34 45/109/45 41/65/41
f 43/26/43 48/110/48 33/66/33
f 47/63/47 45/108/45 34/67/34
f 52/68/52 51/72/51 50/69/50
f 14/17/14 49/57/49 50/69/50
f 50/71/50 51/111/51 34/64/34
f 51/72/51 52/68/52 36/56/36
f 63/73/63 54/82/54 57/74/57
f 53/76/53 56/88/56 65/77/65
f 68/79/68 59/112/59 55/80/55
f 64/81/64 55/80/55 54/82/54
f 61/83/61 58/84/58 53/76/53
f 67/75/67 57/74/57 58/84/58
f 60/85/60 59/113/59 68/86/68
f 56/88/56 60/85/60 66/87/66
f 74/89/74 73/103/73 67/90/67
f 65/92/65 72/105/72 69/93/69
f 69/93/69 74/89/74 61/91/61
f 71/95/71 75/102/75 68/96/68
f 67/90/67 73/103/73 70/98/70
f 76/100/76 72/105/72 65/92/65
f 70/98/70 71/95/71 64/97/64
f 75/102/75 76/100/76 66/101/66
f 4/9/4 8/10/8 5/7/5
f 5/7/5 6/5/6 7/4/7
f 7/4/7 1/1/1 2/2/2
f 2/2/2 3/3/3 4/9/4
f 4/9/4 5/7/5 7/4/7
