# Blender 4.4.1
# www.blender.org
mtllib Hand_R.mtl
o P_Hand_R
v -0.074449 -0.074449 0.074449
v -0.074449 0.074449 0.074449
v -0.074449 -0.074449 -0.074449
v -0.074449 0.074449 -0.074449
v 0.074449 -0.074449 0.074449
v 0.074449 0.074449 0.074449
v 0.074449 -0.074449 -0.074449
v 0.074449 0.074449 -0.074449
v -0.085308 -0.085308 -0.044170
v -0.090763 -0.090763 -0.000000
v -0.085308 -0.085308 0.044170
v -0.085308 -0.044170 0.085308
v -0.090763 -0.000000 0.090763
v -0.085308 0.044170 0.085308
v -0.085308 0.085308 0.044170
v -0.090763 0.090763 0.000000
v -0.085308 0.085308 -0.044170
v -0.085308 0.044170 -0.085308
v -0.090763 -0.000000 -0.090763
v -0.085308 -0.044170 -0.085308
v 0.044170 -0.085308 -0.085308
v 0.000000 -0.090763 -0.090763
v -0.044170 -0.085308 -0.085308
v -0.044170 0.085308 -0.085308
v -0.000000 0.090763 -0.090763
v 0.044170 0.085308 -0.085308
v 0.085308 0.044170 -0.085308
v 0.090763 -0.000000 -0.090763
v 0.085308 -0.044170 -0.085308
v 0.085308 -0.085308 0.044170
v 0.090763 -0.090763 0.000000
v 0.085308 -0.085308 -0.044170
v 0.085308 0.085308 -0.044170
v 0.090763 0.090763 0.000000
v 0.085308 0.085308 0.044170
v 0.085308 0.044170 0.085308
v 0.090763 -0.000000 0.090763
v 0.085308 -0.044170 0.085308
v -0.044170 -0.085308 0.085308
v -0.000000 -0.090763 0.090763
v 0.044170 -0.085308 0.085308
v 0.044170 0.085308 0.085308
v -0.000000 0.090763 0.090763
v -0.044170 0.085308 0.085308
v -0.108544 -0.047075 0.047075
v -0.116412 -0.000000 0.049604
v -0.108544 0.047075 0.047075
v -0.116412 -0.049604 -0.000000
v -0.125000 0.000000 0.000000
v -0.116412 0.049604 0.000000
v -0.108544 -0.047075 -0.047075
v -0.116412 0.000000 -0.049604
v -0.108544 0.047075 -0.047075
v -0.047075 -0.047075 -0.108544
v -0.049604 -0.000000 -0.116412
v -0.047075 0.047075 -0.108544
v 0.000000 -0.049604 -0.116412
v 0.000000 0.000000 -0.125000
v -0.000000 0.049604 -0.116412
v 0.047075 -0.047075 -0.108544
v 0.049604 0.000000 -0.116412
v 0.047075 0.047075 -0.108544
v 0.108544 -0.047075 -0.047075
v 0.116412 -0.000000 -0.049604
v 0.108544 0.047075 -0.047075
v 0.116412 -0.049604 0.000000
v 0.125000 0.000000 0.000000
v 0.116412 0.049604 -0.000000
v 0.108544 -0.047075 0.047075
v 0.116412 0.000000 0.049604
v 0.108544 0.047075 0.047075
v 0.047075 -0.047075 0.108544
v 0.049604 -0.000000 0.116412
v 0.047075 0.047075 0.108544
v -0.000000 -0.049604 0.116412
v -0.000000 0.000000 0.125000
v 0.000000 0.049604 0.116412
v -0.047075 -0.047075 0.108544
v -0.049604 0.000000 0.116412
v -0.047075 0.047075 0.108544
v -0.047075 -0.108544 -0.047075
v -0.000000 -0.116412 -0.049604
v 0.047075 -0.108544 -0.047075
v -0.049604 -0.116412 0.000000
v 0.000000 -0.125000 0.000000
v 0.049604 -0.116412 -0.000000
v -0.047075 -0.108544 0.047075
v 0.000000 -0.116412 0.049604
v 0.047075 -0.108544 0.047075
v 0.047075 0.108544 -0.047075
v 0.000000 0.116412 -0.049604
v -0.047075 0.108544 -0.047075
v 0.049604 0.116412 0.000000
v -0.000000 0.125000 0.000000
v -0.049604 0.116412 -0.000000
v 0.047075 0.108544 0.047075
v -0.000000 0.116412 0.049604
v -0.047075 0.108544 0.047075
vn -0.5774 -0.5774 0.5774
vn -0.5774 0.5774 0.5774
vn -0.5774 -0.5774 -0.5774
vn -0.5774 0.5774 -0.5774
vn 0.5774 -0.5774 0.5774
vn 0.5774 0.5774 0.5774
vn 0.5774 -0.5774 -0.5774
vn 0.5774 0.5774 -0.5774
vn -0.6737 -0.6737 -0.3038
vn -0.7071 -0.7071 -0.0000
vn -0.6737 -0.6737 0.3038
vn -0.6737 -0.3038 0.6737
vn -0.7071 -0.0000 0.7071
vn -0.6737 0.3038 0.6737
vn -0.6737 0.6737 0.3038
vn -0.7071 0.7071 -0.0000
vn -0.6737 0.6737 -0.3038
vn -0.6737 0.3038 -0.6737
vn -0.7071 -0.0000 -0.7071
vn -0.6737 -0.3038 -0.6737
vn 0.3038 -0.6737 -0.6737
vn -0.0000 -0.7071 -0.7071
vn -0.3038 -0.6737 -0.6737
vn -0.3038 0.6737 -0.6737
vn -0.0000 0.7071 -0.7071
vn 0.3038 0.6737 -0.6737
vn 0.6737 0.3038 -0.6737
vn 0.7071 -0.0000 -0.7071
vn 0.6737 -0.3038 -0.6737
vn 0.6737 -0.6737 0.3038
vn 0.7071 -0.7071 -0.0000
vn 0.6737 -0.6737 -0.3038
vn 0.6737 0.6737 -0.3038
vn 0.7071 0.7071 -0.0000
vn 0.6737 0.6737 0.3038
vn 0.6737 0.3038 0.6737
vn 0.7071 -0.0000 0.7071
vn 0.6737 -0.3038 0.6737
vn -0.3038 -0.6737 0.6737
vn -0.0000 -0.7071 0.7071
vn 0.3038 -0.6737 0.6737
vn 0.3038 0.6737 0.6737
vn -0.0000 0.7071 0.7071
vn -0.3038 0.6737 0.6737
vn -0.8797 -0.3362 0.3362
vn -0.9348 -0.0000 0.3553
vn -0.8797 0.3362 0.3362
vn -0.9348 -0.3553 -0.0000
vn -1.0000 -0.0000 -0.0000
vn -0.9348 0.3553 -0.0000
vn -0.8797 -0.3362 -0.3362
vn -0.9348 -0.0000 -0.3553
vn -0.8797 0.3362 -0.3362
vn -0.3362 -0.3362 -0.8797
vn -0.3553 -0.0000 -0.9348
vn -0.3362 0.3362 -0.8797
vn -0.0000 -0.3553 -0.9348
vn -0.0000 -0.0000 -1.0000
vn -0.0000 0.3553 -0.9348
vn 0.3362 -0.3362 -0.8797
vn 0.3553 -0.0000 -0.9348
vn 0.3362 0.3362 -0.8797
vn 0.8797 -0.3362 -0.3362
vn 0.9348 -0.0000 -0.3553
vn 0.8797 0.3362 -0.3362
vn 0.9348 -0.3553 -0.0000
vn 1.0000 -0.0000 -0.0000
vn 0.9348 0.3553 -0.0000
vn 0.8797 -0.3362 0.3362
vn 0.9348 -0.0000 0.3553
vn 0.8797 0.3362 0.3362
vn 0.3362 -0.3362 0.8797
vn 0.3553 -0.0000 0.9348
vn 0.3362 0.3362 0.8797
vn -0.0000 -0.3553 0.9348
vn -0.0000 -0.0000 1.0000
vn -0.0000 0.3553 0.9348
vn -0.3362 -0.3362 0.8797
vn -0.3553 -0.0000 0.9348
vn -0.3362 0.3362 0.8797
vn -0.3362 -0.8797 -0.3362
vn -0.0000 -0.9348 -0.3553
vn 0.3362 -0.8797 -0.3362
vn -0.3553 -0.9348 -0.0000
vn -0.0000 -1.0000 -0.0000
vn 0.3553 -0.9348 -0.0000
vn -0.3362 -0.8797 0.3362
vn -0.0000 -0.9348 0.3553
vn 0.3362 -0.8797 0.3362
vn 0.3362 0.8797 -0.3362
vn -0.0000 0.9348 -0.3553
vn -0.3362 0.8797 -0.3362
vn 0.3553 0.9348 -0.0000
vn -0.0000 1.0000 -0.0000
vn -0.3553 0.9348 -0.0000
vn 0.3362 0.8797 0.3362
vn -0.0000 0.9348 0.3553
vn -0.3362 0.8797 0.3362
vt 0.360261 0.150826
vt 0.370398 0.160962
vt 0.360261 0.160962
vt 0.380534 0.150826
vt 0.370398 0.150826
vt 0.360261 0.171099
vt 0.380534 0.171099
vt 0.370398 0.171099
vt 0.350124 0.140689
vt 0.350124 0.150826
vt 0.360261 0.140689
vt 0.380534 0.140689
vt 0.370398 0.140689
vt 0.390671 0.140689
vt 0.390671 0.150826
vt 0.380534 0.160962
vt 0.390671 0.171099
vt 0.390671 0.181235
vt 0.380534 0.181235
vt 0.370398 0.181235
vt 0.360261 0.181235
vt 0.350124 0.181235
vt 0.350124 0.171099
vt 0.350124 0.160962
vt 0.360261 0.191372
vt 0.370398 0.201509
vt 0.360261 0.201509
vt 0.380534 0.191372
vt 0.370398 0.191372
vt 0.360261 0.211645
vt 0.380534 0.211645
vt 0.370398 0.211645
vt 0.350124 0.191372
vt 0.390671 0.191372
vt 0.380534 0.201509
vt 0.390671 0.211645
vt 0.390671 0.221782
vt 0.380534 0.221782
vt 0.370398 0.221782
vt 0.360261 0.221782
vt 0.350124 0.221782
vt 0.350124 0.211645
vt 0.350124 0.201509
vt 0.360261 0.231919
vt 0.370398 0.242055
vt 0.360261 0.242055
vt 0.380534 0.231919
vt 0.370398 0.231919
vt 0.360261 0.252192
vt 0.380534 0.252192
vt 0.370398 0.252192
vt 0.350124 0.231919
vt 0.390671 0.231919
vt 0.380534 0.242055
vt 0.390671 0.252192
vt 0.390671 0.262328
vt 0.380534 0.262328
vt 0.370398 0.262328
vt 0.360261 0.262328
vt 0.350124 0.262328
vt 0.350124 0.252192
vt 0.350124 0.242055
vt 0.360261 0.272465
vt 0.370398 0.282602
vt 0.360261 0.282602
vt 0.380534 0.272465
vt 0.370398 0.272465
vt 0.360261 0.292738
vt 0.380534 0.292738
vt 0.370398 0.292738
vt 0.350124 0.272465
vt 0.390671 0.272465
vt 0.380534 0.282602
vt 0.390671 0.292738
vt 0.390671 0.302875
vt 0.380534 0.302875
vt 0.370398 0.302875
vt 0.360261 0.302875
vt 0.350124 0.302875
vt 0.350124 0.292738
vt 0.350124 0.282602
vt 0.319714 0.231919
vt 0.329851 0.242055
vt 0.319714 0.242055
vt 0.339988 0.231919
vt 0.329851 0.231919
vt 0.319714 0.252192
vt 0.339988 0.252192
vt 0.329851 0.252192
vt 0.309578 0.221782
vt 0.309578 0.231919
vt 0.319714 0.221782
vt 0.339988 0.221782
vt 0.329851 0.221782
vt 0.339988 0.242055
vt 0.339988 0.262328
vt 0.329851 0.262328
vt 0.319714 0.262328
vt 0.309578 0.262328
vt 0.309578 0.252192
vt 0.309578 0.242055
vt 0.400807 0.231919
vt 0.410944 0.242055
vt 0.400807 0.242055
vt 0.421081 0.231918
vt 0.410944 0.231918
vt 0.400807 0.252192
vt 0.421081 0.252192
vt 0.410944 0.252192
vt 0.400807 0.221782
vt 0.421081 0.221782
vt 0.410944 0.221782
vt 0.431217 0.221782
vt 0.431217 0.231918
vt 0.421081 0.242055
vt 0.431217 0.252192
vt 0.431217 0.262328
vt 0.421081 0.262328
vt 0.410944 0.262328
vt 0.400807 0.262328
vt 0.390671 0.242055
vt 0.390671 0.160962
vt 0.390671 0.201509
vt 0.390671 0.282602
vt 0.431217 0.242055
s 1
usemtl マテリアル
f 45/1/45 49/2/49 48/3/48
f 47/4/47 49/2/49 46/5/46
f 49/2/49 51/6/51 48/3/48
f 49/2/49 53/7/53 52/8/52
f 1/9/1 45/1/45 11/10/11
f 12/11/12 46/5/46 45/1/45
f 14/12/14 46/5/46 13/13/13
f 2/14/2 47/4/47 14/12/14
f 15/15/15 50/16/50 47/4/47
f 50/16/50 17/17/17 53/7/53
f 53/7/53 4/18/4 18/19/18
f 52/8/52 18/19/18 19/20/19
f 52/8/52 20/21/20 51/6/51
f 51/6/51 3/22/3 9/23/9
f 48/3/48 9/23/9 10/24/10
f 11/10/11 48/3/48 10/24/10
f 54/25/54 58/26/58 57/27/57
f 56/28/56 58/26/58 55/29/55
f 58/26/58 60/30/60 57/27/57
f 58/26/58 62/31/62 61/32/61
f 3/22/3 54/25/54 23/33/23
f 20/21/20 55/29/55 54/25/54
f 18/19/18 55/29/55 19/20/19
f 4/18/4 56/28/56 18/19/18
f 24/34/24 59/35/59 56/28/56
f 59/35/59 26/36/26 62/31/62
f 62/31/62 8/37/8 27/38/27
f 61/32/61 27/38/27 28/39/28
f 61/32/61 29/40/29 60/30/60
f 60/30/60 7/41/7 21/42/21
f 57/27/57 21/42/21 22/43/22
f 23/33/23 57/27/57 22/43/22
f 63/44/63 67/45/67 66/46/66
f 65/47/65 67/45/67 64/48/64
f 67/45/67 69/49/69 66/46/66
f 67/45/67 71/50/71 70/51/70
f 7/41/7 63/44/63 32/52/32
f 29/40/29 64/48/64 63/44/63
f 27/38/27 64/48/64 28/39/28
f 8/37/8 65/47/65 27/38/27
f 33/53/33 68/54/68 65/47/65
f 68/54/68 35/55/35 71/50/71
f 71/50/71 6/56/6 36/57/36
f 70/51/70 36/57/36 37/58/37
f 70/51/70 38/59/38 69/49/69
f 69/49/69 5/60/5 30/61/30
f 66/46/66 30/61/30 31/62/31
f 32/52/32 66/46/66 31/62/31
f 72/63/72 76/64/76 75/65/75
f 74/66/74 76/64/76 73/67/73
f 76/64/76 78/68/78 75/65/75
f 76/64/76 80/69/80 79/70/79
f 5/60/5 72/63/72 41/71/41
f 38/59/38 73/67/73 72/63/72
f 36/57/36 73/67/73 37/58/37
f 6/56/6 74/66/74 36/57/36
f 42/72/42 77/73/77 74/66/74
f 77/73/77 44/74/44 80/69/80
f 80/69/80 2/75/2 14/76/14
f 79/70/79 14/76/14 13/77/13
f 79/70/79 12/78/12 78/68/78
f 78/68/78 1/79/1 39/80/39
f 75/65/75 39/80/39 40/81/40
f 41/71/41 75/65/75 40/81/40
f 81/82/81 85/83/85 84/84/84
f 83/85/83 85/83/85 82/86/82
f 85/83/85 87/87/87 84/84/84
f 85/83/85 89/88/89 88/89/88
f 3/90/3 81/82/81 9/91/9
f 23/92/23 82/86/82 81/82/81
f 21/93/21 82/86/82 22/94/22
f 7/41/7 83/85/83 21/93/21
f 32/52/32 86/95/86 83/85/83
f 86/95/86 30/61/30 89/88/89
f 89/88/89 5/60/5 41/96/41
f 88/89/88 41/96/41 40/97/40
f 88/89/88 39/98/39 87/87/87
f 87/87/87 1/99/1 11/100/11
f 84/84/84 11/100/11 10/101/10
f 9/91/9 84/84/84 10/101/10
f 90/102/90 94/103/94 93/104/93
f 92/105/92 94/103/94 91/106/91
f 94/103/94 96/107/96 93/104/93
f 94/103/94 98/108/98 97/109/97
f 8/37/8 90/102/90 33/53/33
f 26/110/26 91/106/91 90/102/90
f 24/111/24 91/106/91 25/112/25
f 4/113/4 92/105/92 24/111/24
f 17/114/17 95/115/95 92/105/92
f 95/115/95 15/116/15 98/108/98
f 98/108/98 2/117/2 44/118/44
f 97/109/97 44/118/44 43/119/43
f 97/109/97 42/120/42 96/107/96
f 96/107/96 6/56/6 35/55/35
f 93/104/93 35/55/35 34/121/34
f 33/53/33 93/104/93 34/121/34
f 45/1/45 46/5/46 49/2/49
f 47/4/47 50/16/50 49/2/49
f 49/2/49 52/8/52 51/6/51
f 49/2/49 50/16/50 53/7/53
f 1/9/1 12/11/12 45/1/45
f 12/11/12 13/13/13 46/5/46
f 14/12/14 47/4/47 46/5/46
f 2/14/2 15/15/15 47/4/47
f 15/15/15 16/122/16 50/16/50
f 50/16/50 16/122/16 17/17/17
f 53/7/53 17/17/17 4/18/4
f 52/8/52 53/7/53 18/19/18
f 52/8/52 19/20/19 20/21/20
f 51/6/51 20/21/20 3/22/3
f 48/3/48 51/6/51 9/23/9
f 11/10/11 45/1/45 48/3/48
f 54/25/54 55/29/55 58/26/58
f 56/28/56 59/35/59 58/26/58
f 58/26/58 61/32/61 60/30/60
f 58/26/58 59/35/59 62/31/62
f 3/22/3 20/21/20 54/25/54
f 20/21/20 19/20/19 55/29/55
f 18/19/18 56/28/56 55/29/55
f 4/18/4 24/34/24 56/28/56
f 24/34/24 25/123/25 59/35/59
f 59/35/59 25/123/25 26/36/26
f 62/31/62 26/36/26 8/37/8
f 61/32/61 62/31/62 27/38/27
f 61/32/61 28/39/28 29/40/29
f 60/30/60 29/40/29 7/41/7
f 57/27/57 60/30/60 21/42/21
f 23/33/23 54/25/54 57/27/57
f 63/44/63 64/48/64 67/45/67
f 65/47/65 68/54/68 67/45/67
f 67/45/67 70/51/70 69/49/69
f 67/45/67 68/54/68 71/50/71
f 7/41/7 29/40/29 63/44/63
f 29/40/29 28/39/28 64/48/64
f 27/38/27 65/47/65 64/48/64
f 8/37/8 33/53/33 65/47/65
f 33/53/33 34/121/34 68/54/68
f 68/54/68 34/121/34 35/55/35
f 71/50/71 35/55/35 6/56/6
f 70/51/70 71/50/71 36/57/36
f 70/51/70 37/58/37 38/59/38
f 69/49/69 38/59/38 5/60/5
f 66/46/66 69/49/69 30/61/30
f 32/52/32 63/44/63 66/46/66
f 72/63/72 73/67/73 76/64/76
f 74/66/74 77/73/77 76/64/76
f 76/64/76 79/70/79 78/68/78
f 76/64/76 77/73/77 80/69/80
f 5/60/5 38/59/38 72/63/72
f 38/59/38 37/58/37 73/67/73
f 36/57/36 74/66/74 73/67/73
f 6/56/6 42/72/42 74/66/74
f 42/72/42 43/124/43 77/73/77
f 77/73/77 43/124/43 44/74/44
f 80/69/80 44/74/44 2/75/2
f 79/70/79 80/69/80 14/76/14
f 79/70/79 13/77/13 12/78/12
f 78/68/78 12/78/12 1/79/1
f 75/65/75 78/68/78 39/80/39
f 41/71/41 72/63/72 75/65/75
f 81/82/81 82/86/82 85/83/85
f 83/85/83 86/95/86 85/83/85
f 85/83/85 88/89/88 87/87/87
f 85/83/85 86/95/86 89/88/89
f 3/90/3 23/92/23 81/82/81
f 23/92/23 22/94/22 82/86/82
f 21/93/21 83/85/83 82/86/82
f 7/41/7 32/52/32 83/85/83
f 32/52/32 31/62/31 86/95/86
f 86/95/86 31/62/31 30/61/30
f 89/88/89 30/61/30 5/60/5
f 88/89/88 89/88/89 41/96/41
f 88/89/88 40/97/40 39/98/39
f 87/87/87 39/98/39 1/99/1
f 84/84/84 87/87/87 11/100/11
f 9/91/9 81/82/81 84/84/84
f 90/102/90 91/106/91 94/103/94
f 92/105/92 95/115/95 94/103/94
f 94/103/94 97/109/97 96/107/96
f 94/103/94 95/115/95 98/108/98
f 8/37/8 26/110/26 90/102/90
f 26/110/26 25/112/25 91/106/91
f 24/111/24 92/105/92 91/106/91
f 4/113/4 17/114/17 92/105/92
f 17/114/17 16/125/16 95/115/95
f 95/115/95 16/125/16 15/116/15
f 98/108/98 15/116/15 2/117/2
f 97/109/97 98/108/98 44/118/44
f 97/109/97 43/119/43 42/120/42
f 96/107/96 42/120/42 6/56/6
f 93/104/93 96/107/96 35/55/35
f 33/53/33 90/102/90 93/104/93
