# Blender 4.4.1
# www.blender.org
mtllib Hand_L.mtl
o P_Hand_L
v 0.074449 -0.074449 0.074449
v 0.074449 0.074449 0.074449
v 0.074449 -0.074449 -0.074449
v 0.074449 0.074449 -0.074449
v -0.074449 -0.074449 0.074449
v -0.074449 0.074449 0.074449
v -0.074449 -0.074449 -0.074449
v -0.074449 0.074449 -0.074449
v 0.085308 -0.085308 -0.044170
v 0.090763 -0.090763 -0.000000
v 0.085308 -0.085308 0.044170
v 0.085308 -0.044170 0.085308
v 0.090763 -0.000000 0.090763
v 0.085308 0.044170 0.085308
v 0.085308 0.085308 0.044170
v 0.090763 0.090763 0.000000
v 0.085308 0.085308 -0.044170
v 0.085308 0.044170 -0.085308
v 0.090763 -0.000000 -0.090763
v 0.085308 -0.044170 -0.085308
v -0.044170 -0.085308 -0.085308
v -0.000000 -0.090763 -0.090763
v 0.044170 -0.085308 -0.085308
v 0.044170 0.085308 -0.085308
v 0.000000 0.090763 -0.090763
v -0.044170 0.085308 -0.085308
v -0.085308 0.044170 -0.085308
v -0.090763 -0.000000 -0.090763
v -0.085308 -0.044170 -0.085308
v -0.085308 -0.085308 0.044170
v -0.090763 -0.090763 0.000000
v -0.085308 -0.085308 -0.044170
v -0.085308 0.085308 -0.044170
v -0.090763 0.090763 0.000000
v -0.085308 0.085308 0.044170
v -0.085308 0.044170 0.085308
v -0.090763 -0.000000 0.090763
v -0.085308 -0.044170 0.085308
v 0.044170 -0.085308 0.085308
v 0.000000 -0.090763 0.090763
v -0.044170 -0.085308 0.085308
v -0.044170 0.085308 0.085308
v 0.000000 0.090763 0.090763
v 0.044170 0.085308 0.085308
v 0.108544 -0.047075 0.047075
v 0.116412 -0.000000 0.049604
v 0.108544 0.047075 0.047075
v 0.116412 -0.049604 -0.000000
v 0.125000 0.000000 0.000000
v 0.116412 0.049604 0.000000
v 0.108544 -0.047075 -0.047075
v 0.116412 0.000000 -0.049604
v 0.108544 0.047075 -0.047075
v 0.047075 -0.047075 -0.108544
v 0.049604 -0.000000 -0.116412
v 0.047075 0.047075 -0.108544
v -0.000000 -0.049604 -0.116412
v -0.000000 0.000000 -0.125000
v 0.000000 0.049604 -0.116412
v -0.047075 -0.047075 -0.108544
v -0.049604 0.000000 -0.116412
v -0.047075 0.047075 -0.108544
v -0.108544 -0.047075 -0.047075
v -0.116412 -0.000000 -0.049604
v -0.108544 0.047075 -0.047075
v -0.116412 -0.049604 0.000000
v -0.125000 0.000000 0.000000
v -0.116412 0.049604 -0.000000
v -0.108544 -0.047075 0.047075
v -0.116412 0.000000 0.049604
v -0.108544 0.047075 0.047075
v -0.047075 -0.047075 0.108544
v -0.049604 -0.000000 0.116412
v -0.047075 0.047075 0.108544
v 0.000000 -0.049604 0.116412
v 0.000000 0.000000 0.125000
v -0.000000 0.049604 0.116412
v 0.047075 -0.047075 0.108544
v 0.049604 0.000000 0.116412
v 0.047075 0.047075 0.108544
v 0.047075 -0.108544 -0.047075
v 0.000000 -0.116412 -0.049604
v -0.047075 -0.108544 -0.047075
v 0.049604 -0.116412 0.000000
v 0.000000 -0.125000 0.000000
v -0.049604 -0.116412 -0.000000
v 0.047075 -0.108544 0.047075
v -0.000000 -0.116412 0.049604
v -0.047075 -0.108544 0.047075
v -0.047075 0.108544 -0.047075
v -0.000000 0.116412 -0.049604
v 0.047075 0.108544 -0.047075
v -0.049604 0.116412 0.000000
v 0.000000 0.125000 0.000000
v 0.049604 0.116412 -0.000000
v -0.047075 0.108544 0.047075
v 0.000000 0.116412 0.049604
v 0.047075 0.108544 0.047075
vn 0.5774 -0.5774 0.5774
vn 0.5774 0.5774 0.5774
vn 0.5774 -0.5774 -0.5774
vn 0.5774 0.5774 -0.5774
vn -0.5774 -0.5774 0.5774
vn -0.5774 0.5774 0.5774
vn -0.5774 -0.5774 -0.5774
vn -0.5774 0.5774 -0.5774
vn 0.6737 -0.6737 -0.3038
vn 0.7071 -0.7071 -0.0000
vn 0.6737 -0.6737 0.3038
vn 0.6737 -0.3038 0.6737
vn 0.7071 -0.0000 0.7071
vn 0.6737 0.3038 0.6737
vn 0.6737 0.6737 0.3038
vn 0.7071 0.7071 -0.0000
vn 0.6737 0.6737 -0.3038
vn 0.6737 0.3038 -0.6737
vn 0.7071 -0.0000 -0.7071
vn 0.6737 -0.3038 -0.6737
vn -0.3038 -0.6737 -0.6737
vn -0.0000 -0.7071 -0.7071
vn 0.3038 -0.6737 -0.6737
vn 0.3038 0.6737 -0.6737
vn -0.0000 0.7071 -0.7071
vn -0.3038 0.6737 -0.6737
vn -0.6737 0.3038 -0.6737
vn -0.7071 -0.0000 -0.7071
vn -0.6737 -0.3038 -0.6737
vn -0.6737 -0.6737 0.3038
vn -0.7071 -0.7071 -0.0000
vn -0.6737 -0.6737 -0.3038
vn -0.6737 0.6737 -0.3038
vn -0.7071 0.7071 -0.0000
vn -0.6737 0.6737 0.3038
vn -0.6737 0.3038 0.6737
vn -0.7071 -0.0000 0.7071
vn -0.6737 -0.3038 0.6737
vn 0.3038 -0.6737 0.6737
vn -0.0000 -0.7071 0.7071
vn -0.3038 -0.6737 0.6737
vn -0.3038 0.6737 0.6737
vn -0.0000 0.7071 0.7071
vn 0.3038 0.6737 0.6737
vn 0.8797 -0.3362 0.3362
vn 0.9348 -0.0000 0.3553
vn 0.8797 0.3362 0.3362
vn 0.9348 -0.3553 -0.0000
vn 1.0000 -0.0000 -0.0000
vn 0.9348 0.3553 -0.0000
vn 0.8797 -0.3362 -0.3362
vn 0.9348 -0.0000 -0.3553
vn 0.8797 0.3362 -0.3362
vn 0.3362 -0.3362 -0.8797
vn 0.3553 -0.0000 -0.9348
vn 0.3362 0.3362 -0.8797
vn -0.0000 -0.3553 -0.9348
vn -0.0000 -0.0000 -1.0000
vn -0.0000 0.3553 -0.9348
vn -0.3362 -0.3362 -0.8797
vn -0.3553 -0.0000 -0.9348
vn -0.3362 0.3362 -0.8797
vn -0.8797 -0.3362 -0.3362
vn -0.9348 -0.0000 -0.3553
vn -0.8797 0.3362 -0.3362
vn -0.9348 -0.3553 -0.0000
vn -1.0000 -0.0000 -0.0000
vn -0.9348 0.3553 -0.0000
vn -0.8797 -0.3362 0.3362
vn -0.9348 -0.0000 0.3553
vn -0.8797 0.3362 0.3362
vn -0.3362 -0.3362 0.8797
vn -0.3553 -0.0000 0.9348
vn -0.3362 0.3362 0.8797
vn -0.0000 -0.3553 0.9348
vn -0.0000 -0.0000 1.0000
vn -0.0000 0.3553 0.9348
vn 0.3362 -0.3362 0.8797
vn 0.3553 -0.0000 0.9348
vn 0.3362 0.3362 0.8797
vn 0.3362 -0.8797 -0.3362
vn -0.0000 -0.9348 -0.3553
vn -0.3362 -0.8797 -0.3362
vn 0.3553 -0.9348 -0.0000
vn -0.0000 -1.0000 -0.0000
vn -0.3553 -0.9348 -0.0000
vn 0.3362 -0.8797 0.3362
vn -0.0000 -0.9348 0.3553
vn -0.3362 -0.8797 0.3362
vn -0.3362 0.8797 -0.3362
vn -0.0000 0.9348 -0.3553
vn 0.3362 0.8797 -0.3362
vn -0.3553 0.9348 -0.0000
vn -0.0000 1.0000 -0.0000
vn 0.3553 0.9348 -0.0000
vn -0.3362 0.8797 0.3362
vn -0.0000 0.9348 0.3553
vn 0.3362 0.8797 0.3362
vt 0.443449 0.199140
vt 0.453585 0.189003
vt 0.443449 0.189003
vt 0.443449 0.178867
vt 0.463722 0.199140
vt 0.453585 0.199140
vt 0.463722 0.178867
vt 0.453585 0.178867
vt 0.433312 0.209277
vt 0.433312 0.199140
vt 0.433312 0.189003
vt 0.433312 0.178867
vt 0.433312 0.168730
vt 0.443449 0.168730
vt 0.463722 0.168730
vt 0.453585 0.168730
vt 0.473859 0.168730
vt 0.463722 0.189003
vt 0.473859 0.178867
vt 0.473859 0.199140
vt 0.473859 0.209277
vt 0.463722 0.209277
vt 0.453585 0.209277
vt 0.443449 0.209277
vt 0.483995 0.199140
vt 0.494132 0.189003
vt 0.483995 0.189003
vt 0.483995 0.178867
vt 0.504269 0.199140
vt 0.494132 0.199140
vt 0.504269 0.178867
vt 0.494132 0.178867
vt 0.473859 0.189003
vt 0.483995 0.168730
vt 0.504269 0.168730
vt 0.494132 0.168730
vt 0.514405 0.168730
vt 0.504269 0.189003
vt 0.514405 0.178867
vt 0.514405 0.199140
vt 0.514405 0.209277
vt 0.504269 0.209277
vt 0.494132 0.209277
vt 0.483995 0.209277
vt 0.524542 0.199140
vt 0.534678 0.189003
vt 0.524542 0.189003
vt 0.524542 0.178867
vt 0.544815 0.199140
vt 0.534678 0.199140
vt 0.544815 0.178867
vt 0.534678 0.178867
vt 0.514405 0.189003
vt 0.524542 0.168730
vt 0.544815 0.168730
vt 0.534678 0.168730
vt 0.554952 0.168730
vt 0.544815 0.189003
vt 0.554952 0.178867
vt 0.554952 0.199140
vt 0.554952 0.209277
vt 0.544815 0.209277
vt 0.534678 0.209277
vt 0.524542 0.209277
vt 0.565088 0.199140
vt 0.575225 0.189003
vt 0.565088 0.189003
vt 0.565088 0.178867
vt 0.585362 0.199140
vt 0.575225 0.199140
vt 0.585362 0.178867
vt 0.575225 0.178867
vt 0.554952 0.189003
vt 0.565088 0.168730
vt 0.585362 0.168730
vt 0.575225 0.168730
vt 0.595498 0.168730
vt 0.585362 0.189003
vt 0.595498 0.178867
vt 0.595498 0.199140
vt 0.595498 0.209277
vt 0.585362 0.209277
vt 0.575225 0.209277
vt 0.565088 0.209277
vt 0.524542 0.239686
vt 0.534678 0.229550
vt 0.524542 0.229550
vt 0.524542 0.219413
vt 0.544815 0.239686
vt 0.534678 0.239686
vt 0.544815 0.219413
vt 0.534678 0.219413
vt 0.514405 0.249823
vt 0.514405 0.239686
vt 0.514405 0.229550
vt 0.514405 0.219413
vt 0.544815 0.229550
vt 0.554952 0.219413
vt 0.554952 0.239686
vt 0.554952 0.249823
vt 0.544815 0.249823
vt 0.534678 0.249823
vt 0.524542 0.249823
vt 0.524542 0.158593
vt 0.534678 0.148457
vt 0.524542 0.148457
vt 0.524542 0.138320
vt 0.544815 0.158593
vt 0.534678 0.158593
vt 0.544815 0.138320
vt 0.534678 0.138320
vt 0.514405 0.158593
vt 0.514405 0.148457
vt 0.514405 0.138320
vt 0.514405 0.128184
vt 0.524542 0.128184
vt 0.544815 0.128184
vt 0.534678 0.128184
vt 0.554952 0.128184
vt 0.544815 0.148457
vt 0.554952 0.138320
vt 0.554952 0.158593
vt 0.595498 0.189003
vt 0.554952 0.229550
vt 0.554952 0.148457
s 1
usemtl マテリアル
f 45/1/45 49/2/49 46/3/46
f 49/2/49 47/4/47 46/3/46
f 51/5/51 49/2/49 48/6/48
f 49/2/49 53/7/53 50/8/50
f 1/9/1 45/1/45 12/10/12
f 12/10/12 46/3/46 13/11/13
f 46/3/46 14/12/14 13/11/13
f 47/4/47 2/13/2 14/12/14
f 50/8/50 15/14/15 47/4/47
f 50/8/50 17/15/17 16/16/16
f 53/7/53 4/17/4 17/15/17
f 52/18/52 18/19/18 53/7/53
f 20/20/20 52/18/52 51/5/51
f 3/21/3 51/5/51 9/22/9
f 9/22/9 48/6/48 10/23/10
f 11/24/11 48/6/48 45/1/45
f 54/25/54 58/26/58 55/27/55
f 58/26/58 56/28/56 55/27/55
f 60/29/60 58/26/58 57/30/57
f 58/26/58 62/31/62 59/32/59
f 3/21/3 54/25/54 20/20/20
f 20/20/20 55/27/55 19/33/19
f 55/27/55 18/19/18 19/33/19
f 56/28/56 4/17/4 18/19/18
f 59/32/59 24/34/24 56/28/56
f 59/32/59 26/35/26 25/36/25
f 62/31/62 8/37/8 26/35/26
f 61/38/61 27/39/27 62/31/62
f 29/40/29 61/38/61 60/29/60
f 7/41/7 60/29/60 21/42/21
f 21/42/21 57/30/57 22/43/22
f 23/44/23 57/30/57 54/25/54
f 63/45/63 67/46/67 64/47/64
f 67/46/67 65/48/65 64/47/64
f 69/49/69 67/46/67 66/50/66
f 67/46/67 71/51/71 68/52/68
f 7/41/7 63/45/63 29/40/29
f 29/40/29 64/47/64 28/53/28
f 64/47/64 27/39/27 28/53/28
f 65/48/65 8/37/8 27/39/27
f 68/52/68 33/54/33 65/48/65
f 68/52/68 35/55/35 34/56/34
f 71/51/71 6/57/6 35/55/35
f 70/58/70 36/59/36 71/51/71
f 38/60/38 70/58/70 69/49/69
f 5/61/5 69/49/69 30/62/30
f 30/62/30 66/50/66 31/63/31
f 32/64/32 66/50/66 63/45/63
f 72/65/72 76/66/76 73/67/73
f 76/66/76 74/68/74 73/67/73
f 78/69/78 76/66/76 75/70/75
f 76/66/76 80/71/80 77/72/77
f 5/61/5 72/65/72 38/60/38
f 38/60/38 73/67/73 37/73/37
f 73/67/73 36/59/36 37/73/37
f 74/68/74 6/57/6 36/59/36
f 77/72/77 42/74/42 74/68/74
f 77/72/77 44/75/44 43/76/43
f 80/71/80 2/77/2 44/75/44
f 79/78/79 14/79/14 80/71/80
f 12/80/12 79/78/79 78/69/78
f 1/81/1 78/69/78 39/82/39
f 39/82/39 75/70/75 40/83/40
f 41/84/41 75/70/75 72/65/72
f 81/85/81 85/86/85 82/87/82
f 85/86/85 83/88/83 82/87/82
f 87/89/87 85/86/85 84/90/84
f 85/86/85 89/91/89 86/92/86
f 3/93/3 81/85/81 23/94/23
f 23/94/23 82/87/82 22/95/22
f 82/87/82 21/96/21 22/95/22
f 83/88/83 7/41/7 21/96/21
f 86/92/86 32/64/32 83/88/83
f 86/92/86 30/62/30 31/63/31
f 89/91/89 5/61/5 30/62/30
f 88/97/88 41/98/41 89/91/89
f 39/99/39 88/97/88 87/89/87
f 1/100/1 87/89/87 11/101/11
f 11/101/11 84/90/84 10/102/10
f 9/103/9 84/90/84 81/85/81
f 90/104/90 94/105/94 91/106/91
f 94/105/94 92/107/92 91/106/91
f 96/108/96 94/105/94 93/109/93
f 94/105/94 98/110/98 95/111/95
f 8/37/8 90/104/90 26/112/26
f 26/112/26 91/106/91 25/113/25
f 91/106/91 24/114/24 25/113/25
f 92/107/92 4/115/4 24/114/24
f 95/111/95 17/116/17 92/107/92
f 95/111/95 15/117/15 16/118/16
f 98/110/98 2/119/2 15/117/15
f 97/120/97 44/121/44 98/110/98
f 42/122/42 97/120/97 96/108/96
f 6/57/6 96/108/96 35/55/35
f 35/55/35 93/109/93 34/56/34
f 33/54/33 93/109/93 90/104/90
f 45/1/45 48/6/48 49/2/49
f 49/2/49 50/8/50 47/4/47
f 51/5/51 52/18/52 49/2/49
f 49/2/49 52/18/52 53/7/53
f 1/9/1 11/24/11 45/1/45
f 12/10/12 45/1/45 46/3/46
f 46/3/46 47/4/47 14/12/14
f 47/4/47 15/14/15 2/13/2
f 50/8/50 16/16/16 15/14/15
f 50/8/50 53/7/53 17/15/17
f 53/7/53 18/19/18 4/17/4
f 52/18/52 19/33/19 18/19/18
f 20/20/20 19/33/19 52/18/52
f 3/21/3 20/20/20 51/5/51
f 9/22/9 51/5/51 48/6/48
f 11/24/11 10/23/10 48/6/48
f 54/25/54 57/30/57 58/26/58
f 58/26/58 59/32/59 56/28/56
f 60/29/60 61/38/61 58/26/58
f 58/26/58 61/38/61 62/31/62
f 3/21/3 23/44/23 54/25/54
f 20/20/20 54/25/54 55/27/55
f 55/27/55 56/28/56 18/19/18
f 56/28/56 24/34/24 4/17/4
f 59/32/59 25/36/25 24/34/24
f 59/32/59 62/31/62 26/35/26
f 62/31/62 27/39/27 8/37/8
f 61/38/61 28/53/28 27/39/27
f 29/40/29 28/53/28 61/38/61
f 7/41/7 29/40/29 60/29/60
f 21/42/21 60/29/60 57/30/57
f 23/44/23 22/43/22 57/30/57
f 63/45/63 66/50/66 67/46/67
f 67/46/67 68/52/68 65/48/65
f 69/49/69 70/58/70 67/46/67
f 67/46/67 70/58/70 71/51/71
f 7/41/7 32/64/32 63/45/63
f 29/40/29 63/45/63 64/47/64
f 64/47/64 65/48/65 27/39/27
f 65/48/65 33/54/33 8/37/8
f 68/52/68 34/56/34 33/54/33
f 68/52/68 71/51/71 35/55/35
f 71/51/71 36/59/36 6/57/6
f 70/58/70 37/73/37 36/59/36
f 38/60/38 37/73/37 70/58/70
f 5/61/5 38/60/38 69/49/69
f 30/62/30 69/49/69 66/50/66
f 32/64/32 31/63/31 66/50/66
f 72/65/72 75/70/75 76/66/76
f 76/66/76 77/72/77 74/68/74
f 78/69/78 79/78/79 76/66/76
f 76/66/76 79/78/79 80/71/80
f 5/61/5 41/84/41 72/65/72
f 38/60/38 72/65/72 73/67/73
f 73/67/73 74/68/74 36/59/36
f 74/68/74 42/74/42 6/57/6
f 77/72/77 43/76/43 42/74/42
f 77/72/77 80/71/80 44/75/44
f 80/71/80 14/79/14 2/77/2
f 79/78/79 13/123/13 14/79/14
f 12/80/12 13/123/13 79/78/79
f 1/81/1 12/80/12 78/69/78
f 39/82/39 78/69/78 75/70/75
f 41/84/41 40/83/40 75/70/75
f 81/85/81 84/90/84 85/86/85
f 85/86/85 86/92/86 83/88/83
f 87/89/87 88/97/88 85/86/85
f 85/86/85 88/97/88 89/91/89
f 3/93/3 9/103/9 81/85/81
f 23/94/23 81/85/81 82/87/82
f 82/87/82 83/88/83 21/96/21
f 83/88/83 32/64/32 7/41/7
f 86/92/86 31/63/31 32/64/32
f 86/92/86 89/91/89 30/62/30
f 89/91/89 41/98/41 5/61/5
f 88/97/88 40/124/40 41/98/41
f 39/99/39 40/124/40 88/97/88
f 1/100/1 39/99/39 87/89/87
f 11/101/11 87/89/87 84/90/84
f 9/103/9 10/102/10 84/90/84
f 90/104/90 93/109/93 94/105/94
f 94/105/94 95/111/95 92/107/92
f 96/108/96 97/120/97 94/105/94
f 94/105/94 97/120/97 98/110/98
f 8/37/8 33/54/33 90/104/90
f 26/112/26 90/104/90 91/106/91
f 91/106/91 92/107/92 24/114/24
f 92/107/92 17/116/17 4/115/4
f 95/111/95 16/118/16 17/116/17
f 95/111/95 98/110/98 15/117/15
f 98/110/98 44/121/44 2/119/2
f 97/120/97 43/125/43 44/121/44
f 42/122/42 43/125/43 97/120/97
f 6/57/6 42/122/42 96/108/96
f 35/55/35 96/108/96 93/109/93
f 33/54/33 34/56/34 93/109/93
