# Blender 4.4.1
# www.blender.org
mtllib Leg_L.mtl
o P_Leg_L
v -0.067004 -0.035735 0.211673
v -0.067004 0.035735 0.211673
v -0.067004 -0.035735 -0.011673
v -0.067004 0.035735 -0.011673
v 0.067004 -0.035735 0.211673
v 0.067004 0.035735 0.211673
v 0.067004 -0.035735 -0.011673
v 0.067004 0.035735 -0.011673
v -0.076777 -0.040948 0.033745
v -0.081687 -0.043566 0.100000
v -0.076777 -0.040948 0.166255
v -0.076777 -0.021202 0.227962
v -0.081687 -0.000000 0.236144
v -0.076777 0.021202 0.227962
v -0.076777 0.040948 0.166255
v -0.081687 0.043566 0.100000
v -0.076777 0.040948 0.033745
v -0.076777 0.021202 -0.027962
v -0.081687 -0.000000 -0.036144
v -0.076777 -0.021202 -0.027962
v 0.039753 -0.040948 -0.027962
v 0.000000 -0.043566 -0.036144
v -0.039753 -0.040948 -0.027962
v -0.039753 0.040948 -0.027962
v -0.000000 0.043566 -0.036144
v 0.039753 0.040948 -0.027962
v 0.076777 0.021202 -0.027962
v 0.081687 -0.000000 -0.036144
v 0.076777 -0.021202 -0.027962
v 0.076777 -0.040948 0.166255
v 0.081687 -0.043566 0.100000
v 0.076777 -0.040948 0.033745
v 0.076777 0.040948 0.033745
v 0.081687 0.043566 0.100000
v 0.076777 0.040948 0.166255
v 0.076777 0.021202 0.227962
v 0.081687 -0.000000 0.236144
v 0.076777 -0.021202 0.227962
v -0.039753 -0.040948 0.227962
v -0.000000 -0.043566 0.236144
v 0.039753 -0.040948 0.227962
v 0.039753 0.040948 0.227962
v -0.000000 0.043566 0.236144
v -0.039753 0.040948 0.227962
v -0.097690 -0.022596 0.170612
v -0.104771 -0.000000 0.174405
v -0.097690 0.022596 0.170612
v -0.104771 -0.023810 0.100000
v -0.112500 0.000000 0.100000
v -0.104771 0.023810 0.100000
v -0.097690 -0.022596 0.029388
v -0.104771 0.000000 0.025595
v -0.097690 0.022596 0.029388
v -0.042367 -0.022596 -0.062817
v -0.044643 -0.000000 -0.074618
v -0.042367 0.022596 -0.062817
v 0.000000 -0.023810 -0.074618
v 0.000000 0.000000 -0.087500
v -0.000000 0.023810 -0.074618
v 0.042367 -0.022596 -0.062817
v 0.044643 0.000000 -0.074618
v 0.042367 0.022596 -0.062817
v 0.097690 -0.022596 0.029388
v 0.104771 -0.000000 0.025595
v 0.097690 0.022596 0.029388
v 0.104771 -0.023810 0.100000
v 0.112500 0.000000 0.100000
v 0.104771 0.023810 0.100000
v 0.097690 -0.022596 0.170612
v 0.104771 0.000000 0.174405
v 0.097690 0.022596 0.170612
v 0.042367 -0.022596 0.262817
v 0.044643 -0.000000 0.274618
v 0.042367 0.022596 0.262817
v -0.000000 -0.023810 0.274618
v -0.000000 0.000000 0.287500
v 0.000000 0.023810 0.274618
v -0.042367 -0.022596 0.262817
v -0.044643 0.000000 0.274618
v -0.042367 0.022596 0.262817
v -0.042367 -0.052101 0.029388
v -0.000000 -0.055878 0.025595
v 0.042367 -0.052101 0.029388
v -0.044643 -0.055878 0.100000
v 0.000000 -0.060000 0.100000
v 0.044643 -0.055878 0.100000
v -0.042367 -0.052101 0.170612
v 0.000000 -0.055878 0.174405
v 0.042367 -0.052101 0.170612
v 0.042367 0.052101 0.029388
v 0.000000 0.055878 0.025595
v -0.042367 0.052101 0.029388
v 0.044643 0.055878 0.100000
v -0.000000 0.060000 0.100000
v -0.044643 0.055878 0.100000
v 0.042367 0.052101 0.170612
v -0.000000 0.055878 0.174405
v -0.042367 0.052101 0.170612
vn -0.8144 -0.5488 0.1885
vn -0.9508 -0.3099 -0.0000
vn -0.9511 -0.3088 -0.0000
vn -0.8144 0.5488 0.1885
vn -0.9508 0.3099 -0.0000
vn -0.9191 0.3253 0.2223
vn -0.8144 -0.5488 -0.1885
vn -0.8144 0.5488 -0.1885
vn -0.9191 0.3253 -0.2223
vn -0.4677 -0.8365 0.2856
vn -0.4896 -0.8622 0.1301
vn -0.6913 -0.5740 0.4389
vn -0.9191 -0.3253 0.2223
vn -0.6913 0.5740 0.4389
vn -0.7726 0.3763 0.5114
vn -0.4677 0.8365 0.2856
vn -0.4896 0.8622 0.1301
vn -0.6502 0.7597 -0.0000
vn -0.4896 0.8622 -0.1301
vn -0.4677 0.8365 -0.2856
vn -0.6913 0.5740 -0.4389
vn -0.7726 0.3763 -0.5114
vn -0.9191 -0.3253 -0.2223
vn -0.6913 -0.5740 -0.4389
vn -0.4677 -0.8365 -0.2856
vn -0.4896 -0.8622 -0.1301
vn -0.6502 -0.7597 -0.0000
vn -0.4967 -0.8679 -0.0000
vn -0.4443 -0.4482 -0.7757
vn -0.0000 -0.4782 -0.8783
vn -0.3976 -0.6593 -0.6381
vn -0.4443 0.4482 -0.7757
vn -0.0000 0.4782 -0.8783
vn -0.0000 0.4759 -0.8795
vn 0.4443 -0.4482 -0.7757
vn 0.3976 -0.6593 -0.6381
vn 0.4443 0.4482 -0.7757
vn -0.2508 -0.9106 -0.3286
vn -0.7726 -0.3763 -0.5114
vn -0.3976 0.6593 -0.6381
vn -0.2508 0.9106 -0.3286
vn -0.0000 0.9393 -0.3432
vn -0.0000 0.8896 -0.4568
vn 0.3976 0.6593 -0.6381
vn 0.2508 0.9106 -0.3286
vn 0.6913 0.5740 -0.4389
vn 0.7726 0.3763 -0.5114
vn 0.7726 -0.3763 -0.5114
vn 0.6913 -0.5740 -0.4389
vn 0.2508 -0.9106 -0.3286
vn 0.4677 -0.8365 -0.2856
vn -0.0000 -0.9393 -0.3432
vn 0.8144 -0.5488 -0.1885
vn 0.9508 -0.3099 -0.0000
vn 0.9511 -0.3088 -0.0000
vn 0.8144 0.5488 -0.1885
vn 0.9508 0.3099 -0.0000
vn 0.9191 0.3253 -0.2223
vn 0.8144 -0.5488 0.1885
vn 0.8144 0.5488 0.1885
vn 0.9191 0.3253 0.2223
vn 0.4896 -0.8622 -0.1301
vn 0.9191 -0.3253 -0.2223
vn 0.4677 0.8365 -0.2856
vn 0.4896 0.8622 -0.1301
vn 0.6502 0.7597 -0.0000
vn 0.4896 0.8622 0.1301
vn 0.4677 0.8365 0.2856
vn 0.6913 0.5740 0.4389
vn 0.7726 0.3763 0.5114
vn 0.9191 -0.3253 0.2223
vn 0.6913 -0.5740 0.4389
vn 0.4677 -0.8365 0.2856
vn 0.4896 -0.8622 0.1301
vn 0.6502 -0.7597 -0.0000
vn 0.4967 -0.8679 -0.0000
vn 0.4443 -0.4482 0.7757
vn -0.0000 -0.4782 0.8783
vn 0.3976 -0.6593 0.6381
vn 0.4443 0.4482 0.7757
vn -0.0000 0.4782 0.8783
vn -0.0000 0.4759 0.8795
vn -0.4443 -0.4482 0.7757
vn -0.3976 -0.6593 0.6381
vn -0.4443 0.4482 0.7757
vn 0.2508 -0.9106 0.3286
vn 0.7726 -0.3763 0.5114
vn 0.3976 0.6593 0.6381
vn 0.2508 0.9106 0.3286
vn -0.0000 0.9393 0.3432
vn -0.0000 0.8896 0.4568
vn -0.3976 0.6593 0.6381
vn -0.2508 0.9106 0.3286
vn -0.7726 -0.3763 0.5114
vn -0.2508 -0.9106 0.3286
vn -0.0000 -0.9393 0.3432
vn -0.2074 -0.9703 -0.1242
vn -0.0000 -1.0000 -0.0000
vn -0.2064 -0.9785 -0.0000
vn 0.2074 -0.9703 -0.1242
vn -0.0000 -0.9916 -0.1292
vn -0.2074 -0.9703 0.1242
vn 0.2074 -0.9703 0.1242
vn -0.0000 -0.9916 0.1292
vn 0.2064 -0.9785 -0.0000
vn 0.2074 0.9703 -0.1242
vn -0.0000 1.0000 -0.0000
vn 0.2064 0.9785 -0.0000
vn -0.2074 0.9703 -0.1242
vn -0.0000 0.9916 -0.1292
vn 0.2074 0.9703 0.1242
vn -0.2074 0.9703 0.1242
vn -0.0000 0.9916 0.1292
vn -0.2064 0.9785 -0.0000
vn 0.4967 0.8679 -0.0000
vn -0.9511 0.3088 -0.0000
vn -0.4967 0.8679 -0.0000
vn -0.0000 -0.4759 -0.8795
vn -0.0000 -0.8896 -0.4568
vn 0.9511 0.3088 -0.0000
vn -0.0000 -0.4759 0.8795
vn -0.0000 -0.8896 0.4568
vt 0.256101 0.145639
vt 0.280031 0.136887
vt 0.280714 0.145303
vt 0.256508 0.129268
vt 0.255381 0.137309
vt 0.305059 0.141665
vt 0.302017 0.125573
vt 0.304427 0.133327
vt 0.237649 0.153179
vt 0.256081 0.156170
vt 0.232989 0.144852
vt 0.234122 0.126946
vt 0.231057 0.135741
vt 0.239876 0.119340
vt 0.257210 0.119981
vt 0.279367 0.128704
vt 0.299827 0.116522
vt 0.316830 0.113092
vt 0.323736 0.119671
vt 0.328179 0.127856
vt 0.327742 0.137159
vt 0.324486 0.146129
vt 0.306778 0.152054
vt 0.281597 0.156170
vt 0.336846 0.098476
vt 0.343133 0.087294
vt 0.343880 0.099321
vt 0.330204 0.088344
vt 0.336411 0.087840
vt 0.335125 0.077273
vt 0.341930 0.075305
vt 0.345389 0.116544
vt 0.357252 0.103413
vt 0.355471 0.116864
vt 0.335931 0.116166
vt 0.330153 0.099211
vt 0.326519 0.115398
vt 0.319108 0.101591
vt 0.319085 0.089247
vt 0.328401 0.077628
vt 0.317117 0.077060
vt 0.322203 0.062238
vt 0.331368 0.059963
vt 0.340641 0.058064
vt 0.354467 0.069109
vt 0.350539 0.056121
vt 0.358551 0.086042
vt 0.296788 0.039777
vt 0.272858 0.048530
vt 0.272175 0.040114
vt 0.296381 0.056149
vt 0.297508 0.048108
vt 0.247830 0.043752
vt 0.250872 0.059844
vt 0.248462 0.052090
vt 0.315240 0.032237
vt 0.296808 0.029247
vt 0.319900 0.040565
vt 0.318767 0.058470
vt 0.321832 0.049675
vt 0.313013 0.066077
vt 0.295679 0.065435
vt 0.273522 0.056712
vt 0.253062 0.068895
vt 0.236059 0.072324
vt 0.229153 0.065745
vt 0.224710 0.057560
vt 0.225147 0.048257
vt 0.228403 0.039287
vt 0.246111 0.033363
vt 0.271292 0.029247
vt 0.216043 0.086941
vt 0.209756 0.098122
vt 0.209009 0.086096
vt 0.222685 0.097073
vt 0.216478 0.097577
vt 0.217764 0.108144
vt 0.210959 0.110112
vt 0.207500 0.068873
vt 0.195637 0.082003
vt 0.197418 0.068552
vt 0.216958 0.069251
vt 0.222736 0.086206
vt 0.226370 0.070018
vt 0.233781 0.083825
vt 0.233804 0.096170
vt 0.224488 0.107789
vt 0.235772 0.108357
vt 0.230686 0.123179
vt 0.221521 0.125454
vt 0.212248 0.127353
vt 0.198422 0.116308
vt 0.202350 0.129295
vt 0.194338 0.099374
vt 0.557902 0.051858
vt 0.572668 0.075058
vt 0.557748 0.075427
vt 0.586269 0.051156
vt 0.572056 0.050322
vt 0.559067 0.098959
vt 0.587434 0.098257
vt 0.573280 0.099793
vt 0.548516 0.037612
vt 0.545708 0.053275
vt 0.558008 0.032124
vt 0.585187 0.031452
vt 0.571533 0.029166
vt 0.594940 0.036464
vt 0.598518 0.051969
vt 0.587588 0.074689
vt 0.599627 0.096840
vt 0.596820 0.112503
vt 0.587328 0.117991
vt 0.573803 0.120949
vt 0.560148 0.118663
vt 0.550396 0.113651
vt 0.546818 0.098146
vt 0.544679 0.075750
vt 0.297979 0.077064
vt 0.276445 0.092708
vt 0.275294 0.078541
vt 0.300221 0.104674
vt 0.300025 0.090794
vt 0.252668 0.080743
vt 0.254910 0.108352
vt 0.252864 0.094623
vt 0.277595 0.106875
vt 0.274300 0.066292
vt 0.278589 0.119125
vt 0.600657 0.074365
s 1
usemtl マテリアル
f 45/1/1 49/2/2 48/3/3
f 47/4/4 49/2/5 46/5/6
f 49/2/2 51/6/7 48/3/3
f 49/2/5 53/7/8 52/8/9
f 1/9/10 45/1/1 11/10/11
f 12/11/12 46/5/13 45/1/1
f 14/12/14 46/5/6 13/13/15
f 2/14/16 47/4/4 14/12/14
f 15/15/17 50/16/18 47/4/4
f 50/16/18 17/17/19 53/7/8
f 53/7/8 4/18/20 18/19/21
f 52/8/9 18/19/21 19/20/22
f 52/8/23 20/21/24 51/6/7
f 51/6/7 3/22/25 9/23/26
f 48/3/27 9/23/26 10/24/28
f 11/10/11 48/3/27 10/24/28
f 55/25/29 57/26/30 54/27/31
f 55/25/32 59/28/33 58/29/34
f 57/26/30 61/30/35 60/31/36
f 59/28/33 61/30/37 58/29/34
f 20/32/24 23/33/38 3/34/25
f 19/35/39 54/27/31 20/32/24
f 19/35/22 56/36/40 55/25/32
f 18/37/21 24/38/41 56/36/40
f 56/36/40 25/39/42 59/28/43
f 25/39/42 62/40/44 59/28/43
f 26/41/45 27/42/46 62/40/44
f 62/40/44 28/43/47 61/30/37
f 60/31/36 28/43/48 29/44/49
f 21/45/50 29/44/49 7/46/51
f 22/47/52 60/31/36 21/45/50
f 54/27/31 22/47/52 23/33/38
f 63/48/53 67/49/54 66/50/55
f 65/51/56 67/49/57 64/52/58
f 67/49/54 69/53/59 66/50/55
f 67/49/57 71/54/60 70/55/61
f 7/56/51 63/48/53 32/57/62
f 29/58/49 64/52/63 63/48/53
f 27/59/46 64/52/58 28/60/47
f 8/61/64 65/51/56 27/59/46
f 33/62/65 68/63/66 65/51/56
f 68/63/66 35/64/67 71/54/60
f 71/54/60 6/65/68 36/66/69
f 70/55/61 36/66/69 37/67/70
f 70/55/71 38/68/72 69/53/59
f 69/53/59 5/69/73 30/70/74
f 66/50/75 30/70/74 31/71/76
f 32/57/62 66/50/75 31/71/76
f 73/72/77 75/73/78 72/74/79
f 73/72/80 77/75/81 76/76/82
f 75/73/78 79/77/83 78/78/84
f 77/75/81 79/77/85 76/76/82
f 38/79/72 41/80/86 5/81/73
f 37/82/87 72/74/79 38/79/72
f 37/82/70 74/83/88 73/72/80
f 36/84/69 42/85/89 74/83/88
f 74/83/88 43/86/90 77/75/91
f 43/86/90 80/87/92 77/75/91
f 44/88/93 14/89/14 80/87/92
f 80/87/92 13/90/15 79/77/85
f 78/78/84 13/90/94 12/91/12
f 39/92/95 12/91/12 1/93/10
f 40/94/96 78/78/84 39/92/95
f 72/74/79 40/94/96 41/80/86
f 81/95/97 85/96/98 84/97/99
f 83/98/100 85/96/98 82/99/101
f 85/96/98 87/100/102 84/97/99
f 85/96/98 89/101/103 88/102/104
f 3/103/25 81/95/97 9/104/26
f 23/105/38 82/99/101 81/95/97
f 21/106/50 82/99/101 22/107/52
f 7/108/51 83/98/100 21/106/50
f 32/109/62 86/110/105 83/98/100
f 86/110/105 30/111/74 89/101/103
f 89/101/103 5/112/73 41/113/86
f 88/102/104 41/113/86 40/114/96
f 88/102/104 39/115/95 87/100/102
f 87/100/102 1/116/10 11/117/11
f 84/97/99 11/117/11 10/118/28
f 9/104/26 84/97/99 10/118/28
f 90/119/106 94/120/107 93/121/108
f 92/122/109 94/120/107 91/123/110
f 94/120/107 96/124/111 93/121/108
f 94/120/107 98/125/112 97/126/113
f 8/61/64 90/119/106 33/62/65
f 26/41/45 91/123/110 90/119/106
f 24/38/41 91/123/110 25/39/42
f 4/18/20 92/122/109 24/38/41
f 17/17/19 95/127/114 92/122/109
f 95/127/114 15/15/17 98/125/112
f 98/125/112 2/14/16 44/88/93
f 97/126/113 44/88/93 43/86/90
f 97/126/113 42/85/89 96/124/111
f 96/124/111 6/65/68 35/64/67
f 93/121/108 35/64/67 34/128/115
f 33/62/65 93/121/108 34/128/115
f 45/1/1 46/5/13 49/2/2
f 47/4/4 50/16/116 49/2/5
f 49/2/2 52/8/23 51/6/7
f 49/2/5 50/16/116 53/7/8
f 1/9/10 12/11/12 45/1/1
f 12/11/12 13/13/94 46/5/13
f 14/12/14 47/4/4 46/5/6
f 2/14/16 15/15/17 47/4/4
f 15/15/17 16/129/117 50/16/18
f 50/16/18 16/129/117 17/17/19
f 53/7/8 17/17/19 4/18/20
f 52/8/9 53/7/8 18/19/21
f 52/8/23 19/20/39 20/21/24
f 51/6/7 20/21/24 3/22/25
f 48/3/27 51/6/7 9/23/26
f 11/10/11 45/1/1 48/3/27
f 55/25/29 58/29/118 57/26/30
f 55/25/32 56/36/40 59/28/33
f 57/26/30 58/29/118 61/30/35
f 59/28/33 62/40/44 61/30/37
f 20/32/24 54/27/31 23/33/38
f 19/35/39 55/25/29 54/27/31
f 19/35/22 18/37/21 56/36/40
f 18/37/21 4/18/20 24/38/41
f 56/36/40 24/38/41 25/39/42
f 25/39/42 26/41/45 62/40/44
f 26/41/45 8/61/64 27/42/46
f 62/40/44 27/42/46 28/43/47
f 60/31/36 61/30/35 28/43/48
f 21/45/50 60/31/36 29/44/49
f 22/47/52 57/26/119 60/31/36
f 54/27/31 57/26/119 22/47/52
f 63/48/53 64/52/63 67/49/54
f 65/51/56 68/63/120 67/49/57
f 67/49/54 70/55/71 69/53/59
f 67/49/57 68/63/120 71/54/60
f 7/56/51 29/58/49 63/48/53
f 29/58/49 28/60/48 64/52/63
f 27/59/46 65/51/56 64/52/58
f 8/61/64 33/62/65 65/51/56
f 33/62/65 34/128/115 68/63/66
f 68/63/66 34/128/115 35/64/67
f 71/54/60 35/64/67 6/65/68
f 70/55/61 71/54/60 36/66/69
f 70/55/71 37/67/87 38/68/72
f 69/53/59 38/68/72 5/69/73
f 66/50/75 69/53/59 30/70/74
f 32/57/62 63/48/53 66/50/75
f 73/72/77 76/76/121 75/73/78
f 73/72/80 74/83/88 77/75/81
f 75/73/78 76/76/121 79/77/83
f 77/75/81 80/87/92 79/77/85
f 38/79/72 72/74/79 41/80/86
f 37/82/87 73/72/77 72/74/79
f 37/82/70 36/84/69 74/83/88
f 36/84/69 6/65/68 42/85/89
f 74/83/88 42/85/89 43/86/90
f 43/86/90 44/88/93 80/87/92
f 44/88/93 2/14/16 14/89/14
f 80/87/92 14/89/14 13/90/15
f 78/78/84 79/77/83 13/90/94
f 39/92/95 78/78/84 12/91/12
f 40/94/96 75/73/122 78/78/84
f 72/74/79 75/73/122 40/94/96
f 81/95/97 82/99/101 85/96/98
f 83/98/100 86/110/105 85/96/98
f 85/96/98 88/102/104 87/100/102
f 85/96/98 86/110/105 89/101/103
f 3/103/25 23/105/38 81/95/97
f 23/105/38 22/107/52 82/99/101
f 21/106/50 83/98/100 82/99/101
f 7/108/51 32/109/62 83/98/100
f 32/109/62 31/130/76 86/110/105
f 86/110/105 31/130/76 30/111/74
f 89/101/103 30/111/74 5/112/73
f 88/102/104 89/101/103 41/113/86
f 88/102/104 40/114/96 39/115/95
f 87/100/102 39/115/95 1/116/10
f 84/97/99 87/100/102 11/117/11
f 9/104/26 81/95/97 84/97/99
f 90/119/106 91/123/110 94/120/107
f 92/122/109 95/127/114 94/120/107
f 94/120/107 97/126/113 96/124/111
f 94/120/107 95/127/114 98/125/112
f 8/61/64 26/41/45 90/119/106
f 26/41/45 25/39/42 91/123/110
f 24/38/41 92/122/109 91/123/110
f 4/18/20 17/17/19 92/122/109
f 17/17/19 16/129/117 95/127/114
f 95/127/114 16/129/117 15/15/17
f 98/125/112 15/15/17 2/14/16
f 97/126/113 98/125/112 44/88/93
f 97/126/113 43/86/90 42/85/89
f 96/124/111 42/85/89 6/65/68
f 93/121/108 96/124/111 35/64/67
f 33/62/65 90/119/106 93/121/108
