# Blender 4.4.1
# www.blender.org
mtllib PlayerLegL.mtl
o LegL
v 0.153578 0.089338 -0.111702
v 0.153578 -0.089338 -0.111702
v 0.451372 0.089338 0.404092
v 0.451372 -0.089338 0.404092
v -0.171372 0.089338 0.075908
v -0.171372 -0.089338 0.075908
v 0.126422 0.089338 0.591702
v 0.126422 -0.089338 0.591702
v -0.134515 -0.102370 0.194478
v -0.058079 -0.108915 0.354361
v 0.042166 -0.102370 0.500498
v 0.065781 -0.102370 -0.111170
v -0.041526 -0.108915 -0.074412
v -0.127013 -0.102370 0.000139
v 0.155559 0.053004 -0.163004
v 0.156554 0.000000 -0.188773
v 0.155559 -0.053004 -0.163004
v 0.124441 -0.053004 0.643004
v 0.123446 0.000000 0.668773
v 0.124441 0.053004 0.643004
v 0.496791 0.053004 0.428028
v 0.519605 0.000000 0.440051
v 0.496791 -0.053004 0.428028
v -0.216791 0.053004 0.051973
v -0.239605 0.000000 0.039949
v -0.216791 -0.053004 0.051973
v 0.407013 0.102370 0.479861
v 0.321526 0.108915 0.554412
v 0.214219 0.102370 0.591170
v 0.237834 0.102370 -0.020498
v 0.338079 0.108915 0.125639
v 0.414515 0.102370 0.285522
v 0.214219 -0.102370 0.591170
v 0.321526 -0.108915 0.554412
v 0.407013 -0.102370 0.479861
v 0.042166 0.102370 0.500498
v -0.058079 0.108915 0.354361
v -0.134515 0.102370 0.194478
v -0.127013 0.102370 0.000139
v -0.041526 0.108915 -0.074412
v 0.065781 0.102370 -0.111170
v 0.414515 -0.102370 0.285522
v 0.338079 -0.108915 0.125639
v 0.237834 -0.102370 -0.020499
v 0.148586 0.130253 0.017614
v 0.040793 0.139694 0.068168
v -0.056885 0.130253 0.136242
v 0.248254 0.139694 0.177499
v 0.140000 0.150000 0.240000
v 0.031746 0.139694 0.302501
v 0.336885 0.130253 0.343758
v 0.239207 0.139694 0.411832
v 0.131414 0.130253 0.462386
v 0.459824 -0.056490 0.556695
v 0.481078 0.000000 0.580762
v 0.459824 0.056490 0.556695
v 0.372824 -0.059524 0.643263
v 0.390000 0.000000 0.673013
v 0.372824 0.059524 0.643263
v 0.254353 -0.056490 0.675323
v 0.264570 0.000000 0.705764
v 0.254353 0.056490 0.675323
v -0.002736 -0.056490 0.539838
v -0.014848 0.000000 0.558511
v -0.002736 0.056490 0.539838
v -0.114056 -0.059524 0.386679
v -0.132798 0.000000 0.397500
v -0.114056 0.059524 0.386679
v -0.191035 -0.056490 0.213694
v -0.213263 0.000000 0.214847
v -0.191035 0.056490 0.213694
v -0.056885 -0.130253 0.136242
v 0.040793 -0.139694 0.068168
v 0.148586 -0.130253 0.017614
v 0.031746 -0.139694 0.302501
v 0.140000 -0.150000 0.240000
v 0.248254 -0.139694 0.177499
v 0.131414 -0.130253 0.462386
v 0.239207 -0.139694 0.411832
v 0.336885 -0.130253 0.343758
v 0.282736 -0.056490 -0.059838
v 0.294848 0.000000 -0.078511
v 0.282736 0.056490 -0.059838
v 0.394056 -0.059524 0.093321
v 0.412798 0.000000 0.082500
v 0.394056 0.059524 0.093321
v 0.471035 -0.056490 0.266306
v 0.493263 0.000000 0.265153
v 0.471035 0.056490 0.266306
v -0.179824 -0.056490 -0.076695
v -0.201078 0.000000 -0.100762
v -0.179824 0.056490 -0.076695
v -0.092824 -0.059524 -0.163263
v -0.110000 0.000000 -0.193013
v -0.092824 0.059524 -0.163263
v 0.025647 -0.056490 -0.195323
v 0.015430 0.000000 -0.225764
v 0.025647 0.056490 -0.195323
vn 0.1031 0.9754 -0.1949
vn -0.0000 1.0000 -0.0000
vn 0.1609 0.9826 -0.0929
vn -0.2203 0.9754 -0.0082
vn -0.0606 0.9926 -0.1050
vn 0.2203 0.9754 0.0082
vn -0.1031 0.9754 0.1949
vn 0.0606 0.9926 0.1050
vn 0.2353 0.8588 -0.4551
vn 0.3283 0.8832 -0.3348
vn 0.0412 0.9221 -0.3849
vn -0.3539 0.9221 -0.1568
vn -0.1622 0.9459 -0.2810
vn -0.5117 0.8588 -0.0238
vn -0.4542 0.8832 0.1169
vn -0.1609 0.9826 0.0929
vn -0.3283 0.8832 0.3348
vn -0.2353 0.8588 0.4551
vn -0.0412 0.9221 0.3849
vn 0.1622 0.9459 0.2810
vn 0.3539 0.9221 0.1568
vn 0.5117 0.8588 0.0238
vn 0.4542 0.8832 -0.1169
vn 0.3972 0.8886 -0.2293
vn 0.7526 -0.4755 0.4555
vn 0.4324 -0.5020 0.7490
vn 0.7758 -0.4708 0.4201
vn 0.7526 0.4755 0.4555
vn 0.4324 0.5020 0.7490
vn 0.4331 0.4998 0.7501
vn 0.0182 -0.4755 0.8795
vn -0.0240 -0.4708 0.8819
vn 0.0182 0.4755 0.8795
vn 0.7946 -0.6052 0.0485
vn 0.3539 -0.9221 0.1568
vn 0.5117 -0.8588 0.0238
vn 0.9098 -0.4084 0.0740
vn 0.9098 0.4084 0.0740
vn 0.7758 0.4708 0.4201
vn 0.7946 0.6052 0.0485
vn 0.4098 0.8792 0.2433
vn 0.2169 0.9010 0.3757
vn 0.0058 0.8792 0.4765
vn -0.3553 0.6052 0.7124
vn -0.0240 0.4708 0.8819
vn -0.3908 0.4084 0.8249
vn -0.3908 -0.4084 0.8249
vn -0.3553 -0.6052 0.7124
vn -0.0412 -0.9221 0.3849
vn -0.2353 -0.8588 0.4551
vn 0.1622 -0.9459 0.2810
vn 0.0058 -0.8792 0.4765
vn 0.4098 -0.8792 0.2433
vn -0.5875 -0.5844 0.5597
vn -0.8135 -0.3428 0.4697
vn -0.8139 -0.3417 0.4699
vn -0.5875 0.5844 0.5597
vn -0.8135 0.3428 0.4697
vn -0.6691 0.3586 0.6510
vn -0.7785 -0.5844 0.2289
vn -0.7785 0.5844 0.2289
vn -0.8983 0.3586 0.2539
vn -0.3283 -0.8832 0.3348
vn -0.6691 -0.3586 0.6510
vn -0.5258 0.7946 0.3036
vn -0.7946 0.6052 -0.0485
vn -0.9098 0.4084 -0.0740
vn -0.8983 -0.3586 0.2539
vn -0.7946 -0.6052 -0.0485
vn -0.5117 -0.8588 -0.0238
vn -0.4542 -0.8832 0.1169
vn -0.5258 -0.7946 0.3036
vn -0.3972 -0.8886 0.2293
vn -0.2203 -0.9754 -0.0082
vn -0.0000 -1.0000 -0.0000
vn -0.1609 -0.9826 0.0929
vn 0.1031 -0.9754 -0.1949
vn -0.0606 -0.9926 -0.1050
vn -0.1031 -0.9754 0.1949
vn 0.2203 -0.9754 0.0082
vn 0.0606 -0.9926 0.1050
vn -0.3539 -0.9221 -0.1568
vn 0.0412 -0.9221 -0.3849
vn -0.1622 -0.9459 -0.2810
vn 0.2353 -0.8588 -0.4551
vn 0.3283 -0.8832 -0.3348
vn 0.1609 -0.9826 -0.0929
vn 0.4542 -0.8832 -0.1169
vn 0.5875 -0.5844 -0.5597
vn 0.8135 -0.3428 -0.4697
vn 0.8139 -0.3417 -0.4699
vn 0.5875 0.5844 -0.5597
vn 0.8135 0.3428 -0.4697
vn 0.6691 0.3586 -0.6510
vn 0.7785 -0.5844 -0.2289
vn 0.7785 0.5844 -0.2289
vn 0.8983 0.3586 -0.2539
vn 0.3553 -0.6052 -0.7124
vn 0.6691 -0.3586 -0.6510
vn 0.3553 0.6052 -0.7124
vn 0.3908 0.4084 -0.8249
vn 0.5258 0.7946 -0.3036
vn 0.8983 -0.3586 -0.2539
vn 0.5258 -0.7946 -0.3036
vn 0.3972 -0.8886 -0.2293
vn -0.7526 -0.4755 -0.4555
vn -0.4324 -0.5020 -0.7490
vn -0.7758 -0.4708 -0.4201
vn -0.7526 0.4755 -0.4555
vn -0.4324 0.5020 -0.7490
vn -0.4331 0.4998 -0.7501
vn -0.0182 -0.4755 -0.8795
vn 0.0240 -0.4708 -0.8819
vn -0.0182 0.4755 -0.8795
vn -0.9098 -0.4084 -0.0740
vn -0.7758 0.4708 -0.4201
vn -0.4098 0.8792 -0.2433
vn -0.2169 0.9010 -0.3757
vn -0.0058 0.8792 -0.4765
vn 0.0240 0.4708 -0.8819
vn 0.3908 -0.4084 -0.8249
vn -0.0058 -0.8792 -0.4765
vn -0.4098 -0.8792 -0.2433
vn -0.3972 0.8886 0.2293
vn 0.4331 -0.4998 0.7501
vn 0.2169 -0.9010 0.3757
vn -0.8139 0.3417 0.4699
vn 0.8139 0.3417 -0.4699
vn -0.4331 -0.4998 -0.7501
vn -0.2169 -0.9010 -0.3757
vt 0.521252 0.826249
vt 0.546042 0.851039
vt 0.521252 0.851039
vt 0.570832 0.826249
vt 0.546042 0.826249
vt 0.521252 0.875829
vt 0.570832 0.875829
vt 0.546042 0.875829
vt 0.496462 0.801459
vt 0.496462 0.826249
vt 0.521252 0.801459
vt 0.570832 0.801459
vt 0.546042 0.801459
vt 0.595622 0.801459
vt 0.595622 0.826249
vt 0.570832 0.851039
vt 0.595622 0.875829
vt 0.595622 0.900619
vt 0.570832 0.900619
vt 0.546042 0.900619
vt 0.521252 0.900619
vt 0.496462 0.900619
vt 0.496462 0.875829
vt 0.496462 0.851039
vt 0.446882 0.925409
vt 0.422092 0.950199
vt 0.422092 0.925409
vt 0.471672 0.950199
vt 0.446882 0.950199
vt 0.446882 0.974989
vt 0.422092 0.974989
vt 0.422092 0.900619
vt 0.397302 0.925409
vt 0.397302 0.900619
vt 0.446882 0.900619
vt 0.471672 0.925409
vt 0.471672 0.900619
vt 0.496462 0.925409
vt 0.496462 0.950199
vt 0.471672 0.974989
vt 0.496462 0.974989
vt 0.471672 0.999779
vt 0.446882 0.999779
vt 0.422092 0.999779
vt 0.397302 0.974989
vt 0.397302 0.999779
vt 0.397302 0.950199
vt 0.422092 0.627930
vt 0.446882 0.652720
vt 0.422092 0.652720
vt 0.471672 0.627930
vt 0.446882 0.627930
vt 0.422092 0.677510
vt 0.471672 0.677510
vt 0.446882 0.677510
vt 0.397302 0.603140
vt 0.397302 0.627930
vt 0.422092 0.603140
vt 0.471672 0.603140
vt 0.446882 0.603140
vt 0.496462 0.603140
vt 0.496462 0.627930
vt 0.471672 0.652720
vt 0.496462 0.677510
vt 0.496462 0.702300
vt 0.471672 0.702300
vt 0.446882 0.702300
vt 0.422092 0.702300
vt 0.397302 0.702300
vt 0.397302 0.677510
vt 0.397302 0.652720
vt 0.322933 0.826249
vt 0.347723 0.851039
vt 0.322933 0.851039
vt 0.372512 0.826249
vt 0.347723 0.826249
vt 0.322933 0.875829
vt 0.372512 0.875829
vt 0.347723 0.875829
vt 0.298143 0.801459
vt 0.298143 0.826249
vt 0.322933 0.801459
vt 0.372512 0.801459
vt 0.347723 0.801459
vt 0.397302 0.801459
vt 0.397302 0.826249
vt 0.372512 0.851039
vt 0.397302 0.875829
vt 0.372512 0.900619
vt 0.347723 0.900619
vt 0.322933 0.900619
vt 0.298143 0.900619
vt 0.298143 0.875829
vt 0.298143 0.851039
vt 0.422092 0.826249
vt 0.446882 0.851039
vt 0.422092 0.851039
vt 0.471672 0.826249
vt 0.446882 0.826249
vt 0.422092 0.875829
vt 0.471672 0.875829
vt 0.446882 0.875829
vt 0.422092 0.801459
vt 0.471672 0.801459
vt 0.446882 0.801459
vt 0.471672 0.851039
vt 0.397302 0.851039
vt 0.446882 0.727089
vt 0.422092 0.751879
vt 0.422092 0.727089
vt 0.471672 0.751879
vt 0.446882 0.751879
vt 0.446882 0.776669
vt 0.422092 0.776669
vt 0.397302 0.727090
vt 0.471672 0.727089
vt 0.496462 0.727090
vt 0.496462 0.751879
vt 0.471672 0.776669
vt 0.496462 0.776669
vt 0.397302 0.776669
vt 0.397302 0.751879
vt 0.595622 0.851039
vt 0.496462 0.999779
vt 0.496462 0.652720
s 1
usemtl マテリアル
f 45/1/1 49/2/2 48/3/3
f 47/4/4 49/2/2 46/5/5
f 49/2/2 51/6/6 48/3/3
f 49/2/2 53/7/7 52/8/8
f 1/9/9 45/1/1 30/10/10
f 41/11/11 46/5/5 45/1/1
f 39/12/12 46/5/5 40/13/13
f 5/14/14 47/4/4 39/12/12
f 38/15/15 50/16/16 47/4/4
f 50/16/16 36/17/17 53/7/7
f 53/7/7 7/18/18 29/19/19
f 52/8/8 29/19/19 28/20/20
f 52/8/8 27/21/21 51/6/6
f 51/6/6 3/22/22 32/23/23
f 48/3/3 32/23/23 31/24/24
f 30/10/10 48/3/3 31/24/24
f 55/25/25 57/26/26 54/27/27
f 55/25/28 59/28/29 58/29/30
f 57/26/26 61/30/31 60/31/32
f 59/28/29 61/30/33 58/29/30
f 23/32/34 35/33/35 4/34/36
f 22/35/37 54/27/27 23/32/34
f 22/35/38 56/36/39 55/25/28
f 21/37/40 27/38/21 56/36/41
f 56/36/41 28/39/20 59/28/42
f 28/39/20 62/40/43 59/28/42
f 29/41/19 20/42/44 62/40/43
f 62/40/45 19/43/46 61/30/33
f 60/31/32 19/43/47 18/44/48
f 33/45/49 18/44/48 8/46/50
f 34/47/51 60/31/52 33/45/49
f 54/27/53 34/47/51 35/33/35
f 63/48/54 67/49/55 66/50/56
f 65/51/57 67/49/58 64/52/59
f 67/49/55 69/53/60 66/50/56
f 67/49/58 71/54/61 70/55/62
f 8/56/50 63/48/54 11/57/63
f 18/58/48 64/52/64 63/48/54
f 20/59/44 64/52/59 19/60/46
f 7/61/18 65/51/57 20/59/44
f 36/62/17 68/63/65 65/51/57
f 68/63/65 38/64/15 71/54/61
f 71/54/61 5/65/14 24/66/66
f 70/55/62 24/66/66 25/67/67
f 70/55/68 26/68/69 69/53/60
f 69/53/60 6/69/70 9/70/71
f 66/50/72 9/70/71 10/71/73
f 11/57/63 66/50/72 10/71/73
f 72/72/74 76/73/75 75/74/76
f 74/75/77 76/73/75 73/76/78
f 76/73/75 78/77/79 75/74/76
f 76/73/75 80/78/80 79/79/81
f 6/80/70 72/72/74 9/81/71
f 14/82/82 73/76/78 72/72/74
f 12/83/83 73/76/78 13/84/84
f 2/85/85 74/75/77 12/83/83
f 44/86/86 77/87/87 74/75/77
f 77/87/87 42/88/88 80/78/80
f 80/78/80 4/34/36 35/89/35
f 79/79/81 35/89/35 34/90/51
f 79/79/81 33/91/49 78/77/79
f 78/77/79 8/92/50 11/93/63
f 75/74/76 11/93/63 10/94/73
f 9/81/71 75/74/76 10/94/73
f 81/95/89 85/96/90 84/97/91
f 83/98/92 85/96/93 82/99/94
f 85/96/90 87/100/95 84/97/91
f 85/96/93 89/101/96 88/102/97
f 2/85/85 81/95/89 44/86/86
f 17/103/98 82/99/99 81/95/89
f 15/104/100 82/99/94 16/105/101
f 1/9/9 83/98/92 15/104/100
f 30/10/10 86/106/102 83/98/92
f 86/106/102 32/23/23 89/101/96
f 89/101/96 3/22/22 21/37/40
f 88/102/97 21/37/40 22/35/38
f 88/102/103 23/32/34 87/100/95
f 87/100/95 4/34/36 42/88/88
f 84/97/104 42/88/88 43/107/105
f 44/86/86 84/97/104 43/107/105
f 91/108/106 93/109/107 90/110/108
f 91/108/109 95/111/110 94/112/111
f 93/109/107 97/113/112 96/114/113
f 95/111/110 97/113/114 94/112/111
f 26/68/69 14/115/82 6/69/70
f 25/67/115 90/110/108 26/68/69
f 25/67/67 92/116/116 91/108/109
f 24/66/66 39/117/12 92/116/117
f 92/116/117 40/118/13 95/111/118
f 40/118/13 98/119/119 95/111/118
f 41/120/11 15/104/100 98/119/119
f 98/119/120 16/105/101 97/113/114
f 96/114/113 16/105/121 17/103/98
f 12/121/83 17/103/98 2/85/85
f 13/122/84 96/114/122 12/121/83
f 90/110/123 13/122/84 14/115/82
f 45/1/1 46/5/5 49/2/2
f 47/4/4 50/16/16 49/2/2
f 49/2/2 52/8/8 51/6/6
f 49/2/2 50/16/16 53/7/7
f 1/9/9 41/11/11 45/1/1
f 41/11/11 40/13/13 46/5/5
f 39/12/12 47/4/4 46/5/5
f 5/14/14 38/15/15 47/4/4
f 38/15/15 37/123/124 50/16/16
f 50/16/16 37/123/124 36/17/17
f 53/7/7 36/17/17 7/18/18
f 52/8/8 53/7/7 29/19/19
f 52/8/8 28/20/20 27/21/21
f 51/6/6 27/21/21 3/22/22
f 48/3/3 51/6/6 32/23/23
f 30/10/10 45/1/1 48/3/3
f 55/25/25 58/29/125 57/26/26
f 55/25/28 56/36/39 59/28/29
f 57/26/26 58/29/125 61/30/31
f 59/28/29 62/40/45 61/30/33
f 23/32/34 54/27/53 35/33/35
f 22/35/37 55/25/25 54/27/27
f 22/35/38 21/37/40 56/36/39
f 21/37/40 3/22/22 27/38/21
f 56/36/41 27/38/21 28/39/20
f 28/39/20 29/41/19 62/40/43
f 29/41/19 7/124/18 20/42/44
f 62/40/45 20/42/44 19/43/46
f 60/31/32 61/30/31 19/43/47
f 33/45/49 60/31/52 18/44/48
f 34/47/51 57/26/126 60/31/52
f 54/27/53 57/26/126 34/47/51
f 63/48/54 64/52/64 67/49/55
f 65/51/57 68/63/127 67/49/58
f 67/49/55 70/55/68 69/53/60
f 67/49/58 68/63/127 71/54/61
f 8/56/50 18/58/48 63/48/54
f 18/58/48 19/60/47 64/52/64
f 20/59/44 65/51/57 64/52/59
f 7/61/18 36/62/17 65/51/57
f 36/62/17 37/125/124 68/63/65
f 68/63/65 37/125/124 38/64/15
f 71/54/61 38/64/15 5/65/14
f 70/55/62 71/54/61 24/66/66
f 70/55/68 25/67/115 26/68/69
f 69/53/60 26/68/69 6/69/70
f 66/50/72 69/53/60 9/70/71
f 11/57/63 63/48/54 66/50/72
f 72/72/74 73/76/78 76/73/75
f 74/75/77 77/87/87 76/73/75
f 76/73/75 79/79/81 78/77/79
f 76/73/75 77/87/87 80/78/80
f 6/80/70 14/82/82 72/72/74
f 14/82/82 13/84/84 73/76/78
f 12/83/83 74/75/77 73/76/78
f 2/85/85 44/86/86 74/75/77
f 44/86/86 43/107/105 77/87/87
f 77/87/87 43/107/105 42/88/88
f 80/78/80 42/88/88 4/34/36
f 79/79/81 80/78/80 35/89/35
f 79/79/81 34/90/51 33/91/49
f 78/77/79 33/91/49 8/92/50
f 75/74/76 78/77/79 11/93/63
f 9/81/71 72/72/74 75/74/76
f 81/95/89 82/99/99 85/96/90
f 83/98/92 86/106/128 85/96/93
f 85/96/90 88/102/103 87/100/95
f 85/96/93 86/106/128 89/101/96
f 2/85/85 17/103/98 81/95/89
f 17/103/98 16/105/121 82/99/99
f 15/104/100 83/98/92 82/99/94
f 1/9/9 30/10/10 83/98/92
f 30/10/10 31/24/24 86/106/102
f 86/106/102 31/24/24 32/23/23
f 89/101/96 32/23/23 3/22/22
f 88/102/97 89/101/96 21/37/40
f 88/102/103 22/35/37 23/32/34
f 87/100/95 23/32/34 4/34/36
f 84/97/104 87/100/95 42/88/88
f 44/86/86 81/95/89 84/97/104
f 91/108/106 94/112/129 93/109/107
f 91/108/109 92/116/116 95/111/110
f 93/109/107 94/112/129 97/113/112
f 95/111/110 98/119/120 97/113/114
f 26/68/69 90/110/123 14/115/82
f 25/67/115 91/108/106 90/110/108
f 25/67/67 24/66/66 92/116/116
f 24/66/66 5/65/14 39/117/12
f 92/116/117 39/117/12 40/118/13
f 40/118/13 41/120/11 98/119/119
f 41/120/11 1/9/9 15/104/100
f 98/119/120 15/104/100 16/105/101
f 96/114/113 97/113/112 16/105/121
f 12/121/83 96/114/122 17/103/98
f 13/122/84 93/109/130 96/114/122
f 90/110/123 93/109/130 13/122/84
