# Blender 4.4.1
# www.blender.org
mtllib PlayerBody.mtl
o Body
v 0.297794 0.297794 -0.297794
v 0.297794 -0.297794 -0.297794
v 0.297794 0.297794 0.297794
v 0.297794 -0.297794 0.297794
v -0.297794 0.297794 -0.297794
v -0.297794 -0.297794 -0.297794
v -0.297794 0.297794 0.297794
v -0.297794 -0.297794 0.297794
v -0.341232 -0.341232 -0.176681
v -0.363051 -0.363051 -0.000000
v -0.341232 -0.341232 0.176681
v 0.176681 -0.341232 -0.341232
v 0.000000 -0.363051 -0.363051
v -0.176681 -0.341232 -0.341232
v 0.341232 0.176681 -0.341232
v 0.363051 0.000000 -0.363051
v 0.341232 -0.176681 -0.341232
v -0.341232 -0.176681 0.341232
v -0.363051 -0.000000 0.363051
v -0.341232 0.176681 0.341232
v 0.341232 0.176681 0.341232
v 0.363051 0.000000 0.363051
v 0.341232 -0.176681 0.341232
v -0.341232 0.176681 -0.341232
v -0.363051 -0.000000 -0.363051
v -0.341232 -0.176681 -0.341232
v 0.176681 0.341232 0.341232
v -0.000000 0.363051 0.363051
v -0.176681 0.341232 0.341232
v 0.341232 0.341232 -0.176681
v 0.363051 0.363051 0.000000
v 0.341232 0.341232 0.176681
v -0.176681 -0.341232 0.341232
v -0.000000 -0.363051 0.363051
v 0.176681 -0.341232 0.341232
v -0.341232 0.341232 0.176681
v -0.363051 0.363051 -0.000000
v -0.341232 0.341232 -0.176681
v -0.176681 0.341232 -0.341232
v 0.000000 0.363051 -0.363051
v 0.176681 0.341232 -0.341232
v 0.341232 -0.341232 0.176681
v 0.363051 -0.363051 0.000000
v 0.341232 -0.341232 -0.176681
v 0.188299 0.434178 -0.188299
v 0.000000 0.465648 -0.198415
v -0.188299 0.434178 -0.188299
v 0.198415 0.465648 0.000000
v -0.000000 0.500000 -0.000000
v -0.198415 0.465648 -0.000000
v 0.188299 0.434178 0.188299
v -0.000000 0.465648 0.198415
v -0.188299 0.434178 0.188299
v 0.188299 -0.188299 0.434178
v 0.198415 -0.000000 0.465648
v 0.188299 0.188299 0.434178
v -0.000000 -0.198415 0.465648
v 0.000000 0.000000 0.500000
v 0.000000 0.198415 0.465648
v -0.188299 -0.188299 0.434178
v -0.198415 0.000000 0.465648
v -0.188299 0.188299 0.434178
v -0.434178 -0.188299 0.188299
v -0.465648 -0.000000 0.198415
v -0.434178 0.188299 0.188299
v -0.465648 -0.198415 -0.000000
v -0.500000 0.000000 -0.000000
v -0.465648 0.198415 0.000000
v -0.434178 -0.188299 -0.188299
v -0.465648 0.000000 -0.198415
v -0.434178 0.188299 -0.188299
v -0.188299 -0.434178 -0.188299
v -0.000000 -0.465648 -0.198415
v 0.188299 -0.434178 -0.188299
v -0.198415 -0.465648 0.000000
v 0.000000 -0.500000 0.000000
v 0.198415 -0.465648 -0.000000
v -0.188299 -0.434178 0.188299
v 0.000000 -0.465648 0.198415
v 0.188299 -0.434178 0.188299
v 0.434178 -0.188299 -0.188299
v 0.465648 -0.000000 -0.198415
v 0.434178 0.188299 -0.188299
v 0.465648 -0.198415 0.000000
v 0.500000 0.000000 -0.000000
v 0.465648 0.198415 -0.000000
v 0.434178 -0.188299 0.188299
v 0.465648 0.000000 0.198415
v 0.434178 0.188299 0.188299
v -0.188299 -0.188299 -0.434178
v -0.198415 -0.000000 -0.465648
v -0.188299 0.188299 -0.434178
v 0.000000 -0.198415 -0.465648
v 0.000000 0.000000 -0.500000
v -0.000000 0.198415 -0.465648
v 0.188299 -0.188299 -0.434178
v 0.198415 0.000000 -0.465648
v 0.188299 0.188299 -0.434178
vn 0.5774 0.5774 -0.5774
vn 0.5774 -0.5774 -0.5774
vn 0.5774 0.5774 0.5774
vn 0.5774 -0.5774 0.5774
vn -0.5774 0.5774 -0.5774
vn -0.5774 -0.5774 -0.5774
vn -0.5774 0.5774 0.5774
vn -0.5774 -0.5774 0.5774
vn -0.6737 -0.6737 -0.3038
vn -0.7071 -0.7071 -0.0000
vn -0.6737 -0.6737 0.3038
vn 0.3038 -0.6737 -0.6737
vn -0.0000 -0.7071 -0.7071
vn -0.3038 -0.6737 -0.6737
vn 0.6737 0.3038 -0.6737
vn 0.7071 -0.0000 -0.7071
vn 0.6737 -0.3038 -0.6737
vn -0.6737 -0.3038 0.6737
vn -0.7071 -0.0000 0.7071
vn -0.6737 0.3038 0.6737
vn 0.6737 0.3038 0.6737
vn 0.7071 -0.0000 0.7071
vn 0.6737 -0.3038 0.6737
vn -0.6737 0.3038 -0.6737
vn -0.7071 -0.0000 -0.7071
vn -0.6737 -0.3038 -0.6737
vn 0.3038 0.6737 0.6737
vn -0.0000 0.7071 0.7071
vn -0.3038 0.6737 0.6737
vn 0.6737 0.6737 -0.3038
vn 0.7071 0.7071 -0.0000
vn 0.6737 0.6737 0.3038
vn -0.3038 -0.6737 0.6737
vn -0.0000 -0.7071 0.7071
vn 0.3038 -0.6737 0.6737
vn -0.6737 0.6737 0.3038
vn -0.7071 0.7071 -0.0000
vn -0.6737 0.6737 -0.3038
vn -0.3038 0.6737 -0.6737
vn -0.0000 0.7071 -0.7071
vn 0.3038 0.6737 -0.6737
vn 0.6737 -0.6737 0.3038
vn 0.7071 -0.7071 -0.0000
vn 0.6737 -0.6737 -0.3038
vn 0.3362 0.8797 -0.3362
vn -0.0000 0.9348 -0.3553
vn -0.3362 0.8797 -0.3362
vn 0.3553 0.9348 -0.0000
vn -0.0000 1.0000 -0.0000
vn -0.3553 0.9348 -0.0000
vn 0.3362 0.8797 0.3362
vn -0.0000 0.9348 0.3553
vn -0.3362 0.8797 0.3362
vn 0.3362 -0.3362 0.8797
vn 0.3553 -0.0000 0.9348
vn 0.3362 0.3362 0.8797
vn -0.0000 -0.3553 0.9348
vn -0.0000 -0.0000 1.0000
vn -0.0000 0.3553 0.9348
vn -0.3362 -0.3362 0.8797
vn -0.3553 -0.0000 0.9348
vn -0.3362 0.3362 0.8797
vn -0.8797 -0.3362 0.3362
vn -0.9348 -0.0000 0.3553
vn -0.8797 0.3362 0.3362
vn -0.9348 -0.3553 -0.0000
vn -1.0000 -0.0000 -0.0000
vn -0.9348 0.3553 -0.0000
vn -0.8797 -0.3362 -0.3362
vn -0.9348 -0.0000 -0.3553
vn -0.8797 0.3362 -0.3362
vn -0.3362 -0.8797 -0.3362
vn -0.0000 -0.9348 -0.3553
vn 0.3362 -0.8797 -0.3362
vn -0.3553 -0.9348 -0.0000
vn -0.0000 -1.0000 -0.0000
vn 0.3553 -0.9348 -0.0000
vn -0.3362 -0.8797 0.3362
vn -0.0000 -0.9348 0.3553
vn 0.3362 -0.8797 0.3362
vn 0.8797 -0.3362 -0.3362
vn 0.9348 -0.0000 -0.3553
vn 0.8797 0.3362 -0.3362
vn 0.9348 -0.3553 -0.0000
vn 1.0000 -0.0000 -0.0000
vn 0.9348 0.3553 -0.0000
vn 0.8797 -0.3362 0.3362
vn 0.9348 -0.0000 0.3553
vn 0.8797 0.3362 0.3362
vn -0.3362 -0.3362 -0.8797
vn -0.3553 -0.0000 -0.9348
vn -0.3362 0.3362 -0.8797
vn -0.0000 -0.3553 -0.9348
vn -0.0000 -0.0000 -1.0000
vn -0.0000 0.3553 -0.9348
vn 0.3362 -0.3362 -0.8797
vn 0.3553 -0.0000 -0.9348
vn 0.3362 0.3362 -0.8797
vt 0.233838 0.156548
vt 0.153712 0.153716
vt 0.197434 0.112521
vt 0.156545 0.233842
vt 0.194343 0.194346
vt 0.155292 0.070716
vt 0.070712 0.155297
vt 0.110999 0.111004
vt 0.301456 0.167388
vt 0.281739 0.121822
vt 0.266897 0.197198
vt 0.197195 0.266900
vt 0.231391 0.231394
vt 0.167386 0.301460
vt 0.121820 0.281743
vt 0.112518 0.197439
vt 0.027382 0.198225
vt 0.000221 0.157094
vt 0.025237 0.114624
vt 0.066005 0.066010
vt 0.114618 0.025242
vt 0.157088 0.000225
vt 0.198219 0.027385
vt 0.244509 0.070775
vt 0.769662 0.664030
vt 0.713437 0.720512
vt 0.713304 0.662219
vt 0.769919 0.776737
vt 0.771730 0.720379
vt 0.656955 0.664287
vt 0.657212 0.776994
vt 0.655144 0.720645
vt 0.815903 0.617577
vt 0.771630 0.607327
vt 0.826356 0.661803
vt 0.826622 0.778706
vt 0.831187 0.720244
vt 0.816371 0.822978
vt 0.772146 0.833431
vt 0.713570 0.778805
vt 0.655243 0.833698
vt 0.610970 0.823447
vt 0.600518 0.779222
vt 0.595686 0.720781
vt 0.600251 0.662318
vt 0.610502 0.618046
vt 0.654727 0.607593
vt 0.713168 0.602762
vt 0.155295 0.532206
vt 0.153713 0.449206
vt 0.197437 0.490399
vt 0.070713 0.447625
vt 0.111001 0.491919
vt 0.233840 0.446372
vt 0.156545 0.369079
vt 0.194344 0.408574
vt 0.157092 0.602698
vt 0.198223 0.575537
vt 0.114621 0.577681
vt 0.025238 0.488299
vt 0.066007 0.536913
vt 0.000221 0.445829
vt 0.027381 0.404697
vt 0.112519 0.405483
vt 0.121820 0.321177
vt 0.197196 0.336020
vt 0.231392 0.371526
vt 0.266899 0.405721
vt 0.301458 0.435530
vt 0.281742 0.481097
vt 0.244513 0.532145
vt 0.369077 0.446371
vt 0.449203 0.449203
vt 0.405481 0.490397
vt 0.446370 0.369077
vt 0.408572 0.408572
vt 0.447623 0.532203
vt 0.532203 0.447621
vt 0.491916 0.491915
vt 0.321176 0.481097
vt 0.336018 0.405721
vt 0.405719 0.336018
vt 0.371524 0.371525
vt 0.435528 0.301459
vt 0.481095 0.321175
vt 0.490397 0.405480
vt 0.575533 0.404694
vt 0.602694 0.445824
vt 0.577677 0.488295
vt 0.536910 0.536908
vt 0.488297 0.577677
vt 0.445826 0.602694
vt 0.404695 0.575534
vt 0.358405 0.532143
vt 0.446369 0.233840
vt 0.449202 0.153713
vt 0.490396 0.197436
vt 0.369075 0.156547
vt 0.408571 0.194345
vt 0.532202 0.155294
vt 0.447620 0.070713
vt 0.491914 0.111000
vt 0.481095 0.281741
vt 0.405719 0.266899
vt 0.336016 0.197197
vt 0.371523 0.231393
vt 0.321173 0.121821
vt 0.405478 0.112519
vt 0.404692 0.027382
vt 0.445823 0.000221
vt 0.488294 0.025238
vt 0.536908 0.066006
vt 0.577677 0.114619
vt 0.602694 0.157090
vt 0.575533 0.198221
vt 0.532142 0.244512
vt 0.301458 0.370535
vt 0.301457 0.301459
vt 0.336721 0.336722
vt 0.232381 0.301460
vt 0.266195 0.336723
vt 0.370533 0.301459
vt 0.301457 0.232383
vt 0.336720 0.266196
vt 0.266194 0.266197
vt 0.070773 0.244514
vt 0.713705 0.838263
vt 0.070772 0.358407
vt 0.532142 0.358404
vt 0.358402 0.070774
s 1
usemtl マテリアル
f 45/1/45 49/2/49 48/3/48
f 47/4/47 49/2/49 46/5/46
f 49/2/49 51/6/51 48/3/48
f 49/2/49 53/7/53 52/8/52
f 1/9/1 45/1/45 30/10/30
f 41/11/41 46/5/46 45/1/45
f 39/12/39 46/5/46 40/13/40
f 5/14/5 47/4/47 39/12/39
f 38/15/38 50/16/50 47/4/47
f 50/16/50 36/17/36 53/7/53
f 53/7/53 7/18/7 29/19/29
f 52/8/52 29/19/29 28/20/28
f 52/8/52 27/21/27 51/6/51
f 51/6/51 3/22/3 32/23/32
f 48/3/48 32/23/32 31/24/31
f 30/10/30 48/3/48 31/24/31
f 54/25/54 58/26/58 57/27/57
f 56/28/56 58/26/58 55/29/55
f 58/26/58 60/30/60 57/27/57
f 58/26/58 62/31/62 61/32/61
f 4/33/4 54/25/54 35/34/35
f 23/35/23 55/29/55 54/25/54
f 21/36/21 55/29/55 22/37/22
f 3/38/3 56/28/56 21/36/21
f 27/39/27 59/40/59 56/28/56
f 59/40/59 29/41/29 62/31/62
f 62/31/62 7/42/7 20/43/20
f 61/32/61 20/43/20 19/44/19
f 61/32/61 18/45/18 60/30/60
f 60/30/60 8/46/8 33/47/33
f 57/27/57 33/47/33 34/48/34
f 35/34/35 57/27/57 34/48/34
f 63/49/63 67/50/67 66/51/66
f 65/52/65 67/50/67 64/53/64
f 67/50/67 69/54/69 66/51/66
f 67/50/67 71/55/71 70/56/70
f 8/57/8 63/49/63 11/58/11
f 18/59/18 64/53/64 63/49/63
f 20/60/20 64/53/64 19/61/19
f 7/62/7 65/52/65 20/60/20
f 36/63/36 68/64/68 65/52/65
f 68/64/68 38/65/38 71/55/71
f 71/55/71 5/14/5 24/66/24
f 70/56/70 24/66/24 25/67/25
f 70/56/70 26/68/26 69/54/69
f 69/54/69 6/69/6 9/70/9
f 66/51/66 9/70/9 10/71/10
f 11/58/11 66/51/66 10/71/10
f 72/72/72 76/73/76 75/74/75
f 74/75/74 76/73/76 73/76/73
f 76/73/76 78/77/78 75/74/75
f 76/73/76 80/78/80 79/79/79
f 6/69/6 72/72/72 9/80/9
f 14/81/14 73/76/73 72/72/72
f 12/82/12 73/76/73 13/83/13
f 2/84/2 74/75/74 12/82/12
f 44/85/44 77/86/77 74/75/74
f 77/86/77 42/87/42 80/78/80
f 80/78/80 4/88/4 35/89/35
f 79/79/79 35/89/35 34/90/34
f 79/79/79 33/91/33 78/77/78
f 78/77/78 8/92/8 11/93/11
f 75/74/75 11/93/11 10/94/10
f 9/80/9 75/74/75 10/94/10
f 81/95/81 85/96/85 84/97/84
f 83/98/83 85/96/85 82/99/82
f 85/96/85 87/100/87 84/97/84
f 85/96/85 89/101/89 88/102/88
f 2/84/2 81/95/81 44/103/44
f 17/104/17 82/99/82 81/95/81
f 15/105/15 82/99/82 16/106/16
f 1/9/1 83/98/83 15/105/15
f 30/107/30 86/108/86 83/98/83
f 86/108/86 32/109/32 89/101/89
f 89/101/89 3/110/3 21/111/21
f 88/102/88 21/111/21 22/112/22
f 88/102/88 23/113/23 87/100/87
f 87/100/87 4/114/4 42/115/42
f 84/97/84 42/115/42 43/116/43
f 44/103/44 84/97/84 43/116/43
f 90/117/90 94/118/94 93/119/93
f 92/120/92 94/118/94 91/121/91
f 94/118/94 96/122/96 93/119/93
f 94/118/94 98/123/98 97/124/97
f 6/69/6 90/117/90 14/81/14
f 26/68/26 91/121/91 90/117/90
f 24/66/24 91/121/91 25/67/25
f 5/14/5 92/120/92 24/66/24
f 39/12/39 95/125/95 92/120/92
f 95/125/95 41/11/41 98/123/98
f 98/123/98 1/9/1 15/105/15
f 97/124/97 15/105/15 16/106/16
f 97/124/97 17/104/17 96/122/96
f 96/122/96 2/84/2 12/82/12
f 93/119/93 12/82/12 13/83/13
f 14/81/14 93/119/93 13/83/13
f 45/1/45 46/5/46 49/2/49
f 47/4/47 50/16/50 49/2/49
f 49/2/49 52/8/52 51/6/51
f 49/2/49 50/16/50 53/7/53
f 1/9/1 41/11/41 45/1/45
f 41/11/41 40/13/40 46/5/46
f 39/12/39 47/4/47 46/5/46
f 5/14/5 38/15/38 47/4/47
f 38/15/38 37/126/37 50/16/50
f 50/16/50 37/126/37 36/17/36
f 53/7/53 36/17/36 7/18/7
f 52/8/52 53/7/53 29/19/29
f 52/8/52 28/20/28 27/21/27
f 51/6/51 27/21/27 3/22/3
f 48/3/48 51/6/51 32/23/32
f 30/10/30 45/1/45 48/3/48
f 54/25/54 55/29/55 58/26/58
f 56/28/56 59/40/59 58/26/58
f 58/26/58 61/32/61 60/30/60
f 58/26/58 59/40/59 62/31/62
f 4/33/4 23/35/23 54/25/54
f 23/35/23 22/37/22 55/29/55
f 21/36/21 56/28/56 55/29/55
f 3/38/3 27/39/27 56/28/56
f 27/39/27 28/127/28 59/40/59
f 59/40/59 28/127/28 29/41/29
f 62/31/62 29/41/29 7/42/7
f 61/32/61 62/31/62 20/43/20
f 61/32/61 19/44/19 18/45/18
f 60/30/60 18/45/18 8/46/8
f 57/27/57 60/30/60 33/47/33
f 35/34/35 54/25/54 57/27/57
f 63/49/63 64/53/64 67/50/67
f 65/52/65 68/64/68 67/50/67
f 67/50/67 70/56/70 69/54/69
f 67/50/67 68/64/68 71/55/71
f 8/57/8 18/59/18 63/49/63
f 18/59/18 19/61/19 64/53/64
f 20/60/20 65/52/65 64/53/64
f 7/62/7 36/63/36 65/52/65
f 36/63/36 37/128/37 68/64/68
f 68/64/68 37/128/37 38/65/38
f 71/55/71 38/65/38 5/14/5
f 70/56/70 71/55/71 24/66/24
f 70/56/70 25/67/25 26/68/26
f 69/54/69 26/68/26 6/69/6
f 66/51/66 69/54/69 9/70/9
f 11/58/11 63/49/63 66/51/66
f 72/72/72 73/76/73 76/73/76
f 74/75/74 77/86/77 76/73/76
f 76/73/76 79/79/79 78/77/78
f 76/73/76 77/86/77 80/78/80
f 6/69/6 14/81/14 72/72/72
f 14/81/14 13/83/13 73/76/73
f 12/82/12 74/75/74 73/76/73
f 2/84/2 44/85/44 74/75/74
f 44/85/44 43/129/43 77/86/77
f 77/86/77 43/129/43 42/87/42
f 80/78/80 42/87/42 4/88/4
f 79/79/79 80/78/80 35/89/35
f 79/79/79 34/90/34 33/91/33
f 78/77/78 33/91/33 8/92/8
f 75/74/75 78/77/78 11/93/11
f 9/80/9 72/72/72 75/74/75
f 81/95/81 82/99/82 85/96/85
f 83/98/83 86/108/86 85/96/85
f 85/96/85 88/102/88 87/100/87
f 85/96/85 86/108/86 89/101/89
f 2/84/2 17/104/17 81/95/81
f 17/104/17 16/106/16 82/99/82
f 15/105/15 83/98/83 82/99/82
f 1/9/1 30/107/30 83/98/83
f 30/107/30 31/130/31 86/108/86
f 86/108/86 31/130/31 32/109/32
f 89/101/89 32/109/32 3/110/3
f 88/102/88 89/101/89 21/111/21
f 88/102/88 22/112/22 23/113/23
f 87/100/87 23/113/23 4/114/4
f 84/97/84 87/100/87 42/115/42
f 44/103/44 81/95/81 84/97/84
f 90/117/90 91/121/91 94/118/94
f 92/120/92 95/125/95 94/118/94
f 94/118/94 97/124/97 96/122/96
f 94/118/94 95/125/95 98/123/98
f 6/69/6 26/68/26 90/117/90
f 26/68/26 25/67/25 91/121/91
f 24/66/24 92/120/92 91/121/91
f 5/14/5 39/12/39 92/120/92
f 39/12/39 40/13/40 95/125/95
f 95/125/95 40/13/40 41/11/41
f 98/123/98 41/11/41 1/9/1
f 97/124/97 98/123/98 15/105/15
f 97/124/97 16/106/16 17/104/17
f 96/122/96 17/104/17 2/84/2
f 93/119/93 96/122/96 12/82/12
f 14/81/14 90/117/90 93/119/93
