# Blender 4.4.1
# www.blender.org
mtllib FireBall.mtl
o Cube
v 0.500000 0.500000 -0.500000
v 0.500000 -0.500000 -0.500000
v 0.500000 0.500000 0.500000
v 0.500000 -0.500000 0.500000
v -0.500000 0.500000 -0.500000
v -0.500000 -0.500000 -0.500000
v -0.500000 0.500000 0.500000
v -0.500000 -0.500000 0.500000
v -0.609568 -0.609568 -0.000000
v 0.000000 -0.609568 -0.609568
v 0.609568 0.000000 -0.609568
v -0.609568 -0.000000 0.609568
v 0.609568 0.000000 0.609568
v -0.609568 -0.000000 -0.609568
v -0.000000 0.609568 0.609568
v 0.609568 0.609568 0.000000
v -0.000000 -0.609568 0.609568
v -0.609568 0.609568 -0.000000
v 0.000000 0.609568 -0.609568
v 0.609568 -0.609568 0.000000
v -0.000000 0.839506 -0.000000
v 0.000000 0.000000 0.839506
v -0.839506 0.000000 -0.000000
v 0.000000 -0.839506 0.000000
v 0.839506 0.000000 -0.000000
v 0.000000 0.000000 -0.839506
vn 0.5774 0.5774 -0.5774
vn 0.5774 -0.5774 -0.5774
vn 0.5774 0.5774 0.5774
vn 0.5774 -0.5774 0.5774
vn -0.5774 0.5774 -0.5774
vn -0.5774 -0.5774 -0.5774
vn -0.5774 0.5774 0.5774
vn -0.5774 -0.5774 0.5774
vn -0.7071 -0.7071 -0.0000
vn -0.0000 -0.7071 -0.7071
vn 0.7071 -0.0000 -0.7071
vn -0.7071 -0.0000 0.7071
vn 0.7071 -0.0000 0.7071
vn -0.7071 -0.0000 -0.7071
vn -0.0000 0.7071 0.7071
vn 0.7071 0.7071 -0.0000
vn -0.0000 -0.7071 0.7071
vn -0.7071 0.7071 -0.0000
vn -0.0000 0.7071 -0.7071
vn 0.7071 -0.7071 -0.0000
vn -0.0000 1.0000 -0.0000
vn -0.0000 -0.0000 1.0000
vn -1.0000 -0.0000 -0.0000
vn -0.0000 -1.0000 -0.0000
vn 1.0000 -0.0000 -0.0000
vn -0.0000 -0.0000 -1.0000
vt 0.500000 0.500000
vt 0.624978 0.624978
vt 0.500000 0.624978
vt 0.749957 0.500000
vt 0.624978 0.500000
vt 0.749957 0.749957
vt 0.624978 0.749957
vt 0.500000 0.749957
vt 0.250043 0.749957
vt 0.375022 0.874935
vt 0.250043 0.874935
vt 0.375022 0.749957
vt 0.500000 0.999913
vt 0.375022 0.999913
vt 0.250043 0.999913
vt 0.250043 0.000087
vt 0.375022 0.125065
vt 0.250043 0.125065
vt 0.500000 0.000087
vt 0.375022 0.000087
vt 0.500000 0.250043
vt 0.375022 0.250043
vt 0.250043 0.250043
vt 0.000087 0.500000
vt 0.125065 0.624978
vt 0.000087 0.624978
vt 0.250043 0.500000
vt 0.125065 0.500000
vt 0.125065 0.749957
vt 0.000087 0.749957
vt 0.375022 0.624978
vt 0.250043 0.624978
vt 0.375022 0.500000
vt 0.375022 0.375022
vt 0.250043 0.375022
vt 0.749957 0.624978
vt 0.500000 0.874935
vt 0.500000 0.125065
vt 0.500000 0.375022
s 1
usemtl Material
f 1/1/1 21/2/21 16/3/16
f 5/4/5 21/2/21 19/5/19
f 21/2/21 7/6/7 15/7/15
f 21/2/21 3/8/3 16/3/16
f 4/9/4 22/10/22 17/11/17
f 3/8/3 22/10/22 13/12/13
f 22/10/22 7/13/7 12/14/12
f 22/10/22 8/15/8 17/11/17
f 8/16/8 23/17/23 9/18/9
f 7/19/7 23/17/23 12/20/12
f 23/17/23 5/21/5 14/22/14
f 23/17/23 6/23/6 9/18/9
f 6/24/6 24/25/24 9/26/9
f 2/27/2 24/25/24 10/28/10
f 24/25/24 4/9/4 17/29/17
f 24/25/24 8/30/8 9/26/9
f 2/27/2 25/31/25 20/32/20
f 1/1/1 25/31/25 11/33/11
f 25/31/25 3/8/3 13/12/13
f 25/31/25 4/9/4 20/32/20
f 6/23/6 26/34/26 10/35/10
f 5/21/5 26/34/26 14/22/14
f 26/34/26 1/1/1 11/33/11
f 26/34/26 2/27/2 10/35/10
f 1/1/1 19/5/19 21/2/21
f 5/4/5 18/36/18 21/2/21
f 21/2/21 18/36/18 7/6/7
f 21/2/21 15/7/15 3/8/3
f 4/9/4 13/12/13 22/10/22
f 3/8/3 15/37/15 22/10/22
f 22/10/22 15/37/15 7/13/7
f 22/10/22 12/14/12 8/15/8
f 8/16/8 12/20/12 23/17/23
f 7/19/7 18/38/18 23/17/23
f 23/17/23 18/38/18 5/21/5
f 23/17/23 14/22/14 6/23/6
f 6/24/6 10/28/10 24/25/24
f 2/27/2 20/32/20 24/25/24
f 24/25/24 20/32/20 4/9/4
f 24/25/24 17/29/17 8/30/8
f 2/27/2 11/33/11 25/31/25
f 1/1/1 16/3/16 25/31/25
f 25/31/25 16/3/16 3/8/3
f 25/31/25 13/12/13 4/9/4
f 6/23/6 14/22/14 26/34/26
f 5/21/5 19/39/19 26/34/26
f 26/34/26 19/39/19 1/1/1
f 26/34/26 11/33/11 2/27/2
